<?xml version="1.0" encoding="utf-8" standalone="no"?>
<!DOCTYPE svg PUBLIC "-//W3C//DTD SVG 1.1//EN"
  "http://www.w3.org/Graphics/SVG/1.1/DTD/svg11.dtd">
<svg height="987.28pt" version="1.1" viewBox="0 0 1437.104032 987.28" width="1437.104032pt" xmlns="http://www.w3.org/2000/svg" xmlns:xlink="http://www.w3.org/1999/xlink">
 <metadata>
  <rdf:RDF xmlns:cc="http://creativecommons.org/ns#" xmlns:dc="http://purl.org/dc/elements/1.1/" xmlns:rdf="http://www.w3.org/1999/02/22-rdf-syntax-ns#">
   <cc:Work>
    <dc:type rdf:resource="http://purl.org/dc/dcmitype/StillImage"/>
    <dc:date>2021-06-09T11:13:30.041733</dc:date>
    <dc:format>image/svg+xml</dc:format>
    <dc:creator>
     <cc:Agent>
      <dc:title>Matplotlib v3.4.2, https://matplotlib.org/</dc:title>
     </cc:Agent>
    </dc:creator>
   </cc:Work>
  </rdf:RDF>
 </metadata>
 <defs>
  <style type="text/css">*{stroke-linecap:butt;stroke-linejoin:round;}</style>
 </defs>
 <g id="figure_1">
  <g id="patch_1">
   <path d="M 0 987.28 
L 1437.104032 987.28 
L 1437.104032 0 
L 0 0 
z
" style="fill:#ffffff;"/>
  </g>
  <g id="axes_1">
   <g id="patch_2">
    <path clip-path="url(#p64b63899b2)" d="M 432.739 927.754378 
L 448.048561 927.754378 
L 440.39378 938.794927 
z
" style="fill:#778899;"/>
   </g>
   <g id="patch_3">
    <path clip-path="url(#p64b63899b2)" d="M 609.38778 927.754378 
L 624.697341 927.754378 
L 617.042561 938.794927 
z
" style="fill:#778899;"/>
   </g>
   <g id="patch_4">
    <path clip-path="url(#p64b63899b2)" d="M 786.036561 927.754378 
L 801.346122 927.754378 
L 793.691341 938.794927 
z
" style="fill:#778899;"/>
   </g>
   <g id="patch_5">
    <path clip-path="url(#p64b63899b2)" d="M 962.685341 927.754378 
L 977.994902 927.754378 
L 970.340122 938.794927 
z
" style="fill:#778899;"/>
   </g>
   <g id="patch_6">
    <path clip-path="url(#p64b63899b2)" d="M 1139.334122 927.754378 
L 1154.643683 927.754378 
L 1146.988902 938.794927 
z
" style="fill:#778899;"/>
   </g>
   <g id="patch_7">
    <path clip-path="url(#p64b63899b2)" d="M 1315.982902 927.754378 
L 1331.292463 927.754378 
L 1323.637683 938.794927 
z
" style="fill:#778899;"/>
   </g>
   <g id="patch_8">
    <path clip-path="url(#p64b63899b2)" d="M 1374.865829 927.754378 
L 1390.17539 927.754378 
L 1382.52061 938.794927 
z
" style="fill:#778899;"/>
   </g>
   <g id="line2d_1">
    <path clip-path="url(#p64b63899b2)" d="M 114.182366 57.906341 
L 1415.495049 57.906341 
" style="fill:none;stroke:#000000;stroke-linecap:square;stroke-width:2;"/>
   </g>
   <g id="line2d_2">
    <path clip-path="url(#p64b63899b2)" d="M 114.182366 116.789268 
L 1415.495049 116.789268 
" style="fill:none;stroke:#000000;stroke-linecap:square;stroke-width:2;"/>
   </g>
   <g id="line2d_3">
    <path clip-path="url(#p64b63899b2)" d="M 114.182366 175.672195 
L 1415.495049 175.672195 
" style="fill:none;stroke:#000000;stroke-linecap:square;stroke-width:2;"/>
   </g>
   <g id="line2d_4">
    <path clip-path="url(#p64b63899b2)" d="M 114.182366 234.555122 
L 1415.495049 234.555122 
" style="fill:none;stroke:#000000;stroke-linecap:square;stroke-width:2;"/>
   </g>
   <g id="line2d_5">
    <path clip-path="url(#p64b63899b2)" d="M 114.182366 293.438049 
L 1415.495049 293.438049 
" style="fill:none;stroke:#000000;stroke-linecap:square;stroke-width:2;"/>
   </g>
   <g id="line2d_6">
    <path clip-path="url(#p64b63899b2)" d="M 114.182366 352.320976 
L 1415.495049 352.320976 
" style="fill:none;stroke:#000000;stroke-linecap:square;stroke-width:2;"/>
   </g>
   <g id="line2d_7">
    <path clip-path="url(#p64b63899b2)" d="M 114.182366 411.203902 
L 1415.495049 411.203902 
" style="fill:none;stroke:#000000;stroke-linecap:square;stroke-width:2;"/>
   </g>
   <g id="line2d_8">
    <path clip-path="url(#p64b63899b2)" d="M 114.182366 470.086829 
L 1415.495049 470.086829 
" style="fill:none;stroke:#000000;stroke-linecap:square;stroke-width:2;"/>
   </g>
   <g id="line2d_9">
    <path clip-path="url(#p64b63899b2)" d="M 114.182366 528.969756 
L 1415.495049 528.969756 
" style="fill:none;stroke:#000000;stroke-linecap:square;stroke-width:2;"/>
   </g>
   <g id="line2d_10">
    <path clip-path="url(#p64b63899b2)" d="M 114.182366 587.852683 
L 1415.495049 587.852683 
" style="fill:none;stroke:#000000;stroke-linecap:square;stroke-width:2;"/>
   </g>
   <g id="line2d_11">
    <path clip-path="url(#p64b63899b2)" d="M 114.182366 646.73561 
L 1415.495049 646.73561 
" style="fill:none;stroke:#000000;stroke-linecap:square;stroke-width:2;"/>
   </g>
   <g id="line2d_12">
    <path clip-path="url(#p64b63899b2)" d="M 114.182366 705.618537 
L 1415.495049 705.618537 
" style="fill:none;stroke:#000000;stroke-linecap:square;stroke-width:2;"/>
   </g>
   <g id="line2d_13">
    <path clip-path="url(#p64b63899b2)" d="M 114.182366 764.501463 
L 1415.495049 764.501463 
" style="fill:none;stroke:#000000;stroke-linecap:square;stroke-width:2;"/>
   </g>
   <g id="line2d_14">
    <path clip-path="url(#p64b63899b2)" d="M 114.182366 823.38439 
L 1415.495049 823.38439 
" style="fill:none;stroke:#000000;stroke-linecap:square;stroke-width:2;"/>
   </g>
   <g id="line2d_15">
    <path clip-path="url(#p64b63899b2)" d="M 114.182366 882.267317 
L 1415.495049 882.267317 
" style="fill:none;stroke:#000000;stroke-linecap:square;stroke-width:2;"/>
   </g>
   <g id="line2d_16">
    <path clip-path="url(#p64b63899b2)" d="M 114.182366 939.236549 
L 1415.495049 939.236549 
" style="fill:none;stroke:#778899;stroke-linecap:square;stroke-width:2;"/>
   </g>
   <g id="line2d_17">
    <path clip-path="url(#p64b63899b2)" d="M 114.182366 943.063939 
L 1415.495049 943.063939 
" style="fill:none;stroke:#778899;stroke-linecap:square;stroke-width:2;"/>
   </g>
   <g id="line2d_18">
    <path clip-path="url(#p64b63899b2)" d="M 263.745 175.672195 
L 263.745 116.789268 
" style="fill:none;stroke:#bb8bff;stroke-linecap:square;stroke-width:2;"/>
   </g>
   <g id="line2d_19">
    <path clip-path="url(#p64b63899b2)" d="M 263.745 587.852683 
L 263.745 528.969756 
" style="fill:none;stroke:#bb8bff;stroke-linecap:square;stroke-width:2;"/>
   </g>
   <g id="line2d_20">
    <path clip-path="url(#p64b63899b2)" d="M 381.510853 528.969756 
L 381.510853 57.906341 
" style="fill:none;stroke:#bb8bff;stroke-linecap:square;stroke-width:2;"/>
   </g>
   <g id="line2d_21">
    <path clip-path="url(#p64b63899b2)" d="M 381.510853 646.73561 
L 381.510853 587.852683 
" style="fill:none;stroke:#bb8bff;stroke-linecap:square;stroke-width:2;"/>
   </g>
   <g id="line2d_22">
    <path clip-path="url(#p64b63899b2)" d="M 440.39378 234.555122 
L 440.39378 175.672195 
" style="fill:none;stroke:#bb8bff;stroke-linecap:square;stroke-width:2;"/>
   </g>
   <g id="line2d_23">
    <path clip-path="url(#p64b63899b2)" d="M 442.307475 528.969756 
L 442.307475 927.754378 
" style="fill:none;stroke:#778899;stroke-linecap:square;stroke-width:2;"/>
   </g>
   <g id="line2d_24">
    <path clip-path="url(#p64b63899b2)" d="M 438.480085 528.969756 
L 438.480085 927.754378 
" style="fill:none;stroke:#778899;stroke-linecap:square;stroke-width:2;"/>
   </g>
   <g id="line2d_25">
    <path clip-path="url(#p64b63899b2)" d="M 558.159634 587.852683 
L 558.159634 57.906341 
" style="fill:none;stroke:#bb8bff;stroke-linecap:square;stroke-width:2;"/>
   </g>
   <g id="line2d_26">
    <path clip-path="url(#p64b63899b2)" d="M 558.159634 705.618537 
L 558.159634 646.73561 
" style="fill:none;stroke:#bb8bff;stroke-linecap:square;stroke-width:2;"/>
   </g>
   <g id="line2d_27">
    <path clip-path="url(#p64b63899b2)" d="M 617.042561 293.438049 
L 617.042561 234.555122 
" style="fill:none;stroke:#bb8bff;stroke-linecap:square;stroke-width:2;"/>
   </g>
   <g id="line2d_28">
    <path clip-path="url(#p64b63899b2)" d="M 618.956256 587.852683 
L 618.956256 927.754378 
" style="fill:none;stroke:#778899;stroke-linecap:square;stroke-width:2;"/>
   </g>
   <g id="line2d_29">
    <path clip-path="url(#p64b63899b2)" d="M 615.128866 587.852683 
L 615.128866 927.754378 
" style="fill:none;stroke:#778899;stroke-linecap:square;stroke-width:2;"/>
   </g>
   <g id="line2d_30">
    <path clip-path="url(#p64b63899b2)" d="M 734.808414 646.73561 
L 734.808414 57.906341 
" style="fill:none;stroke:#bb8bff;stroke-linecap:square;stroke-width:2;"/>
   </g>
   <g id="line2d_31">
    <path clip-path="url(#p64b63899b2)" d="M 734.808414 764.501463 
L 734.808414 705.618537 
" style="fill:none;stroke:#bb8bff;stroke-linecap:square;stroke-width:2;"/>
   </g>
   <g id="line2d_32">
    <path clip-path="url(#p64b63899b2)" d="M 793.691341 352.320976 
L 793.691341 293.438049 
" style="fill:none;stroke:#bb8bff;stroke-linecap:square;stroke-width:2;"/>
   </g>
   <g id="line2d_33">
    <path clip-path="url(#p64b63899b2)" d="M 795.605036 646.73561 
L 795.605036 927.754378 
" style="fill:none;stroke:#778899;stroke-linecap:square;stroke-width:2;"/>
   </g>
   <g id="line2d_34">
    <path clip-path="url(#p64b63899b2)" d="M 791.777646 646.73561 
L 791.777646 927.754378 
" style="fill:none;stroke:#778899;stroke-linecap:square;stroke-width:2;"/>
   </g>
   <g id="line2d_35">
    <path clip-path="url(#p64b63899b2)" d="M 911.457195 705.618537 
L 911.457195 57.906341 
" style="fill:none;stroke:#bb8bff;stroke-linecap:square;stroke-width:2;"/>
   </g>
   <g id="line2d_36">
    <path clip-path="url(#p64b63899b2)" d="M 911.457195 823.38439 
L 911.457195 764.501463 
" style="fill:none;stroke:#bb8bff;stroke-linecap:square;stroke-width:2;"/>
   </g>
   <g id="line2d_37">
    <path clip-path="url(#p64b63899b2)" d="M 970.340122 411.203902 
L 970.340122 352.320976 
" style="fill:none;stroke:#bb8bff;stroke-linecap:square;stroke-width:2;"/>
   </g>
   <g id="line2d_38">
    <path clip-path="url(#p64b63899b2)" d="M 972.253817 705.618537 
L 972.253817 927.754378 
" style="fill:none;stroke:#778899;stroke-linecap:square;stroke-width:2;"/>
   </g>
   <g id="line2d_39">
    <path clip-path="url(#p64b63899b2)" d="M 968.426427 705.618537 
L 968.426427 927.754378 
" style="fill:none;stroke:#778899;stroke-linecap:square;stroke-width:2;"/>
   </g>
   <g id="line2d_40">
    <path clip-path="url(#p64b63899b2)" d="M 1088.105975 764.501463 
L 1088.105975 57.906341 
" style="fill:none;stroke:#bb8bff;stroke-linecap:square;stroke-width:2;"/>
   </g>
   <g id="line2d_41">
    <path clip-path="url(#p64b63899b2)" d="M 1088.105975 882.267317 
L 1088.105975 823.38439 
" style="fill:none;stroke:#bb8bff;stroke-linecap:square;stroke-width:2;"/>
   </g>
   <g id="line2d_42">
    <path clip-path="url(#p64b63899b2)" d="M 1146.988902 470.086829 
L 1146.988902 411.203902 
" style="fill:none;stroke:#bb8bff;stroke-linecap:square;stroke-width:2;"/>
   </g>
   <g id="line2d_43">
    <path clip-path="url(#p64b63899b2)" d="M 1148.902597 764.501463 
L 1148.902597 927.754378 
" style="fill:none;stroke:#778899;stroke-linecap:square;stroke-width:2;"/>
   </g>
   <g id="line2d_44">
    <path clip-path="url(#p64b63899b2)" d="M 1145.075207 764.501463 
L 1145.075207 927.754378 
" style="fill:none;stroke:#778899;stroke-linecap:square;stroke-width:2;"/>
   </g>
   <g id="line2d_45">
    <path clip-path="url(#p64b63899b2)" d="M 1205.871829 823.38439 
L 1205.871829 57.906341 
" style="fill:none;stroke:#bb8bff;stroke-linecap:square;stroke-width:2;"/>
   </g>
   <g id="line2d_46">
    <path clip-path="url(#p64b63899b2)" d="M 1264.754756 882.267317 
L 1264.754756 57.906341 
" style="fill:none;stroke:#bb8bff;stroke-linecap:square;stroke-width:2;"/>
   </g>
   <g id="line2d_47">
    <path clip-path="url(#p64b63899b2)" d="M 1325.551378 823.38439 
L 1325.551378 927.754378 
" style="fill:none;stroke:#778899;stroke-linecap:square;stroke-width:2;"/>
   </g>
   <g id="line2d_48">
    <path clip-path="url(#p64b63899b2)" d="M 1321.723988 823.38439 
L 1321.723988 927.754378 
" style="fill:none;stroke:#778899;stroke-linecap:square;stroke-width:2;"/>
   </g>
   <g id="line2d_49">
    <path clip-path="url(#p64b63899b2)" d="M 1384.434305 882.267317 
L 1384.434305 927.754378 
" style="fill:none;stroke:#778899;stroke-linecap:square;stroke-width:2;"/>
   </g>
   <g id="line2d_50">
    <path clip-path="url(#p64b63899b2)" d="M 1380.606914 882.267317 
L 1380.606914 927.754378 
" style="fill:none;stroke:#778899;stroke-linecap:square;stroke-width:2;"/>
   </g>
   <g id="line2d_51">
    <path clip-path="url(#p64b63899b2)" d="M 125.958951 947.038537 
L 131.847244 935.261951 
" style="fill:none;stroke:#778899;stroke-linecap:square;stroke-width:1.5;"/>
   </g>
   <g id="line2d_52">
    <path clip-path="url(#p64b63899b2)" d="M 373.856073 124.444049 
L 389.165634 109.134488 
" style="fill:none;stroke:#bb8bff;stroke-linecap:square;stroke-width:2;"/>
   </g>
   <g id="line2d_53">
    <path clip-path="url(#p64b63899b2)" d="M 373.856073 109.134488 
L 389.165634 124.444049 
" style="fill:none;stroke:#bb8bff;stroke-linecap:square;stroke-width:2;"/>
   </g>
   <g id="line2d_54">
    <path clip-path="url(#p64b63899b2)" d="M 373.856073 536.624537 
L 389.165634 521.314976 
" style="fill:none;stroke:#bb8bff;stroke-linecap:square;stroke-width:2;"/>
   </g>
   <g id="line2d_55">
    <path clip-path="url(#p64b63899b2)" d="M 373.856073 521.314976 
L 389.165634 536.624537 
" style="fill:none;stroke:#bb8bff;stroke-linecap:square;stroke-width:2;"/>
   </g>
   <g id="line2d_56">
    <path clip-path="url(#p64b63899b2)" d="M 550.504853 183.326976 
L 565.814414 168.017415 
" style="fill:none;stroke:#bb8bff;stroke-linecap:square;stroke-width:2;"/>
   </g>
   <g id="line2d_57">
    <path clip-path="url(#p64b63899b2)" d="M 550.504853 168.017415 
L 565.814414 183.326976 
" style="fill:none;stroke:#bb8bff;stroke-linecap:square;stroke-width:2;"/>
   </g>
   <g id="line2d_58">
    <path clip-path="url(#p64b63899b2)" d="M 550.504853 595.507463 
L 565.814414 580.197902 
" style="fill:none;stroke:#bb8bff;stroke-linecap:square;stroke-width:2;"/>
   </g>
   <g id="line2d_59">
    <path clip-path="url(#p64b63899b2)" d="M 550.504853 580.197902 
L 565.814414 595.507463 
" style="fill:none;stroke:#bb8bff;stroke-linecap:square;stroke-width:2;"/>
   </g>
   <g id="line2d_60">
    <path clip-path="url(#p64b63899b2)" d="M 727.153634 242.209902 
L 742.463195 226.900341 
" style="fill:none;stroke:#bb8bff;stroke-linecap:square;stroke-width:2;"/>
   </g>
   <g id="line2d_61">
    <path clip-path="url(#p64b63899b2)" d="M 727.153634 226.900341 
L 742.463195 242.209902 
" style="fill:none;stroke:#bb8bff;stroke-linecap:square;stroke-width:2;"/>
   </g>
   <g id="line2d_62">
    <path clip-path="url(#p64b63899b2)" d="M 727.153634 654.39039 
L 742.463195 639.080829 
" style="fill:none;stroke:#bb8bff;stroke-linecap:square;stroke-width:2;"/>
   </g>
   <g id="line2d_63">
    <path clip-path="url(#p64b63899b2)" d="M 727.153634 639.080829 
L 742.463195 654.39039 
" style="fill:none;stroke:#bb8bff;stroke-linecap:square;stroke-width:2;"/>
   </g>
   <g id="line2d_64">
    <path clip-path="url(#p64b63899b2)" d="M 903.802414 301.092829 
L 919.111975 285.783268 
" style="fill:none;stroke:#bb8bff;stroke-linecap:square;stroke-width:2;"/>
   </g>
   <g id="line2d_65">
    <path clip-path="url(#p64b63899b2)" d="M 903.802414 285.783268 
L 919.111975 301.092829 
" style="fill:none;stroke:#bb8bff;stroke-linecap:square;stroke-width:2;"/>
   </g>
   <g id="line2d_66">
    <path clip-path="url(#p64b63899b2)" d="M 903.802414 713.273317 
L 919.111975 697.963756 
" style="fill:none;stroke:#bb8bff;stroke-linecap:square;stroke-width:2;"/>
   </g>
   <g id="line2d_67">
    <path clip-path="url(#p64b63899b2)" d="M 903.802414 697.963756 
L 919.111975 713.273317 
" style="fill:none;stroke:#bb8bff;stroke-linecap:square;stroke-width:2;"/>
   </g>
   <g id="line2d_68">
    <path clip-path="url(#p64b63899b2)" d="M 1080.451195 359.975756 
L 1095.760756 344.666195 
" style="fill:none;stroke:#bb8bff;stroke-linecap:square;stroke-width:2;"/>
   </g>
   <g id="line2d_69">
    <path clip-path="url(#p64b63899b2)" d="M 1080.451195 344.666195 
L 1095.760756 359.975756 
" style="fill:none;stroke:#bb8bff;stroke-linecap:square;stroke-width:2;"/>
   </g>
   <g id="line2d_70">
    <path clip-path="url(#p64b63899b2)" d="M 1080.451195 772.156244 
L 1095.760756 756.846683 
" style="fill:none;stroke:#bb8bff;stroke-linecap:square;stroke-width:2;"/>
   </g>
   <g id="line2d_71">
    <path clip-path="url(#p64b63899b2)" d="M 1080.451195 756.846683 
L 1095.760756 772.156244 
" style="fill:none;stroke:#bb8bff;stroke-linecap:square;stroke-width:2;"/>
   </g>
   <g id="line2d_72">
    <path clip-path="url(#p64b63899b2)" d="M 1198.217049 418.858683 
L 1213.52661 403.549122 
" style="fill:none;stroke:#bb8bff;stroke-linecap:square;stroke-width:2;"/>
   </g>
   <g id="line2d_73">
    <path clip-path="url(#p64b63899b2)" d="M 1198.217049 403.549122 
L 1213.52661 418.858683 
" style="fill:none;stroke:#bb8bff;stroke-linecap:square;stroke-width:2;"/>
   </g>
   <g id="line2d_74">
    <path clip-path="url(#p64b63899b2)" d="M 1198.217049 831.039171 
L 1213.52661 815.72961 
" style="fill:none;stroke:#bb8bff;stroke-linecap:square;stroke-width:2;"/>
   </g>
   <g id="line2d_75">
    <path clip-path="url(#p64b63899b2)" d="M 1198.217049 815.72961 
L 1213.52661 831.039171 
" style="fill:none;stroke:#bb8bff;stroke-linecap:square;stroke-width:2;"/>
   </g>
   <g id="line2d_76">
    <path clip-path="url(#p64b63899b2)" d="M 1257.099975 477.74161 
L 1272.409536 462.432049 
" style="fill:none;stroke:#bb8bff;stroke-linecap:square;stroke-width:2;"/>
   </g>
   <g id="line2d_77">
    <path clip-path="url(#p64b63899b2)" d="M 1257.099975 462.432049 
L 1272.409536 477.74161 
" style="fill:none;stroke:#bb8bff;stroke-linecap:square;stroke-width:2;"/>
   </g>
   <g id="line2d_78">
    <path clip-path="url(#p64b63899b2)" d="M 1257.099975 889.922098 
L 1272.409536 874.612537 
" style="fill:none;stroke:#bb8bff;stroke-linecap:square;stroke-width:2;"/>
   </g>
   <g id="line2d_79">
    <path clip-path="url(#p64b63899b2)" d="M 1257.099975 874.612537 
L 1272.409536 889.922098 
" style="fill:none;stroke:#bb8bff;stroke-linecap:square;stroke-width:2;"/>
   </g>
   <g id="patch_9">
    <path clip-path="url(#p64b63899b2)" d="M 126.842195 135.92622 
L 165.116097 135.92622 
L 165.116097 97.652317 
L 126.842195 97.652317 
z
" style="fill:#bb8bff;stroke:#bb8bff;stroke-linejoin:miter;stroke-width:1.5;"/>
   </g>
   <g id="patch_10">
    <path clip-path="url(#p64b63899b2)" d="M 126.842195 194.809146 
L 165.116097 194.809146 
L 165.116097 156.535244 
L 126.842195 156.535244 
z
" style="fill:#bb8bff;stroke:#bb8bff;stroke-linejoin:miter;stroke-width:1.5;"/>
   </g>
   <g id="patch_11">
    <path clip-path="url(#p64b63899b2)" d="M 126.842195 253.692073 
L 165.116097 253.692073 
L 165.116097 215.418171 
L 126.842195 215.418171 
z
" style="fill:#bb8bff;stroke:#bb8bff;stroke-linejoin:miter;stroke-width:1.5;"/>
   </g>
   <g id="patch_12">
    <path clip-path="url(#p64b63899b2)" d="M 126.842195 312.575 
L 165.116097 312.575 
L 165.116097 274.301098 
L 126.842195 274.301098 
z
" style="fill:#bb8bff;stroke:#bb8bff;stroke-linejoin:miter;stroke-width:1.5;"/>
   </g>
   <g id="patch_13">
    <path clip-path="url(#p64b63899b2)" d="M 126.842195 371.457927 
L 165.116097 371.457927 
L 165.116097 333.184024 
L 126.842195 333.184024 
z
" style="fill:#bb8bff;stroke:#bb8bff;stroke-linejoin:miter;stroke-width:1.5;"/>
   </g>
   <g id="patch_14">
    <path clip-path="url(#p64b63899b2)" d="M 126.842195 430.340854 
L 165.116097 430.340854 
L 165.116097 392.066951 
L 126.842195 392.066951 
z
" style="fill:#bb8bff;stroke:#bb8bff;stroke-linejoin:miter;stroke-width:1.5;"/>
   </g>
   <g id="patch_15">
    <path clip-path="url(#p64b63899b2)" d="M 126.842195 489.22378 
L 165.116097 489.22378 
L 165.116097 450.949878 
L 126.842195 450.949878 
z
" style="fill:#bb8bff;stroke:#bb8bff;stroke-linejoin:miter;stroke-width:1.5;"/>
   </g>
   <g id="patch_16">
    <path clip-path="url(#p64b63899b2)" d="M 126.842195 548.106707 
L 165.116097 548.106707 
L 165.116097 509.832805 
L 126.842195 509.832805 
z
" style="fill:#bb8bff;stroke:#bb8bff;stroke-linejoin:miter;stroke-width:1.5;"/>
   </g>
   <g id="patch_17">
    <path clip-path="url(#p64b63899b2)" d="M 126.842195 606.989634 
L 165.116097 606.989634 
L 165.116097 568.715732 
L 126.842195 568.715732 
z
" style="fill:#bb8bff;stroke:#bb8bff;stroke-linejoin:miter;stroke-width:1.5;"/>
   </g>
   <g id="patch_18">
    <path clip-path="url(#p64b63899b2)" d="M 126.842195 665.872561 
L 165.116097 665.872561 
L 165.116097 627.598659 
L 126.842195 627.598659 
z
" style="fill:#bb8bff;stroke:#bb8bff;stroke-linejoin:miter;stroke-width:1.5;"/>
   </g>
   <g id="patch_19">
    <path clip-path="url(#p64b63899b2)" d="M 126.842195 724.755488 
L 165.116097 724.755488 
L 165.116097 686.481585 
L 126.842195 686.481585 
z
" style="fill:#bb8bff;stroke:#bb8bff;stroke-linejoin:miter;stroke-width:1.5;"/>
   </g>
   <g id="patch_20">
    <path clip-path="url(#p64b63899b2)" d="M 126.842195 783.638415 
L 165.116097 783.638415 
L 165.116097 745.364512 
L 126.842195 745.364512 
z
" style="fill:#bb8bff;stroke:#bb8bff;stroke-linejoin:miter;stroke-width:1.5;"/>
   </g>
   <g id="patch_21">
    <path clip-path="url(#p64b63899b2)" d="M 126.842195 842.521341 
L 165.116097 842.521341 
L 165.116097 804.247439 
L 126.842195 804.247439 
z
" style="fill:#bb8bff;stroke:#bb8bff;stroke-linejoin:miter;stroke-width:1.5;"/>
   </g>
   <g id="patch_22">
    <path clip-path="url(#p64b63899b2)" d="M 126.842195 901.404268 
L 165.116097 901.404268 
L 165.116097 863.130366 
L 126.842195 863.130366 
z
" style="fill:#bb8bff;stroke:#bb8bff;stroke-linejoin:miter;stroke-width:1.5;"/>
   </g>
   <g id="patch_23">
    <path clip-path="url(#p64b63899b2)" d="M 126.842195 77.043293 
L 165.116097 77.043293 
L 165.116097 38.76939 
L 126.842195 38.76939 
z
" style="fill:#6fa4ff;stroke:#6fa4ff;stroke-linejoin:miter;stroke-width:1.5;"/>
   </g>
   <g id="patch_24">
    <path clip-path="url(#p64b63899b2)" d="M 181.753468 194.809146 
L 227.970678 194.809146 
L 227.970678 97.652317 
L 181.753468 97.652317 
z
" style="fill:#bb8bff;stroke:#bb8bff;stroke-linejoin:miter;stroke-width:1.5;"/>
   </g>
   <g id="patch_25">
    <path clip-path="url(#p64b63899b2)" d="M 181.753468 606.989634 
L 227.970678 606.989634 
L 227.970678 509.832805 
L 181.753468 509.832805 
z
" style="fill:#bb8bff;stroke:#bb8bff;stroke-linejoin:miter;stroke-width:1.5;"/>
   </g>
   <g id="patch_26">
    <path clip-path="url(#p64b63899b2)" d="M 263.745 122.530354 
C 265.267553 122.530354 266.727952 121.925437 267.80456 120.848829 
C 268.881168 119.772221 269.486085 118.311822 269.486085 116.789268 
C 269.486085 115.266715 268.881168 113.806316 267.80456 112.729708 
C 266.727952 111.6531 265.267553 111.048183 263.745 111.048183 
C 262.222446 111.048183 260.762047 111.6531 259.685439 112.729708 
C 258.608831 113.806316 258.003914 115.266715 258.003914 116.789268 
C 258.003914 118.311822 258.608831 119.772221 259.685439 120.848829 
C 260.762047 121.925437 262.222446 122.530354 263.745 122.530354 
z
" style="fill:#bb8bff;stroke:#bb8bff;stroke-linejoin:miter;stroke-width:1.5;"/>
   </g>
   <g id="patch_27">
    <path clip-path="url(#p64b63899b2)" d="M 244.608049 194.809146 
L 282.881951 194.809146 
L 282.881951 156.535244 
L 244.608049 156.535244 
z
" style="fill:#bb8bff;stroke:#bb8bff;stroke-linejoin:miter;stroke-width:1.5;"/>
   </g>
   <g id="patch_28">
    <path clip-path="url(#p64b63899b2)" d="M 263.745 534.710841 
C 265.267553 534.710841 266.727952 534.105924 267.80456 533.029316 
C 268.881168 531.952708 269.486085 530.49231 269.486085 528.969756 
C 269.486085 527.447202 268.881168 525.986804 267.80456 524.910196 
C 266.727952 523.833588 265.267553 523.228671 263.745 523.228671 
C 262.222446 523.228671 260.762047 523.833588 259.685439 524.910196 
C 258.608831 525.986804 258.003914 527.447202 258.003914 528.969756 
C 258.003914 530.49231 258.608831 531.952708 259.685439 533.029316 
C 260.762047 534.105924 262.222446 534.710841 263.745 534.710841 
z
" style="fill:#bb8bff;stroke:#bb8bff;stroke-linejoin:miter;stroke-width:1.5;"/>
   </g>
   <g id="patch_29">
    <path clip-path="url(#p64b63899b2)" d="M 244.608049 606.989634 
L 282.881951 606.989634 
L 282.881951 568.715732 
L 244.608049 568.715732 
z
" style="fill:#bb8bff;stroke:#bb8bff;stroke-linejoin:miter;stroke-width:1.5;"/>
   </g>
   <g id="patch_30">
    <path clip-path="url(#p64b63899b2)" d="M 299.519322 253.692073 
L 345.736531 253.692073 
L 345.736531 156.535244 
L 299.519322 156.535244 
z
" style="fill:#bb8bff;stroke:#bb8bff;stroke-linejoin:miter;stroke-width:1.5;"/>
   </g>
   <g id="patch_31">
    <path clip-path="url(#p64b63899b2)" d="M 299.519322 665.872561 
L 345.736531 665.872561 
L 345.736531 568.715732 
L 299.519322 568.715732 
z
" style="fill:#bb8bff;stroke:#bb8bff;stroke-linejoin:miter;stroke-width:1.5;"/>
   </g>
   <g id="patch_32">
    <path clip-path="url(#p64b63899b2)" d="M 381.510853 63.647427 
C 383.033407 63.647427 384.493806 63.04251 385.570414 61.965902 
C 386.647022 60.889294 387.251939 59.428895 387.251939 57.906341 
C 387.251939 56.383788 386.647022 54.923389 385.570414 53.846781 
C 384.493806 52.770173 383.033407 52.165256 381.510853 52.165256 
C 379.9883 52.165256 378.527901 52.770173 377.451293 53.846781 
C 376.374685 54.923389 375.769768 56.383788 375.769768 57.906341 
C 375.769768 59.428895 376.374685 60.889294 377.451293 61.965902 
C 378.527901 63.04251 379.9883 63.647427 381.510853 63.647427 
z
" style="fill:#bb8bff;stroke:#bb8bff;stroke-linejoin:miter;stroke-width:1.5;"/>
   </g>
   <g id="patch_33">
    <path clip-path="url(#p64b63899b2)" d="M 381.510853 593.593768 
C 383.033407 593.593768 384.493806 592.988851 385.570414 591.912243 
C 386.647022 590.835635 387.251939 589.375237 387.251939 587.852683 
C 387.251939 586.330129 386.647022 584.869731 385.570414 583.793123 
C 384.493806 582.716515 383.033407 582.111598 381.510853 582.111598 
C 379.9883 582.111598 378.527901 582.716515 377.451293 583.793123 
C 376.374685 584.869731 375.769768 586.330129 375.769768 587.852683 
C 375.769768 589.375237 376.374685 590.835635 377.451293 591.912243 
C 378.527901 592.988851 379.9883 593.593768 381.510853 593.593768 
z
" style="fill:#bb8bff;stroke:#bb8bff;stroke-linejoin:miter;stroke-width:1.5;"/>
   </g>
   <g id="patch_34">
    <path clip-path="url(#p64b63899b2)" d="M 362.373902 665.872561 
L 400.647805 665.872561 
L 400.647805 627.598659 
L 362.373902 627.598659 
z
" style="fill:#bb8bff;stroke:#bb8bff;stroke-linejoin:miter;stroke-width:1.5;"/>
   </g>
   <g id="patch_35">
    <path clip-path="url(#p64b63899b2)" d="M 440.39378 181.41328 
C 441.916334 181.41328 443.376733 180.808364 444.453341 179.731756 
C 445.529949 178.655148 446.134866 177.194749 446.134866 175.672195 
C 446.134866 174.149641 445.529949 172.689243 444.453341 171.612635 
C 443.376733 170.536027 441.916334 169.93111 440.39378 169.93111 
C 438.871227 169.93111 437.410828 170.536027 436.33422 171.612635 
C 435.257612 172.689243 434.652695 174.149641 434.652695 175.672195 
C 434.652695 177.194749 435.257612 178.655148 436.33422 179.731756 
C 437.410828 180.808364 438.871227 181.41328 440.39378 181.41328 
z
" style="fill:#bb8bff;stroke:#bb8bff;stroke-linejoin:miter;stroke-width:1.5;"/>
   </g>
   <g id="patch_36">
    <path clip-path="url(#p64b63899b2)" d="M 421.256829 253.692073 
L 459.530732 253.692073 
L 459.530732 215.418171 
L 421.256829 215.418171 
z
" style="fill:#bb8bff;stroke:#bb8bff;stroke-linejoin:miter;stroke-width:1.5;"/>
   </g>
   <g id="patch_37">
    <path clip-path="url(#p64b63899b2)" d="M 421.256829 548.106707 
L 459.530732 548.106707 
L 459.530732 509.832805 
L 421.256829 509.832805 
z
" style="stroke:#000000;stroke-linejoin:miter;stroke-width:1.5;"/>
   </g>
   <g id="patch_38">
    <path clip-path="url(#p64b63899b2)" d="M 453.789646 534.710841 
C 453.789646 531.1594 452.377337 527.749783 449.866088 525.238534 
C 447.354839 522.727285 443.945222 521.314976 440.39378 521.314976 
C 436.842338 521.314976 433.432721 522.727285 430.921473 525.238534 
C 428.410224 527.749783 426.997914 531.1594 426.997914 534.710841 
" style="fill:none;stroke:#ffffff;stroke-linejoin:miter;stroke-width:2;"/>
   </g>
   <g id="patch_39">
    <path clip-path="url(#p64b63899b2)" d="M 476.168102 312.575 
L 522.385312 312.575 
L 522.385312 215.418171 
L 476.168102 215.418171 
z
" style="fill:#bb8bff;stroke:#bb8bff;stroke-linejoin:miter;stroke-width:1.5;"/>
   </g>
   <g id="patch_40">
    <path clip-path="url(#p64b63899b2)" d="M 476.168102 724.755488 
L 522.385312 724.755488 
L 522.385312 627.598659 
L 476.168102 627.598659 
z
" style="fill:#bb8bff;stroke:#bb8bff;stroke-linejoin:miter;stroke-width:1.5;"/>
   </g>
   <g id="patch_41">
    <path clip-path="url(#p64b63899b2)" d="M 558.159634 63.647427 
C 559.682188 63.647427 561.142586 63.04251 562.219194 61.965902 
C 563.295802 60.889294 563.900719 59.428895 563.900719 57.906341 
C 563.900719 56.383788 563.295802 54.923389 562.219194 53.846781 
C 561.142586 52.770173 559.682188 52.165256 558.159634 52.165256 
C 556.63708 52.165256 555.176682 52.770173 554.100074 53.846781 
C 553.023466 54.923389 552.418549 56.383788 552.418549 57.906341 
C 552.418549 59.428895 553.023466 60.889294 554.100074 61.965902 
C 555.176682 63.04251 556.63708 63.647427 558.159634 63.647427 
z
" style="fill:#bb8bff;stroke:#bb8bff;stroke-linejoin:miter;stroke-width:1.5;"/>
   </g>
   <g id="patch_42">
    <path clip-path="url(#p64b63899b2)" d="M 558.159634 652.476695 
C 559.682188 652.476695 561.142586 651.871778 562.219194 650.79517 
C 563.295802 649.718562 563.900719 648.258163 563.900719 646.73561 
C 563.900719 645.213056 563.295802 643.752657 562.219194 642.676049 
C 561.142586 641.599441 559.682188 640.994524 558.159634 640.994524 
C 556.63708 640.994524 555.176682 641.599441 554.100074 642.676049 
C 553.023466 643.752657 552.418549 645.213056 552.418549 646.73561 
C 552.418549 648.258163 553.023466 649.718562 554.100074 650.79517 
C 555.176682 651.871778 556.63708 652.476695 558.159634 652.476695 
z
" style="fill:#bb8bff;stroke:#bb8bff;stroke-linejoin:miter;stroke-width:1.5;"/>
   </g>
   <g id="patch_43">
    <path clip-path="url(#p64b63899b2)" d="M 539.022683 724.755488 
L 577.296585 724.755488 
L 577.296585 686.481585 
L 539.022683 686.481585 
z
" style="fill:#bb8bff;stroke:#bb8bff;stroke-linejoin:miter;stroke-width:1.5;"/>
   </g>
   <g id="patch_44">
    <path clip-path="url(#p64b63899b2)" d="M 617.042561 240.296207 
C 618.565114 240.296207 620.025513 239.69129 621.102121 238.614682 
C 622.178729 237.538074 622.783646 236.077676 622.783646 234.555122 
C 622.783646 233.032568 622.178729 231.57217 621.102121 230.495562 
C 620.025513 229.418954 618.565114 228.814037 617.042561 228.814037 
C 615.520007 228.814037 614.059608 229.418954 612.983 230.495562 
C 611.906392 231.57217 611.301475 233.032568 611.301475 234.555122 
C 611.301475 236.077676 611.906392 237.538074 612.983 238.614682 
C 614.059608 239.69129 615.520007 240.296207 617.042561 240.296207 
z
" style="fill:#bb8bff;stroke:#bb8bff;stroke-linejoin:miter;stroke-width:1.5;"/>
   </g>
   <g id="patch_45">
    <path clip-path="url(#p64b63899b2)" d="M 597.90561 312.575 
L 636.179512 312.575 
L 636.179512 274.301098 
L 597.90561 274.301098 
z
" style="fill:#bb8bff;stroke:#bb8bff;stroke-linejoin:miter;stroke-width:1.5;"/>
   </g>
   <g id="patch_46">
    <path clip-path="url(#p64b63899b2)" d="M 597.90561 606.989634 
L 636.179512 606.989634 
L 636.179512 568.715732 
L 597.90561 568.715732 
z
" style="stroke:#000000;stroke-linejoin:miter;stroke-width:1.5;"/>
   </g>
   <g id="patch_47">
    <path clip-path="url(#p64b63899b2)" d="M 630.438427 593.593768 
C 630.438427 590.042326 629.026117 586.632709 626.514868 584.121461 
C 624.00362 581.610212 620.594003 580.197902 617.042561 580.197902 
C 613.491119 580.197902 610.081502 581.610212 607.570253 584.121461 
C 605.059005 586.632709 603.646695 590.042326 603.646695 593.593768 
" style="fill:none;stroke:#ffffff;stroke-linejoin:miter;stroke-width:2;"/>
   </g>
   <g id="patch_48">
    <path clip-path="url(#p64b63899b2)" d="M 652.816883 371.457927 
L 699.034092 371.457927 
L 699.034092 274.301098 
L 652.816883 274.301098 
z
" style="fill:#bb8bff;stroke:#bb8bff;stroke-linejoin:miter;stroke-width:1.5;"/>
   </g>
   <g id="patch_49">
    <path clip-path="url(#p64b63899b2)" d="M 652.816883 783.638415 
L 699.034092 783.638415 
L 699.034092 686.481585 
L 652.816883 686.481585 
z
" style="fill:#bb8bff;stroke:#bb8bff;stroke-linejoin:miter;stroke-width:1.5;"/>
   </g>
   <g id="patch_50">
    <path clip-path="url(#p64b63899b2)" d="M 734.808414 63.647427 
C 736.330968 63.647427 737.791367 63.04251 738.867975 61.965902 
C 739.944583 60.889294 740.5495 59.428895 740.5495 57.906341 
C 740.5495 56.383788 739.944583 54.923389 738.867975 53.846781 
C 737.791367 52.770173 736.330968 52.165256 734.808414 52.165256 
C 733.285861 52.165256 731.825462 52.770173 730.748854 53.846781 
C 729.672246 54.923389 729.067329 56.383788 729.067329 57.906341 
C 729.067329 59.428895 729.672246 60.889294 730.748854 61.965902 
C 731.825462 63.04251 733.285861 63.647427 734.808414 63.647427 
z
" style="fill:#bb8bff;stroke:#bb8bff;stroke-linejoin:miter;stroke-width:1.5;"/>
   </g>
   <g id="patch_51">
    <path clip-path="url(#p64b63899b2)" d="M 734.808414 711.359622 
C 736.330968 711.359622 737.791367 710.754705 738.867975 709.678097 
C 739.944583 708.601489 740.5495 707.14109 740.5495 705.618537 
C 740.5495 704.095983 739.944583 702.635584 738.867975 701.558976 
C 737.791367 700.482368 736.330968 699.877451 734.808414 699.877451 
C 733.285861 699.877451 731.825462 700.482368 730.748854 701.558976 
C 729.672246 702.635584 729.067329 704.095983 729.067329 705.618537 
C 729.067329 707.14109 729.672246 708.601489 730.748854 709.678097 
C 731.825462 710.754705 733.285861 711.359622 734.808414 711.359622 
z
" style="fill:#bb8bff;stroke:#bb8bff;stroke-linejoin:miter;stroke-width:1.5;"/>
   </g>
   <g id="patch_52">
    <path clip-path="url(#p64b63899b2)" d="M 715.671463 783.638415 
L 753.945366 783.638415 
L 753.945366 745.364512 
L 715.671463 745.364512 
z
" style="fill:#bb8bff;stroke:#bb8bff;stroke-linejoin:miter;stroke-width:1.5;"/>
   </g>
   <g id="patch_53">
    <path clip-path="url(#p64b63899b2)" d="M 793.691341 299.179134 
C 795.213895 299.179134 796.674294 298.574217 797.750902 297.497609 
C 798.82751 296.421001 799.432427 294.960602 799.432427 293.438049 
C 799.432427 291.915495 798.82751 290.455096 797.750902 289.378488 
C 796.674294 288.30188 795.213895 287.696963 793.691341 287.696963 
C 792.168788 287.696963 790.708389 288.30188 789.631781 289.378488 
C 788.555173 290.455096 787.950256 291.915495 787.950256 293.438049 
C 787.950256 294.960602 788.555173 296.421001 789.631781 297.497609 
C 790.708389 298.574217 792.168788 299.179134 793.691341 299.179134 
z
" style="fill:#bb8bff;stroke:#bb8bff;stroke-linejoin:miter;stroke-width:1.5;"/>
   </g>
   <g id="patch_54">
    <path clip-path="url(#p64b63899b2)" d="M 774.55439 371.457927 
L 812.828292 371.457927 
L 812.828292 333.184024 
L 774.55439 333.184024 
z
" style="fill:#bb8bff;stroke:#bb8bff;stroke-linejoin:miter;stroke-width:1.5;"/>
   </g>
   <g id="patch_55">
    <path clip-path="url(#p64b63899b2)" d="M 774.55439 665.872561 
L 812.828292 665.872561 
L 812.828292 627.598659 
L 774.55439 627.598659 
z
" style="stroke:#000000;stroke-linejoin:miter;stroke-width:1.5;"/>
   </g>
   <g id="patch_56">
    <path clip-path="url(#p64b63899b2)" d="M 807.087207 652.476695 
C 807.087207 648.925253 805.674898 645.515636 803.163649 643.004388 
C 800.6524 640.493139 797.242783 639.080829 793.691341 639.080829 
C 790.139899 639.080829 786.730282 640.493139 784.219034 643.004388 
C 781.707785 645.515636 780.295475 648.925253 780.295475 652.476695 
" style="fill:none;stroke:#ffffff;stroke-linejoin:miter;stroke-width:2;"/>
   </g>
   <g id="patch_57">
    <path clip-path="url(#p64b63899b2)" d="M 829.465663 430.340854 
L 875.682873 430.340854 
L 875.682873 333.184024 
L 829.465663 333.184024 
z
" style="fill:#bb8bff;stroke:#bb8bff;stroke-linejoin:miter;stroke-width:1.5;"/>
   </g>
   <g id="patch_58">
    <path clip-path="url(#p64b63899b2)" d="M 829.465663 842.521341 
L 875.682873 842.521341 
L 875.682873 745.364512 
L 829.465663 745.364512 
z
" style="fill:#bb8bff;stroke:#bb8bff;stroke-linejoin:miter;stroke-width:1.5;"/>
   </g>
   <g id="patch_59">
    <path clip-path="url(#p64b63899b2)" d="M 911.457195 63.647427 
C 912.979749 63.647427 914.440147 63.04251 915.516755 61.965902 
C 916.593363 60.889294 917.19828 59.428895 917.19828 57.906341 
C 917.19828 56.383788 916.593363 54.923389 915.516755 53.846781 
C 914.440147 52.770173 912.979749 52.165256 911.457195 52.165256 
C 909.934641 52.165256 908.474243 52.770173 907.397635 53.846781 
C 906.321027 54.923389 905.71611 56.383788 905.71611 57.906341 
C 905.71611 59.428895 906.321027 60.889294 907.397635 61.965902 
C 908.474243 63.04251 909.934641 63.647427 911.457195 63.647427 
z
" style="fill:#bb8bff;stroke:#bb8bff;stroke-linejoin:miter;stroke-width:1.5;"/>
   </g>
   <g id="patch_60">
    <path clip-path="url(#p64b63899b2)" d="M 911.457195 770.242549 
C 912.979749 770.242549 914.440147 769.637632 915.516755 768.561024 
C 916.593363 767.484416 917.19828 766.024017 917.19828 764.501463 
C 917.19828 762.97891 916.593363 761.518511 915.516755 760.441903 
C 914.440147 759.365295 912.979749 758.760378 911.457195 758.760378 
C 909.934641 758.760378 908.474243 759.365295 907.397635 760.441903 
C 906.321027 761.518511 905.71611 762.97891 905.71611 764.501463 
C 905.71611 766.024017 906.321027 767.484416 907.397635 768.561024 
C 908.474243 769.637632 909.934641 770.242549 911.457195 770.242549 
z
" style="fill:#bb8bff;stroke:#bb8bff;stroke-linejoin:miter;stroke-width:1.5;"/>
   </g>
   <g id="patch_61">
    <path clip-path="url(#p64b63899b2)" d="M 892.320244 842.521341 
L 930.594146 842.521341 
L 930.594146 804.247439 
L 892.320244 804.247439 
z
" style="fill:#bb8bff;stroke:#bb8bff;stroke-linejoin:miter;stroke-width:1.5;"/>
   </g>
   <g id="patch_62">
    <path clip-path="url(#p64b63899b2)" d="M 970.340122 358.062061 
C 971.862675 358.062061 973.323074 357.457144 974.399682 356.380536 
C 975.47629 355.303928 976.081207 353.843529 976.081207 352.320976 
C 976.081207 350.798422 975.47629 349.338023 974.399682 348.261415 
C 973.323074 347.184807 971.862675 346.57989 970.340122 346.57989 
C 968.817568 346.57989 967.357169 347.184807 966.280561 348.261415 
C 965.203953 349.338023 964.599036 350.798422 964.599036 352.320976 
C 964.599036 353.843529 965.203953 355.303928 966.280561 356.380536 
C 967.357169 357.457144 968.817568 358.062061 970.340122 358.062061 
z
" style="fill:#bb8bff;stroke:#bb8bff;stroke-linejoin:miter;stroke-width:1.5;"/>
   </g>
   <g id="patch_63">
    <path clip-path="url(#p64b63899b2)" d="M 951.203171 430.340854 
L 989.477073 430.340854 
L 989.477073 392.066951 
L 951.203171 392.066951 
z
" style="fill:#bb8bff;stroke:#bb8bff;stroke-linejoin:miter;stroke-width:1.5;"/>
   </g>
   <g id="patch_64">
    <path clip-path="url(#p64b63899b2)" d="M 951.203171 724.755488 
L 989.477073 724.755488 
L 989.477073 686.481585 
L 951.203171 686.481585 
z
" style="stroke:#000000;stroke-linejoin:miter;stroke-width:1.5;"/>
   </g>
   <g id="patch_65">
    <path clip-path="url(#p64b63899b2)" d="M 983.735988 711.359622 
C 983.735988 707.80818 982.323678 704.398563 979.812429 701.887314 
C 977.301181 699.376066 973.891564 697.963756 970.340122 697.963756 
C 966.78868 697.963756 963.379063 699.376066 960.867814 701.887314 
C 958.356565 704.398563 956.944256 707.80818 956.944256 711.359622 
" style="fill:none;stroke:#ffffff;stroke-linejoin:miter;stroke-width:2;"/>
   </g>
   <g id="patch_66">
    <path clip-path="url(#p64b63899b2)" d="M 1006.114444 489.22378 
L 1052.331653 489.22378 
L 1052.331653 392.066951 
L 1006.114444 392.066951 
z
" style="fill:#bb8bff;stroke:#bb8bff;stroke-linejoin:miter;stroke-width:1.5;"/>
   </g>
   <g id="patch_67">
    <path clip-path="url(#p64b63899b2)" d="M 1006.114444 901.404268 
L 1052.331653 901.404268 
L 1052.331653 804.247439 
L 1006.114444 804.247439 
z
" style="fill:#bb8bff;stroke:#bb8bff;stroke-linejoin:miter;stroke-width:1.5;"/>
   </g>
   <g id="patch_68">
    <path clip-path="url(#p64b63899b2)" d="M 1088.105975 63.647427 
C 1089.628529 63.647427 1091.088928 63.04251 1092.165536 61.965902 
C 1093.242144 60.889294 1093.847061 59.428895 1093.847061 57.906341 
C 1093.847061 56.383788 1093.242144 54.923389 1092.165536 53.846781 
C 1091.088928 52.770173 1089.628529 52.165256 1088.105975 52.165256 
C 1086.583422 52.165256 1085.123023 52.770173 1084.046415 53.846781 
C 1082.969807 54.923389 1082.36489 56.383788 1082.36489 57.906341 
C 1082.36489 59.428895 1082.969807 60.889294 1084.046415 61.965902 
C 1085.123023 63.04251 1086.583422 63.647427 1088.105975 63.647427 
z
" style="fill:#bb8bff;stroke:#bb8bff;stroke-linejoin:miter;stroke-width:1.5;"/>
   </g>
   <g id="patch_69">
    <path clip-path="url(#p64b63899b2)" d="M 1088.105975 829.125476 
C 1089.628529 829.125476 1091.088928 828.520559 1092.165536 827.443951 
C 1093.242144 826.367343 1093.847061 824.906944 1093.847061 823.38439 
C 1093.847061 821.861837 1093.242144 820.401438 1092.165536 819.32483 
C 1091.088928 818.248222 1089.628529 817.643305 1088.105975 817.643305 
C 1086.583422 817.643305 1085.123023 818.248222 1084.046415 819.32483 
C 1082.969807 820.401438 1082.36489 821.861837 1082.36489 823.38439 
C 1082.36489 824.906944 1082.969807 826.367343 1084.046415 827.443951 
C 1085.123023 828.520559 1086.583422 829.125476 1088.105975 829.125476 
z
" style="fill:#bb8bff;stroke:#bb8bff;stroke-linejoin:miter;stroke-width:1.5;"/>
   </g>
   <g id="patch_70">
    <path clip-path="url(#p64b63899b2)" d="M 1068.969024 901.404268 
L 1107.242927 901.404268 
L 1107.242927 863.130366 
L 1068.969024 863.130366 
z
" style="fill:#bb8bff;stroke:#bb8bff;stroke-linejoin:miter;stroke-width:1.5;"/>
   </g>
   <g id="patch_71">
    <path clip-path="url(#p64b63899b2)" d="M 1146.988902 416.944988 
C 1148.511456 416.944988 1149.971855 416.340071 1151.048463 415.263463 
C 1152.125071 414.186855 1152.729988 412.726456 1152.729988 411.203902 
C 1152.729988 409.681349 1152.125071 408.22095 1151.048463 407.144342 
C 1149.971855 406.067734 1148.511456 405.462817 1146.988902 405.462817 
C 1145.466349 405.462817 1144.00595 406.067734 1142.929342 407.144342 
C 1141.852734 408.22095 1141.247817 409.681349 1141.247817 411.203902 
C 1141.247817 412.726456 1141.852734 414.186855 1142.929342 415.263463 
C 1144.00595 416.340071 1145.466349 416.944988 1146.988902 416.944988 
z
" style="fill:#bb8bff;stroke:#bb8bff;stroke-linejoin:miter;stroke-width:1.5;"/>
   </g>
   <g id="patch_72">
    <path clip-path="url(#p64b63899b2)" d="M 1127.851951 489.22378 
L 1166.125853 489.22378 
L 1166.125853 450.949878 
L 1127.851951 450.949878 
z
" style="fill:#bb8bff;stroke:#bb8bff;stroke-linejoin:miter;stroke-width:1.5;"/>
   </g>
   <g id="patch_73">
    <path clip-path="url(#p64b63899b2)" d="M 1127.851951 783.638415 
L 1166.125853 783.638415 
L 1166.125853 745.364512 
L 1127.851951 745.364512 
z
" style="stroke:#000000;stroke-linejoin:miter;stroke-width:1.5;"/>
   </g>
   <g id="patch_74">
    <path clip-path="url(#p64b63899b2)" d="M 1160.384768 770.242549 
C 1160.384768 766.691107 1158.972459 763.28149 1156.46121 760.770241 
C 1153.949961 758.258993 1150.540344 756.846683 1146.988902 756.846683 
C 1143.43746 756.846683 1140.027843 758.258993 1137.516595 760.770241 
C 1135.005346 763.28149 1133.593036 766.691107 1133.593036 770.242549 
" style="fill:none;stroke:#ffffff;stroke-linejoin:miter;stroke-width:2;"/>
   </g>
   <g id="patch_75">
    <path clip-path="url(#p64b63899b2)" d="M 1205.871829 63.647427 
C 1207.394383 63.647427 1208.854781 63.04251 1209.931389 61.965902 
C 1211.007997 60.889294 1211.612914 59.428895 1211.612914 57.906341 
C 1211.612914 56.383788 1211.007997 54.923389 1209.931389 53.846781 
C 1208.854781 52.770173 1207.394383 52.165256 1205.871829 52.165256 
C 1204.349275 52.165256 1202.888877 52.770173 1201.812269 53.846781 
C 1200.735661 54.923389 1200.130744 56.383788 1200.130744 57.906341 
C 1200.130744 59.428895 1200.735661 60.889294 1201.812269 61.965902 
C 1202.888877 63.04251 1204.349275 63.647427 1205.871829 63.647427 
z
" style="fill:#bb8bff;stroke:#bb8bff;stroke-linejoin:miter;stroke-width:1.5;"/>
   </g>
   <g id="patch_76">
    <path clip-path="url(#p64b63899b2)" d="M 1264.754756 63.647427 
C 1266.27731 63.647427 1267.737708 63.04251 1268.814316 61.965902 
C 1269.890924 60.889294 1270.495841 59.428895 1270.495841 57.906341 
C 1270.495841 56.383788 1269.890924 54.923389 1268.814316 53.846781 
C 1267.737708 52.770173 1266.27731 52.165256 1264.754756 52.165256 
C 1263.232202 52.165256 1261.771804 52.770173 1260.695196 53.846781 
C 1259.618588 54.923389 1259.013671 56.383788 1259.013671 57.906341 
C 1259.013671 59.428895 1259.618588 60.889294 1260.695196 61.965902 
C 1261.771804 63.04251 1263.232202 63.647427 1264.754756 63.647427 
z
" style="fill:#bb8bff;stroke:#bb8bff;stroke-linejoin:miter;stroke-width:1.5;"/>
   </g>
   <g id="patch_77">
    <path clip-path="url(#p64b63899b2)" d="M 1304.500732 842.521341 
L 1342.774634 842.521341 
L 1342.774634 804.247439 
L 1304.500732 804.247439 
z
" style="stroke:#000000;stroke-linejoin:miter;stroke-width:1.5;"/>
   </g>
   <g id="patch_78">
    <path clip-path="url(#p64b63899b2)" d="M 1337.033549 829.125476 
C 1337.033549 825.574034 1335.621239 822.164417 1333.10999 819.653168 
C 1330.598742 817.141919 1327.189125 815.72961 1323.637683 815.72961 
C 1320.086241 815.72961 1316.676624 817.141919 1314.165375 819.653168 
C 1311.654126 822.164417 1310.241817 825.574034 1310.241817 829.125476 
" style="fill:none;stroke:#ffffff;stroke-linejoin:miter;stroke-width:2;"/>
   </g>
   <g id="patch_79">
    <path clip-path="url(#p64b63899b2)" d="M 1304.500732 77.043293 
L 1342.774634 77.043293 
L 1342.774634 38.76939 
L 1304.500732 38.76939 
z
" style="fill:#6fa4ff;stroke:#6fa4ff;stroke-linejoin:miter;stroke-width:1.5;"/>
   </g>
   <g id="patch_80">
    <path clip-path="url(#p64b63899b2)" d="M 1363.383658 901.404268 
L 1401.657561 901.404268 
L 1401.657561 863.130366 
L 1363.383658 863.130366 
z
" style="stroke:#000000;stroke-linejoin:miter;stroke-width:1.5;"/>
   </g>
   <g id="patch_81">
    <path clip-path="url(#p64b63899b2)" d="M 1395.916475 888.008402 
C 1395.916475 884.45696 1394.504166 881.047344 1391.992917 878.536095 
C 1389.481668 876.024846 1386.072052 874.612537 1382.52061 874.612537 
C 1378.969168 874.612537 1375.559551 876.024846 1373.048302 878.536095 
C 1370.537053 881.047344 1369.124744 884.45696 1369.124744 888.008402 
" style="fill:none;stroke:#ffffff;stroke-linejoin:miter;stroke-width:2;"/>
   </g>
   <g id="line2d_80">
    <path clip-path="url(#p64b63899b2)" d="M 440.39378 534.710841 
L 453.789646 521.314976 
" style="fill:none;stroke:#ffffff;stroke-linecap:square;stroke-width:2;"/>
   </g>
   <g id="line2d_81">
    <path clip-path="url(#p64b63899b2)" d="M 617.042561 593.593768 
L 630.438427 580.197902 
" style="fill:none;stroke:#ffffff;stroke-linecap:square;stroke-width:2;"/>
   </g>
   <g id="line2d_82">
    <path clip-path="url(#p64b63899b2)" d="M 793.691341 652.476695 
L 807.087207 639.080829 
" style="fill:none;stroke:#ffffff;stroke-linecap:square;stroke-width:2;"/>
   </g>
   <g id="line2d_83">
    <path clip-path="url(#p64b63899b2)" d="M 970.340122 711.359622 
L 983.735988 697.963756 
" style="fill:none;stroke:#ffffff;stroke-linecap:square;stroke-width:2;"/>
   </g>
   <g id="line2d_84">
    <path clip-path="url(#p64b63899b2)" d="M 1146.988902 770.242549 
L 1160.384768 756.846683 
" style="fill:none;stroke:#ffffff;stroke-linecap:square;stroke-width:2;"/>
   </g>
   <g id="line2d_85">
    <path clip-path="url(#p64b63899b2)" d="M 1323.637683 829.125476 
L 1337.033549 815.72961 
" style="fill:none;stroke:#ffffff;stroke-linecap:square;stroke-width:2;"/>
   </g>
   <g id="line2d_86">
    <path clip-path="url(#p64b63899b2)" d="M 1382.52061 888.008402 
L 1395.916475 874.612537 
" style="fill:none;stroke:#ffffff;stroke-linecap:square;stroke-width:2;"/>
   </g>
   <g id="text_1">
    <g clip-path="url(#p64b63899b2)">
     <!-- $\mathrm{R}_\mathrm{Y}$ -->
     <g transform="translate(138.439146 114.63537)scale(0.13 -0.13)">
      <defs>
       <path d="M 2841 2188 
Q 3044 2119 3236 1894 
Q 3428 1669 3622 1275 
L 4263 0 
L 3584 0 
L 2988 1197 
Q 2756 1666 2539 1819 
Q 2322 1972 1947 1972 
L 1259 1972 
L 1259 0 
L 628 0 
L 628 4666 
L 2053 4666 
Q 2853 4666 3247 4331 
Q 3641 3997 3641 3322 
Q 3641 2881 3436 2590 
Q 3231 2300 2841 2188 
z
M 1259 4147 
L 1259 2491 
L 2053 2491 
Q 2509 2491 2742 2702 
Q 2975 2913 2975 3322 
Q 2975 3731 2742 3939 
Q 2509 4147 2053 4147 
L 1259 4147 
z
" id="DejaVuSans-52" transform="scale(0.015625)"/>
       <path d="M -13 4666 
L 666 4666 
L 1959 2747 
L 3244 4666 
L 3922 4666 
L 2272 2222 
L 2272 0 
L 1638 0 
L 1638 2222 
L -13 4666 
z
" id="DejaVuSans-59" transform="scale(0.015625)"/>
      </defs>
      <use transform="translate(0 0.09375)" xlink:href="#DejaVuSans-52"/>
      <use transform="translate(70.439453 -16.3125)scale(0.7)" xlink:href="#DejaVuSans-59"/>
     </g>
    </g>
   </g>
   <g id="text_2">
    <g clip-path="url(#p64b63899b2)">
     <!-- 2.25 -->
     <g transform="translate(137.072896 130.478939)scale(0.08 -0.08)">
      <defs>
       <path d="M 1228 531 
L 3431 531 
L 3431 0 
L 469 0 
L 469 531 
Q 828 903 1448 1529 
Q 2069 2156 2228 2338 
Q 2531 2678 2651 2914 
Q 2772 3150 2772 3378 
Q 2772 3750 2511 3984 
Q 2250 4219 1831 4219 
Q 1534 4219 1204 4116 
Q 875 4013 500 3803 
L 500 4441 
Q 881 4594 1212 4672 
Q 1544 4750 1819 4750 
Q 2544 4750 2975 4387 
Q 3406 4025 3406 3419 
Q 3406 3131 3298 2873 
Q 3191 2616 2906 2266 
Q 2828 2175 2409 1742 
Q 1991 1309 1228 531 
z
" id="DejaVuSans-32" transform="scale(0.015625)"/>
       <path d="M 684 794 
L 1344 794 
L 1344 0 
L 684 0 
L 684 794 
z
" id="DejaVuSans-2e" transform="scale(0.015625)"/>
       <path d="M 691 4666 
L 3169 4666 
L 3169 4134 
L 1269 4134 
L 1269 2991 
Q 1406 3038 1543 3061 
Q 1681 3084 1819 3084 
Q 2600 3084 3056 2656 
Q 3513 2228 3513 1497 
Q 3513 744 3044 326 
Q 2575 -91 1722 -91 
Q 1428 -91 1123 -41 
Q 819 9 494 109 
L 494 744 
Q 775 591 1075 516 
Q 1375 441 1709 441 
Q 2250 441 2565 725 
Q 2881 1009 2881 1497 
Q 2881 1984 2565 2268 
Q 2250 2553 1709 2553 
Q 1456 2553 1204 2497 
Q 953 2441 691 2322 
L 691 4666 
z
" id="DejaVuSans-35" transform="scale(0.015625)"/>
      </defs>
      <use xlink:href="#DejaVuSans-32"/>
      <use x="63.623047" xlink:href="#DejaVuSans-2e"/>
      <use x="95.410156" xlink:href="#DejaVuSans-32"/>
      <use x="159.033203" xlink:href="#DejaVuSans-35"/>
     </g>
    </g>
   </g>
   <g id="text_3">
    <g clip-path="url(#p64b63899b2)">
     <!-- $\mathrm{R}_\mathrm{Y}$ -->
     <g transform="translate(138.439146 173.518297)scale(0.13 -0.13)">
      <use transform="translate(0 0.09375)" xlink:href="#DejaVuSans-52"/>
      <use transform="translate(70.439453 -16.3125)scale(0.7)" xlink:href="#DejaVuSans-59"/>
     </g>
    </g>
   </g>
   <g id="text_4">
    <g clip-path="url(#p64b63899b2)">
     <!-- 1.99 -->
     <g transform="translate(137.072896 189.361866)scale(0.08 -0.08)">
      <defs>
       <path d="M 794 531 
L 1825 531 
L 1825 4091 
L 703 3866 
L 703 4441 
L 1819 4666 
L 2450 4666 
L 2450 531 
L 3481 531 
L 3481 0 
L 794 0 
L 794 531 
z
" id="DejaVuSans-31" transform="scale(0.015625)"/>
       <path d="M 703 97 
L 703 672 
Q 941 559 1184 500 
Q 1428 441 1663 441 
Q 2288 441 2617 861 
Q 2947 1281 2994 2138 
Q 2813 1869 2534 1725 
Q 2256 1581 1919 1581 
Q 1219 1581 811 2004 
Q 403 2428 403 3163 
Q 403 3881 828 4315 
Q 1253 4750 1959 4750 
Q 2769 4750 3195 4129 
Q 3622 3509 3622 2328 
Q 3622 1225 3098 567 
Q 2575 -91 1691 -91 
Q 1453 -91 1209 -44 
Q 966 3 703 97 
z
M 1959 2075 
Q 2384 2075 2632 2365 
Q 2881 2656 2881 3163 
Q 2881 3666 2632 3958 
Q 2384 4250 1959 4250 
Q 1534 4250 1286 3958 
Q 1038 3666 1038 3163 
Q 1038 2656 1286 2365 
Q 1534 2075 1959 2075 
z
" id="DejaVuSans-39" transform="scale(0.015625)"/>
      </defs>
      <use xlink:href="#DejaVuSans-31"/>
      <use x="63.623047" xlink:href="#DejaVuSans-2e"/>
      <use x="95.410156" xlink:href="#DejaVuSans-39"/>
      <use x="159.033203" xlink:href="#DejaVuSans-39"/>
     </g>
    </g>
   </g>
   <g id="text_5">
    <g clip-path="url(#p64b63899b2)">
     <!-- $\mathrm{R}_\mathrm{Y}$ -->
     <g transform="translate(138.439146 232.401224)scale(0.13 -0.13)">
      <use transform="translate(0 0.09375)" xlink:href="#DejaVuSans-52"/>
      <use transform="translate(70.439453 -16.3125)scale(0.7)" xlink:href="#DejaVuSans-59"/>
     </g>
    </g>
   </g>
   <g id="text_6">
    <g clip-path="url(#p64b63899b2)">
     <!-- 0.0862 -->
     <g transform="translate(131.982896 248.244793)scale(0.08 -0.08)">
      <defs>
       <path d="M 2034 4250 
Q 1547 4250 1301 3770 
Q 1056 3291 1056 2328 
Q 1056 1369 1301 889 
Q 1547 409 2034 409 
Q 2525 409 2770 889 
Q 3016 1369 3016 2328 
Q 3016 3291 2770 3770 
Q 2525 4250 2034 4250 
z
M 2034 4750 
Q 2819 4750 3233 4129 
Q 3647 3509 3647 2328 
Q 3647 1150 3233 529 
Q 2819 -91 2034 -91 
Q 1250 -91 836 529 
Q 422 1150 422 2328 
Q 422 3509 836 4129 
Q 1250 4750 2034 4750 
z
" id="DejaVuSans-30" transform="scale(0.015625)"/>
       <path d="M 2034 2216 
Q 1584 2216 1326 1975 
Q 1069 1734 1069 1313 
Q 1069 891 1326 650 
Q 1584 409 2034 409 
Q 2484 409 2743 651 
Q 3003 894 3003 1313 
Q 3003 1734 2745 1975 
Q 2488 2216 2034 2216 
z
M 1403 2484 
Q 997 2584 770 2862 
Q 544 3141 544 3541 
Q 544 4100 942 4425 
Q 1341 4750 2034 4750 
Q 2731 4750 3128 4425 
Q 3525 4100 3525 3541 
Q 3525 3141 3298 2862 
Q 3072 2584 2669 2484 
Q 3125 2378 3379 2068 
Q 3634 1759 3634 1313 
Q 3634 634 3220 271 
Q 2806 -91 2034 -91 
Q 1263 -91 848 271 
Q 434 634 434 1313 
Q 434 1759 690 2068 
Q 947 2378 1403 2484 
z
M 1172 3481 
Q 1172 3119 1398 2916 
Q 1625 2713 2034 2713 
Q 2441 2713 2670 2916 
Q 2900 3119 2900 3481 
Q 2900 3844 2670 4047 
Q 2441 4250 2034 4250 
Q 1625 4250 1398 4047 
Q 1172 3844 1172 3481 
z
" id="DejaVuSans-38" transform="scale(0.015625)"/>
       <path d="M 2113 2584 
Q 1688 2584 1439 2293 
Q 1191 2003 1191 1497 
Q 1191 994 1439 701 
Q 1688 409 2113 409 
Q 2538 409 2786 701 
Q 3034 994 3034 1497 
Q 3034 2003 2786 2293 
Q 2538 2584 2113 2584 
z
M 3366 4563 
L 3366 3988 
Q 3128 4100 2886 4159 
Q 2644 4219 2406 4219 
Q 1781 4219 1451 3797 
Q 1122 3375 1075 2522 
Q 1259 2794 1537 2939 
Q 1816 3084 2150 3084 
Q 2853 3084 3261 2657 
Q 3669 2231 3669 1497 
Q 3669 778 3244 343 
Q 2819 -91 2113 -91 
Q 1303 -91 875 529 
Q 447 1150 447 2328 
Q 447 3434 972 4092 
Q 1497 4750 2381 4750 
Q 2619 4750 2861 4703 
Q 3103 4656 3366 4563 
z
" id="DejaVuSans-36" transform="scale(0.015625)"/>
      </defs>
      <use xlink:href="#DejaVuSans-30"/>
      <use x="63.623047" xlink:href="#DejaVuSans-2e"/>
      <use x="95.410156" xlink:href="#DejaVuSans-30"/>
      <use x="159.033203" xlink:href="#DejaVuSans-38"/>
      <use x="222.65625" xlink:href="#DejaVuSans-36"/>
      <use x="286.279297" xlink:href="#DejaVuSans-32"/>
     </g>
    </g>
   </g>
   <g id="text_7">
    <g clip-path="url(#p64b63899b2)">
     <!-- $\mathrm{R}_\mathrm{Y}$ -->
     <g transform="translate(138.439146 291.284151)scale(0.13 -0.13)">
      <use transform="translate(0 0.09375)" xlink:href="#DejaVuSans-52"/>
      <use transform="translate(70.439453 -16.3125)scale(0.7)" xlink:href="#DejaVuSans-59"/>
     </g>
    </g>
   </g>
   <g id="text_8">
    <g clip-path="url(#p64b63899b2)">
     <!-- 2.52 -->
     <g transform="translate(137.072896 307.12772)scale(0.08 -0.08)">
      <use xlink:href="#DejaVuSans-32"/>
      <use x="63.623047" xlink:href="#DejaVuSans-2e"/>
      <use x="95.410156" xlink:href="#DejaVuSans-35"/>
      <use x="159.033203" xlink:href="#DejaVuSans-32"/>
     </g>
    </g>
   </g>
   <g id="text_9">
    <g clip-path="url(#p64b63899b2)">
     <!-- $\mathrm{R}_\mathrm{Y}$ -->
     <g transform="translate(138.439146 350.167078)scale(0.13 -0.13)">
      <use transform="translate(0 0.09375)" xlink:href="#DejaVuSans-52"/>
      <use transform="translate(70.439453 -16.3125)scale(0.7)" xlink:href="#DejaVuSans-59"/>
     </g>
    </g>
   </g>
   <g id="text_10">
    <g clip-path="url(#p64b63899b2)">
     <!-- 0.622 -->
     <g transform="translate(134.527896 366.010646)scale(0.08 -0.08)">
      <use xlink:href="#DejaVuSans-30"/>
      <use x="63.623047" xlink:href="#DejaVuSans-2e"/>
      <use x="95.410156" xlink:href="#DejaVuSans-36"/>
      <use x="159.033203" xlink:href="#DejaVuSans-32"/>
      <use x="222.65625" xlink:href="#DejaVuSans-32"/>
     </g>
    </g>
   </g>
   <g id="text_11">
    <g clip-path="url(#p64b63899b2)">
     <!-- $\mathrm{R}_\mathrm{Y}$ -->
     <g transform="translate(138.439146 409.050005)scale(0.13 -0.13)">
      <use transform="translate(0 0.09375)" xlink:href="#DejaVuSans-52"/>
      <use transform="translate(70.439453 -16.3125)scale(0.7)" xlink:href="#DejaVuSans-59"/>
     </g>
    </g>
   </g>
   <g id="text_12">
    <g clip-path="url(#p64b63899b2)">
     <!-- 3.08 -->
     <g transform="translate(137.072896 424.893573)scale(0.08 -0.08)">
      <defs>
       <path d="M 2597 2516 
Q 3050 2419 3304 2112 
Q 3559 1806 3559 1356 
Q 3559 666 3084 287 
Q 2609 -91 1734 -91 
Q 1441 -91 1130 -33 
Q 819 25 488 141 
L 488 750 
Q 750 597 1062 519 
Q 1375 441 1716 441 
Q 2309 441 2620 675 
Q 2931 909 2931 1356 
Q 2931 1769 2642 2001 
Q 2353 2234 1838 2234 
L 1294 2234 
L 1294 2753 
L 1863 2753 
Q 2328 2753 2575 2939 
Q 2822 3125 2822 3475 
Q 2822 3834 2567 4026 
Q 2313 4219 1838 4219 
Q 1578 4219 1281 4162 
Q 984 4106 628 3988 
L 628 4550 
Q 988 4650 1302 4700 
Q 1616 4750 1894 4750 
Q 2613 4750 3031 4423 
Q 3450 4097 3450 3541 
Q 3450 3153 3228 2886 
Q 3006 2619 2597 2516 
z
" id="DejaVuSans-33" transform="scale(0.015625)"/>
      </defs>
      <use xlink:href="#DejaVuSans-33"/>
      <use x="63.623047" xlink:href="#DejaVuSans-2e"/>
      <use x="95.410156" xlink:href="#DejaVuSans-30"/>
      <use x="159.033203" xlink:href="#DejaVuSans-38"/>
     </g>
    </g>
   </g>
   <g id="text_13">
    <g clip-path="url(#p64b63899b2)">
     <!-- $\mathrm{R}_\mathrm{Y}$ -->
     <g transform="translate(138.439146 467.932931)scale(0.13 -0.13)">
      <use transform="translate(0 0.09375)" xlink:href="#DejaVuSans-52"/>
      <use transform="translate(70.439453 -16.3125)scale(0.7)" xlink:href="#DejaVuSans-59"/>
     </g>
    </g>
   </g>
   <g id="text_14">
    <g clip-path="url(#p64b63899b2)">
     <!-- 2.21 -->
     <g transform="translate(137.072896 483.7765)scale(0.08 -0.08)">
      <use xlink:href="#DejaVuSans-32"/>
      <use x="63.623047" xlink:href="#DejaVuSans-2e"/>
      <use x="95.410156" xlink:href="#DejaVuSans-32"/>
      <use x="159.033203" xlink:href="#DejaVuSans-31"/>
     </g>
    </g>
   </g>
   <g id="text_15">
    <g clip-path="url(#p64b63899b2)">
     <!-- $\mathrm{R}_\mathrm{Y}$ -->
     <g transform="translate(138.439146 526.815858)scale(0.13 -0.13)">
      <use transform="translate(0 0.09375)" xlink:href="#DejaVuSans-52"/>
      <use transform="translate(70.439453 -16.3125)scale(0.7)" xlink:href="#DejaVuSans-59"/>
     </g>
    </g>
   </g>
   <g id="text_16">
    <g clip-path="url(#p64b63899b2)">
     <!-- 2.61 -->
     <g transform="translate(137.072896 542.659427)scale(0.08 -0.08)">
      <use xlink:href="#DejaVuSans-32"/>
      <use x="63.623047" xlink:href="#DejaVuSans-2e"/>
      <use x="95.410156" xlink:href="#DejaVuSans-36"/>
      <use x="159.033203" xlink:href="#DejaVuSans-31"/>
     </g>
    </g>
   </g>
   <g id="text_17">
    <g clip-path="url(#p64b63899b2)">
     <!-- $\mathrm{R}_\mathrm{Y}$ -->
     <g transform="translate(138.439146 585.698785)scale(0.13 -0.13)">
      <use transform="translate(0 0.09375)" xlink:href="#DejaVuSans-52"/>
      <use transform="translate(70.439453 -16.3125)scale(0.7)" xlink:href="#DejaVuSans-59"/>
     </g>
    </g>
   </g>
   <g id="text_18">
    <g clip-path="url(#p64b63899b2)">
     <!-- 1.22 -->
     <g transform="translate(137.072896 601.542354)scale(0.08 -0.08)">
      <use xlink:href="#DejaVuSans-31"/>
      <use x="63.623047" xlink:href="#DejaVuSans-2e"/>
      <use x="95.410156" xlink:href="#DejaVuSans-32"/>
      <use x="159.033203" xlink:href="#DejaVuSans-32"/>
     </g>
    </g>
   </g>
   <g id="text_19">
    <g clip-path="url(#p64b63899b2)">
     <!-- $\mathrm{R}_\mathrm{Y}$ -->
     <g transform="translate(138.439146 644.581712)scale(0.13 -0.13)">
      <use transform="translate(0 0.09375)" xlink:href="#DejaVuSans-52"/>
      <use transform="translate(70.439453 -16.3125)scale(0.7)" xlink:href="#DejaVuSans-59"/>
     </g>
    </g>
   </g>
   <g id="text_20">
    <g clip-path="url(#p64b63899b2)">
     <!-- 2.3 -->
     <g transform="translate(139.617896 660.42528)scale(0.08 -0.08)">
      <use xlink:href="#DejaVuSans-32"/>
      <use x="63.623047" xlink:href="#DejaVuSans-2e"/>
      <use x="95.410156" xlink:href="#DejaVuSans-33"/>
     </g>
    </g>
   </g>
   <g id="text_21">
    <g clip-path="url(#p64b63899b2)">
     <!-- $\mathrm{R}_\mathrm{Y}$ -->
     <g transform="translate(138.439146 703.464639)scale(0.13 -0.13)">
      <use transform="translate(0 0.09375)" xlink:href="#DejaVuSans-52"/>
      <use transform="translate(70.439453 -16.3125)scale(0.7)" xlink:href="#DejaVuSans-59"/>
     </g>
    </g>
   </g>
   <g id="text_22">
    <g clip-path="url(#p64b63899b2)">
     <!-- 1.06 -->
     <g transform="translate(137.072896 719.308207)scale(0.08 -0.08)">
      <use xlink:href="#DejaVuSans-31"/>
      <use x="63.623047" xlink:href="#DejaVuSans-2e"/>
      <use x="95.410156" xlink:href="#DejaVuSans-30"/>
      <use x="159.033203" xlink:href="#DejaVuSans-36"/>
     </g>
    </g>
   </g>
   <g id="text_23">
    <g clip-path="url(#p64b63899b2)">
     <!-- $\mathrm{R}_\mathrm{Y}$ -->
     <g transform="translate(138.439146 762.347566)scale(0.13 -0.13)">
      <use transform="translate(0 0.09375)" xlink:href="#DejaVuSans-52"/>
      <use transform="translate(70.439453 -16.3125)scale(0.7)" xlink:href="#DejaVuSans-59"/>
     </g>
    </g>
   </g>
   <g id="text_24">
    <g clip-path="url(#p64b63899b2)">
     <!-- 0.708 -->
     <g transform="translate(134.527896 778.191134)scale(0.08 -0.08)">
      <defs>
       <path d="M 525 4666 
L 3525 4666 
L 3525 4397 
L 1831 0 
L 1172 0 
L 2766 4134 
L 525 4134 
L 525 4666 
z
" id="DejaVuSans-37" transform="scale(0.015625)"/>
      </defs>
      <use xlink:href="#DejaVuSans-30"/>
      <use x="63.623047" xlink:href="#DejaVuSans-2e"/>
      <use x="95.410156" xlink:href="#DejaVuSans-37"/>
      <use x="159.033203" xlink:href="#DejaVuSans-30"/>
      <use x="222.65625" xlink:href="#DejaVuSans-38"/>
     </g>
    </g>
   </g>
   <g id="text_25">
    <g clip-path="url(#p64b63899b2)">
     <!-- $\mathrm{R}_\mathrm{Y}$ -->
     <g transform="translate(138.439146 821.230492)scale(0.13 -0.13)">
      <use transform="translate(0 0.09375)" xlink:href="#DejaVuSans-52"/>
      <use transform="translate(70.439453 -16.3125)scale(0.7)" xlink:href="#DejaVuSans-59"/>
     </g>
    </g>
   </g>
   <g id="text_26">
    <g clip-path="url(#p64b63899b2)">
     <!-- 0.415 -->
     <g transform="translate(134.527896 837.074061)scale(0.08 -0.08)">
      <defs>
       <path d="M 2419 4116 
L 825 1625 
L 2419 1625 
L 2419 4116 
z
M 2253 4666 
L 3047 4666 
L 3047 1625 
L 3713 1625 
L 3713 1100 
L 3047 1100 
L 3047 0 
L 2419 0 
L 2419 1100 
L 313 1100 
L 313 1709 
L 2253 4666 
z
" id="DejaVuSans-34" transform="scale(0.015625)"/>
      </defs>
      <use xlink:href="#DejaVuSans-30"/>
      <use x="63.623047" xlink:href="#DejaVuSans-2e"/>
      <use x="95.410156" xlink:href="#DejaVuSans-34"/>
      <use x="159.033203" xlink:href="#DejaVuSans-31"/>
      <use x="222.65625" xlink:href="#DejaVuSans-35"/>
     </g>
    </g>
   </g>
   <g id="text_27">
    <g clip-path="url(#p64b63899b2)">
     <!-- $\mathrm{R}_\mathrm{Y}$ -->
     <g transform="translate(138.439146 880.113419)scale(0.13 -0.13)">
      <use transform="translate(0 0.09375)" xlink:href="#DejaVuSans-52"/>
      <use transform="translate(70.439453 -16.3125)scale(0.7)" xlink:href="#DejaVuSans-59"/>
     </g>
    </g>
   </g>
   <g id="text_28">
    <g clip-path="url(#p64b63899b2)">
     <!-- 3.03 -->
     <g transform="translate(137.072896 895.956988)scale(0.08 -0.08)">
      <use xlink:href="#DejaVuSans-33"/>
      <use x="63.623047" xlink:href="#DejaVuSans-2e"/>
      <use x="95.410156" xlink:href="#DejaVuSans-30"/>
      <use x="159.033203" xlink:href="#DejaVuSans-33"/>
     </g>
    </g>
   </g>
   <g id="text_29">
    <g clip-path="url(#p64b63899b2)">
     <!-- H -->
     <g transform="translate(141.090943 61.493529)scale(0.13 -0.13)">
      <defs>
       <path d="M 628 4666 
L 1259 4666 
L 1259 2753 
L 3553 2753 
L 3553 4666 
L 4184 4666 
L 4184 0 
L 3553 0 
L 3553 2222 
L 1259 2222 
L 1259 0 
L 628 0 
L 628 4666 
z
" id="DejaVuSans-48" transform="scale(0.015625)"/>
      </defs>
      <use xlink:href="#DejaVuSans-48"/>
     </g>
    </g>
   </g>
   <g id="text_30">
    <g clip-path="url(#p64b63899b2)">
     <!-- 0 -->
     <g transform="translate(185.875273 120.376456)scale(0.13 -0.13)">
      <use xlink:href="#DejaVuSans-30"/>
     </g>
    </g>
   </g>
   <g id="text_31">
    <g clip-path="url(#p64b63899b2)">
     <!-- 1 -->
     <g transform="translate(185.875273 179.259383)scale(0.13 -0.13)">
      <use xlink:href="#DejaVuSans-31"/>
     </g>
    </g>
   </g>
   <g id="text_32">
    <g clip-path="url(#p64b63899b2)">
     <!-- $\mathrm{R}_{\mathrm{YY}}$ -->
     <g transform="translate(201.004195 140.396651)scale(0.13 -0.13)">
      <use transform="translate(0 0.09375)" xlink:href="#DejaVuSans-52"/>
      <use transform="translate(70.439453 -16.3125)scale(0.7)" xlink:href="#DejaVuSans-59"/>
      <use transform="translate(113.198242 -16.3125)scale(0.7)" xlink:href="#DejaVuSans-59"/>
     </g>
    </g>
   </g>
   <g id="text_33">
    <g clip-path="url(#p64b63899b2)">
     <!-- 1.27 -->
     <g transform="translate(202.432945 158.448329)scale(0.08 -0.08)">
      <use xlink:href="#DejaVuSans-31"/>
      <use x="63.623047" xlink:href="#DejaVuSans-2e"/>
      <use x="95.410156" xlink:href="#DejaVuSans-32"/>
      <use x="159.033203" xlink:href="#DejaVuSans-37"/>
     </g>
    </g>
   </g>
   <g id="text_34">
    <g clip-path="url(#p64b63899b2)">
     <!-- 0 -->
     <g transform="translate(185.875273 532.556944)scale(0.13 -0.13)">
      <use xlink:href="#DejaVuSans-30"/>
     </g>
    </g>
   </g>
   <g id="text_35">
    <g clip-path="url(#p64b63899b2)">
     <!-- 1 -->
     <g transform="translate(185.875273 591.43987)scale(0.13 -0.13)">
      <use xlink:href="#DejaVuSans-31"/>
     </g>
    </g>
   </g>
   <g id="text_36">
    <g clip-path="url(#p64b63899b2)">
     <!-- $\mathrm{R}_{\mathrm{YY}}$ -->
     <g transform="translate(201.004195 552.577139)scale(0.13 -0.13)">
      <use transform="translate(0 0.09375)" xlink:href="#DejaVuSans-52"/>
      <use transform="translate(70.439453 -16.3125)scale(0.7)" xlink:href="#DejaVuSans-59"/>
      <use transform="translate(113.198242 -16.3125)scale(0.7)" xlink:href="#DejaVuSans-59"/>
     </g>
    </g>
   </g>
   <g id="text_37">
    <g clip-path="url(#p64b63899b2)">
     <!-- 2.58 -->
     <g transform="translate(202.432945 570.628817)scale(0.08 -0.08)">
      <use xlink:href="#DejaVuSans-32"/>
      <use x="63.623047" xlink:href="#DejaVuSans-2e"/>
      <use x="95.410156" xlink:href="#DejaVuSans-35"/>
      <use x="159.033203" xlink:href="#DejaVuSans-38"/>
     </g>
    </g>
   </g>
   <g id="text_38">
    <g clip-path="url(#p64b63899b2)">
     <!-- $\mathrm{R}_\mathrm{Y}$ -->
     <g transform="translate(256.205 173.518297)scale(0.13 -0.13)">
      <use transform="translate(0 0.09375)" xlink:href="#DejaVuSans-52"/>
      <use transform="translate(70.439453 -16.3125)scale(0.7)" xlink:href="#DejaVuSans-59"/>
     </g>
    </g>
   </g>
   <g id="text_39">
    <g clip-path="url(#p64b63899b2)">
     <!-- 2.9 -->
     <g transform="translate(257.38375 189.361866)scale(0.08 -0.08)">
      <use xlink:href="#DejaVuSans-32"/>
      <use x="63.623047" xlink:href="#DejaVuSans-2e"/>
      <use x="95.410156" xlink:href="#DejaVuSans-39"/>
     </g>
    </g>
   </g>
   <g id="text_40">
    <g clip-path="url(#p64b63899b2)">
     <!-- $\mathrm{R}_\mathrm{Y}$ -->
     <g transform="translate(256.205 585.698785)scale(0.13 -0.13)">
      <use transform="translate(0 0.09375)" xlink:href="#DejaVuSans-52"/>
      <use transform="translate(70.439453 -16.3125)scale(0.7)" xlink:href="#DejaVuSans-59"/>
     </g>
    </g>
   </g>
   <g id="text_41">
    <g clip-path="url(#p64b63899b2)">
     <!-- 2.99 -->
     <g transform="translate(254.83875 601.542354)scale(0.08 -0.08)">
      <use xlink:href="#DejaVuSans-32"/>
      <use x="63.623047" xlink:href="#DejaVuSans-2e"/>
      <use x="95.410156" xlink:href="#DejaVuSans-39"/>
      <use x="159.033203" xlink:href="#DejaVuSans-39"/>
     </g>
    </g>
   </g>
   <g id="text_42">
    <g clip-path="url(#p64b63899b2)">
     <!-- 0 -->
     <g transform="translate(303.641127 179.259383)scale(0.13 -0.13)">
      <use xlink:href="#DejaVuSans-30"/>
     </g>
    </g>
   </g>
   <g id="text_43">
    <g clip-path="url(#p64b63899b2)">
     <!-- 1 -->
     <g transform="translate(303.641127 238.142309)scale(0.13 -0.13)">
      <use xlink:href="#DejaVuSans-31"/>
     </g>
    </g>
   </g>
   <g id="text_44">
    <g clip-path="url(#p64b63899b2)">
     <!-- $\mathrm{R}_{\mathrm{YY}}$ -->
     <g transform="translate(318.770049 199.279578)scale(0.13 -0.13)">
      <use transform="translate(0 0.09375)" xlink:href="#DejaVuSans-52"/>
      <use transform="translate(70.439453 -16.3125)scale(0.7)" xlink:href="#DejaVuSans-59"/>
      <use transform="translate(113.198242 -16.3125)scale(0.7)" xlink:href="#DejaVuSans-59"/>
     </g>
    </g>
   </g>
   <g id="text_45">
    <g clip-path="url(#p64b63899b2)">
     <!-- 0.741 -->
     <g transform="translate(317.653799 217.331256)scale(0.08 -0.08)">
      <use xlink:href="#DejaVuSans-30"/>
      <use x="63.623047" xlink:href="#DejaVuSans-2e"/>
      <use x="95.410156" xlink:href="#DejaVuSans-37"/>
      <use x="159.033203" xlink:href="#DejaVuSans-34"/>
      <use x="222.65625" xlink:href="#DejaVuSans-31"/>
     </g>
    </g>
   </g>
   <g id="text_46">
    <g clip-path="url(#p64b63899b2)">
     <!-- 0 -->
     <g transform="translate(303.641127 591.43987)scale(0.13 -0.13)">
      <use xlink:href="#DejaVuSans-30"/>
     </g>
    </g>
   </g>
   <g id="text_47">
    <g clip-path="url(#p64b63899b2)">
     <!-- 1 -->
     <g transform="translate(303.641127 650.322797)scale(0.13 -0.13)">
      <use xlink:href="#DejaVuSans-31"/>
     </g>
    </g>
   </g>
   <g id="text_48">
    <g clip-path="url(#p64b63899b2)">
     <!-- $\mathrm{R}_{\mathrm{YY}}$ -->
     <g transform="translate(318.770049 611.460066)scale(0.13 -0.13)">
      <use transform="translate(0 0.09375)" xlink:href="#DejaVuSans-52"/>
      <use transform="translate(70.439453 -16.3125)scale(0.7)" xlink:href="#DejaVuSans-59"/>
      <use transform="translate(113.198242 -16.3125)scale(0.7)" xlink:href="#DejaVuSans-59"/>
     </g>
    </g>
   </g>
   <g id="text_49">
    <g clip-path="url(#p64b63899b2)">
     <!-- 3.12 -->
     <g transform="translate(320.198799 629.511744)scale(0.08 -0.08)">
      <use xlink:href="#DejaVuSans-33"/>
      <use x="63.623047" xlink:href="#DejaVuSans-2e"/>
      <use x="95.410156" xlink:href="#DejaVuSans-31"/>
      <use x="159.033203" xlink:href="#DejaVuSans-32"/>
     </g>
    </g>
   </g>
   <g id="text_50">
    <g clip-path="url(#p64b63899b2)">
     <!-- $\mathrm{R}_\mathrm{Y}$ -->
     <g transform="translate(373.970853 644.581712)scale(0.13 -0.13)">
      <use transform="translate(0 0.09375)" xlink:href="#DejaVuSans-52"/>
      <use transform="translate(70.439453 -16.3125)scale(0.7)" xlink:href="#DejaVuSans-59"/>
     </g>
    </g>
   </g>
   <g id="text_51">
    <g clip-path="url(#p64b63899b2)">
     <!-- 1 -->
     <g transform="translate(378.965853 660.42528)scale(0.08 -0.08)">
      <use xlink:href="#DejaVuSans-31"/>
     </g>
    </g>
   </g>
   <g id="text_52">
    <g clip-path="url(#p64b63899b2)">
     <!-- $\mathrm{R}_\mathrm{Y}$ -->
     <g transform="translate(432.85378 232.401224)scale(0.13 -0.13)">
      <use transform="translate(0 0.09375)" xlink:href="#DejaVuSans-52"/>
      <use transform="translate(70.439453 -16.3125)scale(0.7)" xlink:href="#DejaVuSans-59"/>
     </g>
    </g>
   </g>
   <g id="text_53">
    <g clip-path="url(#p64b63899b2)">
     <!-- 2.33 -->
     <g transform="translate(431.48753 248.244793)scale(0.08 -0.08)">
      <use xlink:href="#DejaVuSans-32"/>
      <use x="63.623047" xlink:href="#DejaVuSans-2e"/>
      <use x="95.410156" xlink:href="#DejaVuSans-33"/>
      <use x="159.033203" xlink:href="#DejaVuSans-33"/>
     </g>
    </g>
   </g>
   <g id="text_54">
    <g clip-path="url(#p64b63899b2)">
     <!-- 0 -->
     <g transform="translate(455.114512 933.099076)scale(0.104 -0.104)">
      <use xlink:href="#DejaVuSans-30"/>
     </g>
    </g>
   </g>
   <g id="text_55">
    <g clip-path="url(#p64b63899b2)">
     <!-- 0 -->
     <g transform="translate(480.289907 238.142309)scale(0.13 -0.13)">
      <use xlink:href="#DejaVuSans-30"/>
     </g>
    </g>
   </g>
   <g id="text_56">
    <g clip-path="url(#p64b63899b2)">
     <!-- 1 -->
     <g transform="translate(480.289907 297.025236)scale(0.13 -0.13)">
      <use xlink:href="#DejaVuSans-31"/>
     </g>
    </g>
   </g>
   <g id="text_57">
    <g clip-path="url(#p64b63899b2)">
     <!-- $\mathrm{R}_{\mathrm{YY}}$ -->
     <g transform="translate(495.418829 258.162505)scale(0.13 -0.13)">
      <use transform="translate(0 0.09375)" xlink:href="#DejaVuSans-52"/>
      <use transform="translate(70.439453 -16.3125)scale(0.7)" xlink:href="#DejaVuSans-59"/>
      <use transform="translate(113.198242 -16.3125)scale(0.7)" xlink:href="#DejaVuSans-59"/>
     </g>
    </g>
   </g>
   <g id="text_58">
    <g clip-path="url(#p64b63899b2)">
     <!-- 2.36 -->
     <g transform="translate(496.847579 276.214183)scale(0.08 -0.08)">
      <use xlink:href="#DejaVuSans-32"/>
      <use x="63.623047" xlink:href="#DejaVuSans-2e"/>
      <use x="95.410156" xlink:href="#DejaVuSans-33"/>
      <use x="159.033203" xlink:href="#DejaVuSans-36"/>
     </g>
    </g>
   </g>
   <g id="text_59">
    <g clip-path="url(#p64b63899b2)">
     <!-- 0 -->
     <g transform="translate(480.289907 650.322797)scale(0.13 -0.13)">
      <use xlink:href="#DejaVuSans-30"/>
     </g>
    </g>
   </g>
   <g id="text_60">
    <g clip-path="url(#p64b63899b2)">
     <!-- 1 -->
     <g transform="translate(480.289907 709.205724)scale(0.13 -0.13)">
      <use xlink:href="#DejaVuSans-31"/>
     </g>
    </g>
   </g>
   <g id="text_61">
    <g clip-path="url(#p64b63899b2)">
     <!-- $\mathrm{R}_{\mathrm{YY}}$ -->
     <g transform="translate(495.418829 670.342992)scale(0.13 -0.13)">
      <use transform="translate(0 0.09375)" xlink:href="#DejaVuSans-52"/>
      <use transform="translate(70.439453 -16.3125)scale(0.7)" xlink:href="#DejaVuSans-59"/>
      <use transform="translate(113.198242 -16.3125)scale(0.7)" xlink:href="#DejaVuSans-59"/>
     </g>
    </g>
   </g>
   <g id="text_62">
    <g clip-path="url(#p64b63899b2)">
     <!-- 2.15 -->
     <g transform="translate(496.847579 688.394671)scale(0.08 -0.08)">
      <use xlink:href="#DejaVuSans-32"/>
      <use x="63.623047" xlink:href="#DejaVuSans-2e"/>
      <use x="95.410156" xlink:href="#DejaVuSans-31"/>
      <use x="159.033203" xlink:href="#DejaVuSans-35"/>
     </g>
    </g>
   </g>
   <g id="text_63">
    <g clip-path="url(#p64b63899b2)">
     <!-- $\mathrm{R}_\mathrm{Y}$ -->
     <g transform="translate(550.619634 703.464639)scale(0.13 -0.13)">
      <use transform="translate(0 0.09375)" xlink:href="#DejaVuSans-52"/>
      <use transform="translate(70.439453 -16.3125)scale(0.7)" xlink:href="#DejaVuSans-59"/>
     </g>
    </g>
   </g>
   <g id="text_64">
    <g clip-path="url(#p64b63899b2)">
     <!-- 2.84 -->
     <g transform="translate(549.253384 719.308207)scale(0.08 -0.08)">
      <use xlink:href="#DejaVuSans-32"/>
      <use x="63.623047" xlink:href="#DejaVuSans-2e"/>
      <use x="95.410156" xlink:href="#DejaVuSans-38"/>
      <use x="159.033203" xlink:href="#DejaVuSans-34"/>
     </g>
    </g>
   </g>
   <g id="text_65">
    <g clip-path="url(#p64b63899b2)">
     <!-- $\mathrm{R}_\mathrm{Y}$ -->
     <g transform="translate(609.502561 291.284151)scale(0.13 -0.13)">
      <use transform="translate(0 0.09375)" xlink:href="#DejaVuSans-52"/>
      <use transform="translate(70.439453 -16.3125)scale(0.7)" xlink:href="#DejaVuSans-59"/>
     </g>
    </g>
   </g>
   <g id="text_66">
    <g clip-path="url(#p64b63899b2)">
     <!-- 2.83 -->
     <g transform="translate(608.136311 307.12772)scale(0.08 -0.08)">
      <use xlink:href="#DejaVuSans-32"/>
      <use x="63.623047" xlink:href="#DejaVuSans-2e"/>
      <use x="95.410156" xlink:href="#DejaVuSans-38"/>
      <use x="159.033203" xlink:href="#DejaVuSans-33"/>
     </g>
    </g>
   </g>
   <g id="text_67">
    <g clip-path="url(#p64b63899b2)">
     <!-- 1 -->
     <g transform="translate(631.763292 933.099076)scale(0.104 -0.104)">
      <use xlink:href="#DejaVuSans-31"/>
     </g>
    </g>
   </g>
   <g id="text_68">
    <g clip-path="url(#p64b63899b2)">
     <!-- 0 -->
     <g transform="translate(656.938688 297.025236)scale(0.13 -0.13)">
      <use xlink:href="#DejaVuSans-30"/>
     </g>
    </g>
   </g>
   <g id="text_69">
    <g clip-path="url(#p64b63899b2)">
     <!-- 1 -->
     <g transform="translate(656.938688 355.908163)scale(0.13 -0.13)">
      <use xlink:href="#DejaVuSans-31"/>
     </g>
    </g>
   </g>
   <g id="text_70">
    <g clip-path="url(#p64b63899b2)">
     <!-- $\mathrm{R}_{\mathrm{YY}}$ -->
     <g transform="translate(672.06761 317.045431)scale(0.13 -0.13)">
      <use transform="translate(0 0.09375)" xlink:href="#DejaVuSans-52"/>
      <use transform="translate(70.439453 -16.3125)scale(0.7)" xlink:href="#DejaVuSans-59"/>
      <use transform="translate(113.198242 -16.3125)scale(0.7)" xlink:href="#DejaVuSans-59"/>
     </g>
    </g>
   </g>
   <g id="text_71">
    <g clip-path="url(#p64b63899b2)">
     <!-- 1.59 -->
     <g transform="translate(673.49636 335.09711)scale(0.08 -0.08)">
      <use xlink:href="#DejaVuSans-31"/>
      <use x="63.623047" xlink:href="#DejaVuSans-2e"/>
      <use x="95.410156" xlink:href="#DejaVuSans-35"/>
      <use x="159.033203" xlink:href="#DejaVuSans-39"/>
     </g>
    </g>
   </g>
   <g id="text_72">
    <g clip-path="url(#p64b63899b2)">
     <!-- 0 -->
     <g transform="translate(656.938688 709.205724)scale(0.13 -0.13)">
      <use xlink:href="#DejaVuSans-30"/>
     </g>
    </g>
   </g>
   <g id="text_73">
    <g clip-path="url(#p64b63899b2)">
     <!-- 1 -->
     <g transform="translate(656.938688 768.088651)scale(0.13 -0.13)">
      <use xlink:href="#DejaVuSans-31"/>
     </g>
    </g>
   </g>
   <g id="text_74">
    <g clip-path="url(#p64b63899b2)">
     <!-- $\mathrm{R}_{\mathrm{YY}}$ -->
     <g transform="translate(672.06761 729.225919)scale(0.13 -0.13)">
      <use transform="translate(0 0.09375)" xlink:href="#DejaVuSans-52"/>
      <use transform="translate(70.439453 -16.3125)scale(0.7)" xlink:href="#DejaVuSans-59"/>
      <use transform="translate(113.198242 -16.3125)scale(0.7)" xlink:href="#DejaVuSans-59"/>
     </g>
    </g>
   </g>
   <g id="text_75">
    <g clip-path="url(#p64b63899b2)">
     <!-- 1.06 -->
     <g transform="translate(673.49636 747.277598)scale(0.08 -0.08)">
      <use xlink:href="#DejaVuSans-31"/>
      <use x="63.623047" xlink:href="#DejaVuSans-2e"/>
      <use x="95.410156" xlink:href="#DejaVuSans-30"/>
      <use x="159.033203" xlink:href="#DejaVuSans-36"/>
     </g>
    </g>
   </g>
   <g id="text_76">
    <g clip-path="url(#p64b63899b2)">
     <!-- $\mathrm{R}_\mathrm{Y}$ -->
     <g transform="translate(727.268414 762.347566)scale(0.13 -0.13)">
      <use transform="translate(0 0.09375)" xlink:href="#DejaVuSans-52"/>
      <use transform="translate(70.439453 -16.3125)scale(0.7)" xlink:href="#DejaVuSans-59"/>
     </g>
    </g>
   </g>
   <g id="text_77">
    <g clip-path="url(#p64b63899b2)">
     <!-- 1.69 -->
     <g transform="translate(725.902164 778.191134)scale(0.08 -0.08)">
      <use xlink:href="#DejaVuSans-31"/>
      <use x="63.623047" xlink:href="#DejaVuSans-2e"/>
      <use x="95.410156" xlink:href="#DejaVuSans-36"/>
      <use x="159.033203" xlink:href="#DejaVuSans-39"/>
     </g>
    </g>
   </g>
   <g id="text_78">
    <g clip-path="url(#p64b63899b2)">
     <!-- $\mathrm{R}_\mathrm{Y}$ -->
     <g transform="translate(786.151341 350.167078)scale(0.13 -0.13)">
      <use transform="translate(0 0.09375)" xlink:href="#DejaVuSans-52"/>
      <use transform="translate(70.439453 -16.3125)scale(0.7)" xlink:href="#DejaVuSans-59"/>
     </g>
    </g>
   </g>
   <g id="text_79">
    <g clip-path="url(#p64b63899b2)">
     <!-- 2.19 -->
     <g transform="translate(784.785091 366.010646)scale(0.08 -0.08)">
      <use xlink:href="#DejaVuSans-32"/>
      <use x="63.623047" xlink:href="#DejaVuSans-2e"/>
      <use x="95.410156" xlink:href="#DejaVuSans-31"/>
      <use x="159.033203" xlink:href="#DejaVuSans-39"/>
     </g>
    </g>
   </g>
   <g id="text_80">
    <g clip-path="url(#p64b63899b2)">
     <!-- 2 -->
     <g transform="translate(808.412073 933.099076)scale(0.104 -0.104)">
      <use xlink:href="#DejaVuSans-32"/>
     </g>
    </g>
   </g>
   <g id="text_81">
    <g clip-path="url(#p64b63899b2)">
     <!-- 0 -->
     <g transform="translate(833.587468 355.908163)scale(0.13 -0.13)">
      <use xlink:href="#DejaVuSans-30"/>
     </g>
    </g>
   </g>
   <g id="text_82">
    <g clip-path="url(#p64b63899b2)">
     <!-- 1 -->
     <g transform="translate(833.587468 414.79109)scale(0.13 -0.13)">
      <use xlink:href="#DejaVuSans-31"/>
     </g>
    </g>
   </g>
   <g id="text_83">
    <g clip-path="url(#p64b63899b2)">
     <!-- $\mathrm{R}_{\mathrm{YY}}$ -->
     <g transform="translate(848.71639 375.928358)scale(0.13 -0.13)">
      <use transform="translate(0 0.09375)" xlink:href="#DejaVuSans-52"/>
      <use transform="translate(70.439453 -16.3125)scale(0.7)" xlink:href="#DejaVuSans-59"/>
      <use transform="translate(113.198242 -16.3125)scale(0.7)" xlink:href="#DejaVuSans-59"/>
     </g>
    </g>
   </g>
   <g id="text_84">
    <g clip-path="url(#p64b63899b2)">
     <!-- 3.11 -->
     <g transform="translate(850.14514 393.980037)scale(0.08 -0.08)">
      <use xlink:href="#DejaVuSans-33"/>
      <use x="63.623047" xlink:href="#DejaVuSans-2e"/>
      <use x="95.410156" xlink:href="#DejaVuSans-31"/>
      <use x="159.033203" xlink:href="#DejaVuSans-31"/>
     </g>
    </g>
   </g>
   <g id="text_85">
    <g clip-path="url(#p64b63899b2)">
     <!-- 0 -->
     <g transform="translate(833.587468 768.088651)scale(0.13 -0.13)">
      <use xlink:href="#DejaVuSans-30"/>
     </g>
    </g>
   </g>
   <g id="text_86">
    <g clip-path="url(#p64b63899b2)">
     <!-- 1 -->
     <g transform="translate(833.587468 826.971578)scale(0.13 -0.13)">
      <use xlink:href="#DejaVuSans-31"/>
     </g>
    </g>
   </g>
   <g id="text_87">
    <g clip-path="url(#p64b63899b2)">
     <!-- $\mathrm{R}_{\mathrm{YY}}$ -->
     <g transform="translate(848.71639 788.108846)scale(0.13 -0.13)">
      <use transform="translate(0 0.09375)" xlink:href="#DejaVuSans-52"/>
      <use transform="translate(70.439453 -16.3125)scale(0.7)" xlink:href="#DejaVuSans-59"/>
      <use transform="translate(113.198242 -16.3125)scale(0.7)" xlink:href="#DejaVuSans-59"/>
     </g>
    </g>
   </g>
   <g id="text_88">
    <g clip-path="url(#p64b63899b2)">
     <!-- 2.78 -->
     <g transform="translate(850.14514 806.160524)scale(0.08 -0.08)">
      <use xlink:href="#DejaVuSans-32"/>
      <use x="63.623047" xlink:href="#DejaVuSans-2e"/>
      <use x="95.410156" xlink:href="#DejaVuSans-37"/>
      <use x="159.033203" xlink:href="#DejaVuSans-38"/>
     </g>
    </g>
   </g>
   <g id="text_89">
    <g clip-path="url(#p64b63899b2)">
     <!-- $\mathrm{R}_\mathrm{Y}$ -->
     <g transform="translate(903.917195 821.230492)scale(0.13 -0.13)">
      <use transform="translate(0 0.09375)" xlink:href="#DejaVuSans-52"/>
      <use transform="translate(70.439453 -16.3125)scale(0.7)" xlink:href="#DejaVuSans-59"/>
     </g>
    </g>
   </g>
   <g id="text_90">
    <g clip-path="url(#p64b63899b2)">
     <!-- 0.463 -->
     <g transform="translate(900.005945 837.074061)scale(0.08 -0.08)">
      <use xlink:href="#DejaVuSans-30"/>
      <use x="63.623047" xlink:href="#DejaVuSans-2e"/>
      <use x="95.410156" xlink:href="#DejaVuSans-34"/>
      <use x="159.033203" xlink:href="#DejaVuSans-36"/>
      <use x="222.65625" xlink:href="#DejaVuSans-33"/>
     </g>
    </g>
   </g>
   <g id="text_91">
    <g clip-path="url(#p64b63899b2)">
     <!-- $\mathrm{R}_\mathrm{Y}$ -->
     <g transform="translate(962.800122 409.050005)scale(0.13 -0.13)">
      <use transform="translate(0 0.09375)" xlink:href="#DejaVuSans-52"/>
      <use transform="translate(70.439453 -16.3125)scale(0.7)" xlink:href="#DejaVuSans-59"/>
     </g>
    </g>
   </g>
   <g id="text_92">
    <g clip-path="url(#p64b63899b2)">
     <!-- 2.4 -->
     <g transform="translate(963.978872 424.893573)scale(0.08 -0.08)">
      <use xlink:href="#DejaVuSans-32"/>
      <use x="63.623047" xlink:href="#DejaVuSans-2e"/>
      <use x="95.410156" xlink:href="#DejaVuSans-34"/>
     </g>
    </g>
   </g>
   <g id="text_93">
    <g clip-path="url(#p64b63899b2)">
     <!-- 3 -->
     <g transform="translate(985.060853 933.099076)scale(0.104 -0.104)">
      <use xlink:href="#DejaVuSans-33"/>
     </g>
    </g>
   </g>
   <g id="text_94">
    <g clip-path="url(#p64b63899b2)">
     <!-- 0 -->
     <g transform="translate(1010.236249 414.79109)scale(0.13 -0.13)">
      <use xlink:href="#DejaVuSans-30"/>
     </g>
    </g>
   </g>
   <g id="text_95">
    <g clip-path="url(#p64b63899b2)">
     <!-- 1 -->
     <g transform="translate(1010.236249 473.674017)scale(0.13 -0.13)">
      <use xlink:href="#DejaVuSans-31"/>
     </g>
    </g>
   </g>
   <g id="text_96">
    <g clip-path="url(#p64b63899b2)">
     <!-- $\mathrm{R}_{\mathrm{YY}}$ -->
     <g transform="translate(1025.365171 434.811285)scale(0.13 -0.13)">
      <use transform="translate(0 0.09375)" xlink:href="#DejaVuSans-52"/>
      <use transform="translate(70.439453 -16.3125)scale(0.7)" xlink:href="#DejaVuSans-59"/>
      <use transform="translate(113.198242 -16.3125)scale(0.7)" xlink:href="#DejaVuSans-59"/>
     </g>
    </g>
   </g>
   <g id="text_97">
    <g clip-path="url(#p64b63899b2)">
     <!-- 1.13 -->
     <g transform="translate(1026.793921 452.862963)scale(0.08 -0.08)">
      <use xlink:href="#DejaVuSans-31"/>
      <use x="63.623047" xlink:href="#DejaVuSans-2e"/>
      <use x="95.410156" xlink:href="#DejaVuSans-31"/>
      <use x="159.033203" xlink:href="#DejaVuSans-33"/>
     </g>
    </g>
   </g>
   <g id="text_98">
    <g clip-path="url(#p64b63899b2)">
     <!-- 0 -->
     <g transform="translate(1010.236249 826.971578)scale(0.13 -0.13)">
      <use xlink:href="#DejaVuSans-30"/>
     </g>
    </g>
   </g>
   <g id="text_99">
    <g clip-path="url(#p64b63899b2)">
     <!-- 1 -->
     <g transform="translate(1010.236249 885.854505)scale(0.13 -0.13)">
      <use xlink:href="#DejaVuSans-31"/>
     </g>
    </g>
   </g>
   <g id="text_100">
    <g clip-path="url(#p64b63899b2)">
     <!-- $\mathrm{R}_{\mathrm{YY}}$ -->
     <g transform="translate(1025.365171 846.991773)scale(0.13 -0.13)">
      <use transform="translate(0 0.09375)" xlink:href="#DejaVuSans-52"/>
      <use transform="translate(70.439453 -16.3125)scale(0.7)" xlink:href="#DejaVuSans-59"/>
      <use transform="translate(113.198242 -16.3125)scale(0.7)" xlink:href="#DejaVuSans-59"/>
     </g>
    </g>
   </g>
   <g id="text_101">
    <g clip-path="url(#p64b63899b2)">
     <!-- 2.78 -->
     <g transform="translate(1026.793921 865.043451)scale(0.08 -0.08)">
      <use xlink:href="#DejaVuSans-32"/>
      <use x="63.623047" xlink:href="#DejaVuSans-2e"/>
      <use x="95.410156" xlink:href="#DejaVuSans-37"/>
      <use x="159.033203" xlink:href="#DejaVuSans-38"/>
     </g>
    </g>
   </g>
   <g id="text_102">
    <g clip-path="url(#p64b63899b2)">
     <!-- $\mathrm{R}_\mathrm{Y}$ -->
     <g transform="translate(1080.565975 880.113419)scale(0.13 -0.13)">
      <use transform="translate(0 0.09375)" xlink:href="#DejaVuSans-52"/>
      <use transform="translate(70.439453 -16.3125)scale(0.7)" xlink:href="#DejaVuSans-59"/>
     </g>
    </g>
   </g>
   <g id="text_103">
    <g clip-path="url(#p64b63899b2)">
     <!-- 1.16 -->
     <g transform="translate(1079.199725 895.956988)scale(0.08 -0.08)">
      <use xlink:href="#DejaVuSans-31"/>
      <use x="63.623047" xlink:href="#DejaVuSans-2e"/>
      <use x="95.410156" xlink:href="#DejaVuSans-31"/>
      <use x="159.033203" xlink:href="#DejaVuSans-36"/>
     </g>
    </g>
   </g>
   <g id="text_104">
    <g clip-path="url(#p64b63899b2)">
     <!-- $\mathrm{R}_\mathrm{Y}$ -->
     <g transform="translate(1139.448902 467.932931)scale(0.13 -0.13)">
      <use transform="translate(0 0.09375)" xlink:href="#DejaVuSans-52"/>
      <use transform="translate(70.439453 -16.3125)scale(0.7)" xlink:href="#DejaVuSans-59"/>
     </g>
    </g>
   </g>
   <g id="text_105">
    <g clip-path="url(#p64b63899b2)">
     <!-- 2.98 -->
     <g transform="translate(1138.082652 483.7765)scale(0.08 -0.08)">
      <use xlink:href="#DejaVuSans-32"/>
      <use x="63.623047" xlink:href="#DejaVuSans-2e"/>
      <use x="95.410156" xlink:href="#DejaVuSans-39"/>
      <use x="159.033203" xlink:href="#DejaVuSans-38"/>
     </g>
    </g>
   </g>
   <g id="text_106">
    <g clip-path="url(#p64b63899b2)">
     <!-- 4 -->
     <g transform="translate(1161.709634 933.099076)scale(0.104 -0.104)">
      <use xlink:href="#DejaVuSans-34"/>
     </g>
    </g>
   </g>
   <g id="text_107">
    <g clip-path="url(#p64b63899b2)">
     <!-- 5 -->
     <g transform="translate(1338.358414 933.099076)scale(0.104 -0.104)">
      <use xlink:href="#DejaVuSans-35"/>
     </g>
    </g>
   </g>
   <g id="text_108">
    <g clip-path="url(#p64b63899b2)">
     <!-- H -->
     <g transform="translate(1318.74948 61.493529)scale(0.13 -0.13)">
      <use xlink:href="#DejaVuSans-48"/>
     </g>
    </g>
   </g>
   <g id="text_109">
    <g clip-path="url(#p64b63899b2)">
     <!-- 6 -->
     <g transform="translate(1397.241341 933.099076)scale(0.104 -0.104)">
      <use xlink:href="#DejaVuSans-36"/>
     </g>
    </g>
   </g>
   <g id="text_110">
    <g clip-path="url(#p64b63899b2)">
     <!-- ${q0}_{0}$ -->
     <g transform="translate(73.80578 62.357318)scale(0.1625 -0.1625)">
      <defs>
       <path d="M 2669 525 
Q 2438 222 2123 65 
Q 1809 -91 1428 -91 
Q 897 -91 595 267 
Q 294 625 294 1253 
Q 294 1759 480 2231 
Q 666 2703 1013 3078 
Q 1238 3322 1530 3453 
Q 1822 3584 2144 3584 
Q 2531 3584 2781 3431 
Q 3031 3278 3144 2969 
L 3244 3494 
L 3822 3494 
L 2888 -1319 
L 2309 -1319 
L 2669 525 
z
M 891 1338 
Q 891 875 1084 633 
Q 1278 391 1644 391 
Q 2188 391 2572 911 
Q 2956 1431 2956 2175 
Q 2956 2625 2757 2864 
Q 2559 3103 2188 3103 
Q 1916 3103 1684 2976 
Q 1453 2850 1281 2606 
Q 1100 2350 995 2006 
Q 891 1663 891 1338 
z
" id="DejaVuSans-Oblique-71" transform="scale(0.015625)"/>
      </defs>
      <use transform="translate(0 0.78125)" xlink:href="#DejaVuSans-Oblique-71"/>
      <use transform="translate(63.476562 0.78125)" xlink:href="#DejaVuSans-30"/>
      <use transform="translate(128.056641 -15.625)scale(0.7)" xlink:href="#DejaVuSans-30"/>
     </g>
    </g>
   </g>
   <g id="text_111">
    <g clip-path="url(#p64b63899b2)">
     <!-- ${q0}_{1}$ -->
     <g transform="translate(73.80578 121.240245)scale(0.1625 -0.1625)">
      <use transform="translate(0 0.78125)" xlink:href="#DejaVuSans-Oblique-71"/>
      <use transform="translate(63.476562 0.78125)" xlink:href="#DejaVuSans-30"/>
      <use transform="translate(128.056641 -15.625)scale(0.7)" xlink:href="#DejaVuSans-31"/>
     </g>
    </g>
   </g>
   <g id="text_112">
    <g clip-path="url(#p64b63899b2)">
     <!-- ${q0}_{2}$ -->
     <g transform="translate(73.80578 180.123172)scale(0.1625 -0.1625)">
      <use transform="translate(0 0.78125)" xlink:href="#DejaVuSans-Oblique-71"/>
      <use transform="translate(63.476562 0.78125)" xlink:href="#DejaVuSans-30"/>
      <use transform="translate(128.056641 -15.625)scale(0.7)" xlink:href="#DejaVuSans-32"/>
     </g>
    </g>
   </g>
   <g id="text_113">
    <g clip-path="url(#p64b63899b2)">
     <!-- ${q0}_{3}$ -->
     <g transform="translate(73.80578 239.006099)scale(0.1625 -0.1625)">
      <use transform="translate(0 0.78125)" xlink:href="#DejaVuSans-Oblique-71"/>
      <use transform="translate(63.476562 0.78125)" xlink:href="#DejaVuSans-30"/>
      <use transform="translate(128.056641 -15.625)scale(0.7)" xlink:href="#DejaVuSans-33"/>
     </g>
    </g>
   </g>
   <g id="text_114">
    <g clip-path="url(#p64b63899b2)">
     <!-- ${q0}_{4}$ -->
     <g transform="translate(73.80578 297.889025)scale(0.1625 -0.1625)">
      <use transform="translate(0 0.78125)" xlink:href="#DejaVuSans-Oblique-71"/>
      <use transform="translate(63.476562 0.78125)" xlink:href="#DejaVuSans-30"/>
      <use transform="translate(128.056641 -15.625)scale(0.7)" xlink:href="#DejaVuSans-34"/>
     </g>
    </g>
   </g>
   <g id="text_115">
    <g clip-path="url(#p64b63899b2)">
     <!-- ${q0}_{5}$ -->
     <g transform="translate(73.80578 356.771952)scale(0.1625 -0.1625)">
      <use transform="translate(0 0.78125)" xlink:href="#DejaVuSans-Oblique-71"/>
      <use transform="translate(63.476562 0.78125)" xlink:href="#DejaVuSans-30"/>
      <use transform="translate(128.056641 -15.625)scale(0.7)" xlink:href="#DejaVuSans-35"/>
     </g>
    </g>
   </g>
   <g id="text_116">
    <g clip-path="url(#p64b63899b2)">
     <!-- ${q0}_{6}$ -->
     <g transform="translate(73.80578 415.654879)scale(0.1625 -0.1625)">
      <use transform="translate(0 0.78125)" xlink:href="#DejaVuSans-Oblique-71"/>
      <use transform="translate(63.476562 0.78125)" xlink:href="#DejaVuSans-30"/>
      <use transform="translate(128.056641 -15.625)scale(0.7)" xlink:href="#DejaVuSans-36"/>
     </g>
    </g>
   </g>
   <g id="text_117">
    <g clip-path="url(#p64b63899b2)">
     <!-- ${q0}_{7}$ -->
     <g transform="translate(73.80578 474.537806)scale(0.1625 -0.1625)">
      <use transform="translate(0 0.78125)" xlink:href="#DejaVuSans-Oblique-71"/>
      <use transform="translate(63.476562 0.78125)" xlink:href="#DejaVuSans-30"/>
      <use transform="translate(128.056641 -15.625)scale(0.7)" xlink:href="#DejaVuSans-37"/>
     </g>
    </g>
   </g>
   <g id="text_118">
    <g clip-path="url(#p64b63899b2)">
     <!-- ${q0}_{8}$ -->
     <g transform="translate(73.80578 533.420733)scale(0.1625 -0.1625)">
      <use transform="translate(0 0.78125)" xlink:href="#DejaVuSans-Oblique-71"/>
      <use transform="translate(63.476562 0.78125)" xlink:href="#DejaVuSans-30"/>
      <use transform="translate(128.056641 -15.625)scale(0.7)" xlink:href="#DejaVuSans-38"/>
     </g>
    </g>
   </g>
   <g id="text_119">
    <g clip-path="url(#p64b63899b2)">
     <!-- ${q0}_{9}$ -->
     <g transform="translate(73.80578 592.303659)scale(0.1625 -0.1625)">
      <use transform="translate(0 0.78125)" xlink:href="#DejaVuSans-Oblique-71"/>
      <use transform="translate(63.476562 0.78125)" xlink:href="#DejaVuSans-30"/>
      <use transform="translate(128.056641 -15.625)scale(0.7)" xlink:href="#DejaVuSans-39"/>
     </g>
    </g>
   </g>
   <g id="text_120">
    <g clip-path="url(#p64b63899b2)">
     <!-- ${q0}_{10}$ -->
     <g transform="translate(66.65578 651.186586)scale(0.1625 -0.1625)">
      <use transform="translate(0 0.78125)" xlink:href="#DejaVuSans-Oblique-71"/>
      <use transform="translate(63.476562 0.78125)" xlink:href="#DejaVuSans-30"/>
      <use transform="translate(128.056641 -15.625)scale(0.7)" xlink:href="#DejaVuSans-31"/>
      <use transform="translate(172.592773 -15.625)scale(0.7)" xlink:href="#DejaVuSans-30"/>
     </g>
    </g>
   </g>
   <g id="text_121">
    <g clip-path="url(#p64b63899b2)">
     <!-- ${q0}_{11}$ -->
     <g transform="translate(66.65578 710.069513)scale(0.1625 -0.1625)">
      <use transform="translate(0 0.78125)" xlink:href="#DejaVuSans-Oblique-71"/>
      <use transform="translate(63.476562 0.78125)" xlink:href="#DejaVuSans-30"/>
      <use transform="translate(128.056641 -15.625)scale(0.7)" xlink:href="#DejaVuSans-31"/>
      <use transform="translate(172.592773 -15.625)scale(0.7)" xlink:href="#DejaVuSans-31"/>
     </g>
    </g>
   </g>
   <g id="text_122">
    <g clip-path="url(#p64b63899b2)">
     <!-- ${q0}_{12}$ -->
     <g transform="translate(66.65578 768.95244)scale(0.1625 -0.1625)">
      <use transform="translate(0 0.78125)" xlink:href="#DejaVuSans-Oblique-71"/>
      <use transform="translate(63.476562 0.78125)" xlink:href="#DejaVuSans-30"/>
      <use transform="translate(128.056641 -15.625)scale(0.7)" xlink:href="#DejaVuSans-31"/>
      <use transform="translate(172.592773 -15.625)scale(0.7)" xlink:href="#DejaVuSans-32"/>
     </g>
    </g>
   </g>
   <g id="text_123">
    <g clip-path="url(#p64b63899b2)">
     <!-- ${q0}_{13}$ -->
     <g transform="translate(66.65578 827.835367)scale(0.1625 -0.1625)">
      <use transform="translate(0 0.78125)" xlink:href="#DejaVuSans-Oblique-71"/>
      <use transform="translate(63.476562 0.78125)" xlink:href="#DejaVuSans-30"/>
      <use transform="translate(128.056641 -15.625)scale(0.7)" xlink:href="#DejaVuSans-31"/>
      <use transform="translate(172.592773 -15.625)scale(0.7)" xlink:href="#DejaVuSans-33"/>
     </g>
    </g>
   </g>
   <g id="text_124">
    <g clip-path="url(#p64b63899b2)">
     <!-- ${q0}_{14}$ -->
     <g transform="translate(66.65578 886.718294)scale(0.1625 -0.1625)">
      <use transform="translate(0 0.78125)" xlink:href="#DejaVuSans-Oblique-71"/>
      <use transform="translate(63.476562 0.78125)" xlink:href="#DejaVuSans-30"/>
      <use transform="translate(128.056641 -15.625)scale(0.7)" xlink:href="#DejaVuSans-31"/>
      <use transform="translate(172.592773 -15.625)scale(0.7)" xlink:href="#DejaVuSans-34"/>
     </g>
    </g>
   </g>
   <g id="text_125">
    <g clip-path="url(#p64b63899b2)">
     <!-- 7 -->
     <g transform="translate(120.070658 933.099076)scale(0.104 -0.104)">
      <use xlink:href="#DejaVuSans-37"/>
     </g>
    </g>
   </g>
   <g id="text_126">
    <g clip-path="url(#p64b63899b2)">
     <!-- c0 -->
     <g transform="translate(83.131757 945.634228)scale(0.1625 -0.1625)">
      <defs>
       <path d="M 3122 3366 
L 3122 2828 
Q 2878 2963 2633 3030 
Q 2388 3097 2138 3097 
Q 1578 3097 1268 2742 
Q 959 2388 959 1747 
Q 959 1106 1268 751 
Q 1578 397 2138 397 
Q 2388 397 2633 464 
Q 2878 531 3122 666 
L 3122 134 
Q 2881 22 2623 -34 
Q 2366 -91 2075 -91 
Q 1284 -91 818 406 
Q 353 903 353 1747 
Q 353 2603 823 3093 
Q 1294 3584 2113 3584 
Q 2378 3584 2631 3529 
Q 2884 3475 3122 3366 
z
" id="DejaVuSans-63" transform="scale(0.015625)"/>
      </defs>
      <use xlink:href="#DejaVuSans-63"/>
      <use x="54.980469" xlink:href="#DejaVuSans-30"/>
     </g>
    </g>
   </g>
  </g>
 </g>
 <defs>
  <clipPath id="p64b63899b2">
   <rect height="965.68" width="1405.662651" x="15.720691" y="10.8"/>
  </clipPath>
 </defs>
</svg>
