<?xml version="1.0" encoding="utf-8" standalone="no"?>
<!DOCTYPE svg PUBLIC "-//W3C//DTD SVG 1.1//EN"
  "http://www.w3.org/Graphics/SVG/1.1/DTD/svg11.dtd">
<svg height="746.48pt" version="1.1" viewBox="0 0 594.013266 746.48" width="594.013266pt" xmlns="http://www.w3.org/2000/svg" xmlns:xlink="http://www.w3.org/1999/xlink">
 <metadata>
  <rdf:RDF xmlns:cc="http://creativecommons.org/ns#" xmlns:dc="http://purl.org/dc/elements/1.1/" xmlns:rdf="http://www.w3.org/1999/02/22-rdf-syntax-ns#">
   <cc:Work>
    <dc:type rdf:resource="http://purl.org/dc/dcmitype/StillImage"/>
    <dc:date>2021-06-09T11:02:34.431087</dc:date>
    <dc:format>image/svg+xml</dc:format>
    <dc:creator>
     <cc:Agent>
      <dc:title>Matplotlib v3.4.2, https://matplotlib.org/</dc:title>
     </cc:Agent>
    </dc:creator>
   </cc:Work>
  </rdf:RDF>
 </metadata>
 <defs>
  <style type="text/css">*{stroke-linecap:butt;stroke-linejoin:round;}</style>
 </defs>
 <g id="figure_1">
  <g id="patch_1">
   <path d="M 0 746.48 
L 594.013266 746.48 
L 594.013266 0 
L 0 0 
z
" style="fill:#ffffff;"/>
  </g>
  <g id="axes_1">
   <g id="patch_2">
    <path clip-path="url(#p9ed5bda169)" d="M 537.384609 684.903872 
L 552.467458 684.903872 
L 544.926034 695.780926 
z
" style="fill:#778899;"/>
   </g>
   <g id="line2d_1">
    <path clip-path="url(#p9ed5bda169)" d="M 107.523411 59.980827 
L 577.41217 59.980827 
" style="fill:none;stroke:#000000;stroke-linecap:square;stroke-width:2;"/>
   </g>
   <g id="line2d_2">
    <path clip-path="url(#p9ed5bda169)" d="M 107.523411 117.991785 
L 577.41217 117.991785 
" style="fill:none;stroke:#000000;stroke-linecap:square;stroke-width:2;"/>
   </g>
   <g id="line2d_3">
    <path clip-path="url(#p9ed5bda169)" d="M 107.523411 176.002743 
L 577.41217 176.002743 
" style="fill:none;stroke:#000000;stroke-linecap:square;stroke-width:2;"/>
   </g>
   <g id="line2d_4">
    <path clip-path="url(#p9ed5bda169)" d="M 107.523411 234.013701 
L 577.41217 234.013701 
" style="fill:none;stroke:#000000;stroke-linecap:square;stroke-width:2;"/>
   </g>
   <g id="line2d_5">
    <path clip-path="url(#p9ed5bda169)" d="M 107.523411 292.024659 
L 577.41217 292.024659 
" style="fill:none;stroke:#000000;stroke-linecap:square;stroke-width:2;"/>
   </g>
   <g id="line2d_6">
    <path clip-path="url(#p9ed5bda169)" d="M 107.523411 350.035617 
L 577.41217 350.035617 
" style="fill:none;stroke:#000000;stroke-linecap:square;stroke-width:2;"/>
   </g>
   <g id="line2d_7">
    <path clip-path="url(#p9ed5bda169)" d="M 107.523411 408.046575 
L 577.41217 408.046575 
" style="fill:none;stroke:#000000;stroke-linecap:square;stroke-width:2;"/>
   </g>
   <g id="line2d_8">
    <path clip-path="url(#p9ed5bda169)" d="M 107.523411 466.057533 
L 577.41217 466.057533 
" style="fill:none;stroke:#000000;stroke-linecap:square;stroke-width:2;"/>
   </g>
   <g id="line2d_9">
    <path clip-path="url(#p9ed5bda169)" d="M 107.523411 524.068491 
L 577.41217 524.068491 
" style="fill:none;stroke:#000000;stroke-linecap:square;stroke-width:2;"/>
   </g>
   <g id="line2d_10">
    <path clip-path="url(#p9ed5bda169)" d="M 107.523411 582.079449 
L 577.41217 582.079449 
" style="fill:none;stroke:#000000;stroke-linecap:square;stroke-width:2;"/>
   </g>
   <g id="line2d_11">
    <path clip-path="url(#p9ed5bda169)" d="M 107.523411 640.090407 
L 577.41217 640.090407 
" style="fill:none;stroke:#000000;stroke-linecap:square;stroke-width:2;"/>
   </g>
   <g id="line2d_12">
    <path clip-path="url(#p9ed5bda169)" d="M 107.523411 696.216009 
L 577.41217 696.216009 
" style="fill:none;stroke:#778899;stroke-linecap:square;stroke-width:2;"/>
   </g>
   <g id="line2d_13">
    <path clip-path="url(#p9ed5bda169)" d="M 107.523411 699.986721 
L 577.41217 699.986721 
" style="fill:none;stroke:#778899;stroke-linecap:square;stroke-width:2;"/>
   </g>
   <g id="line2d_14">
    <path clip-path="url(#p9ed5bda169)" d="M 196.860286 408.046575 
L 196.860286 59.980827 
" style="fill:none;stroke:#bb8bff;stroke-linecap:square;stroke-width:2;"/>
   </g>
   <g id="line2d_15">
    <path clip-path="url(#p9ed5bda169)" d="M 254.871244 466.057533 
L 254.871244 59.980827 
" style="fill:none;stroke:#bb8bff;stroke-linecap:square;stroke-width:2;"/>
   </g>
   <g id="line2d_16">
    <path clip-path="url(#p9ed5bda169)" d="M 312.882202 524.068491 
L 312.882202 59.980827 
" style="fill:none;stroke:#bb8bff;stroke-linecap:square;stroke-width:2;"/>
   </g>
   <g id="line2d_17">
    <path clip-path="url(#p9ed5bda169)" d="M 370.89316 582.079449 
L 370.89316 59.980827 
" style="fill:none;stroke:#bb8bff;stroke-linecap:square;stroke-width:2;"/>
   </g>
   <g id="line2d_18">
    <path clip-path="url(#p9ed5bda169)" d="M 428.904118 640.090407 
L 428.904118 59.980827 
" style="fill:none;stroke:#bb8bff;stroke-linecap:square;stroke-width:2;"/>
   </g>
   <g id="line2d_19">
    <path clip-path="url(#p9ed5bda169)" d="M 546.81139 59.980827 
L 546.81139 684.903872 
" style="fill:none;stroke:#778899;stroke-linecap:square;stroke-width:2;"/>
   </g>
   <g id="line2d_20">
    <path clip-path="url(#p9ed5bda169)" d="M 543.040678 59.980827 
L 543.040678 684.903872 
" style="fill:none;stroke:#778899;stroke-linecap:square;stroke-width:2;"/>
   </g>
   <g id="line2d_21">
    <path clip-path="url(#p9ed5bda169)" d="M 189.318861 125.533209 
L 204.40171 110.45036 
" style="fill:none;stroke:#bb8bff;stroke-linecap:square;stroke-width:2;"/>
   </g>
   <g id="line2d_22">
    <path clip-path="url(#p9ed5bda169)" d="M 189.318861 110.45036 
L 204.40171 125.533209 
" style="fill:none;stroke:#bb8bff;stroke-linecap:square;stroke-width:2;"/>
   </g>
   <g id="line2d_23">
    <path clip-path="url(#p9ed5bda169)" d="M 189.318861 415.587999 
L 204.40171 400.50515 
" style="fill:none;stroke:#bb8bff;stroke-linecap:square;stroke-width:2;"/>
   </g>
   <g id="line2d_24">
    <path clip-path="url(#p9ed5bda169)" d="M 189.318861 400.50515 
L 204.40171 415.587999 
" style="fill:none;stroke:#bb8bff;stroke-linecap:square;stroke-width:2;"/>
   </g>
   <g id="line2d_25">
    <path clip-path="url(#p9ed5bda169)" d="M 247.329819 183.544167 
L 262.412668 168.461318 
" style="fill:none;stroke:#bb8bff;stroke-linecap:square;stroke-width:2;"/>
   </g>
   <g id="line2d_26">
    <path clip-path="url(#p9ed5bda169)" d="M 247.329819 168.461318 
L 262.412668 183.544167 
" style="fill:none;stroke:#bb8bff;stroke-linecap:square;stroke-width:2;"/>
   </g>
   <g id="line2d_27">
    <path clip-path="url(#p9ed5bda169)" d="M 247.329819 473.598957 
L 262.412668 458.516108 
" style="fill:none;stroke:#bb8bff;stroke-linecap:square;stroke-width:2;"/>
   </g>
   <g id="line2d_28">
    <path clip-path="url(#p9ed5bda169)" d="M 247.329819 458.516108 
L 262.412668 473.598957 
" style="fill:none;stroke:#bb8bff;stroke-linecap:square;stroke-width:2;"/>
   </g>
   <g id="line2d_29">
    <path clip-path="url(#p9ed5bda169)" d="M 305.340777 241.555125 
L 320.423626 226.472276 
" style="fill:none;stroke:#bb8bff;stroke-linecap:square;stroke-width:2;"/>
   </g>
   <g id="line2d_30">
    <path clip-path="url(#p9ed5bda169)" d="M 305.340777 226.472276 
L 320.423626 241.555125 
" style="fill:none;stroke:#bb8bff;stroke-linecap:square;stroke-width:2;"/>
   </g>
   <g id="line2d_31">
    <path clip-path="url(#p9ed5bda169)" d="M 305.340777 531.609915 
L 320.423626 516.527066 
" style="fill:none;stroke:#bb8bff;stroke-linecap:square;stroke-width:2;"/>
   </g>
   <g id="line2d_32">
    <path clip-path="url(#p9ed5bda169)" d="M 305.340777 516.527066 
L 320.423626 531.609915 
" style="fill:none;stroke:#bb8bff;stroke-linecap:square;stroke-width:2;"/>
   </g>
   <g id="line2d_33">
    <path clip-path="url(#p9ed5bda169)" d="M 363.351735 299.566083 
L 378.434584 284.483234 
" style="fill:none;stroke:#bb8bff;stroke-linecap:square;stroke-width:2;"/>
   </g>
   <g id="line2d_34">
    <path clip-path="url(#p9ed5bda169)" d="M 363.351735 284.483234 
L 378.434584 299.566083 
" style="fill:none;stroke:#bb8bff;stroke-linecap:square;stroke-width:2;"/>
   </g>
   <g id="line2d_35">
    <path clip-path="url(#p9ed5bda169)" d="M 363.351735 589.620873 
L 378.434584 574.538024 
" style="fill:none;stroke:#bb8bff;stroke-linecap:square;stroke-width:2;"/>
   </g>
   <g id="line2d_36">
    <path clip-path="url(#p9ed5bda169)" d="M 363.351735 574.538024 
L 378.434584 589.620873 
" style="fill:none;stroke:#bb8bff;stroke-linecap:square;stroke-width:2;"/>
   </g>
   <g id="line2d_37">
    <path clip-path="url(#p9ed5bda169)" d="M 421.362693 357.577041 
L 436.445542 342.494192 
" style="fill:none;stroke:#bb8bff;stroke-linecap:square;stroke-width:2;"/>
   </g>
   <g id="line2d_38">
    <path clip-path="url(#p9ed5bda169)" d="M 421.362693 342.494192 
L 436.445542 357.577041 
" style="fill:none;stroke:#bb8bff;stroke-linecap:square;stroke-width:2;"/>
   </g>
   <g id="line2d_39">
    <path clip-path="url(#p9ed5bda169)" d="M 421.362693 647.631831 
L 436.445542 632.548982 
" style="fill:none;stroke:#bb8bff;stroke-linecap:square;stroke-width:2;"/>
   </g>
   <g id="line2d_40">
    <path clip-path="url(#p9ed5bda169)" d="M 421.362693 632.548982 
L 436.445542 647.631831 
" style="fill:none;stroke:#bb8bff;stroke-linecap:square;stroke-width:2;"/>
   </g>
   <g id="patch_3">
    <path clip-path="url(#p9ed5bda169)" d="M 119.995767 136.845346 
L 157.702889 136.845346 
L 157.702889 99.138224 
L 119.995767 99.138224 
z
" style="fill:#bb8bff;stroke:#bb8bff;stroke-linejoin:miter;stroke-width:1.5;"/>
   </g>
   <g id="patch_4">
    <path clip-path="url(#p9ed5bda169)" d="M 119.995767 194.856304 
L 157.702889 194.856304 
L 157.702889 157.149182 
L 119.995767 157.149182 
z
" style="fill:#bb8bff;stroke:#bb8bff;stroke-linejoin:miter;stroke-width:1.5;"/>
   </g>
   <g id="patch_5">
    <path clip-path="url(#p9ed5bda169)" d="M 119.989965 252.867262 
L 157.70869 252.867262 
L 157.70869 215.16014 
L 119.989965 215.16014 
z
" style="fill:#bb8bff;stroke:#bb8bff;stroke-linejoin:miter;stroke-width:1.5;"/>
   </g>
   <g id="patch_6">
    <path clip-path="url(#p9ed5bda169)" d="M 119.995767 310.87822 
L 157.702889 310.87822 
L 157.702889 273.171097 
L 119.995767 273.171097 
z
" style="fill:#bb8bff;stroke:#bb8bff;stroke-linejoin:miter;stroke-width:1.5;"/>
   </g>
   <g id="patch_7">
    <path clip-path="url(#p9ed5bda169)" d="M 119.995767 368.889178 
L 157.702889 368.889178 
L 157.702889 331.182055 
L 119.995767 331.182055 
z
" style="fill:#bb8bff;stroke:#bb8bff;stroke-linejoin:miter;stroke-width:1.5;"/>
   </g>
   <g id="patch_8">
    <path clip-path="url(#p9ed5bda169)" d="M 119.995767 426.900136 
L 157.702889 426.900136 
L 157.702889 389.193013 
L 119.995767 389.193013 
z
" style="fill:#bb8bff;stroke:#bb8bff;stroke-linejoin:miter;stroke-width:1.5;"/>
   </g>
   <g id="patch_9">
    <path clip-path="url(#p9ed5bda169)" d="M 119.995767 484.911094 
L 157.702889 484.911094 
L 157.702889 447.203971 
L 119.995767 447.203971 
z
" style="fill:#bb8bff;stroke:#bb8bff;stroke-linejoin:miter;stroke-width:1.5;"/>
   </g>
   <g id="patch_10">
    <path clip-path="url(#p9ed5bda169)" d="M 119.995767 542.922052 
L 157.702889 542.922052 
L 157.702889 505.214929 
L 119.995767 505.214929 
z
" style="fill:#bb8bff;stroke:#bb8bff;stroke-linejoin:miter;stroke-width:1.5;"/>
   </g>
   <g id="patch_11">
    <path clip-path="url(#p9ed5bda169)" d="M 119.995767 600.93301 
L 157.702889 600.93301 
L 157.702889 563.225887 
L 119.995767 563.225887 
z
" style="fill:#bb8bff;stroke:#bb8bff;stroke-linejoin:miter;stroke-width:1.5;"/>
   </g>
   <g id="patch_12">
    <path clip-path="url(#p9ed5bda169)" d="M 119.995767 658.943968 
L 157.702889 658.943968 
L 157.702889 621.236845 
L 119.995767 621.236845 
z
" style="fill:#bb8bff;stroke:#bb8bff;stroke-linejoin:miter;stroke-width:1.5;"/>
   </g>
   <g id="patch_13">
    <path clip-path="url(#p9ed5bda169)" d="M 119.995767 78.834388 
L 157.702889 78.834388 
L 157.702889 41.127266 
L 119.995767 41.127266 
z
" style="fill:#6fa4ff;stroke:#6fa4ff;stroke-linejoin:miter;stroke-width:1.5;"/>
   </g>
   <g id="patch_14">
    <path clip-path="url(#p9ed5bda169)" d="M 196.860286 65.636895 
C 198.360293 65.636895 199.799065 65.040936 200.85973 63.980271 
C 201.920395 62.919606 202.516354 61.480834 202.516354 59.980827 
C 202.516354 58.48082 201.920395 57.042048 200.85973 55.981383 
C 199.799065 54.920718 198.360293 54.324759 196.860286 54.324759 
C 195.360279 54.324759 193.921507 54.920718 192.860842 55.981383 
C 191.800177 57.042048 191.204217 58.48082 191.204217 59.980827 
C 191.204217 61.480834 191.800177 62.919606 192.860842 63.980271 
C 193.921507 65.040936 195.360279 65.636895 196.860286 65.636895 
z
" style="fill:#bb8bff;stroke:#bb8bff;stroke-linejoin:miter;stroke-width:1.5;"/>
   </g>
   <g id="patch_15">
    <path clip-path="url(#p9ed5bda169)" d="M 254.871244 65.636895 
C 256.371251 65.636895 257.810023 65.040936 258.870688 63.980271 
C 259.931353 62.919606 260.527312 61.480834 260.527312 59.980827 
C 260.527312 58.48082 259.931353 57.042048 258.870688 55.981383 
C 257.810023 54.920718 256.371251 54.324759 254.871244 54.324759 
C 253.371237 54.324759 251.932465 54.920718 250.8718 55.981383 
C 249.811134 57.042048 249.215175 58.48082 249.215175 59.980827 
C 249.215175 61.480834 249.811134 62.919606 250.8718 63.980271 
C 251.932465 65.040936 253.371237 65.636895 254.871244 65.636895 
z
" style="fill:#bb8bff;stroke:#bb8bff;stroke-linejoin:miter;stroke-width:1.5;"/>
   </g>
   <g id="patch_16">
    <path clip-path="url(#p9ed5bda169)" d="M 312.882202 65.636895 
C 314.382209 65.636895 315.820981 65.040936 316.881646 63.980271 
C 317.942311 62.919606 318.53827 61.480834 318.53827 59.980827 
C 318.53827 58.48082 317.942311 57.042048 316.881646 55.981383 
C 315.820981 54.920718 314.382209 54.324759 312.882202 54.324759 
C 311.382195 54.324759 309.943423 54.920718 308.882757 55.981383 
C 307.822092 57.042048 307.226133 58.48082 307.226133 59.980827 
C 307.226133 61.480834 307.822092 62.919606 308.882757 63.980271 
C 309.943423 65.040936 311.382195 65.636895 312.882202 65.636895 
z
" style="fill:#bb8bff;stroke:#bb8bff;stroke-linejoin:miter;stroke-width:1.5;"/>
   </g>
   <g id="patch_17">
    <path clip-path="url(#p9ed5bda169)" d="M 370.89316 65.636895 
C 372.393167 65.636895 373.831939 65.040936 374.892604 63.980271 
C 375.953269 62.919606 376.549228 61.480834 376.549228 59.980827 
C 376.549228 58.48082 375.953269 57.042048 374.892604 55.981383 
C 373.831939 54.920718 372.393167 54.324759 370.89316 54.324759 
C 369.393153 54.324759 367.954381 54.920718 366.893715 55.981383 
C 365.83305 57.042048 365.237091 58.48082 365.237091 59.980827 
C 365.237091 61.480834 365.83305 62.919606 366.893715 63.980271 
C 367.954381 65.040936 369.393153 65.636895 370.89316 65.636895 
z
" style="fill:#bb8bff;stroke:#bb8bff;stroke-linejoin:miter;stroke-width:1.5;"/>
   </g>
   <g id="patch_18">
    <path clip-path="url(#p9ed5bda169)" d="M 428.904118 65.636895 
C 430.404125 65.636895 431.842897 65.040936 432.903562 63.980271 
C 433.964227 62.919606 434.560186 61.480834 434.560186 59.980827 
C 434.560186 58.48082 433.964227 57.042048 432.903562 55.981383 
C 431.842897 54.920718 430.404125 54.324759 428.904118 54.324759 
C 427.404111 54.324759 425.965338 54.920718 424.904673 55.981383 
C 423.844008 57.042048 423.248049 58.48082 423.248049 59.980827 
C 423.248049 61.480834 423.844008 62.919606 424.904673 63.980271 
C 425.965338 65.040936 427.404111 65.636895 428.904118 65.636895 
z
" style="fill:#bb8bff;stroke:#bb8bff;stroke-linejoin:miter;stroke-width:1.5;"/>
   </g>
   <g id="patch_19">
    <path clip-path="url(#p9ed5bda169)" d="M 468.061514 78.834388 
L 505.768637 78.834388 
L 505.768637 41.127266 
L 468.061514 41.127266 
z
" style="fill:#6fa4ff;stroke:#6fa4ff;stroke-linejoin:miter;stroke-width:1.5;"/>
   </g>
   <g id="patch_20">
    <path clip-path="url(#p9ed5bda169)" d="M 526.072472 78.834388 
L 563.779595 78.834388 
L 563.779595 41.127266 
L 526.072472 41.127266 
z
" style="stroke:#000000;stroke-linejoin:miter;stroke-width:1.5;"/>
   </g>
   <g id="patch_21">
    <path clip-path="url(#p9ed5bda169)" d="M 558.123527 65.636895 
C 558.123527 62.138045 556.732131 58.778919 554.25807 56.304859 
C 551.78401 53.830798 548.424884 52.439402 544.926034 52.439402 
C 541.427183 52.439402 538.068058 53.830798 535.593997 56.304859 
C 533.119936 58.778919 531.728541 62.138045 531.728541 65.636895 
" style="fill:none;stroke:#ffffff;stroke-linejoin:miter;stroke-width:2;"/>
   </g>
   <g id="line2d_41">
    <path clip-path="url(#p9ed5bda169)" d="M 544.926034 65.636895 
L 558.123527 52.439402 
" style="fill:none;stroke:#ffffff;stroke-linecap:square;stroke-width:2;"/>
   </g>
   <g id="text_1">
    <g clip-path="url(#p9ed5bda169)">
     <!-- $\mathrm{R}_\mathrm{Y}$ -->
     <g transform="translate(131.309328 115.922904)scale(0.13 -0.13)">
      <defs>
       <path d="M 2841 2188 
Q 3044 2119 3236 1894 
Q 3428 1669 3622 1275 
L 4263 0 
L 3584 0 
L 2988 1197 
Q 2756 1666 2539 1819 
Q 2322 1972 1947 1972 
L 1259 1972 
L 1259 0 
L 628 0 
L 628 4666 
L 2053 4666 
Q 2853 4666 3247 4331 
Q 3641 3997 3641 3322 
Q 3641 2881 3436 2590 
Q 3231 2300 2841 2188 
z
M 1259 4147 
L 1259 2491 
L 2053 2491 
Q 2509 2491 2742 2702 
Q 2975 2913 2975 3322 
Q 2975 3731 2742 3939 
Q 2509 4147 2053 4147 
L 1259 4147 
z
" id="DejaVuSans-52" transform="scale(0.015625)"/>
       <path d="M -13 4666 
L 666 4666 
L 1959 2747 
L 3244 4666 
L 3922 4666 
L 2272 2222 
L 2272 0 
L 1638 0 
L 1638 2222 
L -13 4666 
z
" id="DejaVuSans-59" transform="scale(0.015625)"/>
      </defs>
      <use transform="translate(0 0.09375)" xlink:href="#DejaVuSans-52"/>
      <use transform="translate(70.439453 -16.3125)scale(0.7)" xlink:href="#DejaVuSans-59"/>
     </g>
    </g>
   </g>
   <g id="text_2">
    <g clip-path="url(#p9ed5bda169)">
     <!-- 2.8 -->
     <g transform="translate(132.488078 131.511422)scale(0.08 -0.08)">
      <defs>
       <path d="M 1228 531 
L 3431 531 
L 3431 0 
L 469 0 
L 469 531 
Q 828 903 1448 1529 
Q 2069 2156 2228 2338 
Q 2531 2678 2651 2914 
Q 2772 3150 2772 3378 
Q 2772 3750 2511 3984 
Q 2250 4219 1831 4219 
Q 1534 4219 1204 4116 
Q 875 4013 500 3803 
L 500 4441 
Q 881 4594 1212 4672 
Q 1544 4750 1819 4750 
Q 2544 4750 2975 4387 
Q 3406 4025 3406 3419 
Q 3406 3131 3298 2873 
Q 3191 2616 2906 2266 
Q 2828 2175 2409 1742 
Q 1991 1309 1228 531 
z
" id="DejaVuSans-32" transform="scale(0.015625)"/>
       <path d="M 684 794 
L 1344 794 
L 1344 0 
L 684 0 
L 684 794 
z
" id="DejaVuSans-2e" transform="scale(0.015625)"/>
       <path d="M 2034 2216 
Q 1584 2216 1326 1975 
Q 1069 1734 1069 1313 
Q 1069 891 1326 650 
Q 1584 409 2034 409 
Q 2484 409 2743 651 
Q 3003 894 3003 1313 
Q 3003 1734 2745 1975 
Q 2488 2216 2034 2216 
z
M 1403 2484 
Q 997 2584 770 2862 
Q 544 3141 544 3541 
Q 544 4100 942 4425 
Q 1341 4750 2034 4750 
Q 2731 4750 3128 4425 
Q 3525 4100 3525 3541 
Q 3525 3141 3298 2862 
Q 3072 2584 2669 2484 
Q 3125 2378 3379 2068 
Q 3634 1759 3634 1313 
Q 3634 634 3220 271 
Q 2806 -91 2034 -91 
Q 1263 -91 848 271 
Q 434 634 434 1313 
Q 434 1759 690 2068 
Q 947 2378 1403 2484 
z
M 1172 3481 
Q 1172 3119 1398 2916 
Q 1625 2713 2034 2713 
Q 2441 2713 2670 2916 
Q 2900 3119 2900 3481 
Q 2900 3844 2670 4047 
Q 2441 4250 2034 4250 
Q 1625 4250 1398 4047 
Q 1172 3844 1172 3481 
z
" id="DejaVuSans-38" transform="scale(0.015625)"/>
      </defs>
      <use xlink:href="#DejaVuSans-32"/>
      <use x="63.623047" xlink:href="#DejaVuSans-2e"/>
      <use x="95.410156" xlink:href="#DejaVuSans-38"/>
     </g>
    </g>
   </g>
   <g id="text_3">
    <g clip-path="url(#p9ed5bda169)">
     <!-- $\mathrm{R}_\mathrm{Y}$ -->
     <g transform="translate(131.309328 173.933862)scale(0.13 -0.13)">
      <use transform="translate(0 0.09375)" xlink:href="#DejaVuSans-52"/>
      <use transform="translate(70.439453 -16.3125)scale(0.7)" xlink:href="#DejaVuSans-59"/>
     </g>
    </g>
   </g>
   <g id="text_4">
    <g clip-path="url(#p9ed5bda169)">
     <!-- 0.695 -->
     <g transform="translate(127.398078 189.52238)scale(0.08 -0.08)">
      <defs>
       <path d="M 2034 4250 
Q 1547 4250 1301 3770 
Q 1056 3291 1056 2328 
Q 1056 1369 1301 889 
Q 1547 409 2034 409 
Q 2525 409 2770 889 
Q 3016 1369 3016 2328 
Q 3016 3291 2770 3770 
Q 2525 4250 2034 4250 
z
M 2034 4750 
Q 2819 4750 3233 4129 
Q 3647 3509 3647 2328 
Q 3647 1150 3233 529 
Q 2819 -91 2034 -91 
Q 1250 -91 836 529 
Q 422 1150 422 2328 
Q 422 3509 836 4129 
Q 1250 4750 2034 4750 
z
" id="DejaVuSans-30" transform="scale(0.015625)"/>
       <path d="M 2113 2584 
Q 1688 2584 1439 2293 
Q 1191 2003 1191 1497 
Q 1191 994 1439 701 
Q 1688 409 2113 409 
Q 2538 409 2786 701 
Q 3034 994 3034 1497 
Q 3034 2003 2786 2293 
Q 2538 2584 2113 2584 
z
M 3366 4563 
L 3366 3988 
Q 3128 4100 2886 4159 
Q 2644 4219 2406 4219 
Q 1781 4219 1451 3797 
Q 1122 3375 1075 2522 
Q 1259 2794 1537 2939 
Q 1816 3084 2150 3084 
Q 2853 3084 3261 2657 
Q 3669 2231 3669 1497 
Q 3669 778 3244 343 
Q 2819 -91 2113 -91 
Q 1303 -91 875 529 
Q 447 1150 447 2328 
Q 447 3434 972 4092 
Q 1497 4750 2381 4750 
Q 2619 4750 2861 4703 
Q 3103 4656 3366 4563 
z
" id="DejaVuSans-36" transform="scale(0.015625)"/>
       <path d="M 703 97 
L 703 672 
Q 941 559 1184 500 
Q 1428 441 1663 441 
Q 2288 441 2617 861 
Q 2947 1281 2994 2138 
Q 2813 1869 2534 1725 
Q 2256 1581 1919 1581 
Q 1219 1581 811 2004 
Q 403 2428 403 3163 
Q 403 3881 828 4315 
Q 1253 4750 1959 4750 
Q 2769 4750 3195 4129 
Q 3622 3509 3622 2328 
Q 3622 1225 3098 567 
Q 2575 -91 1691 -91 
Q 1453 -91 1209 -44 
Q 966 3 703 97 
z
M 1959 2075 
Q 2384 2075 2632 2365 
Q 2881 2656 2881 3163 
Q 2881 3666 2632 3958 
Q 2384 4250 1959 4250 
Q 1534 4250 1286 3958 
Q 1038 3666 1038 3163 
Q 1038 2656 1286 2365 
Q 1534 2075 1959 2075 
z
" id="DejaVuSans-39" transform="scale(0.015625)"/>
       <path d="M 691 4666 
L 3169 4666 
L 3169 4134 
L 1269 4134 
L 1269 2991 
Q 1406 3038 1543 3061 
Q 1681 3084 1819 3084 
Q 2600 3084 3056 2656 
Q 3513 2228 3513 1497 
Q 3513 744 3044 326 
Q 2575 -91 1722 -91 
Q 1428 -91 1123 -41 
Q 819 9 494 109 
L 494 744 
Q 775 591 1075 516 
Q 1375 441 1709 441 
Q 2250 441 2565 725 
Q 2881 1009 2881 1497 
Q 2881 1984 2565 2268 
Q 2250 2553 1709 2553 
Q 1456 2553 1204 2497 
Q 953 2441 691 2322 
L 691 4666 
z
" id="DejaVuSans-35" transform="scale(0.015625)"/>
      </defs>
      <use xlink:href="#DejaVuSans-30"/>
      <use x="63.623047" xlink:href="#DejaVuSans-2e"/>
      <use x="95.410156" xlink:href="#DejaVuSans-36"/>
      <use x="159.033203" xlink:href="#DejaVuSans-39"/>
      <use x="222.65625" xlink:href="#DejaVuSans-35"/>
     </g>
    </g>
   </g>
   <g id="text_5">
    <g clip-path="url(#p9ed5bda169)">
     <!-- $\mathrm{R}_\mathrm{Y}$ -->
     <g transform="translate(131.309328 231.94482)scale(0.13 -0.13)">
      <use transform="translate(0 0.09375)" xlink:href="#DejaVuSans-52"/>
      <use transform="translate(70.439453 -16.3125)scale(0.7)" xlink:href="#DejaVuSans-59"/>
     </g>
    </g>
   </g>
   <g id="text_6">
    <g clip-path="url(#p9ed5bda169)">
     <!-- 0.0999 -->
     <g transform="translate(124.853078 247.533338)scale(0.08 -0.08)">
      <use xlink:href="#DejaVuSans-30"/>
      <use x="63.623047" xlink:href="#DejaVuSans-2e"/>
      <use x="95.410156" xlink:href="#DejaVuSans-30"/>
      <use x="159.033203" xlink:href="#DejaVuSans-39"/>
      <use x="222.65625" xlink:href="#DejaVuSans-39"/>
      <use x="286.279297" xlink:href="#DejaVuSans-39"/>
     </g>
    </g>
   </g>
   <g id="text_7">
    <g clip-path="url(#p9ed5bda169)">
     <!-- $\mathrm{R}_\mathrm{Y}$ -->
     <g transform="translate(131.309328 289.955778)scale(0.13 -0.13)">
      <use transform="translate(0 0.09375)" xlink:href="#DejaVuSans-52"/>
      <use transform="translate(70.439453 -16.3125)scale(0.7)" xlink:href="#DejaVuSans-59"/>
     </g>
    </g>
   </g>
   <g id="text_8">
    <g clip-path="url(#p9ed5bda169)">
     <!-- 3.08 -->
     <g transform="translate(129.943078 305.544296)scale(0.08 -0.08)">
      <defs>
       <path d="M 2597 2516 
Q 3050 2419 3304 2112 
Q 3559 1806 3559 1356 
Q 3559 666 3084 287 
Q 2609 -91 1734 -91 
Q 1441 -91 1130 -33 
Q 819 25 488 141 
L 488 750 
Q 750 597 1062 519 
Q 1375 441 1716 441 
Q 2309 441 2620 675 
Q 2931 909 2931 1356 
Q 2931 1769 2642 2001 
Q 2353 2234 1838 2234 
L 1294 2234 
L 1294 2753 
L 1863 2753 
Q 2328 2753 2575 2939 
Q 2822 3125 2822 3475 
Q 2822 3834 2567 4026 
Q 2313 4219 1838 4219 
Q 1578 4219 1281 4162 
Q 984 4106 628 3988 
L 628 4550 
Q 988 4650 1302 4700 
Q 1616 4750 1894 4750 
Q 2613 4750 3031 4423 
Q 3450 4097 3450 3541 
Q 3450 3153 3228 2886 
Q 3006 2619 2597 2516 
z
" id="DejaVuSans-33" transform="scale(0.015625)"/>
      </defs>
      <use xlink:href="#DejaVuSans-33"/>
      <use x="63.623047" xlink:href="#DejaVuSans-2e"/>
      <use x="95.410156" xlink:href="#DejaVuSans-30"/>
      <use x="159.033203" xlink:href="#DejaVuSans-38"/>
     </g>
    </g>
   </g>
   <g id="text_9">
    <g clip-path="url(#p9ed5bda169)">
     <!-- $\mathrm{R}_\mathrm{Y}$ -->
     <g transform="translate(131.309328 347.966736)scale(0.13 -0.13)">
      <use transform="translate(0 0.09375)" xlink:href="#DejaVuSans-52"/>
      <use transform="translate(70.439453 -16.3125)scale(0.7)" xlink:href="#DejaVuSans-59"/>
     </g>
    </g>
   </g>
   <g id="text_10">
    <g clip-path="url(#p9ed5bda169)">
     <!-- 0.685 -->
     <g transform="translate(127.398078 363.555254)scale(0.08 -0.08)">
      <use xlink:href="#DejaVuSans-30"/>
      <use x="63.623047" xlink:href="#DejaVuSans-2e"/>
      <use x="95.410156" xlink:href="#DejaVuSans-36"/>
      <use x="159.033203" xlink:href="#DejaVuSans-38"/>
      <use x="222.65625" xlink:href="#DejaVuSans-35"/>
     </g>
    </g>
   </g>
   <g id="text_11">
    <g clip-path="url(#p9ed5bda169)">
     <!-- $\mathrm{R}_\mathrm{Y}$ -->
     <g transform="translate(131.309328 405.977694)scale(0.13 -0.13)">
      <use transform="translate(0 0.09375)" xlink:href="#DejaVuSans-52"/>
      <use transform="translate(70.439453 -16.3125)scale(0.7)" xlink:href="#DejaVuSans-59"/>
     </g>
    </g>
   </g>
   <g id="text_12">
    <g clip-path="url(#p9ed5bda169)">
     <!-- 0.537 -->
     <g transform="translate(127.398078 421.566212)scale(0.08 -0.08)">
      <defs>
       <path d="M 525 4666 
L 3525 4666 
L 3525 4397 
L 1831 0 
L 1172 0 
L 2766 4134 
L 525 4134 
L 525 4666 
z
" id="DejaVuSans-37" transform="scale(0.015625)"/>
      </defs>
      <use xlink:href="#DejaVuSans-30"/>
      <use x="63.623047" xlink:href="#DejaVuSans-2e"/>
      <use x="95.410156" xlink:href="#DejaVuSans-35"/>
      <use x="159.033203" xlink:href="#DejaVuSans-33"/>
      <use x="222.65625" xlink:href="#DejaVuSans-37"/>
     </g>
    </g>
   </g>
   <g id="text_13">
    <g clip-path="url(#p9ed5bda169)">
     <!-- $\mathrm{R}_\mathrm{Y}$ -->
     <g transform="translate(131.309328 463.988652)scale(0.13 -0.13)">
      <use transform="translate(0 0.09375)" xlink:href="#DejaVuSans-52"/>
      <use transform="translate(70.439453 -16.3125)scale(0.7)" xlink:href="#DejaVuSans-59"/>
     </g>
    </g>
   </g>
   <g id="text_14">
    <g clip-path="url(#p9ed5bda169)">
     <!-- 3.06 -->
     <g transform="translate(129.943078 479.57717)scale(0.08 -0.08)">
      <use xlink:href="#DejaVuSans-33"/>
      <use x="63.623047" xlink:href="#DejaVuSans-2e"/>
      <use x="95.410156" xlink:href="#DejaVuSans-30"/>
      <use x="159.033203" xlink:href="#DejaVuSans-36"/>
     </g>
    </g>
   </g>
   <g id="text_15">
    <g clip-path="url(#p9ed5bda169)">
     <!-- $\mathrm{R}_\mathrm{Y}$ -->
     <g transform="translate(131.309328 521.99961)scale(0.13 -0.13)">
      <use transform="translate(0 0.09375)" xlink:href="#DejaVuSans-52"/>
      <use transform="translate(70.439453 -16.3125)scale(0.7)" xlink:href="#DejaVuSans-59"/>
     </g>
    </g>
   </g>
   <g id="text_16">
    <g clip-path="url(#p9ed5bda169)">
     <!-- 0.263 -->
     <g transform="translate(127.398078 537.588128)scale(0.08 -0.08)">
      <use xlink:href="#DejaVuSans-30"/>
      <use x="63.623047" xlink:href="#DejaVuSans-2e"/>
      <use x="95.410156" xlink:href="#DejaVuSans-32"/>
      <use x="159.033203" xlink:href="#DejaVuSans-36"/>
      <use x="222.65625" xlink:href="#DejaVuSans-33"/>
     </g>
    </g>
   </g>
   <g id="text_17">
    <g clip-path="url(#p9ed5bda169)">
     <!-- $\mathrm{R}_\mathrm{Y}$ -->
     <g transform="translate(131.309328 580.010568)scale(0.13 -0.13)">
      <use transform="translate(0 0.09375)" xlink:href="#DejaVuSans-52"/>
      <use transform="translate(70.439453 -16.3125)scale(0.7)" xlink:href="#DejaVuSans-59"/>
     </g>
    </g>
   </g>
   <g id="text_18">
    <g clip-path="url(#p9ed5bda169)">
     <!-- 1.14 -->
     <g transform="translate(129.943078 595.599086)scale(0.08 -0.08)">
      <defs>
       <path d="M 794 531 
L 1825 531 
L 1825 4091 
L 703 3866 
L 703 4441 
L 1819 4666 
L 2450 4666 
L 2450 531 
L 3481 531 
L 3481 0 
L 794 0 
L 794 531 
z
" id="DejaVuSans-31" transform="scale(0.015625)"/>
       <path d="M 2419 4116 
L 825 1625 
L 2419 1625 
L 2419 4116 
z
M 2253 4666 
L 3047 4666 
L 3047 1625 
L 3713 1625 
L 3713 1100 
L 3047 1100 
L 3047 0 
L 2419 0 
L 2419 1100 
L 313 1100 
L 313 1709 
L 2253 4666 
z
" id="DejaVuSans-34" transform="scale(0.015625)"/>
      </defs>
      <use xlink:href="#DejaVuSans-31"/>
      <use x="63.623047" xlink:href="#DejaVuSans-2e"/>
      <use x="95.410156" xlink:href="#DejaVuSans-31"/>
      <use x="159.033203" xlink:href="#DejaVuSans-34"/>
     </g>
    </g>
   </g>
   <g id="text_19">
    <g clip-path="url(#p9ed5bda169)">
     <!-- $\mathrm{R}_\mathrm{Y}$ -->
     <g transform="translate(131.309328 638.021526)scale(0.13 -0.13)">
      <use transform="translate(0 0.09375)" xlink:href="#DejaVuSans-52"/>
      <use transform="translate(70.439453 -16.3125)scale(0.7)" xlink:href="#DejaVuSans-59"/>
     </g>
    </g>
   </g>
   <g id="text_20">
    <g clip-path="url(#p9ed5bda169)">
     <!-- 0.983 -->
     <g transform="translate(127.398078 653.610044)scale(0.08 -0.08)">
      <use xlink:href="#DejaVuSans-30"/>
      <use x="63.623047" xlink:href="#DejaVuSans-2e"/>
      <use x="95.410156" xlink:href="#DejaVuSans-39"/>
      <use x="159.033203" xlink:href="#DejaVuSans-38"/>
      <use x="222.65625" xlink:href="#DejaVuSans-33"/>
     </g>
    </g>
   </g>
   <g id="text_21">
    <g clip-path="url(#p9ed5bda169)">
     <!-- H -->
     <g transform="translate(133.961125 63.568014)scale(0.13 -0.13)">
      <defs>
       <path d="M 628 4666 
L 1259 4666 
L 1259 2753 
L 3553 2753 
L 3553 4666 
L 4184 4666 
L 4184 0 
L 3553 0 
L 3553 2222 
L 1259 2222 
L 1259 0 
L 628 0 
L 628 4666 
z
" id="DejaVuSans-48" transform="scale(0.015625)"/>
      </defs>
      <use xlink:href="#DejaVuSans-48"/>
     </g>
    </g>
   </g>
   <g id="text_22">
    <g clip-path="url(#p9ed5bda169)">
     <!-- H -->
     <g transform="translate(482.026873 63.568014)scale(0.13 -0.13)">
      <use xlink:href="#DejaVuSans-48"/>
     </g>
    </g>
   </g>
   <g id="text_23">
    <g clip-path="url(#p9ed5bda169)">
     <!-- 0 -->
     <g transform="translate(559.428773 690.137394)scale(0.104 -0.104)">
      <use xlink:href="#DejaVuSans-30"/>
     </g>
    </g>
   </g>
   <g id="text_24">
    <g clip-path="url(#p9ed5bda169)">
     <!-- ${q0}_{0}$ -->
     <g transform="translate(67.321219 64.431803)scale(0.1625 -0.1625)">
      <defs>
       <path d="M 2669 525 
Q 2438 222 2123 65 
Q 1809 -91 1428 -91 
Q 897 -91 595 267 
Q 294 625 294 1253 
Q 294 1759 480 2231 
Q 666 2703 1013 3078 
Q 1238 3322 1530 3453 
Q 1822 3584 2144 3584 
Q 2531 3584 2781 3431 
Q 3031 3278 3144 2969 
L 3244 3494 
L 3822 3494 
L 2888 -1319 
L 2309 -1319 
L 2669 525 
z
M 891 1338 
Q 891 875 1084 633 
Q 1278 391 1644 391 
Q 2188 391 2572 911 
Q 2956 1431 2956 2175 
Q 2956 2625 2757 2864 
Q 2559 3103 2188 3103 
Q 1916 3103 1684 2976 
Q 1453 2850 1281 2606 
Q 1100 2350 995 2006 
Q 891 1663 891 1338 
z
" id="DejaVuSans-Oblique-71" transform="scale(0.015625)"/>
      </defs>
      <use transform="translate(0 0.78125)" xlink:href="#DejaVuSans-Oblique-71"/>
      <use transform="translate(63.476562 0.78125)" xlink:href="#DejaVuSans-30"/>
      <use transform="translate(128.056641 -15.625)scale(0.7)" xlink:href="#DejaVuSans-30"/>
     </g>
    </g>
   </g>
   <g id="text_25">
    <g clip-path="url(#p9ed5bda169)">
     <!-- ${q0}_{1}$ -->
     <g transform="translate(67.321219 122.442761)scale(0.1625 -0.1625)">
      <use transform="translate(0 0.78125)" xlink:href="#DejaVuSans-Oblique-71"/>
      <use transform="translate(63.476562 0.78125)" xlink:href="#DejaVuSans-30"/>
      <use transform="translate(128.056641 -15.625)scale(0.7)" xlink:href="#DejaVuSans-31"/>
     </g>
    </g>
   </g>
   <g id="text_26">
    <g clip-path="url(#p9ed5bda169)">
     <!-- ${q0}_{2}$ -->
     <g transform="translate(67.321219 180.453719)scale(0.1625 -0.1625)">
      <use transform="translate(0 0.78125)" xlink:href="#DejaVuSans-Oblique-71"/>
      <use transform="translate(63.476562 0.78125)" xlink:href="#DejaVuSans-30"/>
      <use transform="translate(128.056641 -15.625)scale(0.7)" xlink:href="#DejaVuSans-32"/>
     </g>
    </g>
   </g>
   <g id="text_27">
    <g clip-path="url(#p9ed5bda169)">
     <!-- ${q0}_{3}$ -->
     <g transform="translate(67.321219 238.464677)scale(0.1625 -0.1625)">
      <use transform="translate(0 0.78125)" xlink:href="#DejaVuSans-Oblique-71"/>
      <use transform="translate(63.476562 0.78125)" xlink:href="#DejaVuSans-30"/>
      <use transform="translate(128.056641 -15.625)scale(0.7)" xlink:href="#DejaVuSans-33"/>
     </g>
    </g>
   </g>
   <g id="text_28">
    <g clip-path="url(#p9ed5bda169)">
     <!-- ${q0}_{4}$ -->
     <g transform="translate(67.321219 296.475635)scale(0.1625 -0.1625)">
      <use transform="translate(0 0.78125)" xlink:href="#DejaVuSans-Oblique-71"/>
      <use transform="translate(63.476562 0.78125)" xlink:href="#DejaVuSans-30"/>
      <use transform="translate(128.056641 -15.625)scale(0.7)" xlink:href="#DejaVuSans-34"/>
     </g>
    </g>
   </g>
   <g id="text_29">
    <g clip-path="url(#p9ed5bda169)">
     <!-- ${q0}_{5}$ -->
     <g transform="translate(67.321219 354.486593)scale(0.1625 -0.1625)">
      <use transform="translate(0 0.78125)" xlink:href="#DejaVuSans-Oblique-71"/>
      <use transform="translate(63.476562 0.78125)" xlink:href="#DejaVuSans-30"/>
      <use transform="translate(128.056641 -15.625)scale(0.7)" xlink:href="#DejaVuSans-35"/>
     </g>
    </g>
   </g>
   <g id="text_30">
    <g clip-path="url(#p9ed5bda169)">
     <!-- ${q0}_{6}$ -->
     <g transform="translate(67.321219 412.497551)scale(0.1625 -0.1625)">
      <use transform="translate(0 0.78125)" xlink:href="#DejaVuSans-Oblique-71"/>
      <use transform="translate(63.476562 0.78125)" xlink:href="#DejaVuSans-30"/>
      <use transform="translate(128.056641 -15.625)scale(0.7)" xlink:href="#DejaVuSans-36"/>
     </g>
    </g>
   </g>
   <g id="text_31">
    <g clip-path="url(#p9ed5bda169)">
     <!-- ${q0}_{7}$ -->
     <g transform="translate(67.321219 470.508509)scale(0.1625 -0.1625)">
      <use transform="translate(0 0.78125)" xlink:href="#DejaVuSans-Oblique-71"/>
      <use transform="translate(63.476562 0.78125)" xlink:href="#DejaVuSans-30"/>
      <use transform="translate(128.056641 -15.625)scale(0.7)" xlink:href="#DejaVuSans-37"/>
     </g>
    </g>
   </g>
   <g id="text_32">
    <g clip-path="url(#p9ed5bda169)">
     <!-- ${q0}_{8}$ -->
     <g transform="translate(67.321219 528.519467)scale(0.1625 -0.1625)">
      <use transform="translate(0 0.78125)" xlink:href="#DejaVuSans-Oblique-71"/>
      <use transform="translate(63.476562 0.78125)" xlink:href="#DejaVuSans-30"/>
      <use transform="translate(128.056641 -15.625)scale(0.7)" xlink:href="#DejaVuSans-38"/>
     </g>
    </g>
   </g>
   <g id="text_33">
    <g clip-path="url(#p9ed5bda169)">
     <!-- ${q0}_{9}$ -->
     <g transform="translate(67.321219 586.530425)scale(0.1625 -0.1625)">
      <use transform="translate(0 0.78125)" xlink:href="#DejaVuSans-Oblique-71"/>
      <use transform="translate(63.476562 0.78125)" xlink:href="#DejaVuSans-30"/>
      <use transform="translate(128.056641 -15.625)scale(0.7)" xlink:href="#DejaVuSans-39"/>
     </g>
    </g>
   </g>
   <g id="text_34">
    <g clip-path="url(#p9ed5bda169)">
     <!-- ${q0}_{10}$ -->
     <g transform="translate(60.171219 644.541383)scale(0.1625 -0.1625)">
      <use transform="translate(0 0.78125)" xlink:href="#DejaVuSans-Oblique-71"/>
      <use transform="translate(63.476562 0.78125)" xlink:href="#DejaVuSans-30"/>
      <use transform="translate(128.056641 -15.625)scale(0.7)" xlink:href="#DejaVuSans-31"/>
      <use transform="translate(172.592773 -15.625)scale(0.7)" xlink:href="#DejaVuSans-30"/>
     </g>
    </g>
   </g>
   <g id="text_35">
    <g clip-path="url(#p9ed5bda169)">
     <!-- c0 -->
     <g transform="translate(76.647196 702.585349)scale(0.1625 -0.1625)">
      <defs>
       <path d="M 3122 3366 
L 3122 2828 
Q 2878 2963 2633 3030 
Q 2388 3097 2138 3097 
Q 1578 3097 1268 2742 
Q 959 2388 959 1747 
Q 959 1106 1268 751 
Q 1578 397 2138 397 
Q 2388 397 2633 464 
Q 2878 531 3122 666 
L 3122 134 
Q 2881 22 2623 -34 
Q 2366 -91 2075 -91 
Q 1284 -91 818 406 
Q 353 903 353 1747 
Q 353 2603 823 3093 
Q 1294 3584 2113 3584 
Q 2378 3584 2631 3529 
Q 2884 3475 3122 3366 
z
" id="DejaVuSans-63" transform="scale(0.015625)"/>
      </defs>
      <use xlink:href="#DejaVuSans-63"/>
      <use x="54.980469" xlink:href="#DejaVuSans-30"/>
     </g>
    </g>
   </g>
  </g>
 </g>
 <defs>
  <clipPath id="p9ed5bda169">
   <rect height="719.335879" width="572.413266" x="10.8" y="13.572061"/>
  </clipPath>
 </defs>
</svg>
