<?xml version="1.0" encoding="utf-8" standalone="no"?>
<!DOCTYPE svg PUBLIC "-//W3C//DTD SVG 1.1//EN"
  "http://www.w3.org/Graphics/SVG/1.1/DTD/svg11.dtd">
<svg height="987.28pt" version="1.1" viewBox="0 0 714.704032 987.28" width="714.704032pt" xmlns="http://www.w3.org/2000/svg" xmlns:xlink="http://www.w3.org/1999/xlink">
 <metadata>
  <rdf:RDF xmlns:cc="http://creativecommons.org/ns#" xmlns:dc="http://purl.org/dc/elements/1.1/" xmlns:rdf="http://www.w3.org/1999/02/22-rdf-syntax-ns#">
   <cc:Work>
    <dc:type rdf:resource="http://purl.org/dc/dcmitype/StillImage"/>
    <dc:date>2021-06-09T11:02:42.488322</dc:date>
    <dc:format>image/svg+xml</dc:format>
    <dc:creator>
     <cc:Agent>
      <dc:title>Matplotlib v3.4.2, https://matplotlib.org/</dc:title>
     </cc:Agent>
    </dc:creator>
   </cc:Work>
  </rdf:RDF>
 </metadata>
 <defs>
  <style type="text/css">*{stroke-linecap:butt;stroke-linejoin:round;}</style>
 </defs>
 <g id="figure_1">
  <g id="patch_1">
   <path d="M 0 987.28 
L 714.704032 987.28 
L 714.704032 0 
L 0 0 
z
" style="fill:#ffffff;"/>
  </g>
  <g id="axes_1">
   <g id="patch_2">
    <path clip-path="url(#pa5ae1b9d68)" d="M 657.783344 924.051103 
L 672.962305 924.051103 
L 665.372824 934.997468 
z
" style="fill:#778899;"/>
   </g>
   <g id="line2d_1">
    <path clip-path="url(#pa5ae1b9d68)" d="M 108.421733 61.62343 
L 698.06597 61.62343 
" style="fill:none;stroke:#000000;stroke-linecap:square;stroke-width:2;"/>
   </g>
   <g id="line2d_2">
    <path clip-path="url(#pa5ae1b9d68)" d="M 108.421733 120.004048 
L 698.06597 120.004048 
" style="fill:none;stroke:#000000;stroke-linecap:square;stroke-width:2;"/>
   </g>
   <g id="line2d_3">
    <path clip-path="url(#pa5ae1b9d68)" d="M 108.421733 178.384665 
L 698.06597 178.384665 
" style="fill:none;stroke:#000000;stroke-linecap:square;stroke-width:2;"/>
   </g>
   <g id="line2d_4">
    <path clip-path="url(#pa5ae1b9d68)" d="M 108.421733 236.765283 
L 698.06597 236.765283 
" style="fill:none;stroke:#000000;stroke-linecap:square;stroke-width:2;"/>
   </g>
   <g id="line2d_5">
    <path clip-path="url(#pa5ae1b9d68)" d="M 108.421733 295.1459 
L 698.06597 295.1459 
" style="fill:none;stroke:#000000;stroke-linecap:square;stroke-width:2;"/>
   </g>
   <g id="line2d_6">
    <path clip-path="url(#pa5ae1b9d68)" d="M 108.421733 353.526518 
L 698.06597 353.526518 
" style="fill:none;stroke:#000000;stroke-linecap:square;stroke-width:2;"/>
   </g>
   <g id="line2d_7">
    <path clip-path="url(#pa5ae1b9d68)" d="M 108.421733 411.907135 
L 698.06597 411.907135 
" style="fill:none;stroke:#000000;stroke-linecap:square;stroke-width:2;"/>
   </g>
   <g id="line2d_8">
    <path clip-path="url(#pa5ae1b9d68)" d="M 108.421733 470.287753 
L 698.06597 470.287753 
" style="fill:none;stroke:#000000;stroke-linecap:square;stroke-width:2;"/>
   </g>
   <g id="line2d_9">
    <path clip-path="url(#pa5ae1b9d68)" d="M 108.421733 528.668371 
L 698.06597 528.668371 
" style="fill:none;stroke:#000000;stroke-linecap:square;stroke-width:2;"/>
   </g>
   <g id="line2d_10">
    <path clip-path="url(#pa5ae1b9d68)" d="M 108.421733 587.048988 
L 698.06597 587.048988 
" style="fill:none;stroke:#000000;stroke-linecap:square;stroke-width:2;"/>
   </g>
   <g id="line2d_11">
    <path clip-path="url(#pa5ae1b9d68)" d="M 108.421733 645.429606 
L 698.06597 645.429606 
" style="fill:none;stroke:#000000;stroke-linecap:square;stroke-width:2;"/>
   </g>
   <g id="line2d_12">
    <path clip-path="url(#pa5ae1b9d68)" d="M 108.421733 703.810223 
L 698.06597 703.810223 
" style="fill:none;stroke:#000000;stroke-linecap:square;stroke-width:2;"/>
   </g>
   <g id="line2d_13">
    <path clip-path="url(#pa5ae1b9d68)" d="M 108.421733 762.190841 
L 698.06597 762.190841 
" style="fill:none;stroke:#000000;stroke-linecap:square;stroke-width:2;"/>
   </g>
   <g id="line2d_14">
    <path clip-path="url(#pa5ae1b9d68)" d="M 108.421733 820.571458 
L 698.06597 820.571458 
" style="fill:none;stroke:#000000;stroke-linecap:square;stroke-width:2;"/>
   </g>
   <g id="line2d_15">
    <path clip-path="url(#pa5ae1b9d68)" d="M 108.421733 878.952076 
L 698.06597 878.952076 
" style="fill:none;stroke:#000000;stroke-linecap:square;stroke-width:2;"/>
   </g>
   <g id="line2d_16">
    <path clip-path="url(#pa5ae1b9d68)" d="M 108.421733 935.435323 
L 698.06597 935.435323 
" style="fill:none;stroke:#778899;stroke-linecap:square;stroke-width:2;"/>
   </g>
   <g id="line2d_17">
    <path clip-path="url(#pa5ae1b9d68)" d="M 108.421733 939.230063 
L 698.06597 939.230063 
" style="fill:none;stroke:#778899;stroke-linecap:square;stroke-width:2;"/>
   </g>
   <g id="line2d_18">
    <path clip-path="url(#pa5ae1b9d68)" d="M 198.327884 528.668371 
L 198.327884 61.62343 
" style="fill:none;stroke:#bb8bff;stroke-linecap:square;stroke-width:2;"/>
   </g>
   <g id="line2d_19">
    <path clip-path="url(#pa5ae1b9d68)" d="M 256.708502 587.048988 
L 256.708502 61.62343 
" style="fill:none;stroke:#bb8bff;stroke-linecap:square;stroke-width:2;"/>
   </g>
   <g id="line2d_20">
    <path clip-path="url(#pa5ae1b9d68)" d="M 315.089119 645.429606 
L 315.089119 61.62343 
" style="fill:none;stroke:#bb8bff;stroke-linecap:square;stroke-width:2;"/>
   </g>
   <g id="line2d_21">
    <path clip-path="url(#pa5ae1b9d68)" d="M 373.469737 703.810223 
L 373.469737 61.62343 
" style="fill:none;stroke:#bb8bff;stroke-linecap:square;stroke-width:2;"/>
   </g>
   <g id="line2d_22">
    <path clip-path="url(#pa5ae1b9d68)" d="M 431.850354 762.190841 
L 431.850354 61.62343 
" style="fill:none;stroke:#bb8bff;stroke-linecap:square;stroke-width:2;"/>
   </g>
   <g id="line2d_23">
    <path clip-path="url(#pa5ae1b9d68)" d="M 490.230972 820.571458 
L 490.230972 61.62343 
" style="fill:none;stroke:#bb8bff;stroke-linecap:square;stroke-width:2;"/>
   </g>
   <g id="line2d_24">
    <path clip-path="url(#pa5ae1b9d68)" d="M 548.611589 878.952076 
L 548.611589 61.62343 
" style="fill:none;stroke:#bb8bff;stroke-linecap:square;stroke-width:2;"/>
   </g>
   <g id="line2d_25">
    <path clip-path="url(#pa5ae1b9d68)" d="M 667.270195 61.62343 
L 667.270195 924.051103 
" style="fill:none;stroke:#778899;stroke-linecap:square;stroke-width:2;"/>
   </g>
   <g id="line2d_26">
    <path clip-path="url(#pa5ae1b9d68)" d="M 663.475454 61.62343 
L 663.475454 924.051103 
" style="fill:none;stroke:#778899;stroke-linecap:square;stroke-width:2;"/>
   </g>
   <g id="line2d_27">
    <path clip-path="url(#pa5ae1b9d68)" d="M 190.738404 127.593528 
L 205.917365 112.414568 
" style="fill:none;stroke:#bb8bff;stroke-linecap:square;stroke-width:2;"/>
   </g>
   <g id="line2d_28">
    <path clip-path="url(#pa5ae1b9d68)" d="M 190.738404 112.414568 
L 205.917365 127.593528 
" style="fill:none;stroke:#bb8bff;stroke-linecap:square;stroke-width:2;"/>
   </g>
   <g id="line2d_29">
    <path clip-path="url(#pa5ae1b9d68)" d="M 190.738404 536.257851 
L 205.917365 521.07889 
" style="fill:none;stroke:#bb8bff;stroke-linecap:square;stroke-width:2;"/>
   </g>
   <g id="line2d_30">
    <path clip-path="url(#pa5ae1b9d68)" d="M 190.738404 521.07889 
L 205.917365 536.257851 
" style="fill:none;stroke:#bb8bff;stroke-linecap:square;stroke-width:2;"/>
   </g>
   <g id="line2d_31">
    <path clip-path="url(#pa5ae1b9d68)" d="M 249.119022 185.974146 
L 264.297982 170.795185 
" style="fill:none;stroke:#bb8bff;stroke-linecap:square;stroke-width:2;"/>
   </g>
   <g id="line2d_32">
    <path clip-path="url(#pa5ae1b9d68)" d="M 249.119022 170.795185 
L 264.297982 185.974146 
" style="fill:none;stroke:#bb8bff;stroke-linecap:square;stroke-width:2;"/>
   </g>
   <g id="line2d_33">
    <path clip-path="url(#pa5ae1b9d68)" d="M 249.119022 594.638468 
L 264.297982 579.459508 
" style="fill:none;stroke:#bb8bff;stroke-linecap:square;stroke-width:2;"/>
   </g>
   <g id="line2d_34">
    <path clip-path="url(#pa5ae1b9d68)" d="M 249.119022 579.459508 
L 264.297982 594.638468 
" style="fill:none;stroke:#bb8bff;stroke-linecap:square;stroke-width:2;"/>
   </g>
   <g id="line2d_35">
    <path clip-path="url(#pa5ae1b9d68)" d="M 307.499639 244.354763 
L 322.6786 229.175803 
" style="fill:none;stroke:#bb8bff;stroke-linecap:square;stroke-width:2;"/>
   </g>
   <g id="line2d_36">
    <path clip-path="url(#pa5ae1b9d68)" d="M 307.499639 229.175803 
L 322.6786 244.354763 
" style="fill:none;stroke:#bb8bff;stroke-linecap:square;stroke-width:2;"/>
   </g>
   <g id="line2d_37">
    <path clip-path="url(#pa5ae1b9d68)" d="M 307.499639 653.019086 
L 322.6786 637.840125 
" style="fill:none;stroke:#bb8bff;stroke-linecap:square;stroke-width:2;"/>
   </g>
   <g id="line2d_38">
    <path clip-path="url(#pa5ae1b9d68)" d="M 307.499639 637.840125 
L 322.6786 653.019086 
" style="fill:none;stroke:#bb8bff;stroke-linecap:square;stroke-width:2;"/>
   </g>
   <g id="line2d_39">
    <path clip-path="url(#pa5ae1b9d68)" d="M 365.880257 302.735381 
L 381.059217 287.55642 
" style="fill:none;stroke:#bb8bff;stroke-linecap:square;stroke-width:2;"/>
   </g>
   <g id="line2d_40">
    <path clip-path="url(#pa5ae1b9d68)" d="M 365.880257 287.55642 
L 381.059217 302.735381 
" style="fill:none;stroke:#bb8bff;stroke-linecap:square;stroke-width:2;"/>
   </g>
   <g id="line2d_41">
    <path clip-path="url(#pa5ae1b9d68)" d="M 365.880257 711.399703 
L 381.059217 696.220743 
" style="fill:none;stroke:#bb8bff;stroke-linecap:square;stroke-width:2;"/>
   </g>
   <g id="line2d_42">
    <path clip-path="url(#pa5ae1b9d68)" d="M 365.880257 696.220743 
L 381.059217 711.399703 
" style="fill:none;stroke:#bb8bff;stroke-linecap:square;stroke-width:2;"/>
   </g>
   <g id="line2d_43">
    <path clip-path="url(#pa5ae1b9d68)" d="M 424.260874 361.115998 
L 439.439835 345.937038 
" style="fill:none;stroke:#bb8bff;stroke-linecap:square;stroke-width:2;"/>
   </g>
   <g id="line2d_44">
    <path clip-path="url(#pa5ae1b9d68)" d="M 424.260874 345.937038 
L 439.439835 361.115998 
" style="fill:none;stroke:#bb8bff;stroke-linecap:square;stroke-width:2;"/>
   </g>
   <g id="line2d_45">
    <path clip-path="url(#pa5ae1b9d68)" d="M 424.260874 769.780321 
L 439.439835 754.60136 
" style="fill:none;stroke:#bb8bff;stroke-linecap:square;stroke-width:2;"/>
   </g>
   <g id="line2d_46">
    <path clip-path="url(#pa5ae1b9d68)" d="M 424.260874 754.60136 
L 439.439835 769.780321 
" style="fill:none;stroke:#bb8bff;stroke-linecap:square;stroke-width:2;"/>
   </g>
   <g id="line2d_47">
    <path clip-path="url(#pa5ae1b9d68)" d="M 482.641492 419.496616 
L 497.820452 404.317655 
" style="fill:none;stroke:#bb8bff;stroke-linecap:square;stroke-width:2;"/>
   </g>
   <g id="line2d_48">
    <path clip-path="url(#pa5ae1b9d68)" d="M 482.641492 404.317655 
L 497.820452 419.496616 
" style="fill:none;stroke:#bb8bff;stroke-linecap:square;stroke-width:2;"/>
   </g>
   <g id="line2d_49">
    <path clip-path="url(#pa5ae1b9d68)" d="M 482.641492 828.160938 
L 497.820452 812.981978 
" style="fill:none;stroke:#bb8bff;stroke-linecap:square;stroke-width:2;"/>
   </g>
   <g id="line2d_50">
    <path clip-path="url(#pa5ae1b9d68)" d="M 482.641492 812.981978 
L 497.820452 828.160938 
" style="fill:none;stroke:#bb8bff;stroke-linecap:square;stroke-width:2;"/>
   </g>
   <g id="line2d_51">
    <path clip-path="url(#pa5ae1b9d68)" d="M 541.022109 477.877233 
L 556.20107 462.698273 
" style="fill:none;stroke:#bb8bff;stroke-linecap:square;stroke-width:2;"/>
   </g>
   <g id="line2d_52">
    <path clip-path="url(#pa5ae1b9d68)" d="M 541.022109 462.698273 
L 556.20107 477.877233 
" style="fill:none;stroke:#bb8bff;stroke-linecap:square;stroke-width:2;"/>
   </g>
   <g id="line2d_53">
    <path clip-path="url(#pa5ae1b9d68)" d="M 541.022109 886.541556 
L 556.20107 871.362595 
" style="fill:none;stroke:#bb8bff;stroke-linecap:square;stroke-width:2;"/>
   </g>
   <g id="line2d_54">
    <path clip-path="url(#pa5ae1b9d68)" d="M 541.022109 871.362595 
L 556.20107 886.541556 
" style="fill:none;stroke:#bb8bff;stroke-linecap:square;stroke-width:2;"/>
   </g>
   <g id="patch_3">
    <path clip-path="url(#pa5ae1b9d68)" d="M 120.973566 138.977749 
L 158.920968 138.977749 
L 158.920968 101.030347 
L 120.973566 101.030347 
z
" style="fill:#bb8bff;stroke:#bb8bff;stroke-linejoin:miter;stroke-width:1.5;"/>
   </g>
   <g id="patch_4">
    <path clip-path="url(#pa5ae1b9d68)" d="M 120.973566 197.358366 
L 158.920968 197.358366 
L 158.920968 159.410965 
L 120.973566 159.410965 
z
" style="fill:#bb8bff;stroke:#bb8bff;stroke-linejoin:miter;stroke-width:1.5;"/>
   </g>
   <g id="patch_5">
    <path clip-path="url(#pa5ae1b9d68)" d="M 120.973566 255.738984 
L 158.920968 255.738984 
L 158.920968 217.791582 
L 120.973566 217.791582 
z
" style="fill:#bb8bff;stroke:#bb8bff;stroke-linejoin:miter;stroke-width:1.5;"/>
   </g>
   <g id="patch_6">
    <path clip-path="url(#pa5ae1b9d68)" d="M 120.973566 314.119601 
L 158.920968 314.119601 
L 158.920968 276.1722 
L 120.973566 276.1722 
z
" style="fill:#bb8bff;stroke:#bb8bff;stroke-linejoin:miter;stroke-width:1.5;"/>
   </g>
   <g id="patch_7">
    <path clip-path="url(#pa5ae1b9d68)" d="M 120.973566 372.500219 
L 158.920968 372.500219 
L 158.920968 334.552817 
L 120.973566 334.552817 
z
" style="fill:#bb8bff;stroke:#bb8bff;stroke-linejoin:miter;stroke-width:1.5;"/>
   </g>
   <g id="patch_8">
    <path clip-path="url(#pa5ae1b9d68)" d="M 120.973566 430.880836 
L 158.920968 430.880836 
L 158.920968 392.933435 
L 120.973566 392.933435 
z
" style="fill:#bb8bff;stroke:#bb8bff;stroke-linejoin:miter;stroke-width:1.5;"/>
   </g>
   <g id="patch_9">
    <path clip-path="url(#pa5ae1b9d68)" d="M 120.973566 489.261454 
L 158.920968 489.261454 
L 158.920968 451.314052 
L 120.973566 451.314052 
z
" style="fill:#bb8bff;stroke:#bb8bff;stroke-linejoin:miter;stroke-width:1.5;"/>
   </g>
   <g id="patch_10">
    <path clip-path="url(#pa5ae1b9d68)" d="M 120.973566 547.642071 
L 158.920968 547.642071 
L 158.920968 509.69467 
L 120.973566 509.69467 
z
" style="fill:#bb8bff;stroke:#bb8bff;stroke-linejoin:miter;stroke-width:1.5;"/>
   </g>
   <g id="patch_11">
    <path clip-path="url(#pa5ae1b9d68)" d="M 120.973566 606.022689 
L 158.920968 606.022689 
L 158.920968 568.075287 
L 120.973566 568.075287 
z
" style="fill:#bb8bff;stroke:#bb8bff;stroke-linejoin:miter;stroke-width:1.5;"/>
   </g>
   <g id="patch_12">
    <path clip-path="url(#pa5ae1b9d68)" d="M 120.973566 664.403306 
L 158.920968 664.403306 
L 158.920968 626.455905 
L 120.973566 626.455905 
z
" style="fill:#bb8bff;stroke:#bb8bff;stroke-linejoin:miter;stroke-width:1.5;"/>
   </g>
   <g id="patch_13">
    <path clip-path="url(#pa5ae1b9d68)" d="M 120.973566 722.783924 
L 158.920968 722.783924 
L 158.920968 684.836522 
L 120.973566 684.836522 
z
" style="fill:#bb8bff;stroke:#bb8bff;stroke-linejoin:miter;stroke-width:1.5;"/>
   </g>
   <g id="patch_14">
    <path clip-path="url(#pa5ae1b9d68)" d="M 120.973566 781.164541 
L 158.920968 781.164541 
L 158.920968 743.21714 
L 120.973566 743.21714 
z
" style="fill:#bb8bff;stroke:#bb8bff;stroke-linejoin:miter;stroke-width:1.5;"/>
   </g>
   <g id="patch_15">
    <path clip-path="url(#pa5ae1b9d68)" d="M 120.973566 839.545159 
L 158.920968 839.545159 
L 158.920968 801.597757 
L 120.973566 801.597757 
z
" style="fill:#bb8bff;stroke:#bb8bff;stroke-linejoin:miter;stroke-width:1.5;"/>
   </g>
   <g id="patch_16">
    <path clip-path="url(#pa5ae1b9d68)" d="M 120.973566 897.925776 
L 158.920968 897.925776 
L 158.920968 859.978375 
L 120.973566 859.978375 
z
" style="fill:#bb8bff;stroke:#bb8bff;stroke-linejoin:miter;stroke-width:1.5;"/>
   </g>
   <g id="patch_17">
    <path clip-path="url(#pa5ae1b9d68)" d="M 120.973566 80.597131 
L 158.920968 80.597131 
L 158.920968 42.64973 
L 120.973566 42.64973 
z
" style="fill:#6fa4ff;stroke:#6fa4ff;stroke-linejoin:miter;stroke-width:1.5;"/>
   </g>
   <g id="patch_18">
    <path clip-path="url(#pa5ae1b9d68)" d="M 198.327884 67.315541 
C 199.83745 67.315541 201.28539 66.715784 202.352814 65.64836 
C 203.420238 64.580936 204.019995 63.132996 204.019995 61.62343 
C 204.019995 60.113865 203.420238 58.665925 202.352814 57.598501 
C 201.28539 56.531077 199.83745 55.93132 198.327884 55.93132 
C 196.818319 55.93132 195.370378 56.531077 194.302955 57.598501 
C 193.235531 58.665925 192.635774 60.113865 192.635774 61.62343 
C 192.635774 63.132996 193.235531 64.580936 194.302955 65.64836 
C 195.370378 66.715784 196.818319 67.315541 198.327884 67.315541 
z
" style="fill:#bb8bff;stroke:#bb8bff;stroke-linejoin:miter;stroke-width:1.5;"/>
   </g>
   <g id="patch_19">
    <path clip-path="url(#pa5ae1b9d68)" d="M 256.708502 67.315541 
C 258.218067 67.315541 259.666008 66.715784 260.733432 65.64836 
C 261.800855 64.580936 262.400612 63.132996 262.400612 61.62343 
C 262.400612 60.113865 261.800855 58.665925 260.733432 57.598501 
C 259.666008 56.531077 258.218067 55.93132 256.708502 55.93132 
C 255.198937 55.93132 253.750996 56.531077 252.683572 57.598501 
C 251.616148 58.665925 251.016392 60.113865 251.016392 61.62343 
C 251.016392 63.132996 251.616148 64.580936 252.683572 65.64836 
C 253.750996 66.715784 255.198937 67.315541 256.708502 67.315541 
z
" style="fill:#bb8bff;stroke:#bb8bff;stroke-linejoin:miter;stroke-width:1.5;"/>
   </g>
   <g id="patch_20">
    <path clip-path="url(#pa5ae1b9d68)" d="M 315.089119 67.315541 
C 316.598685 67.315541 318.046625 66.715784 319.114049 65.64836 
C 320.181473 64.580936 320.78123 63.132996 320.78123 61.62343 
C 320.78123 60.113865 320.181473 58.665925 319.114049 57.598501 
C 318.046625 56.531077 316.598685 55.93132 315.089119 55.93132 
C 313.579554 55.93132 312.131613 56.531077 311.06419 57.598501 
C 309.996766 58.665925 309.397009 60.113865 309.397009 61.62343 
C 309.397009 63.132996 309.996766 64.580936 311.06419 65.64836 
C 312.131613 66.715784 313.579554 67.315541 315.089119 67.315541 
z
" style="fill:#bb8bff;stroke:#bb8bff;stroke-linejoin:miter;stroke-width:1.5;"/>
   </g>
   <g id="patch_21">
    <path clip-path="url(#pa5ae1b9d68)" d="M 373.469737 67.315541 
C 374.979302 67.315541 376.427243 66.715784 377.494667 65.64836 
C 378.56209 64.580936 379.161847 63.132996 379.161847 61.62343 
C 379.161847 60.113865 378.56209 58.665925 377.494667 57.598501 
C 376.427243 56.531077 374.979302 55.93132 373.469737 55.93132 
C 371.960172 55.93132 370.512231 56.531077 369.444807 57.598501 
C 368.377383 58.665925 367.777627 60.113865 367.777627 61.62343 
C 367.777627 63.132996 368.377383 64.580936 369.444807 65.64836 
C 370.512231 66.715784 371.960172 67.315541 373.469737 67.315541 
z
" style="fill:#bb8bff;stroke:#bb8bff;stroke-linejoin:miter;stroke-width:1.5;"/>
   </g>
   <g id="patch_22">
    <path clip-path="url(#pa5ae1b9d68)" d="M 431.850354 67.315541 
C 433.35992 67.315541 434.80786 66.715784 435.875284 65.64836 
C 436.942708 64.580936 437.542465 63.132996 437.542465 61.62343 
C 437.542465 60.113865 436.942708 58.665925 435.875284 57.598501 
C 434.80786 56.531077 433.35992 55.93132 431.850354 55.93132 
C 430.340789 55.93132 428.892849 56.531077 427.825425 57.598501 
C 426.758001 58.665925 426.158244 60.113865 426.158244 61.62343 
C 426.158244 63.132996 426.758001 64.580936 427.825425 65.64836 
C 428.892849 66.715784 430.340789 67.315541 431.850354 67.315541 
z
" style="fill:#bb8bff;stroke:#bb8bff;stroke-linejoin:miter;stroke-width:1.5;"/>
   </g>
   <g id="patch_23">
    <path clip-path="url(#pa5ae1b9d68)" d="M 490.230972 67.315541 
C 491.740537 67.315541 493.188478 66.715784 494.255902 65.64836 
C 495.323325 64.580936 495.923082 63.132996 495.923082 61.62343 
C 495.923082 60.113865 495.323325 58.665925 494.255902 57.598501 
C 493.188478 56.531077 491.740537 55.93132 490.230972 55.93132 
C 488.721407 55.93132 487.273466 56.531077 486.206042 57.598501 
C 485.138618 58.665925 484.538862 60.113865 484.538862 61.62343 
C 484.538862 63.132996 485.138618 64.580936 486.206042 65.64836 
C 487.273466 66.715784 488.721407 67.315541 490.230972 67.315541 
z
" style="fill:#bb8bff;stroke:#bb8bff;stroke-linejoin:miter;stroke-width:1.5;"/>
   </g>
   <g id="patch_24">
    <path clip-path="url(#pa5ae1b9d68)" d="M 548.611589 67.315541 
C 550.121155 67.315541 551.569095 66.715784 552.636519 65.64836 
C 553.703943 64.580936 554.3037 63.132996 554.3037 61.62343 
C 554.3037 60.113865 553.703943 58.665925 552.636519 57.598501 
C 551.569095 56.531077 550.121155 55.93132 548.611589 55.93132 
C 547.102024 55.93132 545.654084 56.531077 544.58666 57.598501 
C 543.519236 58.665925 542.919479 60.113865 542.919479 61.62343 
C 542.919479 63.132996 543.519236 64.580936 544.58666 65.64836 
C 545.654084 66.715784 547.102024 67.315541 548.611589 67.315541 
z
" style="fill:#bb8bff;stroke:#bb8bff;stroke-linejoin:miter;stroke-width:1.5;"/>
   </g>
   <g id="patch_25">
    <path clip-path="url(#pa5ae1b9d68)" d="M 588.018506 80.597131 
L 625.965908 80.597131 
L 625.965908 42.64973 
L 588.018506 42.64973 
z
" style="fill:#6fa4ff;stroke:#6fa4ff;stroke-linejoin:miter;stroke-width:1.5;"/>
   </g>
   <g id="patch_26">
    <path clip-path="url(#pa5ae1b9d68)" d="M 646.399124 80.597131 
L 684.346525 80.597131 
L 684.346525 42.64973 
L 646.399124 42.64973 
z
" style="stroke:#000000;stroke-linejoin:miter;stroke-width:1.5;"/>
   </g>
   <g id="patch_27">
    <path clip-path="url(#pa5ae1b9d68)" d="M 678.654415 67.315541 
C 678.654415 63.794395 677.254153 60.413864 674.764327 57.924038 
C 672.274501 55.434212 668.89397 54.03395 665.372824 54.03395 
C 661.851679 54.03395 658.471148 55.434212 655.981322 57.924038 
C 653.491496 60.413864 652.091234 63.794395 652.091234 67.315541 
" style="fill:none;stroke:#ffffff;stroke-linejoin:miter;stroke-width:2;"/>
   </g>
   <g id="line2d_55">
    <path clip-path="url(#pa5ae1b9d68)" d="M 665.372824 67.315541 
L 678.654415 54.03395 
" style="fill:none;stroke:#ffffff;stroke-linecap:square;stroke-width:2;"/>
   </g>
   <g id="text_1">
    <g clip-path="url(#pa5ae1b9d68)">
     <!-- $\mathrm{R}_\mathrm{Y}$ -->
     <g transform="translate(132.407267 117.899125)scale(0.13 -0.13)">
      <defs>
       <path d="M 2841 2188 
Q 3044 2119 3236 1894 
Q 3428 1669 3622 1275 
L 4263 0 
L 3584 0 
L 2988 1197 
Q 2756 1666 2539 1819 
Q 2322 1972 1947 1972 
L 1259 1972 
L 1259 0 
L 628 0 
L 628 4666 
L 2053 4666 
Q 2853 4666 3247 4331 
Q 3641 3997 3641 3322 
Q 3641 2881 3436 2590 
Q 3231 2300 2841 2188 
z
M 1259 4147 
L 1259 2491 
L 2053 2491 
Q 2509 2491 2742 2702 
Q 2975 2913 2975 3322 
Q 2975 3731 2742 3939 
Q 2509 4147 2053 4147 
L 1259 4147 
z
" id="DejaVuSans-52" transform="scale(0.015625)"/>
       <path d="M -13 4666 
L 666 4666 
L 1959 2747 
L 3244 4666 
L 3922 4666 
L 2272 2222 
L 2272 0 
L 1638 0 
L 1638 2222 
L -13 4666 
z
" id="DejaVuSans-59" transform="scale(0.015625)"/>
      </defs>
      <use transform="translate(0 0.09375)" xlink:href="#DejaVuSans-52"/>
      <use transform="translate(70.439453 -16.3125)scale(0.7)" xlink:href="#DejaVuSans-59"/>
     </g>
    </g>
   </g>
   <g id="text_2">
    <g clip-path="url(#pa5ae1b9d68)">
     <!-- 0.275 -->
     <g transform="translate(128.496017 133.595768)scale(0.08 -0.08)">
      <defs>
       <path d="M 2034 4250 
Q 1547 4250 1301 3770 
Q 1056 3291 1056 2328 
Q 1056 1369 1301 889 
Q 1547 409 2034 409 
Q 2525 409 2770 889 
Q 3016 1369 3016 2328 
Q 3016 3291 2770 3770 
Q 2525 4250 2034 4250 
z
M 2034 4750 
Q 2819 4750 3233 4129 
Q 3647 3509 3647 2328 
Q 3647 1150 3233 529 
Q 2819 -91 2034 -91 
Q 1250 -91 836 529 
Q 422 1150 422 2328 
Q 422 3509 836 4129 
Q 1250 4750 2034 4750 
z
" id="DejaVuSans-30" transform="scale(0.015625)"/>
       <path d="M 684 794 
L 1344 794 
L 1344 0 
L 684 0 
L 684 794 
z
" id="DejaVuSans-2e" transform="scale(0.015625)"/>
       <path d="M 1228 531 
L 3431 531 
L 3431 0 
L 469 0 
L 469 531 
Q 828 903 1448 1529 
Q 2069 2156 2228 2338 
Q 2531 2678 2651 2914 
Q 2772 3150 2772 3378 
Q 2772 3750 2511 3984 
Q 2250 4219 1831 4219 
Q 1534 4219 1204 4116 
Q 875 4013 500 3803 
L 500 4441 
Q 881 4594 1212 4672 
Q 1544 4750 1819 4750 
Q 2544 4750 2975 4387 
Q 3406 4025 3406 3419 
Q 3406 3131 3298 2873 
Q 3191 2616 2906 2266 
Q 2828 2175 2409 1742 
Q 1991 1309 1228 531 
z
" id="DejaVuSans-32" transform="scale(0.015625)"/>
       <path d="M 525 4666 
L 3525 4666 
L 3525 4397 
L 1831 0 
L 1172 0 
L 2766 4134 
L 525 4134 
L 525 4666 
z
" id="DejaVuSans-37" transform="scale(0.015625)"/>
       <path d="M 691 4666 
L 3169 4666 
L 3169 4134 
L 1269 4134 
L 1269 2991 
Q 1406 3038 1543 3061 
Q 1681 3084 1819 3084 
Q 2600 3084 3056 2656 
Q 3513 2228 3513 1497 
Q 3513 744 3044 326 
Q 2575 -91 1722 -91 
Q 1428 -91 1123 -41 
Q 819 9 494 109 
L 494 744 
Q 775 591 1075 516 
Q 1375 441 1709 441 
Q 2250 441 2565 725 
Q 2881 1009 2881 1497 
Q 2881 1984 2565 2268 
Q 2250 2553 1709 2553 
Q 1456 2553 1204 2497 
Q 953 2441 691 2322 
L 691 4666 
z
" id="DejaVuSans-35" transform="scale(0.015625)"/>
      </defs>
      <use xlink:href="#DejaVuSans-30"/>
      <use x="63.623047" xlink:href="#DejaVuSans-2e"/>
      <use x="95.410156" xlink:href="#DejaVuSans-32"/>
      <use x="159.033203" xlink:href="#DejaVuSans-37"/>
      <use x="222.65625" xlink:href="#DejaVuSans-35"/>
     </g>
    </g>
   </g>
   <g id="text_3">
    <g clip-path="url(#pa5ae1b9d68)">
     <!-- $\mathrm{R}_\mathrm{Y}$ -->
     <g transform="translate(132.407267 176.279743)scale(0.13 -0.13)">
      <use transform="translate(0 0.09375)" xlink:href="#DejaVuSans-52"/>
      <use transform="translate(70.439453 -16.3125)scale(0.7)" xlink:href="#DejaVuSans-59"/>
     </g>
    </g>
   </g>
   <g id="text_4">
    <g clip-path="url(#pa5ae1b9d68)">
     <!-- 0.992 -->
     <g transform="translate(128.496017 191.976386)scale(0.08 -0.08)">
      <defs>
       <path d="M 703 97 
L 703 672 
Q 941 559 1184 500 
Q 1428 441 1663 441 
Q 2288 441 2617 861 
Q 2947 1281 2994 2138 
Q 2813 1869 2534 1725 
Q 2256 1581 1919 1581 
Q 1219 1581 811 2004 
Q 403 2428 403 3163 
Q 403 3881 828 4315 
Q 1253 4750 1959 4750 
Q 2769 4750 3195 4129 
Q 3622 3509 3622 2328 
Q 3622 1225 3098 567 
Q 2575 -91 1691 -91 
Q 1453 -91 1209 -44 
Q 966 3 703 97 
z
M 1959 2075 
Q 2384 2075 2632 2365 
Q 2881 2656 2881 3163 
Q 2881 3666 2632 3958 
Q 2384 4250 1959 4250 
Q 1534 4250 1286 3958 
Q 1038 3666 1038 3163 
Q 1038 2656 1286 2365 
Q 1534 2075 1959 2075 
z
" id="DejaVuSans-39" transform="scale(0.015625)"/>
      </defs>
      <use xlink:href="#DejaVuSans-30"/>
      <use x="63.623047" xlink:href="#DejaVuSans-2e"/>
      <use x="95.410156" xlink:href="#DejaVuSans-39"/>
      <use x="159.033203" xlink:href="#DejaVuSans-39"/>
      <use x="222.65625" xlink:href="#DejaVuSans-32"/>
     </g>
    </g>
   </g>
   <g id="text_5">
    <g clip-path="url(#pa5ae1b9d68)">
     <!-- $\mathrm{R}_\mathrm{Y}$ -->
     <g transform="translate(132.407267 234.66036)scale(0.13 -0.13)">
      <use transform="translate(0 0.09375)" xlink:href="#DejaVuSans-52"/>
      <use transform="translate(70.439453 -16.3125)scale(0.7)" xlink:href="#DejaVuSans-59"/>
     </g>
    </g>
   </g>
   <g id="text_6">
    <g clip-path="url(#pa5ae1b9d68)">
     <!-- 0.109 -->
     <g transform="translate(128.496017 250.357003)scale(0.08 -0.08)">
      <defs>
       <path d="M 794 531 
L 1825 531 
L 1825 4091 
L 703 3866 
L 703 4441 
L 1819 4666 
L 2450 4666 
L 2450 531 
L 3481 531 
L 3481 0 
L 794 0 
L 794 531 
z
" id="DejaVuSans-31" transform="scale(0.015625)"/>
      </defs>
      <use xlink:href="#DejaVuSans-30"/>
      <use x="63.623047" xlink:href="#DejaVuSans-2e"/>
      <use x="95.410156" xlink:href="#DejaVuSans-31"/>
      <use x="159.033203" xlink:href="#DejaVuSans-30"/>
      <use x="222.65625" xlink:href="#DejaVuSans-39"/>
     </g>
    </g>
   </g>
   <g id="text_7">
    <g clip-path="url(#pa5ae1b9d68)">
     <!-- $\mathrm{R}_\mathrm{Y}$ -->
     <g transform="translate(132.407267 293.040978)scale(0.13 -0.13)">
      <use transform="translate(0 0.09375)" xlink:href="#DejaVuSans-52"/>
      <use transform="translate(70.439453 -16.3125)scale(0.7)" xlink:href="#DejaVuSans-59"/>
     </g>
    </g>
   </g>
   <g id="text_8">
    <g clip-path="url(#pa5ae1b9d68)">
     <!-- 2.67 -->
     <g transform="translate(131.041017 308.737621)scale(0.08 -0.08)">
      <defs>
       <path d="M 2113 2584 
Q 1688 2584 1439 2293 
Q 1191 2003 1191 1497 
Q 1191 994 1439 701 
Q 1688 409 2113 409 
Q 2538 409 2786 701 
Q 3034 994 3034 1497 
Q 3034 2003 2786 2293 
Q 2538 2584 2113 2584 
z
M 3366 4563 
L 3366 3988 
Q 3128 4100 2886 4159 
Q 2644 4219 2406 4219 
Q 1781 4219 1451 3797 
Q 1122 3375 1075 2522 
Q 1259 2794 1537 2939 
Q 1816 3084 2150 3084 
Q 2853 3084 3261 2657 
Q 3669 2231 3669 1497 
Q 3669 778 3244 343 
Q 2819 -91 2113 -91 
Q 1303 -91 875 529 
Q 447 1150 447 2328 
Q 447 3434 972 4092 
Q 1497 4750 2381 4750 
Q 2619 4750 2861 4703 
Q 3103 4656 3366 4563 
z
" id="DejaVuSans-36" transform="scale(0.015625)"/>
      </defs>
      <use xlink:href="#DejaVuSans-32"/>
      <use x="63.623047" xlink:href="#DejaVuSans-2e"/>
      <use x="95.410156" xlink:href="#DejaVuSans-36"/>
      <use x="159.033203" xlink:href="#DejaVuSans-37"/>
     </g>
    </g>
   </g>
   <g id="text_9">
    <g clip-path="url(#pa5ae1b9d68)">
     <!-- $\mathrm{R}_\mathrm{Y}$ -->
     <g transform="translate(132.407267 351.421595)scale(0.13 -0.13)">
      <use transform="translate(0 0.09375)" xlink:href="#DejaVuSans-52"/>
      <use transform="translate(70.439453 -16.3125)scale(0.7)" xlink:href="#DejaVuSans-59"/>
     </g>
    </g>
   </g>
   <g id="text_10">
    <g clip-path="url(#pa5ae1b9d68)">
     <!-- 2.68 -->
     <g transform="translate(131.041017 367.118238)scale(0.08 -0.08)">
      <defs>
       <path d="M 2034 2216 
Q 1584 2216 1326 1975 
Q 1069 1734 1069 1313 
Q 1069 891 1326 650 
Q 1584 409 2034 409 
Q 2484 409 2743 651 
Q 3003 894 3003 1313 
Q 3003 1734 2745 1975 
Q 2488 2216 2034 2216 
z
M 1403 2484 
Q 997 2584 770 2862 
Q 544 3141 544 3541 
Q 544 4100 942 4425 
Q 1341 4750 2034 4750 
Q 2731 4750 3128 4425 
Q 3525 4100 3525 3541 
Q 3525 3141 3298 2862 
Q 3072 2584 2669 2484 
Q 3125 2378 3379 2068 
Q 3634 1759 3634 1313 
Q 3634 634 3220 271 
Q 2806 -91 2034 -91 
Q 1263 -91 848 271 
Q 434 634 434 1313 
Q 434 1759 690 2068 
Q 947 2378 1403 2484 
z
M 1172 3481 
Q 1172 3119 1398 2916 
Q 1625 2713 2034 2713 
Q 2441 2713 2670 2916 
Q 2900 3119 2900 3481 
Q 2900 3844 2670 4047 
Q 2441 4250 2034 4250 
Q 1625 4250 1398 4047 
Q 1172 3844 1172 3481 
z
" id="DejaVuSans-38" transform="scale(0.015625)"/>
      </defs>
      <use xlink:href="#DejaVuSans-32"/>
      <use x="63.623047" xlink:href="#DejaVuSans-2e"/>
      <use x="95.410156" xlink:href="#DejaVuSans-36"/>
      <use x="159.033203" xlink:href="#DejaVuSans-38"/>
     </g>
    </g>
   </g>
   <g id="text_11">
    <g clip-path="url(#pa5ae1b9d68)">
     <!-- $\mathrm{R}_\mathrm{Y}$ -->
     <g transform="translate(132.407267 409.802213)scale(0.13 -0.13)">
      <use transform="translate(0 0.09375)" xlink:href="#DejaVuSans-52"/>
      <use transform="translate(70.439453 -16.3125)scale(0.7)" xlink:href="#DejaVuSans-59"/>
     </g>
    </g>
   </g>
   <g id="text_12">
    <g clip-path="url(#pa5ae1b9d68)">
     <!-- 0.246 -->
     <g transform="translate(128.496017 425.498856)scale(0.08 -0.08)">
      <defs>
       <path d="M 2419 4116 
L 825 1625 
L 2419 1625 
L 2419 4116 
z
M 2253 4666 
L 3047 4666 
L 3047 1625 
L 3713 1625 
L 3713 1100 
L 3047 1100 
L 3047 0 
L 2419 0 
L 2419 1100 
L 313 1100 
L 313 1709 
L 2253 4666 
z
" id="DejaVuSans-34" transform="scale(0.015625)"/>
      </defs>
      <use xlink:href="#DejaVuSans-30"/>
      <use x="63.623047" xlink:href="#DejaVuSans-2e"/>
      <use x="95.410156" xlink:href="#DejaVuSans-32"/>
      <use x="159.033203" xlink:href="#DejaVuSans-34"/>
      <use x="222.65625" xlink:href="#DejaVuSans-36"/>
     </g>
    </g>
   </g>
   <g id="text_13">
    <g clip-path="url(#pa5ae1b9d68)">
     <!-- $\mathrm{R}_\mathrm{Y}$ -->
     <g transform="translate(132.407267 468.18283)scale(0.13 -0.13)">
      <use transform="translate(0 0.09375)" xlink:href="#DejaVuSans-52"/>
      <use transform="translate(70.439453 -16.3125)scale(0.7)" xlink:href="#DejaVuSans-59"/>
     </g>
    </g>
   </g>
   <g id="text_14">
    <g clip-path="url(#pa5ae1b9d68)">
     <!-- 2.93 -->
     <g transform="translate(131.041017 483.879473)scale(0.08 -0.08)">
      <defs>
       <path d="M 2597 2516 
Q 3050 2419 3304 2112 
Q 3559 1806 3559 1356 
Q 3559 666 3084 287 
Q 2609 -91 1734 -91 
Q 1441 -91 1130 -33 
Q 819 25 488 141 
L 488 750 
Q 750 597 1062 519 
Q 1375 441 1716 441 
Q 2309 441 2620 675 
Q 2931 909 2931 1356 
Q 2931 1769 2642 2001 
Q 2353 2234 1838 2234 
L 1294 2234 
L 1294 2753 
L 1863 2753 
Q 2328 2753 2575 2939 
Q 2822 3125 2822 3475 
Q 2822 3834 2567 4026 
Q 2313 4219 1838 4219 
Q 1578 4219 1281 4162 
Q 984 4106 628 3988 
L 628 4550 
Q 988 4650 1302 4700 
Q 1616 4750 1894 4750 
Q 2613 4750 3031 4423 
Q 3450 4097 3450 3541 
Q 3450 3153 3228 2886 
Q 3006 2619 2597 2516 
z
" id="DejaVuSans-33" transform="scale(0.015625)"/>
      </defs>
      <use xlink:href="#DejaVuSans-32"/>
      <use x="63.623047" xlink:href="#DejaVuSans-2e"/>
      <use x="95.410156" xlink:href="#DejaVuSans-39"/>
      <use x="159.033203" xlink:href="#DejaVuSans-33"/>
     </g>
    </g>
   </g>
   <g id="text_15">
    <g clip-path="url(#pa5ae1b9d68)">
     <!-- $\mathrm{R}_\mathrm{Y}$ -->
     <g transform="translate(132.407267 526.563448)scale(0.13 -0.13)">
      <use transform="translate(0 0.09375)" xlink:href="#DejaVuSans-52"/>
      <use transform="translate(70.439453 -16.3125)scale(0.7)" xlink:href="#DejaVuSans-59"/>
     </g>
    </g>
   </g>
   <g id="text_16">
    <g clip-path="url(#pa5ae1b9d68)">
     <!-- 0.163 -->
     <g transform="translate(128.496017 542.260091)scale(0.08 -0.08)">
      <use xlink:href="#DejaVuSans-30"/>
      <use x="63.623047" xlink:href="#DejaVuSans-2e"/>
      <use x="95.410156" xlink:href="#DejaVuSans-31"/>
      <use x="159.033203" xlink:href="#DejaVuSans-36"/>
      <use x="222.65625" xlink:href="#DejaVuSans-33"/>
     </g>
    </g>
   </g>
   <g id="text_17">
    <g clip-path="url(#pa5ae1b9d68)">
     <!-- $\mathrm{R}_\mathrm{Y}$ -->
     <g transform="translate(132.407267 584.944065)scale(0.13 -0.13)">
      <use transform="translate(0 0.09375)" xlink:href="#DejaVuSans-52"/>
      <use transform="translate(70.439453 -16.3125)scale(0.7)" xlink:href="#DejaVuSans-59"/>
     </g>
    </g>
   </g>
   <g id="text_18">
    <g clip-path="url(#pa5ae1b9d68)">
     <!-- 2.31 -->
     <g transform="translate(131.041017 600.640708)scale(0.08 -0.08)">
      <use xlink:href="#DejaVuSans-32"/>
      <use x="63.623047" xlink:href="#DejaVuSans-2e"/>
      <use x="95.410156" xlink:href="#DejaVuSans-33"/>
      <use x="159.033203" xlink:href="#DejaVuSans-31"/>
     </g>
    </g>
   </g>
   <g id="text_19">
    <g clip-path="url(#pa5ae1b9d68)">
     <!-- $\mathrm{R}_\mathrm{Y}$ -->
     <g transform="translate(132.407267 643.324683)scale(0.13 -0.13)">
      <use transform="translate(0 0.09375)" xlink:href="#DejaVuSans-52"/>
      <use transform="translate(70.439453 -16.3125)scale(0.7)" xlink:href="#DejaVuSans-59"/>
     </g>
    </g>
   </g>
   <g id="text_20">
    <g clip-path="url(#pa5ae1b9d68)">
     <!-- 1.56 -->
     <g transform="translate(131.041017 659.021326)scale(0.08 -0.08)">
      <use xlink:href="#DejaVuSans-31"/>
      <use x="63.623047" xlink:href="#DejaVuSans-2e"/>
      <use x="95.410156" xlink:href="#DejaVuSans-35"/>
      <use x="159.033203" xlink:href="#DejaVuSans-36"/>
     </g>
    </g>
   </g>
   <g id="text_21">
    <g clip-path="url(#pa5ae1b9d68)">
     <!-- $\mathrm{R}_\mathrm{Y}$ -->
     <g transform="translate(132.407267 701.7053)scale(0.13 -0.13)">
      <use transform="translate(0 0.09375)" xlink:href="#DejaVuSans-52"/>
      <use transform="translate(70.439453 -16.3125)scale(0.7)" xlink:href="#DejaVuSans-59"/>
     </g>
    </g>
   </g>
   <g id="text_22">
    <g clip-path="url(#pa5ae1b9d68)">
     <!-- 0.523 -->
     <g transform="translate(128.496017 717.401943)scale(0.08 -0.08)">
      <use xlink:href="#DejaVuSans-30"/>
      <use x="63.623047" xlink:href="#DejaVuSans-2e"/>
      <use x="95.410156" xlink:href="#DejaVuSans-35"/>
      <use x="159.033203" xlink:href="#DejaVuSans-32"/>
      <use x="222.65625" xlink:href="#DejaVuSans-33"/>
     </g>
    </g>
   </g>
   <g id="text_23">
    <g clip-path="url(#pa5ae1b9d68)">
     <!-- $\mathrm{R}_\mathrm{Y}$ -->
     <g transform="translate(132.407267 760.085918)scale(0.13 -0.13)">
      <use transform="translate(0 0.09375)" xlink:href="#DejaVuSans-52"/>
      <use transform="translate(70.439453 -16.3125)scale(0.7)" xlink:href="#DejaVuSans-59"/>
     </g>
    </g>
   </g>
   <g id="text_24">
    <g clip-path="url(#pa5ae1b9d68)">
     <!-- 0.805 -->
     <g transform="translate(128.496017 775.782561)scale(0.08 -0.08)">
      <use xlink:href="#DejaVuSans-30"/>
      <use x="63.623047" xlink:href="#DejaVuSans-2e"/>
      <use x="95.410156" xlink:href="#DejaVuSans-38"/>
      <use x="159.033203" xlink:href="#DejaVuSans-30"/>
      <use x="222.65625" xlink:href="#DejaVuSans-35"/>
     </g>
    </g>
   </g>
   <g id="text_25">
    <g clip-path="url(#pa5ae1b9d68)">
     <!-- $\mathrm{R}_\mathrm{Y}$ -->
     <g transform="translate(132.407267 818.466535)scale(0.13 -0.13)">
      <use transform="translate(0 0.09375)" xlink:href="#DejaVuSans-52"/>
      <use transform="translate(70.439453 -16.3125)scale(0.7)" xlink:href="#DejaVuSans-59"/>
     </g>
    </g>
   </g>
   <g id="text_26">
    <g clip-path="url(#pa5ae1b9d68)">
     <!-- 1.99 -->
     <g transform="translate(131.041017 834.163178)scale(0.08 -0.08)">
      <use xlink:href="#DejaVuSans-31"/>
      <use x="63.623047" xlink:href="#DejaVuSans-2e"/>
      <use x="95.410156" xlink:href="#DejaVuSans-39"/>
      <use x="159.033203" xlink:href="#DejaVuSans-39"/>
     </g>
    </g>
   </g>
   <g id="text_27">
    <g clip-path="url(#pa5ae1b9d68)">
     <!-- $\mathrm{R}_\mathrm{Y}$ -->
     <g transform="translate(132.407267 876.847153)scale(0.13 -0.13)">
      <use transform="translate(0 0.09375)" xlink:href="#DejaVuSans-52"/>
      <use transform="translate(70.439453 -16.3125)scale(0.7)" xlink:href="#DejaVuSans-59"/>
     </g>
    </g>
   </g>
   <g id="text_28">
    <g clip-path="url(#pa5ae1b9d68)">
     <!-- 2.6 -->
     <g transform="translate(133.586017 892.543796)scale(0.08 -0.08)">
      <use xlink:href="#DejaVuSans-32"/>
      <use x="63.623047" xlink:href="#DejaVuSans-2e"/>
      <use x="95.410156" xlink:href="#DejaVuSans-36"/>
     </g>
    </g>
   </g>
   <g id="text_29">
    <g clip-path="url(#pa5ae1b9d68)">
     <!-- H -->
     <g transform="translate(135.059064 65.210618)scale(0.13 -0.13)">
      <defs>
       <path d="M 628 4666 
L 1259 4666 
L 1259 2753 
L 3553 2753 
L 3553 4666 
L 4184 4666 
L 4184 0 
L 3553 0 
L 3553 2222 
L 1259 2222 
L 1259 0 
L 628 0 
L 628 4666 
z
" id="DejaVuSans-48" transform="scale(0.015625)"/>
      </defs>
      <use xlink:href="#DejaVuSans-48"/>
     </g>
    </g>
   </g>
   <g id="text_30">
    <g clip-path="url(#pa5ae1b9d68)">
     <!-- H -->
     <g transform="translate(602.104004 65.210618)scale(0.13 -0.13)">
      <use xlink:href="#DejaVuSans-48"/>
     </g>
    </g>
   </g>
   <g id="text_31">
    <g clip-path="url(#pa5ae1b9d68)">
     <!-- 0 -->
     <g transform="translate(679.967979 929.331756)scale(0.104 -0.104)">
      <use xlink:href="#DejaVuSans-30"/>
     </g>
    </g>
   </g>
   <g id="text_32">
    <g clip-path="url(#pa5ae1b9d68)">
     <!-- ${q0}_{0}$ -->
     <g transform="translate(68.14561 66.074407)scale(0.1625 -0.1625)">
      <defs>
       <path d="M 2669 525 
Q 2438 222 2123 65 
Q 1809 -91 1428 -91 
Q 897 -91 595 267 
Q 294 625 294 1253 
Q 294 1759 480 2231 
Q 666 2703 1013 3078 
Q 1238 3322 1530 3453 
Q 1822 3584 2144 3584 
Q 2531 3584 2781 3431 
Q 3031 3278 3144 2969 
L 3244 3494 
L 3822 3494 
L 2888 -1319 
L 2309 -1319 
L 2669 525 
z
M 891 1338 
Q 891 875 1084 633 
Q 1278 391 1644 391 
Q 2188 391 2572 911 
Q 2956 1431 2956 2175 
Q 2956 2625 2757 2864 
Q 2559 3103 2188 3103 
Q 1916 3103 1684 2976 
Q 1453 2850 1281 2606 
Q 1100 2350 995 2006 
Q 891 1663 891 1338 
z
" id="DejaVuSans-Oblique-71" transform="scale(0.015625)"/>
      </defs>
      <use transform="translate(0 0.78125)" xlink:href="#DejaVuSans-Oblique-71"/>
      <use transform="translate(63.476562 0.78125)" xlink:href="#DejaVuSans-30"/>
      <use transform="translate(128.056641 -15.625)scale(0.7)" xlink:href="#DejaVuSans-30"/>
     </g>
    </g>
   </g>
   <g id="text_33">
    <g clip-path="url(#pa5ae1b9d68)">
     <!-- ${q0}_{1}$ -->
     <g transform="translate(68.14561 124.455024)scale(0.1625 -0.1625)">
      <use transform="translate(0 0.78125)" xlink:href="#DejaVuSans-Oblique-71"/>
      <use transform="translate(63.476562 0.78125)" xlink:href="#DejaVuSans-30"/>
      <use transform="translate(128.056641 -15.625)scale(0.7)" xlink:href="#DejaVuSans-31"/>
     </g>
    </g>
   </g>
   <g id="text_34">
    <g clip-path="url(#pa5ae1b9d68)">
     <!-- ${q0}_{2}$ -->
     <g transform="translate(68.14561 182.835642)scale(0.1625 -0.1625)">
      <use transform="translate(0 0.78125)" xlink:href="#DejaVuSans-Oblique-71"/>
      <use transform="translate(63.476562 0.78125)" xlink:href="#DejaVuSans-30"/>
      <use transform="translate(128.056641 -15.625)scale(0.7)" xlink:href="#DejaVuSans-32"/>
     </g>
    </g>
   </g>
   <g id="text_35">
    <g clip-path="url(#pa5ae1b9d68)">
     <!-- ${q0}_{3}$ -->
     <g transform="translate(68.14561 241.21626)scale(0.1625 -0.1625)">
      <use transform="translate(0 0.78125)" xlink:href="#DejaVuSans-Oblique-71"/>
      <use transform="translate(63.476562 0.78125)" xlink:href="#DejaVuSans-30"/>
      <use transform="translate(128.056641 -15.625)scale(0.7)" xlink:href="#DejaVuSans-33"/>
     </g>
    </g>
   </g>
   <g id="text_36">
    <g clip-path="url(#pa5ae1b9d68)">
     <!-- ${q0}_{4}$ -->
     <g transform="translate(68.14561 299.596877)scale(0.1625 -0.1625)">
      <use transform="translate(0 0.78125)" xlink:href="#DejaVuSans-Oblique-71"/>
      <use transform="translate(63.476562 0.78125)" xlink:href="#DejaVuSans-30"/>
      <use transform="translate(128.056641 -15.625)scale(0.7)" xlink:href="#DejaVuSans-34"/>
     </g>
    </g>
   </g>
   <g id="text_37">
    <g clip-path="url(#pa5ae1b9d68)">
     <!-- ${q0}_{5}$ -->
     <g transform="translate(68.14561 357.977495)scale(0.1625 -0.1625)">
      <use transform="translate(0 0.78125)" xlink:href="#DejaVuSans-Oblique-71"/>
      <use transform="translate(63.476562 0.78125)" xlink:href="#DejaVuSans-30"/>
      <use transform="translate(128.056641 -15.625)scale(0.7)" xlink:href="#DejaVuSans-35"/>
     </g>
    </g>
   </g>
   <g id="text_38">
    <g clip-path="url(#pa5ae1b9d68)">
     <!-- ${q0}_{6}$ -->
     <g transform="translate(68.14561 416.358112)scale(0.1625 -0.1625)">
      <use transform="translate(0 0.78125)" xlink:href="#DejaVuSans-Oblique-71"/>
      <use transform="translate(63.476562 0.78125)" xlink:href="#DejaVuSans-30"/>
      <use transform="translate(128.056641 -15.625)scale(0.7)" xlink:href="#DejaVuSans-36"/>
     </g>
    </g>
   </g>
   <g id="text_39">
    <g clip-path="url(#pa5ae1b9d68)">
     <!-- ${q0}_{7}$ -->
     <g transform="translate(68.14561 474.73873)scale(0.1625 -0.1625)">
      <use transform="translate(0 0.78125)" xlink:href="#DejaVuSans-Oblique-71"/>
      <use transform="translate(63.476562 0.78125)" xlink:href="#DejaVuSans-30"/>
      <use transform="translate(128.056641 -15.625)scale(0.7)" xlink:href="#DejaVuSans-37"/>
     </g>
    </g>
   </g>
   <g id="text_40">
    <g clip-path="url(#pa5ae1b9d68)">
     <!-- ${q0}_{8}$ -->
     <g transform="translate(68.14561 533.119347)scale(0.1625 -0.1625)">
      <use transform="translate(0 0.78125)" xlink:href="#DejaVuSans-Oblique-71"/>
      <use transform="translate(63.476562 0.78125)" xlink:href="#DejaVuSans-30"/>
      <use transform="translate(128.056641 -15.625)scale(0.7)" xlink:href="#DejaVuSans-38"/>
     </g>
    </g>
   </g>
   <g id="text_41">
    <g clip-path="url(#pa5ae1b9d68)">
     <!-- ${q0}_{9}$ -->
     <g transform="translate(68.14561 591.499965)scale(0.1625 -0.1625)">
      <use transform="translate(0 0.78125)" xlink:href="#DejaVuSans-Oblique-71"/>
      <use transform="translate(63.476562 0.78125)" xlink:href="#DejaVuSans-30"/>
      <use transform="translate(128.056641 -15.625)scale(0.7)" xlink:href="#DejaVuSans-39"/>
     </g>
    </g>
   </g>
   <g id="text_42">
    <g clip-path="url(#pa5ae1b9d68)">
     <!-- ${q0}_{10}$ -->
     <g transform="translate(60.99561 649.880582)scale(0.1625 -0.1625)">
      <use transform="translate(0 0.78125)" xlink:href="#DejaVuSans-Oblique-71"/>
      <use transform="translate(63.476562 0.78125)" xlink:href="#DejaVuSans-30"/>
      <use transform="translate(128.056641 -15.625)scale(0.7)" xlink:href="#DejaVuSans-31"/>
      <use transform="translate(172.592773 -15.625)scale(0.7)" xlink:href="#DejaVuSans-30"/>
     </g>
    </g>
   </g>
   <g id="text_43">
    <g clip-path="url(#pa5ae1b9d68)">
     <!-- ${q0}_{11}$ -->
     <g transform="translate(60.99561 708.2612)scale(0.1625 -0.1625)">
      <use transform="translate(0 0.78125)" xlink:href="#DejaVuSans-Oblique-71"/>
      <use transform="translate(63.476562 0.78125)" xlink:href="#DejaVuSans-30"/>
      <use transform="translate(128.056641 -15.625)scale(0.7)" xlink:href="#DejaVuSans-31"/>
      <use transform="translate(172.592773 -15.625)scale(0.7)" xlink:href="#DejaVuSans-31"/>
     </g>
    </g>
   </g>
   <g id="text_44">
    <g clip-path="url(#pa5ae1b9d68)">
     <!-- ${q0}_{12}$ -->
     <g transform="translate(60.99561 766.641817)scale(0.1625 -0.1625)">
      <use transform="translate(0 0.78125)" xlink:href="#DejaVuSans-Oblique-71"/>
      <use transform="translate(63.476562 0.78125)" xlink:href="#DejaVuSans-30"/>
      <use transform="translate(128.056641 -15.625)scale(0.7)" xlink:href="#DejaVuSans-31"/>
      <use transform="translate(172.592773 -15.625)scale(0.7)" xlink:href="#DejaVuSans-32"/>
     </g>
    </g>
   </g>
   <g id="text_45">
    <g clip-path="url(#pa5ae1b9d68)">
     <!-- ${q0}_{13}$ -->
     <g transform="translate(60.99561 825.022435)scale(0.1625 -0.1625)">
      <use transform="translate(0 0.78125)" xlink:href="#DejaVuSans-Oblique-71"/>
      <use transform="translate(63.476562 0.78125)" xlink:href="#DejaVuSans-30"/>
      <use transform="translate(128.056641 -15.625)scale(0.7)" xlink:href="#DejaVuSans-31"/>
      <use transform="translate(172.592773 -15.625)scale(0.7)" xlink:href="#DejaVuSans-33"/>
     </g>
    </g>
   </g>
   <g id="text_46">
    <g clip-path="url(#pa5ae1b9d68)">
     <!-- ${q0}_{14}$ -->
     <g transform="translate(60.99561 883.403052)scale(0.1625 -0.1625)">
      <use transform="translate(0 0.78125)" xlink:href="#DejaVuSans-Oblique-71"/>
      <use transform="translate(63.476562 0.78125)" xlink:href="#DejaVuSans-30"/>
      <use transform="translate(128.056641 -15.625)scale(0.7)" xlink:href="#DejaVuSans-31"/>
      <use transform="translate(172.592773 -15.625)scale(0.7)" xlink:href="#DejaVuSans-34"/>
     </g>
    </g>
   </g>
   <g id="text_47">
    <g clip-path="url(#pa5ae1b9d68)">
     <!-- c0 -->
     <g transform="translate(77.471586 941.816677)scale(0.1625 -0.1625)">
      <defs>
       <path d="M 3122 3366 
L 3122 2828 
Q 2878 2963 2633 3030 
Q 2388 3097 2138 3097 
Q 1578 3097 1268 2742 
Q 959 2388 959 1747 
Q 959 1106 1268 751 
Q 1578 397 2138 397 
Q 2388 397 2633 464 
Q 2878 531 3122 666 
L 3122 134 
Q 2881 22 2623 -34 
Q 2366 -91 2075 -91 
Q 1284 -91 818 406 
Q 353 903 353 1747 
Q 353 2603 823 3093 
Q 1294 3584 2113 3584 
Q 2378 3584 2631 3529 
Q 2884 3475 3122 3366 
z
" id="DejaVuSans-63" transform="scale(0.015625)"/>
      </defs>
      <use xlink:href="#DejaVuSans-63"/>
      <use x="54.980469" xlink:href="#DejaVuSans-30"/>
     </g>
    </g>
   </g>
  </g>
 </g>
 <defs>
  <clipPath id="pa5ae1b9d68">
   <rect height="957.442127" width="693.104032" x="10.8" y="14.918936"/>
  </clipPath>
 </defs>
</svg>
