<?xml version="1.0" encoding="utf-8" standalone="no"?>
<!DOCTYPE svg PUBLIC "-//W3C//DTD SVG 1.1//EN"
  "http://www.w3.org/Graphics/SVG/1.1/DTD/svg11.dtd">
<svg height="927.08pt" version="1.1" viewBox="0 0 1621.878601 927.08" width="1621.878601pt" xmlns="http://www.w3.org/2000/svg" xmlns:xlink="http://www.w3.org/1999/xlink">
 <metadata>
  <rdf:RDF xmlns:cc="http://creativecommons.org/ns#" xmlns:dc="http://purl.org/dc/elements/1.1/" xmlns:rdf="http://www.w3.org/1999/02/22-rdf-syntax-ns#">
   <cc:Work>
    <dc:type rdf:resource="http://purl.org/dc/dcmitype/StillImage"/>
    <dc:date>2021-07-06T13:40:20.349373</dc:date>
    <dc:format>image/svg+xml</dc:format>
    <dc:creator>
     <cc:Agent>
      <dc:title>Matplotlib v3.4.2, https://matplotlib.org/</dc:title>
     </cc:Agent>
    </dc:creator>
   </cc:Work>
  </rdf:RDF>
 </metadata>
 <defs>
  <style type="text/css">*{stroke-linecap:butt;stroke-linejoin:round;}</style>
 </defs>
 <g id="figure_1">
  <g id="patch_1">
   <path d="M 0 927.08 
L 1621.878601 927.08 
L 1621.878601 0 
L 0 0 
z
" style="fill:#ffffff;"/>
  </g>
  <g id="axes_1">
   <g id="patch_2">
    <path clip-path="url(#pc0987d3610)" d="M 380.586559 867.625149 
L 395.873883 867.625149 
L 388.230221 878.649662 
z
" style="fill:#778899;"/>
   </g>
   <g id="patch_3">
    <path clip-path="url(#pc0987d3610)" d="M 439.383961 867.625149 
L 454.671286 867.625149 
L 447.027623 878.649662 
z
" style="fill:#778899;"/>
   </g>
   <g id="patch_4">
    <path clip-path="url(#pc0987d3610)" d="M 498.181364 867.625149 
L 513.468688 867.625149 
L 505.825026 878.649662 
z
" style="fill:#778899;"/>
   </g>
   <g id="patch_5">
    <path clip-path="url(#pc0987d3610)" d="M 556.978766 867.625149 
L 572.266091 867.625149 
L 564.622429 878.649662 
z
" style="fill:#778899;"/>
   </g>
   <g id="patch_6">
    <path clip-path="url(#pc0987d3610)" d="M 615.776169 867.625149 
L 631.063494 867.625149 
L 623.419831 878.649662 
z
" style="fill:#778899;"/>
   </g>
   <g id="line2d_1">
    <path clip-path="url(#pc0987d3610)" d="M 121.290013 57.837922 
L 1597.104818 57.837922 
" style="fill:none;stroke:#000000;stroke-linecap:square;stroke-width:2;"/>
   </g>
   <g id="line2d_2">
    <path clip-path="url(#pc0987d3610)" d="M 121.290013 116.635325 
L 1597.104818 116.635325 
" style="fill:none;stroke:#000000;stroke-linecap:square;stroke-width:2;"/>
   </g>
   <g id="line2d_3">
    <path clip-path="url(#pc0987d3610)" d="M 121.290013 175.432727 
L 1597.104818 175.432727 
" style="fill:none;stroke:#000000;stroke-linecap:square;stroke-width:2;"/>
   </g>
   <g id="line2d_4">
    <path clip-path="url(#pc0987d3610)" d="M 121.290013 234.23013 
L 1597.104818 234.23013 
" style="fill:none;stroke:#000000;stroke-linecap:square;stroke-width:2;"/>
   </g>
   <g id="line2d_5">
    <path clip-path="url(#pc0987d3610)" d="M 121.290013 293.027532 
L 1597.104818 293.027532 
" style="fill:none;stroke:#000000;stroke-linecap:square;stroke-width:2;"/>
   </g>
   <g id="line2d_6">
    <path clip-path="url(#pc0987d3610)" d="M 121.290013 349.914019 
L 1597.104818 349.914019 
" style="fill:none;stroke:#778899;stroke-linecap:square;stroke-width:2;"/>
   </g>
   <g id="line2d_7">
    <path clip-path="url(#pc0987d3610)" d="M 121.290013 353.735851 
L 1597.104818 353.735851 
" style="fill:none;stroke:#778899;stroke-linecap:square;stroke-width:2;"/>
   </g>
   <g id="line2d_8">
    <path clip-path="url(#pc0987d3610)" d="M 121.290013 408.711422 
L 1597.104818 408.711422 
" style="fill:none;stroke:#778899;stroke-linecap:square;stroke-width:2;"/>
   </g>
   <g id="line2d_9">
    <path clip-path="url(#pc0987d3610)" d="M 121.290013 412.533253 
L 1597.104818 412.533253 
" style="fill:none;stroke:#778899;stroke-linecap:square;stroke-width:2;"/>
   </g>
   <g id="line2d_10">
    <path clip-path="url(#pc0987d3610)" d="M 121.290013 528.217143 
L 1597.104818 528.217143 
" style="fill:none;stroke:#000000;stroke-linecap:square;stroke-width:2;"/>
   </g>
   <g id="line2d_11">
    <path clip-path="url(#pc0987d3610)" d="M 121.290013 587.014545 
L 1597.104818 587.014545 
" style="fill:none;stroke:#000000;stroke-linecap:square;stroke-width:2;"/>
   </g>
   <g id="line2d_12">
    <path clip-path="url(#pc0987d3610)" d="M 121.290013 645.811948 
L 1597.104818 645.811948 
" style="fill:none;stroke:#000000;stroke-linecap:square;stroke-width:2;"/>
   </g>
   <g id="line2d_13">
    <path clip-path="url(#pc0987d3610)" d="M 121.290013 704.609351 
L 1597.104818 704.609351 
" style="fill:none;stroke:#000000;stroke-linecap:square;stroke-width:2;"/>
   </g>
   <g id="line2d_14">
    <path clip-path="url(#pc0987d3610)" d="M 121.290013 763.406753 
L 1597.104818 763.406753 
" style="fill:none;stroke:#000000;stroke-linecap:square;stroke-width:2;"/>
   </g>
   <g id="line2d_15">
    <path clip-path="url(#pc0987d3610)" d="M 121.290013 820.29324 
L 1597.104818 820.29324 
" style="fill:none;stroke:#778899;stroke-linecap:square;stroke-width:2;"/>
   </g>
   <g id="line2d_16">
    <path clip-path="url(#pc0987d3610)" d="M 121.290013 824.115071 
L 1597.104818 824.115071 
" style="fill:none;stroke:#778899;stroke-linecap:square;stroke-width:2;"/>
   </g>
   <g id="line2d_17">
    <path clip-path="url(#pc0987d3610)" d="M 121.290013 879.090643 
L 1597.104818 879.090643 
" style="fill:none;stroke:#778899;stroke-linecap:square;stroke-width:2;"/>
   </g>
   <g id="line2d_18">
    <path clip-path="url(#pc0987d3610)" d="M 121.290013 882.912474 
L 1597.104818 882.912474 
" style="fill:none;stroke:#778899;stroke-linecap:square;stroke-width:2;"/>
   </g>
   <g id="patch_7">
    <path clip-path="url(#pc0987d3610)" d="M 317.967325 557.615844 
L 340.898312 557.615844 
L 340.898312 498.818442 
L 317.967325 498.818442 
z
" style="fill:#bdbdbd;opacity:0.6;"/>
   </g>
   <g id="patch_8">
    <path clip-path="url(#pc0987d3610)" d="M 317.967325 616.413247 
L 340.898312 616.413247 
L 340.898312 557.615844 
L 317.967325 557.615844 
z
" style="fill:#bdbdbd;opacity:0.6;"/>
   </g>
   <g id="patch_9">
    <path clip-path="url(#pc0987d3610)" d="M 317.967325 675.210649 
L 340.898312 675.210649 
L 340.898312 616.413247 
L 317.967325 616.413247 
z
" style="fill:#bdbdbd;opacity:0.6;"/>
   </g>
   <g id="patch_10">
    <path clip-path="url(#pc0987d3610)" d="M 317.967325 734.008052 
L 340.898312 734.008052 
L 340.898312 675.210649 
L 317.967325 675.210649 
z
" style="fill:#bdbdbd;opacity:0.6;"/>
   </g>
   <g id="patch_11">
    <path clip-path="url(#pc0987d3610)" d="M 317.967325 792.805455 
L 340.898312 792.805455 
L 340.898312 734.008052 
L 317.967325 734.008052 
z
" style="fill:#bdbdbd;opacity:0.6;"/>
   </g>
   <g id="line2d_19">
    <path clip-path="url(#pc0987d3610)" d="M 270.635416 116.635325 
L 270.635416 57.837922 
" style="fill:none;stroke:#6fa4ff;stroke-linecap:square;stroke-width:2;"/>
   </g>
   <g id="line2d_20">
    <path clip-path="url(#pc0987d3610)" d="M 388.230221 116.635325 
L 388.230221 57.837922 
" style="fill:none;stroke:#6fa4ff;stroke-linecap:square;stroke-width:2;"/>
   </g>
   <g id="line2d_21">
    <path clip-path="url(#pc0987d3610)" d="M 447.027623 175.432727 
L 447.027623 116.635325 
" style="fill:none;stroke:#6fa4ff;stroke-linecap:square;stroke-width:2;"/>
   </g>
   <g id="line2d_22">
    <path clip-path="url(#pc0987d3610)" d="M 564.622429 175.432727 
L 564.622429 116.635325 
" style="fill:none;stroke:#6fa4ff;stroke-linecap:square;stroke-width:2;"/>
   </g>
   <g id="line2d_23">
    <path clip-path="url(#pc0987d3610)" d="M 623.419831 234.23013 
L 623.419831 175.432727 
" style="fill:none;stroke:#6fa4ff;stroke-linecap:square;stroke-width:2;"/>
   </g>
   <g id="line2d_24">
    <path clip-path="url(#pc0987d3610)" d="M 741.014636 234.23013 
L 741.014636 175.432727 
" style="fill:none;stroke:#6fa4ff;stroke-linecap:square;stroke-width:2;"/>
   </g>
   <g id="line2d_25">
    <path clip-path="url(#pc0987d3610)" d="M 799.812039 293.027532 
L 799.812039 234.23013 
" style="fill:none;stroke:#6fa4ff;stroke-linecap:square;stroke-width:2;"/>
   </g>
   <g id="line2d_26">
    <path clip-path="url(#pc0987d3610)" d="M 917.406844 293.027532 
L 917.406844 234.23013 
" style="fill:none;stroke:#6fa4ff;stroke-linecap:square;stroke-width:2;"/>
   </g>
   <g id="line2d_27">
    <path clip-path="url(#pc0987d3610)" d="M 976.204247 293.027532 
L 976.204247 234.23013 
" style="fill:none;stroke:#6fa4ff;stroke-linecap:square;stroke-width:2;"/>
   </g>
   <g id="line2d_28">
    <path clip-path="url(#pc0987d3610)" d="M 1093.799052 293.027532 
L 1093.799052 234.23013 
" style="fill:none;stroke:#6fa4ff;stroke-linecap:square;stroke-width:2;"/>
   </g>
   <g id="line2d_29">
    <path clip-path="url(#pc0987d3610)" d="M 1152.596455 234.23013 
L 1152.596455 175.432727 
" style="fill:none;stroke:#6fa4ff;stroke-linecap:square;stroke-width:2;"/>
   </g>
   <g id="line2d_30">
    <path clip-path="url(#pc0987d3610)" d="M 1270.19126 234.23013 
L 1270.19126 175.432727 
" style="fill:none;stroke:#6fa4ff;stroke-linecap:square;stroke-width:2;"/>
   </g>
   <g id="line2d_31">
    <path clip-path="url(#pc0987d3610)" d="M 1328.988662 175.432727 
L 1328.988662 116.635325 
" style="fill:none;stroke:#6fa4ff;stroke-linecap:square;stroke-width:2;"/>
   </g>
   <g id="line2d_32">
    <path clip-path="url(#pc0987d3610)" d="M 1446.583468 175.432727 
L 1446.583468 116.635325 
" style="fill:none;stroke:#6fa4ff;stroke-linecap:square;stroke-width:2;"/>
   </g>
   <g id="line2d_33">
    <path clip-path="url(#pc0987d3610)" d="M 1505.38087 116.635325 
L 1505.38087 57.837922 
" style="fill:none;stroke:#6fa4ff;stroke-linecap:square;stroke-width:2;"/>
   </g>
   <g id="line2d_34">
    <path clip-path="url(#pc0987d3610)" d="M 153.04061 587.014545 
L 153.04061 528.217143 
" style="fill:none;stroke:#6fa4ff;stroke-linecap:square;stroke-width:2;"/>
   </g>
   <g id="line2d_35">
    <path clip-path="url(#pc0987d3610)" d="M 390.141136 528.217143 
L 390.141136 867.625149 
" style="fill:none;stroke:#778899;stroke-linecap:square;stroke-width:2;"/>
   </g>
   <g id="line2d_36">
    <path clip-path="url(#pc0987d3610)" d="M 386.319305 528.217143 
L 386.319305 867.625149 
" style="fill:none;stroke:#778899;stroke-linecap:square;stroke-width:2;"/>
   </g>
   <g id="line2d_37">
    <path clip-path="url(#pc0987d3610)" d="M 448.938539 587.014545 
L 448.938539 867.625149 
" style="fill:none;stroke:#778899;stroke-linecap:square;stroke-width:2;"/>
   </g>
   <g id="line2d_38">
    <path clip-path="url(#pc0987d3610)" d="M 445.116708 587.014545 
L 445.116708 867.625149 
" style="fill:none;stroke:#778899;stroke-linecap:square;stroke-width:2;"/>
   </g>
   <g id="line2d_39">
    <path clip-path="url(#pc0987d3610)" d="M 507.735942 645.811948 
L 507.735942 867.625149 
" style="fill:none;stroke:#778899;stroke-linecap:square;stroke-width:2;"/>
   </g>
   <g id="line2d_40">
    <path clip-path="url(#pc0987d3610)" d="M 503.91411 645.811948 
L 503.91411 867.625149 
" style="fill:none;stroke:#778899;stroke-linecap:square;stroke-width:2;"/>
   </g>
   <g id="line2d_41">
    <path clip-path="url(#pc0987d3610)" d="M 566.533344 704.609351 
L 566.533344 867.625149 
" style="fill:none;stroke:#778899;stroke-linecap:square;stroke-width:2;"/>
   </g>
   <g id="line2d_42">
    <path clip-path="url(#pc0987d3610)" d="M 562.711513 704.609351 
L 562.711513 867.625149 
" style="fill:none;stroke:#778899;stroke-linecap:square;stroke-width:2;"/>
   </g>
   <g id="line2d_43">
    <path clip-path="url(#pc0987d3610)" d="M 625.330747 763.406753 
L 625.330747 867.625149 
" style="fill:none;stroke:#778899;stroke-linecap:square;stroke-width:2;"/>
   </g>
   <g id="line2d_44">
    <path clip-path="url(#pc0987d3610)" d="M 621.508916 763.406753 
L 621.508916 867.625149 
" style="fill:none;stroke:#778899;stroke-linecap:square;stroke-width:2;"/>
   </g>
   <g id="line2d_45">
    <path clip-path="url(#pc0987d3610)" d="M 133.049494 357.704675 
L 138.929234 345.945195 
" style="fill:none;stroke:#778899;stroke-linecap:square;stroke-width:1.5;"/>
   </g>
   <g id="line2d_46">
    <path clip-path="url(#pc0987d3610)" d="M 133.049494 416.502078 
L 138.929234 404.742597 
" style="fill:none;stroke:#778899;stroke-linecap:square;stroke-width:1.5;"/>
   </g>
   <g id="line2d_47">
    <path clip-path="url(#pc0987d3610)" d="M 1597.104818 57.837922 
L 1597.104818 410.622338 
" style="fill:none;stroke:#000000;stroke-linecap:square;stroke-width:1.5;"/>
   </g>
   <g id="line2d_48">
    <path clip-path="url(#pc0987d3610)" d="M 133.049494 828.083896 
L 138.929234 816.324416 
" style="fill:none;stroke:#778899;stroke-linecap:square;stroke-width:1.5;"/>
   </g>
   <g id="line2d_49">
    <path clip-path="url(#pc0987d3610)" d="M 133.049494 886.881299 
L 138.929234 875.121818 
" style="fill:none;stroke:#778899;stroke-linecap:square;stroke-width:1.5;"/>
   </g>
   <g id="line2d_50">
    <path clip-path="url(#pc0987d3610)" d="M 120.702039 528.217143 
L 120.702039 881.001558 
" style="fill:none;stroke:#000000;stroke-linecap:square;stroke-width:1.5;"/>
   </g>
   <g id="patch_12">
    <path clip-path="url(#pc0987d3610)" d="M 133.931455 76.947078 
L 172.149766 76.947078 
L 172.149766 38.728766 
L 133.931455 38.728766 
z
" style="fill:#6fa4ff;stroke:#6fa4ff;stroke-linejoin:miter;stroke-width:1.5;"/>
   </g>
   <g id="patch_13">
    <path clip-path="url(#pc0987d3610)" d="M 133.931455 135.744481 
L 172.149766 135.744481 
L 172.149766 97.526169 
L 133.931455 97.526169 
z
" style="fill:#6fa4ff;stroke:#6fa4ff;stroke-linejoin:miter;stroke-width:1.5;"/>
   </g>
   <g id="patch_14">
    <path clip-path="url(#pc0987d3610)" d="M 133.931455 194.541883 
L 172.149766 194.541883 
L 172.149766 156.323571 
L 133.931455 156.323571 
z
" style="fill:#6fa4ff;stroke:#6fa4ff;stroke-linejoin:miter;stroke-width:1.5;"/>
   </g>
   <g id="patch_15">
    <path clip-path="url(#pc0987d3610)" d="M 133.931455 253.339286 
L 172.149766 253.339286 
L 172.149766 215.120974 
L 133.931455 215.120974 
z
" style="fill:#6fa4ff;stroke:#6fa4ff;stroke-linejoin:miter;stroke-width:1.5;"/>
   </g>
   <g id="patch_16">
    <path clip-path="url(#pc0987d3610)" d="M 133.931455 312.136688 
L 172.149766 312.136688 
L 172.149766 273.918377 
L 133.931455 273.918377 
z
" style="fill:#6fa4ff;stroke:#6fa4ff;stroke-linejoin:miter;stroke-width:1.5;"/>
   </g>
   <g id="patch_17">
    <path clip-path="url(#pc0987d3610)" d="M 192.728857 76.947078 
L 230.947169 76.947078 
L 230.947169 38.728766 
L 192.728857 38.728766 
z
" style="fill:#bb8bff;stroke:#bb8bff;stroke-linejoin:miter;stroke-width:1.5;"/>
   </g>
   <g id="patch_18">
    <path clip-path="url(#pc0987d3610)" d="M 192.728857 135.744481 
L 230.947169 135.744481 
L 230.947169 97.526169 
L 192.728857 97.526169 
z
" style="fill:#bb8bff;stroke:#bb8bff;stroke-linejoin:miter;stroke-width:1.5;"/>
   </g>
   <g id="patch_19">
    <path clip-path="url(#pc0987d3610)" d="M 192.728857 194.541883 
L 230.947169 194.541883 
L 230.947169 156.323571 
L 192.728857 156.323571 
z
" style="fill:#bb8bff;stroke:#bb8bff;stroke-linejoin:miter;stroke-width:1.5;"/>
   </g>
   <g id="patch_20">
    <path clip-path="url(#pc0987d3610)" d="M 192.728857 253.339286 
L 230.947169 253.339286 
L 230.947169 215.120974 
L 192.728857 215.120974 
z
" style="fill:#bb8bff;stroke:#bb8bff;stroke-linejoin:miter;stroke-width:1.5;"/>
   </g>
   <g id="patch_21">
    <path clip-path="url(#pc0987d3610)" d="M 192.728857 312.136688 
L 230.947169 312.136688 
L 230.947169 273.918377 
L 192.728857 273.918377 
z
" style="fill:#bb8bff;stroke:#bb8bff;stroke-linejoin:miter;stroke-width:1.5;"/>
   </g>
   <g id="patch_22">
    <path clip-path="url(#pc0987d3610)" d="M 270.635416 63.570669 
C 272.155758 63.570669 273.614035 62.96663 274.68908 61.891586 
C 275.764124 60.816542 276.368162 59.358264 276.368162 57.837922 
C 276.368162 56.31758 275.764124 54.859302 274.68908 53.784258 
C 273.614035 52.709214 272.155758 52.105175 270.635416 52.105175 
C 269.115073 52.105175 267.656796 52.709214 266.581752 53.784258 
C 265.506707 54.859302 264.902669 56.31758 264.902669 57.837922 
C 264.902669 59.358264 265.506707 60.816542 266.581752 61.891586 
C 267.656796 62.96663 269.115073 63.570669 270.635416 63.570669 
z
" style="fill:#6fa4ff;stroke:#6fa4ff;stroke-linejoin:miter;stroke-width:1.5;"/>
   </g>
   <g id="patch_23">
    <path clip-path="url(#pc0987d3610)" d="M 270.635416 130.011734 
C 274.182881 130.011734 277.585529 128.602311 280.093965 126.093874 
C 282.602402 123.585438 284.011825 120.18279 284.011825 116.635325 
C 284.011825 113.08786 282.602402 109.685212 280.093965 107.176775 
C 277.585529 104.668338 274.182881 103.258916 270.635416 103.258916 
C 267.087951 103.258916 263.685303 104.668338 261.176866 107.176775 
C 258.668429 109.685212 257.259007 113.08786 257.259007 116.635325 
C 257.259007 120.18279 258.668429 123.585438 261.176866 126.093874 
C 263.685303 128.602311 267.087951 130.011734 270.635416 130.011734 
z
" style="fill:#6fa4ff;stroke:#6fa4ff;stroke-linejoin:miter;stroke-width:2;"/>
   </g>
   <g id="patch_24">
    <path clip-path="url(#pc0987d3610)" d="M 310.323662 135.744481 
L 348.541974 135.744481 
L 348.541974 97.526169 
L 310.323662 97.526169 
z
" style="fill:#bb8bff;stroke:#bb8bff;stroke-linejoin:miter;stroke-width:1.5;"/>
   </g>
   <g id="patch_25">
    <path clip-path="url(#pc0987d3610)" d="M 388.230221 63.570669 
C 389.750563 63.570669 391.208841 62.96663 392.283885 61.891586 
C 393.358929 60.816542 393.962968 59.358264 393.962968 57.837922 
C 393.962968 56.31758 393.358929 54.859302 392.283885 53.784258 
C 391.208841 52.709214 389.750563 52.105175 388.230221 52.105175 
C 386.709879 52.105175 385.251601 52.709214 384.176557 53.784258 
C 383.101512 54.859302 382.497474 56.31758 382.497474 57.837922 
C 382.497474 59.358264 383.101512 60.816542 384.176557 61.891586 
C 385.251601 62.96663 386.709879 63.570669 388.230221 63.570669 
z
" style="fill:#6fa4ff;stroke:#6fa4ff;stroke-linejoin:miter;stroke-width:1.5;"/>
   </g>
   <g id="patch_26">
    <path clip-path="url(#pc0987d3610)" d="M 388.230221 130.011734 
C 391.777686 130.011734 395.180334 128.602311 397.68877 126.093874 
C 400.197207 123.585438 401.60663 120.18279 401.60663 116.635325 
C 401.60663 113.08786 400.197207 109.685212 397.68877 107.176775 
C 395.180334 104.668338 391.777686 103.258916 388.230221 103.258916 
C 384.682756 103.258916 381.280108 104.668338 378.771671 107.176775 
C 376.263235 109.685212 374.853812 113.08786 374.853812 116.635325 
C 374.853812 120.18279 376.263235 123.585438 378.771671 126.093874 
C 381.280108 128.602311 384.682756 130.011734 388.230221 130.011734 
z
" style="fill:#6fa4ff;stroke:#6fa4ff;stroke-linejoin:miter;stroke-width:2;"/>
   </g>
   <g id="patch_27">
    <path clip-path="url(#pc0987d3610)" d="M 447.027623 122.368071 
C 448.547966 122.368071 450.006243 121.764033 451.081288 120.688989 
C 452.156332 119.613944 452.76037 118.155667 452.76037 116.635325 
C 452.76037 115.114982 452.156332 113.656705 451.081288 112.581661 
C 450.006243 111.506616 448.547966 110.902578 447.027623 110.902578 
C 445.507281 110.902578 444.049004 111.506616 442.973959 112.581661 
C 441.898915 113.656705 441.294877 115.114982 441.294877 116.635325 
C 441.294877 118.155667 441.898915 119.613944 442.973959 120.688989 
C 444.049004 121.764033 445.507281 122.368071 447.027623 122.368071 
z
" style="fill:#6fa4ff;stroke:#6fa4ff;stroke-linejoin:miter;stroke-width:1.5;"/>
   </g>
   <g id="patch_28">
    <path clip-path="url(#pc0987d3610)" d="M 447.027623 188.809136 
C 450.575089 188.809136 453.977736 187.399714 456.486173 184.891277 
C 458.99461 182.38284 460.404033 178.980192 460.404033 175.432727 
C 460.404033 171.885262 458.99461 168.482614 456.486173 165.974178 
C 453.977736 163.465741 450.575089 162.056318 447.027623 162.056318 
C 443.480158 162.056318 440.077511 163.465741 437.569074 165.974178 
C 435.060637 168.482614 433.651214 171.885262 433.651214 175.432727 
C 433.651214 178.980192 435.060637 182.38284 437.569074 184.891277 
C 440.077511 187.399714 443.480158 188.809136 447.027623 188.809136 
z
" style="fill:#6fa4ff;stroke:#6fa4ff;stroke-linejoin:miter;stroke-width:2;"/>
   </g>
   <g id="patch_29">
    <path clip-path="url(#pc0987d3610)" d="M 486.71587 194.541883 
L 524.934182 194.541883 
L 524.934182 156.323571 
L 486.71587 156.323571 
z
" style="fill:#bb8bff;stroke:#bb8bff;stroke-linejoin:miter;stroke-width:1.5;"/>
   </g>
   <g id="patch_30">
    <path clip-path="url(#pc0987d3610)" d="M 564.622429 122.368071 
C 566.142771 122.368071 567.601048 121.764033 568.676093 120.688989 
C 569.751137 119.613944 570.355175 118.155667 570.355175 116.635325 
C 570.355175 115.114982 569.751137 113.656705 568.676093 112.581661 
C 567.601048 111.506616 566.142771 110.902578 564.622429 110.902578 
C 563.102086 110.902578 561.643809 111.506616 560.568765 112.581661 
C 559.49372 113.656705 558.889682 115.114982 558.889682 116.635325 
C 558.889682 118.155667 559.49372 119.613944 560.568765 120.688989 
C 561.643809 121.764033 563.102086 122.368071 564.622429 122.368071 
z
" style="fill:#6fa4ff;stroke:#6fa4ff;stroke-linejoin:miter;stroke-width:1.5;"/>
   </g>
   <g id="patch_31">
    <path clip-path="url(#pc0987d3610)" d="M 564.622429 188.809136 
C 568.169894 188.809136 571.572542 187.399714 574.080978 184.891277 
C 576.589415 182.38284 577.998838 178.980192 577.998838 175.432727 
C 577.998838 171.885262 576.589415 168.482614 574.080978 165.974178 
C 571.572542 163.465741 568.169894 162.056318 564.622429 162.056318 
C 561.074964 162.056318 557.672316 163.465741 555.163879 165.974178 
C 552.655442 168.482614 551.24602 171.885262 551.24602 175.432727 
C 551.24602 178.980192 552.655442 182.38284 555.163879 184.891277 
C 557.672316 187.399714 561.074964 188.809136 564.622429 188.809136 
z
" style="fill:#6fa4ff;stroke:#6fa4ff;stroke-linejoin:miter;stroke-width:2;"/>
   </g>
   <g id="patch_32">
    <path clip-path="url(#pc0987d3610)" d="M 623.419831 181.165474 
C 624.940173 181.165474 626.398451 180.561436 627.473495 179.486391 
C 628.54854 178.411347 629.152578 176.953069 629.152578 175.432727 
C 629.152578 173.912385 628.54854 172.454107 627.473495 171.379063 
C 626.398451 170.304019 624.940173 169.699981 623.419831 169.699981 
C 621.899489 169.699981 620.441211 170.304019 619.366167 171.379063 
C 618.291123 172.454107 617.687085 173.912385 617.687085 175.432727 
C 617.687085 176.953069 618.291123 178.411347 619.366167 179.486391 
C 620.441211 180.561436 621.899489 181.165474 623.419831 181.165474 
z
" style="fill:#6fa4ff;stroke:#6fa4ff;stroke-linejoin:miter;stroke-width:1.5;"/>
   </g>
   <g id="patch_33">
    <path clip-path="url(#pc0987d3610)" d="M 623.419831 247.606539 
C 626.967296 247.606539 630.369944 246.197116 632.878381 243.688679 
C 635.386818 241.180243 636.79624 237.777595 636.79624 234.23013 
C 636.79624 230.682665 635.386818 227.280017 632.878381 224.77158 
C 630.369944 222.263144 626.967296 220.853721 623.419831 220.853721 
C 619.872366 220.853721 616.469718 222.263144 613.961282 224.77158 
C 611.452845 227.280017 610.043422 230.682665 610.043422 234.23013 
C 610.043422 237.777595 611.452845 241.180243 613.961282 243.688679 
C 616.469718 246.197116 619.872366 247.606539 623.419831 247.606539 
z
" style="fill:#6fa4ff;stroke:#6fa4ff;stroke-linejoin:miter;stroke-width:2;"/>
   </g>
   <g id="patch_34">
    <path clip-path="url(#pc0987d3610)" d="M 663.108078 253.339286 
L 701.32639 253.339286 
L 701.32639 215.120974 
L 663.108078 215.120974 
z
" style="fill:#bb8bff;stroke:#bb8bff;stroke-linejoin:miter;stroke-width:1.5;"/>
   </g>
   <g id="patch_35">
    <path clip-path="url(#pc0987d3610)" d="M 741.014636 181.165474 
C 742.534979 181.165474 743.993256 180.561436 745.068301 179.486391 
C 746.143345 178.411347 746.747383 176.953069 746.747383 175.432727 
C 746.747383 173.912385 746.143345 172.454107 745.068301 171.379063 
C 743.993256 170.304019 742.534979 169.699981 741.014636 169.699981 
C 739.494294 169.699981 738.036017 170.304019 736.960972 171.379063 
C 735.885928 172.454107 735.28189 173.912385 735.28189 175.432727 
C 735.28189 176.953069 735.885928 178.411347 736.960972 179.486391 
C 738.036017 180.561436 739.494294 181.165474 741.014636 181.165474 
z
" style="fill:#6fa4ff;stroke:#6fa4ff;stroke-linejoin:miter;stroke-width:1.5;"/>
   </g>
   <g id="patch_36">
    <path clip-path="url(#pc0987d3610)" d="M 741.014636 247.606539 
C 744.562102 247.606539 747.964749 246.197116 750.473186 243.688679 
C 752.981623 241.180243 754.391046 237.777595 754.391046 234.23013 
C 754.391046 230.682665 752.981623 227.280017 750.473186 224.77158 
C 747.964749 222.263144 744.562102 220.853721 741.014636 220.853721 
C 737.467171 220.853721 734.064524 222.263144 731.556087 224.77158 
C 729.04765 227.280017 727.638227 230.682665 727.638227 234.23013 
C 727.638227 237.777595 729.04765 241.180243 731.556087 243.688679 
C 734.064524 246.197116 737.467171 247.606539 741.014636 247.606539 
z
" style="fill:#6fa4ff;stroke:#6fa4ff;stroke-linejoin:miter;stroke-width:2;"/>
   </g>
   <g id="patch_37">
    <path clip-path="url(#pc0987d3610)" d="M 799.812039 239.962877 
C 801.332381 239.962877 802.790659 239.358838 803.865703 238.283794 
C 804.940747 237.20875 805.544786 235.750472 805.544786 234.23013 
C 805.544786 232.709788 804.940747 231.25151 803.865703 230.176466 
C 802.790659 229.101421 801.332381 228.497383 799.812039 228.497383 
C 798.291697 228.497383 796.833419 229.101421 795.758375 230.176466 
C 794.683331 231.25151 794.079292 232.709788 794.079292 234.23013 
C 794.079292 235.750472 794.683331 237.20875 795.758375 238.283794 
C 796.833419 239.358838 798.291697 239.962877 799.812039 239.962877 
z
" style="fill:#6fa4ff;stroke:#6fa4ff;stroke-linejoin:miter;stroke-width:1.5;"/>
   </g>
   <g id="patch_38">
    <path clip-path="url(#pc0987d3610)" d="M 799.812039 306.403942 
C 803.359504 306.403942 806.762152 304.994519 809.270589 302.486082 
C 811.779025 299.977645 813.188448 296.574998 813.188448 293.027532 
C 813.188448 289.480067 811.779025 286.07742 809.270589 283.568983 
C 806.762152 281.060546 803.359504 279.651123 799.812039 279.651123 
C 796.264574 279.651123 792.861926 281.060546 790.353489 283.568983 
C 787.845053 286.07742 786.43563 289.480067 786.43563 293.027532 
C 786.43563 296.574998 787.845053 299.977645 790.353489 302.486082 
C 792.861926 304.994519 796.264574 306.403942 799.812039 306.403942 
z
" style="fill:#6fa4ff;stroke:#6fa4ff;stroke-linejoin:miter;stroke-width:2;"/>
   </g>
   <g id="patch_39">
    <path clip-path="url(#pc0987d3610)" d="M 839.500286 312.136688 
L 877.718597 312.136688 
L 877.718597 273.918377 
L 839.500286 273.918377 
z
" style="fill:#bb8bff;stroke:#bb8bff;stroke-linejoin:miter;stroke-width:1.5;"/>
   </g>
   <g id="patch_40">
    <path clip-path="url(#pc0987d3610)" d="M 917.406844 239.962877 
C 918.927186 239.962877 920.385464 239.358838 921.460508 238.283794 
C 922.535553 237.20875 923.139591 235.750472 923.139591 234.23013 
C 923.139591 232.709788 922.535553 231.25151 921.460508 230.176466 
C 920.385464 229.101421 918.927186 228.497383 917.406844 228.497383 
C 915.886502 228.497383 914.428224 229.101421 913.35318 230.176466 
C 912.278136 231.25151 911.674097 232.709788 911.674097 234.23013 
C 911.674097 235.750472 912.278136 237.20875 913.35318 238.283794 
C 914.428224 239.358838 915.886502 239.962877 917.406844 239.962877 
z
" style="fill:#6fa4ff;stroke:#6fa4ff;stroke-linejoin:miter;stroke-width:1.5;"/>
   </g>
   <g id="patch_41">
    <path clip-path="url(#pc0987d3610)" d="M 917.406844 306.403942 
C 920.954309 306.403942 924.356957 304.994519 926.865394 302.486082 
C 929.37383 299.977645 930.783253 296.574998 930.783253 293.027532 
C 930.783253 289.480067 929.37383 286.07742 926.865394 283.568983 
C 924.356957 281.060546 920.954309 279.651123 917.406844 279.651123 
C 913.859379 279.651123 910.456731 281.060546 907.948295 283.568983 
C 905.439858 286.07742 904.030435 289.480067 904.030435 293.027532 
C 904.030435 296.574998 905.439858 299.977645 907.948295 302.486082 
C 910.456731 304.994519 913.859379 306.403942 917.406844 306.403942 
z
" style="fill:#6fa4ff;stroke:#6fa4ff;stroke-linejoin:miter;stroke-width:2;"/>
   </g>
   <g id="patch_42">
    <path clip-path="url(#pc0987d3610)" d="M 976.204247 239.962877 
C 977.724589 239.962877 979.182867 239.358838 980.257911 238.283794 
C 981.332955 237.20875 981.936994 235.750472 981.936994 234.23013 
C 981.936994 232.709788 981.332955 231.25151 980.257911 230.176466 
C 979.182867 229.101421 977.724589 228.497383 976.204247 228.497383 
C 974.683905 228.497383 973.225627 229.101421 972.150583 230.176466 
C 971.075538 231.25151 970.4715 232.709788 970.4715 234.23013 
C 970.4715 235.750472 971.075538 237.20875 972.150583 238.283794 
C 973.225627 239.358838 974.683905 239.962877 976.204247 239.962877 
z
" style="fill:#6fa4ff;stroke:#6fa4ff;stroke-linejoin:miter;stroke-width:1.5;"/>
   </g>
   <g id="patch_43">
    <path clip-path="url(#pc0987d3610)" d="M 976.204247 306.403942 
C 979.751712 306.403942 983.15436 304.994519 985.662796 302.486082 
C 988.171233 299.977645 989.580656 296.574998 989.580656 293.027532 
C 989.580656 289.480067 988.171233 286.07742 985.662796 283.568983 
C 983.15436 281.060546 979.751712 279.651123 976.204247 279.651123 
C 972.656782 279.651123 969.254134 281.060546 966.745697 283.568983 
C 964.237261 286.07742 962.827838 289.480067 962.827838 293.027532 
C 962.827838 296.574998 964.237261 299.977645 966.745697 302.486082 
C 969.254134 304.994519 972.656782 306.403942 976.204247 306.403942 
z
" style="fill:#6fa4ff;stroke:#6fa4ff;stroke-linejoin:miter;stroke-width:2;"/>
   </g>
   <g id="patch_44">
    <path clip-path="url(#pc0987d3610)" d="M 1015.892494 312.136688 
L 1054.110805 312.136688 
L 1054.110805 273.918377 
L 1015.892494 273.918377 
z
" style="fill:#bb8bff;stroke:#bb8bff;stroke-linejoin:miter;stroke-width:1.5;"/>
   </g>
   <g id="patch_45">
    <path clip-path="url(#pc0987d3610)" d="M 1093.799052 239.962877 
C 1095.319394 239.962877 1096.777672 239.358838 1097.852716 238.283794 
C 1098.92776 237.20875 1099.531799 235.750472 1099.531799 234.23013 
C 1099.531799 232.709788 1098.92776 231.25151 1097.852716 230.176466 
C 1096.777672 229.101421 1095.319394 228.497383 1093.799052 228.497383 
C 1092.27871 228.497383 1090.820432 229.101421 1089.745388 230.176466 
C 1088.670344 231.25151 1088.066305 232.709788 1088.066305 234.23013 
C 1088.066305 235.750472 1088.670344 237.20875 1089.745388 238.283794 
C 1090.820432 239.358838 1092.27871 239.962877 1093.799052 239.962877 
z
" style="fill:#6fa4ff;stroke:#6fa4ff;stroke-linejoin:miter;stroke-width:1.5;"/>
   </g>
   <g id="patch_46">
    <path clip-path="url(#pc0987d3610)" d="M 1093.799052 306.403942 
C 1097.346517 306.403942 1100.749165 304.994519 1103.257602 302.486082 
C 1105.766038 299.977645 1107.175461 296.574998 1107.175461 293.027532 
C 1107.175461 289.480067 1105.766038 286.07742 1103.257602 283.568983 
C 1100.749165 281.060546 1097.346517 279.651123 1093.799052 279.651123 
C 1090.251587 279.651123 1086.848939 281.060546 1084.340502 283.568983 
C 1081.832066 286.07742 1080.422643 289.480067 1080.422643 293.027532 
C 1080.422643 296.574998 1081.832066 299.977645 1084.340502 302.486082 
C 1086.848939 304.994519 1090.251587 306.403942 1093.799052 306.403942 
z
" style="fill:#6fa4ff;stroke:#6fa4ff;stroke-linejoin:miter;stroke-width:2;"/>
   </g>
   <g id="patch_47">
    <path clip-path="url(#pc0987d3610)" d="M 1152.596455 181.165474 
C 1154.116797 181.165474 1155.575074 180.561436 1156.650119 179.486391 
C 1157.725163 178.411347 1158.329201 176.953069 1158.329201 175.432727 
C 1158.329201 173.912385 1157.725163 172.454107 1156.650119 171.379063 
C 1155.575074 170.304019 1154.116797 169.699981 1152.596455 169.699981 
C 1151.076112 169.699981 1149.617835 170.304019 1148.542791 171.379063 
C 1147.467746 172.454107 1146.863708 173.912385 1146.863708 175.432727 
C 1146.863708 176.953069 1147.467746 178.411347 1148.542791 179.486391 
C 1149.617835 180.561436 1151.076112 181.165474 1152.596455 181.165474 
z
" style="fill:#6fa4ff;stroke:#6fa4ff;stroke-linejoin:miter;stroke-width:1.5;"/>
   </g>
   <g id="patch_48">
    <path clip-path="url(#pc0987d3610)" d="M 1152.596455 247.606539 
C 1156.14392 247.606539 1159.546568 246.197116 1162.055004 243.688679 
C 1164.563441 241.180243 1165.972864 237.777595 1165.972864 234.23013 
C 1165.972864 230.682665 1164.563441 227.280017 1162.055004 224.77158 
C 1159.546568 222.263144 1156.14392 220.853721 1152.596455 220.853721 
C 1149.048989 220.853721 1145.646342 222.263144 1143.137905 224.77158 
C 1140.629468 227.280017 1139.220046 230.682665 1139.220046 234.23013 
C 1139.220046 237.777595 1140.629468 241.180243 1143.137905 243.688679 
C 1145.646342 246.197116 1149.048989 247.606539 1152.596455 247.606539 
z
" style="fill:#6fa4ff;stroke:#6fa4ff;stroke-linejoin:miter;stroke-width:2;"/>
   </g>
   <g id="patch_49">
    <path clip-path="url(#pc0987d3610)" d="M 1133.487299 312.136688 
L 1171.70561 312.136688 
L 1171.70561 273.918377 
L 1133.487299 273.918377 
z
" style="fill:#bb8bff;stroke:#bb8bff;stroke-linejoin:miter;stroke-width:1.5;"/>
   </g>
   <g id="patch_50">
    <path clip-path="url(#pc0987d3610)" d="M 1192.284701 253.339286 
L 1230.503013 253.339286 
L 1230.503013 215.120974 
L 1192.284701 215.120974 
z
" style="fill:#bb8bff;stroke:#bb8bff;stroke-linejoin:miter;stroke-width:1.5;"/>
   </g>
   <g id="patch_51">
    <path clip-path="url(#pc0987d3610)" d="M 1192.284701 312.136688 
L 1230.503013 312.136688 
L 1230.503013 273.918377 
L 1192.284701 273.918377 
z
" style="fill:#6fa4ff;stroke:#6fa4ff;stroke-linejoin:miter;stroke-width:1.5;"/>
   </g>
   <g id="patch_52">
    <path clip-path="url(#pc0987d3610)" d="M 1270.19126 181.165474 
C 1271.711602 181.165474 1273.16988 180.561436 1274.244924 179.486391 
C 1275.319968 178.411347 1275.924007 176.953069 1275.924007 175.432727 
C 1275.924007 173.912385 1275.319968 172.454107 1274.244924 171.379063 
C 1273.16988 170.304019 1271.711602 169.699981 1270.19126 169.699981 
C 1268.670918 169.699981 1267.21264 170.304019 1266.137596 171.379063 
C 1265.062551 172.454107 1264.458513 173.912385 1264.458513 175.432727 
C 1264.458513 176.953069 1265.062551 178.411347 1266.137596 179.486391 
C 1267.21264 180.561436 1268.670918 181.165474 1270.19126 181.165474 
z
" style="fill:#6fa4ff;stroke:#6fa4ff;stroke-linejoin:miter;stroke-width:1.5;"/>
   </g>
   <g id="patch_53">
    <path clip-path="url(#pc0987d3610)" d="M 1270.19126 247.606539 
C 1273.738725 247.606539 1277.141373 246.197116 1279.649809 243.688679 
C 1282.158246 241.180243 1283.567669 237.777595 1283.567669 234.23013 
C 1283.567669 230.682665 1282.158246 227.280017 1279.649809 224.77158 
C 1277.141373 222.263144 1273.738725 220.853721 1270.19126 220.853721 
C 1266.643795 220.853721 1263.241147 222.263144 1260.73271 224.77158 
C 1258.224274 227.280017 1256.814851 230.682665 1256.814851 234.23013 
C 1256.814851 237.777595 1258.224274 241.180243 1260.73271 243.688679 
C 1263.241147 246.197116 1266.643795 247.606539 1270.19126 247.606539 
z
" style="fill:#6fa4ff;stroke:#6fa4ff;stroke-linejoin:miter;stroke-width:2;"/>
   </g>
   <g id="patch_54">
    <path clip-path="url(#pc0987d3610)" d="M 1328.988662 122.368071 
C 1330.509005 122.368071 1331.967282 121.764033 1333.042327 120.688989 
C 1334.117371 119.613944 1334.721409 118.155667 1334.721409 116.635325 
C 1334.721409 115.114982 1334.117371 113.656705 1333.042327 112.581661 
C 1331.967282 111.506616 1330.509005 110.902578 1328.988662 110.902578 
C 1327.46832 110.902578 1326.010043 111.506616 1324.934998 112.581661 
C 1323.859954 113.656705 1323.255916 115.114982 1323.255916 116.635325 
C 1323.255916 118.155667 1323.859954 119.613944 1324.934998 120.688989 
C 1326.010043 121.764033 1327.46832 122.368071 1328.988662 122.368071 
z
" style="fill:#6fa4ff;stroke:#6fa4ff;stroke-linejoin:miter;stroke-width:1.5;"/>
   </g>
   <g id="patch_55">
    <path clip-path="url(#pc0987d3610)" d="M 1328.988662 188.809136 
C 1332.536128 188.809136 1335.938775 187.399714 1338.447212 184.891277 
C 1340.955649 182.38284 1342.365072 178.980192 1342.365072 175.432727 
C 1342.365072 171.885262 1340.955649 168.482614 1338.447212 165.974178 
C 1335.938775 163.465741 1332.536128 162.056318 1328.988662 162.056318 
C 1325.441197 162.056318 1322.03855 163.465741 1319.530113 165.974178 
C 1317.021676 168.482614 1315.612253 171.885262 1315.612253 175.432727 
C 1315.612253 178.980192 1317.021676 182.38284 1319.530113 184.891277 
C 1322.03855 187.399714 1325.441197 188.809136 1328.988662 188.809136 
z
" style="fill:#6fa4ff;stroke:#6fa4ff;stroke-linejoin:miter;stroke-width:2;"/>
   </g>
   <g id="patch_56">
    <path clip-path="url(#pc0987d3610)" d="M 1309.879507 253.339286 
L 1348.097818 253.339286 
L 1348.097818 215.120974 
L 1309.879507 215.120974 
z
" style="fill:#bb8bff;stroke:#bb8bff;stroke-linejoin:miter;stroke-width:1.5;"/>
   </g>
   <g id="patch_57">
    <path clip-path="url(#pc0987d3610)" d="M 1368.676909 194.541883 
L 1406.895221 194.541883 
L 1406.895221 156.323571 
L 1368.676909 156.323571 
z
" style="fill:#bb8bff;stroke:#bb8bff;stroke-linejoin:miter;stroke-width:1.5;"/>
   </g>
   <g id="patch_58">
    <path clip-path="url(#pc0987d3610)" d="M 1368.676909 253.339286 
L 1406.895221 253.339286 
L 1406.895221 215.120974 
L 1368.676909 215.120974 
z
" style="fill:#6fa4ff;stroke:#6fa4ff;stroke-linejoin:miter;stroke-width:1.5;"/>
   </g>
   <g id="patch_59">
    <path clip-path="url(#pc0987d3610)" d="M 1446.583468 122.368071 
C 1448.10381 122.368071 1449.562087 121.764033 1450.637132 120.688989 
C 1451.712176 119.613944 1452.316214 118.155667 1452.316214 116.635325 
C 1452.316214 115.114982 1451.712176 113.656705 1450.637132 112.581661 
C 1449.562087 111.506616 1448.10381 110.902578 1446.583468 110.902578 
C 1445.063125 110.902578 1443.604848 111.506616 1442.529804 112.581661 
C 1441.454759 113.656705 1440.850721 115.114982 1440.850721 116.635325 
C 1440.850721 118.155667 1441.454759 119.613944 1442.529804 120.688989 
C 1443.604848 121.764033 1445.063125 122.368071 1446.583468 122.368071 
z
" style="fill:#6fa4ff;stroke:#6fa4ff;stroke-linejoin:miter;stroke-width:1.5;"/>
   </g>
   <g id="patch_60">
    <path clip-path="url(#pc0987d3610)" d="M 1446.583468 188.809136 
C 1450.130933 188.809136 1453.533581 187.399714 1456.042017 184.891277 
C 1458.550454 182.38284 1459.959877 178.980192 1459.959877 175.432727 
C 1459.959877 171.885262 1458.550454 168.482614 1456.042017 165.974178 
C 1453.533581 163.465741 1450.130933 162.056318 1446.583468 162.056318 
C 1443.036002 162.056318 1439.633355 163.465741 1437.124918 165.974178 
C 1434.616481 168.482614 1433.207059 171.885262 1433.207059 175.432727 
C 1433.207059 178.980192 1434.616481 182.38284 1437.124918 184.891277 
C 1439.633355 187.399714 1443.036002 188.809136 1446.583468 188.809136 
z
" style="fill:#6fa4ff;stroke:#6fa4ff;stroke-linejoin:miter;stroke-width:2;"/>
   </g>
   <g id="patch_61">
    <path clip-path="url(#pc0987d3610)" d="M 1505.38087 63.570669 
C 1506.901212 63.570669 1508.35949 62.96663 1509.434534 61.891586 
C 1510.509579 60.816542 1511.113617 59.358264 1511.113617 57.837922 
C 1511.113617 56.31758 1510.509579 54.859302 1509.434534 53.784258 
C 1508.35949 52.709214 1506.901212 52.105175 1505.38087 52.105175 
C 1503.860528 52.105175 1502.40225 52.709214 1501.327206 53.784258 
C 1500.252162 54.859302 1499.648123 56.31758 1499.648123 57.837922 
C 1499.648123 59.358264 1500.252162 60.816542 1501.327206 61.891586 
C 1502.40225 62.96663 1503.860528 63.570669 1505.38087 63.570669 
z
" style="fill:#6fa4ff;stroke:#6fa4ff;stroke-linejoin:miter;stroke-width:1.5;"/>
   </g>
   <g id="patch_62">
    <path clip-path="url(#pc0987d3610)" d="M 1505.38087 130.011734 
C 1508.928335 130.011734 1512.330983 128.602311 1514.83942 126.093874 
C 1517.347856 123.585438 1518.757279 120.18279 1518.757279 116.635325 
C 1518.757279 113.08786 1517.347856 109.685212 1514.83942 107.176775 
C 1512.330983 104.668338 1508.928335 103.258916 1505.38087 103.258916 
C 1501.833405 103.258916 1498.430757 104.668338 1495.922321 107.176775 
C 1493.413884 109.685212 1492.004461 113.08786 1492.004461 116.635325 
C 1492.004461 120.18279 1493.413884 123.585438 1495.922321 126.093874 
C 1498.430757 128.602311 1501.833405 130.011734 1505.38087 130.011734 
z
" style="fill:#6fa4ff;stroke:#6fa4ff;stroke-linejoin:miter;stroke-width:2;"/>
   </g>
   <g id="patch_63">
    <path clip-path="url(#pc0987d3610)" d="M 1486.271714 194.541883 
L 1524.490026 194.541883 
L 1524.490026 156.323571 
L 1486.271714 156.323571 
z
" style="fill:#bb8bff;stroke:#bb8bff;stroke-linejoin:miter;stroke-width:1.5;"/>
   </g>
   <g id="patch_64">
    <path clip-path="url(#pc0987d3610)" d="M 1545.069117 135.744481 
L 1583.287429 135.744481 
L 1583.287429 97.526169 
L 1545.069117 97.526169 
z
" style="fill:#bb8bff;stroke:#bb8bff;stroke-linejoin:miter;stroke-width:1.5;"/>
   </g>
   <g id="patch_65">
    <path clip-path="url(#pc0987d3610)" d="M 1545.069117 194.541883 
L 1583.287429 194.541883 
L 1583.287429 156.323571 
L 1545.069117 156.323571 
z
" style="fill:#6fa4ff;stroke:#6fa4ff;stroke-linejoin:miter;stroke-width:1.5;"/>
   </g>
   <g id="patch_66">
    <path clip-path="url(#pc0987d3610)" d="M 153.04061 533.94989 
C 154.560953 533.94989 156.01923 533.345851 157.094275 532.270807 
C 158.169319 531.195763 158.773357 529.737485 158.773357 528.217143 
C 158.773357 526.696801 158.169319 525.238523 157.094275 524.163479 
C 156.01923 523.088434 154.560953 522.484396 153.04061 522.484396 
C 151.520268 522.484396 150.061991 523.088434 148.986946 524.163479 
C 147.911902 525.238523 147.307864 526.696801 147.307864 528.217143 
C 147.307864 529.737485 147.911902 531.195763 148.986946 532.270807 
C 150.061991 533.345851 151.520268 533.94989 153.04061 533.94989 
z
" style="fill:#6fa4ff;stroke:#6fa4ff;stroke-linejoin:miter;stroke-width:1.5;"/>
   </g>
   <g id="patch_67">
    <path clip-path="url(#pc0987d3610)" d="M 153.04061 600.390955 
C 156.588076 600.390955 159.990723 598.981532 162.49916 596.473095 
C 165.007597 593.964658 166.41702 590.562011 166.41702 587.014545 
C 166.41702 583.46708 165.007597 580.064433 162.49916 577.555996 
C 159.990723 575.047559 156.588076 573.638136 153.04061 573.638136 
C 149.493145 573.638136 146.090498 575.047559 143.582061 577.555996 
C 141.073624 580.064433 139.664201 583.46708 139.664201 587.014545 
C 139.664201 590.562011 141.073624 593.964658 143.582061 596.473095 
C 146.090498 598.981532 149.493145 600.390955 153.04061 600.390955 
z
" style="fill:#6fa4ff;stroke:#6fa4ff;stroke-linejoin:miter;stroke-width:2;"/>
   </g>
   <g id="patch_68">
    <path clip-path="url(#pc0987d3610)" d="M 192.728857 547.326299 
L 230.947169 547.326299 
L 230.947169 509.107987 
L 192.728857 509.107987 
z
" style="fill:#bb8bff;stroke:#bb8bff;stroke-linejoin:miter;stroke-width:1.5;"/>
   </g>
   <g id="patch_69">
    <path clip-path="url(#pc0987d3610)" d="M 192.728857 606.123701 
L 230.947169 606.123701 
L 230.947169 567.90539 
L 192.728857 567.90539 
z
" style="fill:#bb8bff;stroke:#bb8bff;stroke-linejoin:miter;stroke-width:1.5;"/>
   </g>
   <g id="patch_70">
    <path clip-path="url(#pc0987d3610)" d="M 251.52626 547.326299 
L 289.744572 547.326299 
L 289.744572 509.107987 
L 251.52626 509.107987 
z
" style="fill:#6fa4ff;stroke:#6fa4ff;stroke-linejoin:miter;stroke-width:1.5;"/>
   </g>
   <g id="patch_71">
    <path clip-path="url(#pc0987d3610)" d="M 251.52626 606.123701 
L 289.744572 606.123701 
L 289.744572 567.90539 
L 251.52626 567.90539 
z
" style="fill:#6fa4ff;stroke:#6fa4ff;stroke-linejoin:miter;stroke-width:1.5;"/>
   </g>
   <g id="patch_72">
    <path clip-path="url(#pc0987d3610)" d="M 369.121065 547.326299 
L 407.339377 547.326299 
L 407.339377 509.107987 
L 369.121065 509.107987 
z
" style="stroke:#000000;stroke-linejoin:miter;stroke-width:1.5;"/>
   </g>
   <g id="patch_73">
    <path clip-path="url(#pc0987d3610)" d="M 401.60663 533.94989 
C 401.60663 530.403606 400.196372 526.998941 397.68877 524.49134 
C 395.181169 521.983739 391.776505 520.573481 388.230221 520.573481 
C 384.683937 520.573481 381.279273 521.983739 378.771671 524.49134 
C 376.26407 526.998941 374.853812 530.403606 374.853812 533.94989 
" style="fill:none;stroke:#ffffff;stroke-linejoin:miter;stroke-width:2;"/>
   </g>
   <g id="patch_74">
    <path clip-path="url(#pc0987d3610)" d="M 427.918468 606.123701 
L 466.136779 606.123701 
L 466.136779 567.90539 
L 427.918468 567.90539 
z
" style="stroke:#000000;stroke-linejoin:miter;stroke-width:1.5;"/>
   </g>
   <g id="patch_75">
    <path clip-path="url(#pc0987d3610)" d="M 460.404033 592.747292 
C 460.404033 589.201009 458.993774 585.796344 456.486173 583.288743 
C 453.978572 580.781141 450.573907 579.370883 447.027623 579.370883 
C 443.48134 579.370883 440.076675 580.781141 437.569074 583.288743 
C 435.061473 585.796344 433.651214 589.201009 433.651214 592.747292 
" style="fill:none;stroke:#ffffff;stroke-linejoin:miter;stroke-width:2;"/>
   </g>
   <g id="patch_76">
    <path clip-path="url(#pc0987d3610)" d="M 486.71587 664.921104 
L 524.934182 664.921104 
L 524.934182 626.702792 
L 486.71587 626.702792 
z
" style="stroke:#000000;stroke-linejoin:miter;stroke-width:1.5;"/>
   </g>
   <g id="patch_77">
    <path clip-path="url(#pc0987d3610)" d="M 519.201435 651.544695 
C 519.201435 647.998411 517.791177 644.593746 515.283576 642.086145 
C 512.775974 639.578544 509.37131 638.168286 505.825026 638.168286 
C 502.278742 638.168286 498.874078 639.578544 496.366476 642.086145 
C 493.858875 644.593746 492.448617 647.998411 492.448617 651.544695 
" style="fill:none;stroke:#ffffff;stroke-linejoin:miter;stroke-width:2;"/>
   </g>
   <g id="patch_78">
    <path clip-path="url(#pc0987d3610)" d="M 545.513273 723.718506 
L 583.731585 723.718506 
L 583.731585 685.500195 
L 545.513273 685.500195 
z
" style="stroke:#000000;stroke-linejoin:miter;stroke-width:1.5;"/>
   </g>
   <g id="patch_79">
    <path clip-path="url(#pc0987d3610)" d="M 577.998838 710.342097 
C 577.998838 706.795814 576.588579 703.391149 574.080978 700.883548 
C 571.573377 698.375947 568.168712 696.965688 564.622429 696.965688 
C 561.076145 696.965688 557.67148 698.375947 555.163879 700.883548 
C 552.656278 703.391149 551.24602 706.795814 551.24602 710.342097 
" style="fill:none;stroke:#ffffff;stroke-linejoin:miter;stroke-width:2;"/>
   </g>
   <g id="patch_80">
    <path clip-path="url(#pc0987d3610)" d="M 604.310675 782.515909 
L 642.528987 782.515909 
L 642.528987 744.297597 
L 604.310675 744.297597 
z
" style="stroke:#000000;stroke-linejoin:miter;stroke-width:1.5;"/>
   </g>
   <g id="patch_81">
    <path clip-path="url(#pc0987d3610)" d="M 636.79624 769.1395 
C 636.79624 765.593216 635.385982 762.188552 632.878381 759.68095 
C 630.37078 757.173349 626.966115 755.763091 623.419831 755.763091 
C 619.873548 755.763091 616.468883 757.173349 613.961282 759.68095 
C 611.45368 762.188552 610.043422 765.593216 610.043422 769.1395 
" style="fill:none;stroke:#ffffff;stroke-linejoin:miter;stroke-width:2;"/>
   </g>
   <g id="line2d_51">
    <path clip-path="url(#pc0987d3610)" d="M 388.230221 533.94989 
L 401.60663 520.573481 
" style="fill:none;stroke:#ffffff;stroke-linecap:square;stroke-width:2;"/>
   </g>
   <g id="line2d_52">
    <path clip-path="url(#pc0987d3610)" d="M 447.027623 592.747292 
L 460.404033 579.370883 
" style="fill:none;stroke:#ffffff;stroke-linecap:square;stroke-width:2;"/>
   </g>
   <g id="line2d_53">
    <path clip-path="url(#pc0987d3610)" d="M 505.825026 651.544695 
L 519.201435 638.168286 
" style="fill:none;stroke:#ffffff;stroke-linecap:square;stroke-width:2;"/>
   </g>
   <g id="line2d_54">
    <path clip-path="url(#pc0987d3610)" d="M 564.622429 710.342097 
L 577.998838 696.965688 
" style="fill:none;stroke:#ffffff;stroke-linecap:square;stroke-width:2;"/>
   </g>
   <g id="line2d_55">
    <path clip-path="url(#pc0987d3610)" d="M 623.419831 769.1395 
L 636.79624 755.763091 
" style="fill:none;stroke:#ffffff;stroke-linecap:square;stroke-width:2;"/>
   </g>
   <g id="line2d_56">
    <path clip-path="url(#pc0987d3610)" d="M 270.635416 124.278987 
L 270.635416 108.991662 
" style="fill:none;stroke:#ffffff;stroke-linecap:square;stroke-width:2;"/>
   </g>
   <g id="line2d_57">
    <path clip-path="url(#pc0987d3610)" d="M 262.991753 116.635325 
L 278.279078 116.635325 
" style="fill:none;stroke:#ffffff;stroke-linecap:square;stroke-width:2;"/>
   </g>
   <g id="line2d_58">
    <path clip-path="url(#pc0987d3610)" d="M 388.230221 124.278987 
L 388.230221 108.991662 
" style="fill:none;stroke:#ffffff;stroke-linecap:square;stroke-width:2;"/>
   </g>
   <g id="line2d_59">
    <path clip-path="url(#pc0987d3610)" d="M 380.586559 116.635325 
L 395.873883 116.635325 
" style="fill:none;stroke:#ffffff;stroke-linecap:square;stroke-width:2;"/>
   </g>
   <g id="line2d_60">
    <path clip-path="url(#pc0987d3610)" d="M 447.027623 183.07639 
L 447.027623 167.789065 
" style="fill:none;stroke:#ffffff;stroke-linecap:square;stroke-width:2;"/>
   </g>
   <g id="line2d_61">
    <path clip-path="url(#pc0987d3610)" d="M 439.383961 175.432727 
L 454.671286 175.432727 
" style="fill:none;stroke:#ffffff;stroke-linecap:square;stroke-width:2;"/>
   </g>
   <g id="line2d_62">
    <path clip-path="url(#pc0987d3610)" d="M 564.622429 183.07639 
L 564.622429 167.789065 
" style="fill:none;stroke:#ffffff;stroke-linecap:square;stroke-width:2;"/>
   </g>
   <g id="line2d_63">
    <path clip-path="url(#pc0987d3610)" d="M 556.978766 175.432727 
L 572.266091 175.432727 
" style="fill:none;stroke:#ffffff;stroke-linecap:square;stroke-width:2;"/>
   </g>
   <g id="line2d_64">
    <path clip-path="url(#pc0987d3610)" d="M 623.419831 241.873792 
L 623.419831 226.586468 
" style="fill:none;stroke:#ffffff;stroke-linecap:square;stroke-width:2;"/>
   </g>
   <g id="line2d_65">
    <path clip-path="url(#pc0987d3610)" d="M 615.776169 234.23013 
L 631.063494 234.23013 
" style="fill:none;stroke:#ffffff;stroke-linecap:square;stroke-width:2;"/>
   </g>
   <g id="line2d_66">
    <path clip-path="url(#pc0987d3610)" d="M 741.014636 241.873792 
L 741.014636 226.586468 
" style="fill:none;stroke:#ffffff;stroke-linecap:square;stroke-width:2;"/>
   </g>
   <g id="line2d_67">
    <path clip-path="url(#pc0987d3610)" d="M 733.370974 234.23013 
L 748.658299 234.23013 
" style="fill:none;stroke:#ffffff;stroke-linecap:square;stroke-width:2;"/>
   </g>
   <g id="line2d_68">
    <path clip-path="url(#pc0987d3610)" d="M 799.812039 300.671195 
L 799.812039 285.38387 
" style="fill:none;stroke:#ffffff;stroke-linecap:square;stroke-width:2;"/>
   </g>
   <g id="line2d_69">
    <path clip-path="url(#pc0987d3610)" d="M 792.168377 293.027532 
L 807.455701 293.027532 
" style="fill:none;stroke:#ffffff;stroke-linecap:square;stroke-width:2;"/>
   </g>
   <g id="line2d_70">
    <path clip-path="url(#pc0987d3610)" d="M 917.406844 300.671195 
L 917.406844 285.38387 
" style="fill:none;stroke:#ffffff;stroke-linecap:square;stroke-width:2;"/>
   </g>
   <g id="line2d_71">
    <path clip-path="url(#pc0987d3610)" d="M 909.763182 293.027532 
L 925.050507 293.027532 
" style="fill:none;stroke:#ffffff;stroke-linecap:square;stroke-width:2;"/>
   </g>
   <g id="line2d_72">
    <path clip-path="url(#pc0987d3610)" d="M 976.204247 300.671195 
L 976.204247 285.38387 
" style="fill:none;stroke:#ffffff;stroke-linecap:square;stroke-width:2;"/>
   </g>
   <g id="line2d_73">
    <path clip-path="url(#pc0987d3610)" d="M 968.560585 293.027532 
L 983.847909 293.027532 
" style="fill:none;stroke:#ffffff;stroke-linecap:square;stroke-width:2;"/>
   </g>
   <g id="line2d_74">
    <path clip-path="url(#pc0987d3610)" d="M 1093.799052 300.671195 
L 1093.799052 285.38387 
" style="fill:none;stroke:#ffffff;stroke-linecap:square;stroke-width:2;"/>
   </g>
   <g id="line2d_75">
    <path clip-path="url(#pc0987d3610)" d="M 1086.15539 293.027532 
L 1101.442714 293.027532 
" style="fill:none;stroke:#ffffff;stroke-linecap:square;stroke-width:2;"/>
   </g>
   <g id="line2d_76">
    <path clip-path="url(#pc0987d3610)" d="M 1152.596455 241.873792 
L 1152.596455 226.586468 
" style="fill:none;stroke:#ffffff;stroke-linecap:square;stroke-width:2;"/>
   </g>
   <g id="line2d_77">
    <path clip-path="url(#pc0987d3610)" d="M 1144.952792 234.23013 
L 1160.240117 234.23013 
" style="fill:none;stroke:#ffffff;stroke-linecap:square;stroke-width:2;"/>
   </g>
   <g id="line2d_78">
    <path clip-path="url(#pc0987d3610)" d="M 1270.19126 241.873792 
L 1270.19126 226.586468 
" style="fill:none;stroke:#ffffff;stroke-linecap:square;stroke-width:2;"/>
   </g>
   <g id="line2d_79">
    <path clip-path="url(#pc0987d3610)" d="M 1262.547597 234.23013 
L 1277.834922 234.23013 
" style="fill:none;stroke:#ffffff;stroke-linecap:square;stroke-width:2;"/>
   </g>
   <g id="line2d_80">
    <path clip-path="url(#pc0987d3610)" d="M 1328.988662 183.07639 
L 1328.988662 167.789065 
" style="fill:none;stroke:#ffffff;stroke-linecap:square;stroke-width:2;"/>
   </g>
   <g id="line2d_81">
    <path clip-path="url(#pc0987d3610)" d="M 1321.345 175.432727 
L 1336.632325 175.432727 
" style="fill:none;stroke:#ffffff;stroke-linecap:square;stroke-width:2;"/>
   </g>
   <g id="line2d_82">
    <path clip-path="url(#pc0987d3610)" d="M 1446.583468 183.07639 
L 1446.583468 167.789065 
" style="fill:none;stroke:#ffffff;stroke-linecap:square;stroke-width:2;"/>
   </g>
   <g id="line2d_83">
    <path clip-path="url(#pc0987d3610)" d="M 1438.939805 175.432727 
L 1454.22713 175.432727 
" style="fill:none;stroke:#ffffff;stroke-linecap:square;stroke-width:2;"/>
   </g>
   <g id="line2d_84">
    <path clip-path="url(#pc0987d3610)" d="M 1505.38087 124.278987 
L 1505.38087 108.991662 
" style="fill:none;stroke:#ffffff;stroke-linecap:square;stroke-width:2;"/>
   </g>
   <g id="line2d_85">
    <path clip-path="url(#pc0987d3610)" d="M 1497.737208 116.635325 
L 1513.024533 116.635325 
" style="fill:none;stroke:#ffffff;stroke-linecap:square;stroke-width:2;"/>
   </g>
   <g id="line2d_86">
    <path clip-path="url(#pc0987d3610)" d="M 153.04061 594.658208 
L 153.04061 579.370883 
" style="fill:none;stroke:#ffffff;stroke-linecap:square;stroke-width:2;"/>
   </g>
   <g id="line2d_87">
    <path clip-path="url(#pc0987d3610)" d="M 145.396948 587.014545 
L 160.684273 587.014545 
" style="fill:none;stroke:#ffffff;stroke-linecap:square;stroke-width:2;"/>
   </g>
   <g id="line2d_88">
    <path clip-path="url(#pc0987d3610)" d="M 329.432818 498.818442 
L 329.432818 557.615844 
" style="fill:none;stroke:#000000;stroke-dasharray:3.7,1.6;stroke-dashoffset:0;"/>
   </g>
   <g id="line2d_89">
    <path clip-path="url(#pc0987d3610)" d="M 329.432818 557.615844 
L 329.432818 616.413247 
" style="fill:none;stroke:#000000;stroke-dasharray:3.7,1.6;stroke-dashoffset:0;"/>
   </g>
   <g id="line2d_90">
    <path clip-path="url(#pc0987d3610)" d="M 329.432818 616.413247 
L 329.432818 675.210649 
" style="fill:none;stroke:#000000;stroke-dasharray:3.7,1.6;stroke-dashoffset:0;"/>
   </g>
   <g id="line2d_91">
    <path clip-path="url(#pc0987d3610)" d="M 329.432818 675.210649 
L 329.432818 734.008052 
" style="fill:none;stroke:#000000;stroke-dasharray:3.7,1.6;stroke-dashoffset:0;"/>
   </g>
   <g id="line2d_92">
    <path clip-path="url(#pc0987d3610)" d="M 329.432818 734.008052 
L 329.432818 792.805455 
" style="fill:none;stroke:#000000;stroke-dasharray:3.7,1.6;stroke-dashoffset:0;"/>
   </g>
   <g id="text_1">
    <g clip-path="url(#pc0987d3610)">
     <!-- H -->
     <g transform="translate(148.152407 61.42511)scale(0.13 -0.13)">
      <defs>
       <path d="M 628 4666 
L 1259 4666 
L 1259 2753 
L 3553 2753 
L 3553 4666 
L 4184 4666 
L 4184 0 
L 3553 0 
L 3553 2222 
L 1259 2222 
L 1259 0 
L 628 0 
L 628 4666 
z
" id="DejaVuSans-48" transform="scale(0.015625)"/>
      </defs>
      <use xlink:href="#DejaVuSans-48"/>
     </g>
    </g>
   </g>
   <g id="text_2">
    <g clip-path="url(#pc0987d3610)">
     <!-- H -->
     <g transform="translate(148.152407 120.222512)scale(0.13 -0.13)">
      <use xlink:href="#DejaVuSans-48"/>
     </g>
    </g>
   </g>
   <g id="text_3">
    <g clip-path="url(#pc0987d3610)">
     <!-- H -->
     <g transform="translate(148.152407 179.019915)scale(0.13 -0.13)">
      <use xlink:href="#DejaVuSans-48"/>
     </g>
    </g>
   </g>
   <g id="text_4">
    <g clip-path="url(#pc0987d3610)">
     <!-- H -->
     <g transform="translate(148.152407 237.817317)scale(0.13 -0.13)">
      <use xlink:href="#DejaVuSans-48"/>
     </g>
    </g>
   </g>
   <g id="text_5">
    <g clip-path="url(#pc0987d3610)">
     <!-- H -->
     <g transform="translate(148.152407 296.61472)scale(0.13 -0.13)">
      <use xlink:href="#DejaVuSans-48"/>
     </g>
    </g>
   </g>
   <g id="text_6">
    <g clip-path="url(#pc0987d3610)">
     <!-- P -->
     <g transform="translate(207.918716 55.692363)scale(0.13 -0.13)">
      <defs>
       <path d="M 1259 4147 
L 1259 2394 
L 2053 2394 
Q 2494 2394 2734 2622 
Q 2975 2850 2975 3272 
Q 2975 3691 2734 3919 
Q 2494 4147 2053 4147 
L 1259 4147 
z
M 628 4666 
L 2053 4666 
Q 2838 4666 3239 4311 
Q 3641 3956 3641 3272 
Q 3641 2581 3239 2228 
Q 2838 1875 2053 1875 
L 1259 1875 
L 1259 0 
L 628 0 
L 628 4666 
z
" id="DejaVuSans-50" transform="scale(0.015625)"/>
      </defs>
      <use xlink:href="#DejaVuSans-50"/>
     </g>
    </g>
   </g>
   <g id="text_7">
    <g clip-path="url(#pc0987d3610)">
     <!-- 0.83 -->
     <g transform="translate(202.931763 71.510916)scale(0.08 -0.08)">
      <defs>
       <path d="M 2034 4250 
Q 1547 4250 1301 3770 
Q 1056 3291 1056 2328 
Q 1056 1369 1301 889 
Q 1547 409 2034 409 
Q 2525 409 2770 889 
Q 3016 1369 3016 2328 
Q 3016 3291 2770 3770 
Q 2525 4250 2034 4250 
z
M 2034 4750 
Q 2819 4750 3233 4129 
Q 3647 3509 3647 2328 
Q 3647 1150 3233 529 
Q 2819 -91 2034 -91 
Q 1250 -91 836 529 
Q 422 1150 422 2328 
Q 422 3509 836 4129 
Q 1250 4750 2034 4750 
z
" id="DejaVuSans-30" transform="scale(0.015625)"/>
       <path d="M 684 794 
L 1344 794 
L 1344 0 
L 684 0 
L 684 794 
z
" id="DejaVuSans-2e" transform="scale(0.015625)"/>
       <path d="M 2034 2216 
Q 1584 2216 1326 1975 
Q 1069 1734 1069 1313 
Q 1069 891 1326 650 
Q 1584 409 2034 409 
Q 2484 409 2743 651 
Q 3003 894 3003 1313 
Q 3003 1734 2745 1975 
Q 2488 2216 2034 2216 
z
M 1403 2484 
Q 997 2584 770 2862 
Q 544 3141 544 3541 
Q 544 4100 942 4425 
Q 1341 4750 2034 4750 
Q 2731 4750 3128 4425 
Q 3525 4100 3525 3541 
Q 3525 3141 3298 2862 
Q 3072 2584 2669 2484 
Q 3125 2378 3379 2068 
Q 3634 1759 3634 1313 
Q 3634 634 3220 271 
Q 2806 -91 2034 -91 
Q 1263 -91 848 271 
Q 434 634 434 1313 
Q 434 1759 690 2068 
Q 947 2378 1403 2484 
z
M 1172 3481 
Q 1172 3119 1398 2916 
Q 1625 2713 2034 2713 
Q 2441 2713 2670 2916 
Q 2900 3119 2900 3481 
Q 2900 3844 2670 4047 
Q 2441 4250 2034 4250 
Q 1625 4250 1398 4047 
Q 1172 3844 1172 3481 
z
" id="DejaVuSans-38" transform="scale(0.015625)"/>
       <path d="M 2597 2516 
Q 3050 2419 3304 2112 
Q 3559 1806 3559 1356 
Q 3559 666 3084 287 
Q 2609 -91 1734 -91 
Q 1441 -91 1130 -33 
Q 819 25 488 141 
L 488 750 
Q 750 597 1062 519 
Q 1375 441 1716 441 
Q 2309 441 2620 675 
Q 2931 909 2931 1356 
Q 2931 1769 2642 2001 
Q 2353 2234 1838 2234 
L 1294 2234 
L 1294 2753 
L 1863 2753 
Q 2328 2753 2575 2939 
Q 2822 3125 2822 3475 
Q 2822 3834 2567 4026 
Q 2313 4219 1838 4219 
Q 1578 4219 1281 4162 
Q 984 4106 628 3988 
L 628 4550 
Q 988 4650 1302 4700 
Q 1616 4750 1894 4750 
Q 2613 4750 3031 4423 
Q 3450 4097 3450 3541 
Q 3450 3153 3228 2886 
Q 3006 2619 2597 2516 
z
" id="DejaVuSans-33" transform="scale(0.015625)"/>
      </defs>
      <use xlink:href="#DejaVuSans-30"/>
      <use x="63.623047" xlink:href="#DejaVuSans-2e"/>
      <use x="95.410156" xlink:href="#DejaVuSans-38"/>
      <use x="159.033203" xlink:href="#DejaVuSans-33"/>
     </g>
    </g>
   </g>
   <g id="text_8">
    <g clip-path="url(#pc0987d3610)">
     <!-- P -->
     <g transform="translate(207.918716 114.489765)scale(0.13 -0.13)">
      <use xlink:href="#DejaVuSans-50"/>
     </g>
    </g>
   </g>
   <g id="text_9">
    <g clip-path="url(#pc0987d3610)">
     <!-- 3.03 -->
     <g transform="translate(202.931763 130.308318)scale(0.08 -0.08)">
      <use xlink:href="#DejaVuSans-33"/>
      <use x="63.623047" xlink:href="#DejaVuSans-2e"/>
      <use x="95.410156" xlink:href="#DejaVuSans-30"/>
      <use x="159.033203" xlink:href="#DejaVuSans-33"/>
     </g>
    </g>
   </g>
   <g id="text_10">
    <g clip-path="url(#pc0987d3610)">
     <!-- P -->
     <g transform="translate(207.918716 173.287168)scale(0.13 -0.13)">
      <use xlink:href="#DejaVuSans-50"/>
     </g>
    </g>
   </g>
   <g id="text_11">
    <g clip-path="url(#pc0987d3610)">
     <!-- 0.324 -->
     <g transform="translate(200.386763 189.105721)scale(0.08 -0.08)">
      <defs>
       <path d="M 1228 531 
L 3431 531 
L 3431 0 
L 469 0 
L 469 531 
Q 828 903 1448 1529 
Q 2069 2156 2228 2338 
Q 2531 2678 2651 2914 
Q 2772 3150 2772 3378 
Q 2772 3750 2511 3984 
Q 2250 4219 1831 4219 
Q 1534 4219 1204 4116 
Q 875 4013 500 3803 
L 500 4441 
Q 881 4594 1212 4672 
Q 1544 4750 1819 4750 
Q 2544 4750 2975 4387 
Q 3406 4025 3406 3419 
Q 3406 3131 3298 2873 
Q 3191 2616 2906 2266 
Q 2828 2175 2409 1742 
Q 1991 1309 1228 531 
z
" id="DejaVuSans-32" transform="scale(0.015625)"/>
       <path d="M 2419 4116 
L 825 1625 
L 2419 1625 
L 2419 4116 
z
M 2253 4666 
L 3047 4666 
L 3047 1625 
L 3713 1625 
L 3713 1100 
L 3047 1100 
L 3047 0 
L 2419 0 
L 2419 1100 
L 313 1100 
L 313 1709 
L 2253 4666 
z
" id="DejaVuSans-34" transform="scale(0.015625)"/>
      </defs>
      <use xlink:href="#DejaVuSans-30"/>
      <use x="63.623047" xlink:href="#DejaVuSans-2e"/>
      <use x="95.410156" xlink:href="#DejaVuSans-33"/>
      <use x="159.033203" xlink:href="#DejaVuSans-32"/>
      <use x="222.65625" xlink:href="#DejaVuSans-34"/>
     </g>
    </g>
   </g>
   <g id="text_12">
    <g clip-path="url(#pc0987d3610)">
     <!-- P -->
     <g transform="translate(207.918716 232.084571)scale(0.13 -0.13)">
      <use xlink:href="#DejaVuSans-50"/>
     </g>
    </g>
   </g>
   <g id="text_13">
    <g clip-path="url(#pc0987d3610)">
     <!-- 2.73 -->
     <g transform="translate(202.931763 247.903123)scale(0.08 -0.08)">
      <defs>
       <path d="M 525 4666 
L 3525 4666 
L 3525 4397 
L 1831 0 
L 1172 0 
L 2766 4134 
L 525 4134 
L 525 4666 
z
" id="DejaVuSans-37" transform="scale(0.015625)"/>
      </defs>
      <use xlink:href="#DejaVuSans-32"/>
      <use x="63.623047" xlink:href="#DejaVuSans-2e"/>
      <use x="95.410156" xlink:href="#DejaVuSans-37"/>
      <use x="159.033203" xlink:href="#DejaVuSans-33"/>
     </g>
    </g>
   </g>
   <g id="text_14">
    <g clip-path="url(#pc0987d3610)">
     <!-- P -->
     <g transform="translate(207.918716 290.881973)scale(0.13 -0.13)">
      <use xlink:href="#DejaVuSans-50"/>
     </g>
    </g>
   </g>
   <g id="text_15">
    <g clip-path="url(#pc0987d3610)">
     <!-- 1.09 -->
     <g transform="translate(202.931763 306.700526)scale(0.08 -0.08)">
      <defs>
       <path d="M 794 531 
L 1825 531 
L 1825 4091 
L 703 3866 
L 703 4441 
L 1819 4666 
L 2450 4666 
L 2450 531 
L 3481 531 
L 3481 0 
L 794 0 
L 794 531 
z
" id="DejaVuSans-31" transform="scale(0.015625)"/>
       <path d="M 703 97 
L 703 672 
Q 941 559 1184 500 
Q 1428 441 1663 441 
Q 2288 441 2617 861 
Q 2947 1281 2994 2138 
Q 2813 1869 2534 1725 
Q 2256 1581 1919 1581 
Q 1219 1581 811 2004 
Q 403 2428 403 3163 
Q 403 3881 828 4315 
Q 1253 4750 1959 4750 
Q 2769 4750 3195 4129 
Q 3622 3509 3622 2328 
Q 3622 1225 3098 567 
Q 2575 -91 1691 -91 
Q 1453 -91 1209 -44 
Q 966 3 703 97 
z
M 1959 2075 
Q 2384 2075 2632 2365 
Q 2881 2656 2881 3163 
Q 2881 3666 2632 3958 
Q 2384 4250 1959 4250 
Q 1534 4250 1286 3958 
Q 1038 3666 1038 3163 
Q 1038 2656 1286 2365 
Q 1534 2075 1959 2075 
z
" id="DejaVuSans-39" transform="scale(0.015625)"/>
      </defs>
      <use xlink:href="#DejaVuSans-31"/>
      <use x="63.623047" xlink:href="#DejaVuSans-2e"/>
      <use x="95.410156" xlink:href="#DejaVuSans-30"/>
      <use x="159.033203" xlink:href="#DejaVuSans-39"/>
     </g>
    </g>
   </g>
   <g id="text_16">
    <g clip-path="url(#pc0987d3610)">
     <!-- $\mathrm{R}_\mathrm{Z}$ -->
     <g transform="translate(321.502818 114.489765)scale(0.13 -0.13)">
      <defs>
       <path d="M 2841 2188 
Q 3044 2119 3236 1894 
Q 3428 1669 3622 1275 
L 4263 0 
L 3584 0 
L 2988 1197 
Q 2756 1666 2539 1819 
Q 2322 1972 1947 1972 
L 1259 1972 
L 1259 0 
L 628 0 
L 628 4666 
L 2053 4666 
Q 2853 4666 3247 4331 
Q 3641 3997 3641 3322 
Q 3641 2881 3436 2590 
Q 3231 2300 2841 2188 
z
M 1259 4147 
L 1259 2491 
L 2053 2491 
Q 2509 2491 2742 2702 
Q 2975 2913 2975 3322 
Q 2975 3731 2742 3939 
Q 2509 4147 2053 4147 
L 1259 4147 
z
" id="DejaVuSans-52" transform="scale(0.015625)"/>
       <path d="M 359 4666 
L 4025 4666 
L 4025 4184 
L 1075 531 
L 4097 531 
L 4097 0 
L 288 0 
L 288 481 
L 3238 4134 
L 359 4134 
L 359 4666 
z
" id="DejaVuSans-5a" transform="scale(0.015625)"/>
      </defs>
      <use transform="translate(0 0.09375)" xlink:href="#DejaVuSans-52"/>
      <use transform="translate(70.439453 -16.3125)scale(0.7)" xlink:href="#DejaVuSans-5a"/>
     </g>
    </g>
   </g>
   <g id="text_17">
    <g clip-path="url(#pc0987d3610)">
     <!-- 2.6 -->
     <g transform="translate(323.071568 130.308318)scale(0.08 -0.08)">
      <defs>
       <path d="M 2113 2584 
Q 1688 2584 1439 2293 
Q 1191 2003 1191 1497 
Q 1191 994 1439 701 
Q 1688 409 2113 409 
Q 2538 409 2786 701 
Q 3034 994 3034 1497 
Q 3034 2003 2786 2293 
Q 2538 2584 2113 2584 
z
M 3366 4563 
L 3366 3988 
Q 3128 4100 2886 4159 
Q 2644 4219 2406 4219 
Q 1781 4219 1451 3797 
Q 1122 3375 1075 2522 
Q 1259 2794 1537 2939 
Q 1816 3084 2150 3084 
Q 2853 3084 3261 2657 
Q 3669 2231 3669 1497 
Q 3669 778 3244 343 
Q 2819 -91 2113 -91 
Q 1303 -91 875 529 
Q 447 1150 447 2328 
Q 447 3434 972 4092 
Q 1497 4750 2381 4750 
Q 2619 4750 2861 4703 
Q 3103 4656 3366 4563 
z
" id="DejaVuSans-36" transform="scale(0.015625)"/>
      </defs>
      <use xlink:href="#DejaVuSans-32"/>
      <use x="63.623047" xlink:href="#DejaVuSans-2e"/>
      <use x="95.410156" xlink:href="#DejaVuSans-36"/>
     </g>
    </g>
   </g>
   <g id="text_18">
    <g clip-path="url(#pc0987d3610)">
     <!-- $\mathrm{R}_\mathrm{Z}$ -->
     <g transform="translate(497.895026 173.287168)scale(0.13 -0.13)">
      <use transform="translate(0 0.09375)" xlink:href="#DejaVuSans-52"/>
      <use transform="translate(70.439453 -16.3125)scale(0.7)" xlink:href="#DejaVuSans-5a"/>
     </g>
    </g>
   </g>
   <g id="text_19">
    <g clip-path="url(#pc0987d3610)">
     <!-- 1.42 -->
     <g transform="translate(496.918776 189.105721)scale(0.08 -0.08)">
      <use xlink:href="#DejaVuSans-31"/>
      <use x="63.623047" xlink:href="#DejaVuSans-2e"/>
      <use x="95.410156" xlink:href="#DejaVuSans-34"/>
      <use x="159.033203" xlink:href="#DejaVuSans-32"/>
     </g>
    </g>
   </g>
   <g id="text_20">
    <g clip-path="url(#pc0987d3610)">
     <!-- $\mathrm{R}_\mathrm{Z}$ -->
     <g transform="translate(674.287234 232.084571)scale(0.13 -0.13)">
      <use transform="translate(0 0.09375)" xlink:href="#DejaVuSans-52"/>
      <use transform="translate(70.439453 -16.3125)scale(0.7)" xlink:href="#DejaVuSans-5a"/>
     </g>
    </g>
   </g>
   <g id="text_21">
    <g clip-path="url(#pc0987d3610)">
     <!-- 2.76 -->
     <g transform="translate(673.310984 247.903123)scale(0.08 -0.08)">
      <use xlink:href="#DejaVuSans-32"/>
      <use x="63.623047" xlink:href="#DejaVuSans-2e"/>
      <use x="95.410156" xlink:href="#DejaVuSans-37"/>
      <use x="159.033203" xlink:href="#DejaVuSans-36"/>
     </g>
    </g>
   </g>
   <g id="text_22">
    <g clip-path="url(#pc0987d3610)">
     <!-- $\mathrm{R}_\mathrm{Z}$ -->
     <g transform="translate(850.679442 290.881973)scale(0.13 -0.13)">
      <use transform="translate(0 0.09375)" xlink:href="#DejaVuSans-52"/>
      <use transform="translate(70.439453 -16.3125)scale(0.7)" xlink:href="#DejaVuSans-5a"/>
     </g>
    </g>
   </g>
   <g id="text_23">
    <g clip-path="url(#pc0987d3610)">
     <!-- 0.234 -->
     <g transform="translate(847.158192 306.700526)scale(0.08 -0.08)">
      <use xlink:href="#DejaVuSans-30"/>
      <use x="63.623047" xlink:href="#DejaVuSans-2e"/>
      <use x="95.410156" xlink:href="#DejaVuSans-32"/>
      <use x="159.033203" xlink:href="#DejaVuSans-33"/>
      <use x="222.65625" xlink:href="#DejaVuSans-34"/>
     </g>
    </g>
   </g>
   <g id="text_24">
    <g clip-path="url(#pc0987d3610)">
     <!-- $\mathrm{R}_\mathrm{Z}$ -->
     <g transform="translate(1027.071649 290.881973)scale(0.13 -0.13)">
      <use transform="translate(0 0.09375)" xlink:href="#DejaVuSans-52"/>
      <use transform="translate(70.439453 -16.3125)scale(0.7)" xlink:href="#DejaVuSans-5a"/>
     </g>
    </g>
   </g>
   <g id="text_25">
    <g clip-path="url(#pc0987d3610)">
     <!-- 1.91 -->
     <g transform="translate(1026.095399 306.700526)scale(0.08 -0.08)">
      <use xlink:href="#DejaVuSans-31"/>
      <use x="63.623047" xlink:href="#DejaVuSans-2e"/>
      <use x="95.410156" xlink:href="#DejaVuSans-39"/>
      <use x="159.033203" xlink:href="#DejaVuSans-31"/>
     </g>
    </g>
   </g>
   <g id="text_26">
    <g clip-path="url(#pc0987d3610)">
     <!-- $\mathrm{R}_\mathrm{Z}$ -->
     <g transform="translate(1144.666455 290.881973)scale(0.13 -0.13)">
      <use transform="translate(0 0.09375)" xlink:href="#DejaVuSans-52"/>
      <use transform="translate(70.439453 -16.3125)scale(0.7)" xlink:href="#DejaVuSans-5a"/>
     </g>
    </g>
   </g>
   <g id="text_27">
    <g clip-path="url(#pc0987d3610)">
     <!-- 2.69 -->
     <g transform="translate(1143.690205 306.700526)scale(0.08 -0.08)">
      <use xlink:href="#DejaVuSans-32"/>
      <use x="63.623047" xlink:href="#DejaVuSans-2e"/>
      <use x="95.410156" xlink:href="#DejaVuSans-36"/>
      <use x="159.033203" xlink:href="#DejaVuSans-39"/>
     </g>
    </g>
   </g>
   <g id="text_28">
    <g clip-path="url(#pc0987d3610)">
     <!-- $\mathrm{R}_\mathrm{Z}$ -->
     <g transform="translate(1203.463857 232.084571)scale(0.13 -0.13)">
      <use transform="translate(0 0.09375)" xlink:href="#DejaVuSans-52"/>
      <use transform="translate(70.439453 -16.3125)scale(0.7)" xlink:href="#DejaVuSans-5a"/>
     </g>
    </g>
   </g>
   <g id="text_29">
    <g clip-path="url(#pc0987d3610)">
     <!-- 1.65 -->
     <g transform="translate(1202.487607 247.903123)scale(0.08 -0.08)">
      <defs>
       <path d="M 691 4666 
L 3169 4666 
L 3169 4134 
L 1269 4134 
L 1269 2991 
Q 1406 3038 1543 3061 
Q 1681 3084 1819 3084 
Q 2600 3084 3056 2656 
Q 3513 2228 3513 1497 
Q 3513 744 3044 326 
Q 2575 -91 1722 -91 
Q 1428 -91 1123 -41 
Q 819 9 494 109 
L 494 744 
Q 775 591 1075 516 
Q 1375 441 1709 441 
Q 2250 441 2565 725 
Q 2881 1009 2881 1497 
Q 2881 1984 2565 2268 
Q 2250 2553 1709 2553 
Q 1456 2553 1204 2497 
Q 953 2441 691 2322 
L 691 4666 
z
" id="DejaVuSans-35" transform="scale(0.015625)"/>
      </defs>
      <use xlink:href="#DejaVuSans-31"/>
      <use x="63.623047" xlink:href="#DejaVuSans-2e"/>
      <use x="95.410156" xlink:href="#DejaVuSans-36"/>
      <use x="159.033203" xlink:href="#DejaVuSans-35"/>
     </g>
    </g>
   </g>
   <g id="text_30">
    <g clip-path="url(#pc0987d3610)">
     <!-- H -->
     <g transform="translate(1206.505654 296.61472)scale(0.13 -0.13)">
      <use xlink:href="#DejaVuSans-48"/>
     </g>
    </g>
   </g>
   <g id="text_31">
    <g clip-path="url(#pc0987d3610)">
     <!-- $\mathrm{R}_\mathrm{Z}$ -->
     <g transform="translate(1321.058662 232.084571)scale(0.13 -0.13)">
      <use transform="translate(0 0.09375)" xlink:href="#DejaVuSans-52"/>
      <use transform="translate(70.439453 -16.3125)scale(0.7)" xlink:href="#DejaVuSans-5a"/>
     </g>
    </g>
   </g>
   <g id="text_32">
    <g clip-path="url(#pc0987d3610)">
     <!-- 0.541 -->
     <g transform="translate(1317.537412 247.903123)scale(0.08 -0.08)">
      <use xlink:href="#DejaVuSans-30"/>
      <use x="63.623047" xlink:href="#DejaVuSans-2e"/>
      <use x="95.410156" xlink:href="#DejaVuSans-35"/>
      <use x="159.033203" xlink:href="#DejaVuSans-34"/>
      <use x="222.65625" xlink:href="#DejaVuSans-31"/>
     </g>
    </g>
   </g>
   <g id="text_33">
    <g clip-path="url(#pc0987d3610)">
     <!-- $\mathrm{R}_\mathrm{Z}$ -->
     <g transform="translate(1379.856065 173.287168)scale(0.13 -0.13)">
      <use transform="translate(0 0.09375)" xlink:href="#DejaVuSans-52"/>
      <use transform="translate(70.439453 -16.3125)scale(0.7)" xlink:href="#DejaVuSans-5a"/>
     </g>
    </g>
   </g>
   <g id="text_34">
    <g clip-path="url(#pc0987d3610)">
     <!-- 1.42 -->
     <g transform="translate(1378.879815 189.105721)scale(0.08 -0.08)">
      <use xlink:href="#DejaVuSans-31"/>
      <use x="63.623047" xlink:href="#DejaVuSans-2e"/>
      <use x="95.410156" xlink:href="#DejaVuSans-34"/>
      <use x="159.033203" xlink:href="#DejaVuSans-32"/>
     </g>
    </g>
   </g>
   <g id="text_35">
    <g clip-path="url(#pc0987d3610)">
     <!-- H -->
     <g transform="translate(1382.897862 237.817317)scale(0.13 -0.13)">
      <use xlink:href="#DejaVuSans-48"/>
     </g>
    </g>
   </g>
   <g id="text_36">
    <g clip-path="url(#pc0987d3610)">
     <!-- $\mathrm{R}_\mathrm{Z}$ -->
     <g transform="translate(1497.45087 173.287168)scale(0.13 -0.13)">
      <use transform="translate(0 0.09375)" xlink:href="#DejaVuSans-52"/>
      <use transform="translate(70.439453 -16.3125)scale(0.7)" xlink:href="#DejaVuSans-5a"/>
     </g>
    </g>
   </g>
   <g id="text_37">
    <g clip-path="url(#pc0987d3610)">
     <!-- 0.601 -->
     <g transform="translate(1493.92962 189.105721)scale(0.08 -0.08)">
      <use xlink:href="#DejaVuSans-30"/>
      <use x="63.623047" xlink:href="#DejaVuSans-2e"/>
      <use x="95.410156" xlink:href="#DejaVuSans-36"/>
      <use x="159.033203" xlink:href="#DejaVuSans-30"/>
      <use x="222.65625" xlink:href="#DejaVuSans-31"/>
     </g>
    </g>
   </g>
   <g id="text_38">
    <g clip-path="url(#pc0987d3610)">
     <!-- $\mathrm{R}_\mathrm{Z}$ -->
     <g transform="translate(1556.248273 114.489765)scale(0.13 -0.13)">
      <use transform="translate(0 0.09375)" xlink:href="#DejaVuSans-52"/>
      <use transform="translate(70.439453 -16.3125)scale(0.7)" xlink:href="#DejaVuSans-5a"/>
     </g>
    </g>
   </g>
   <g id="text_39">
    <g clip-path="url(#pc0987d3610)">
     <!-- 2.71 -->
     <g transform="translate(1555.272023 130.308318)scale(0.08 -0.08)">
      <use xlink:href="#DejaVuSans-32"/>
      <use x="63.623047" xlink:href="#DejaVuSans-2e"/>
      <use x="95.410156" xlink:href="#DejaVuSans-37"/>
      <use x="159.033203" xlink:href="#DejaVuSans-31"/>
     </g>
    </g>
   </g>
   <g id="text_40">
    <g clip-path="url(#pc0987d3610)">
     <!-- H -->
     <g transform="translate(1559.29007 179.019915)scale(0.13 -0.13)">
      <use xlink:href="#DejaVuSans-48"/>
     </g>
    </g>
   </g>
   <g id="text_41">
    <g clip-path="url(#pc0987d3610)">
     <!-- $\mathrm{R}_\mathrm{Z}$ -->
     <g transform="translate(203.908013 526.071584)scale(0.13 -0.13)">
      <use transform="translate(0 0.09375)" xlink:href="#DejaVuSans-52"/>
      <use transform="translate(70.439453 -16.3125)scale(0.7)" xlink:href="#DejaVuSans-5a"/>
     </g>
    </g>
   </g>
   <g id="text_42">
    <g clip-path="url(#pc0987d3610)">
     <!-- 0.111 -->
     <g transform="translate(200.386763 541.890136)scale(0.08 -0.08)">
      <use xlink:href="#DejaVuSans-30"/>
      <use x="63.623047" xlink:href="#DejaVuSans-2e"/>
      <use x="95.410156" xlink:href="#DejaVuSans-31"/>
      <use x="159.033203" xlink:href="#DejaVuSans-31"/>
      <use x="222.65625" xlink:href="#DejaVuSans-31"/>
     </g>
    </g>
   </g>
   <g id="text_43">
    <g clip-path="url(#pc0987d3610)">
     <!-- $\mathrm{R}_\mathrm{Z}$ -->
     <g transform="translate(203.908013 584.868986)scale(0.13 -0.13)">
      <use transform="translate(0 0.09375)" xlink:href="#DejaVuSans-52"/>
      <use transform="translate(70.439453 -16.3125)scale(0.7)" xlink:href="#DejaVuSans-5a"/>
     </g>
    </g>
   </g>
   <g id="text_44">
    <g clip-path="url(#pc0987d3610)">
     <!-- 0.609 -->
     <g transform="translate(200.386763 600.687539)scale(0.08 -0.08)">
      <use xlink:href="#DejaVuSans-30"/>
      <use x="63.623047" xlink:href="#DejaVuSans-2e"/>
      <use x="95.410156" xlink:href="#DejaVuSans-36"/>
      <use x="159.033203" xlink:href="#DejaVuSans-30"/>
      <use x="222.65625" xlink:href="#DejaVuSans-39"/>
     </g>
    </g>
   </g>
   <g id="text_45">
    <g clip-path="url(#pc0987d3610)">
     <!-- H -->
     <g transform="translate(265.747213 531.80433)scale(0.13 -0.13)">
      <use xlink:href="#DejaVuSans-48"/>
     </g>
    </g>
   </g>
   <g id="text_46">
    <g clip-path="url(#pc0987d3610)">
     <!-- H -->
     <g transform="translate(265.747213 590.601733)scale(0.13 -0.13)">
      <use xlink:href="#DejaVuSans-48"/>
     </g>
    </g>
   </g>
   <g id="text_47">
    <g clip-path="url(#pc0987d3610)">
     <!-- 0 -->
     <g transform="translate(402.929572 872.958943)scale(0.104 -0.104)">
      <use xlink:href="#DejaVuSans-30"/>
     </g>
    </g>
   </g>
   <g id="text_48">
    <g clip-path="url(#pc0987d3610)">
     <!-- 1 -->
     <g transform="translate(461.726974 872.958943)scale(0.104 -0.104)">
      <use xlink:href="#DejaVuSans-31"/>
     </g>
    </g>
   </g>
   <g id="text_49">
    <g clip-path="url(#pc0987d3610)">
     <!-- 2 -->
     <g transform="translate(520.524377 872.958943)scale(0.104 -0.104)">
      <use xlink:href="#DejaVuSans-32"/>
     </g>
    </g>
   </g>
   <g id="text_50">
    <g clip-path="url(#pc0987d3610)">
     <!-- 3 -->
     <g transform="translate(579.321779 872.958943)scale(0.104 -0.104)">
      <use xlink:href="#DejaVuSans-33"/>
     </g>
    </g>
   </g>
   <g id="text_51">
    <g clip-path="url(#pc0987d3610)">
     <!-- 4 -->
     <g transform="translate(638.119182 872.958943)scale(0.104 -0.104)">
      <use xlink:href="#DejaVuSans-34"/>
     </g>
    </g>
   </g>
   <g id="text_52">
    <g clip-path="url(#pc0987d3610)">
     <!-- ${q0}_{0}$ -->
     <g transform="translate(80.930533 62.288899)scale(0.1625 -0.1625)">
      <defs>
       <path d="M 2669 525 
Q 2438 222 2123 65 
Q 1809 -91 1428 -91 
Q 897 -91 595 267 
Q 294 625 294 1253 
Q 294 1759 480 2231 
Q 666 2703 1013 3078 
Q 1238 3322 1530 3453 
Q 1822 3584 2144 3584 
Q 2531 3584 2781 3431 
Q 3031 3278 3144 2969 
L 3244 3494 
L 3822 3494 
L 2888 -1319 
L 2309 -1319 
L 2669 525 
z
M 891 1338 
Q 891 875 1084 633 
Q 1278 391 1644 391 
Q 2188 391 2572 911 
Q 2956 1431 2956 2175 
Q 2956 2625 2757 2864 
Q 2559 3103 2188 3103 
Q 1916 3103 1684 2976 
Q 1453 2850 1281 2606 
Q 1100 2350 995 2006 
Q 891 1663 891 1338 
z
" id="DejaVuSans-Oblique-71" transform="scale(0.015625)"/>
      </defs>
      <use transform="translate(0 0.78125)" xlink:href="#DejaVuSans-Oblique-71"/>
      <use transform="translate(63.476562 0.78125)" xlink:href="#DejaVuSans-30"/>
      <use transform="translate(128.056641 -15.625)scale(0.7)" xlink:href="#DejaVuSans-30"/>
     </g>
    </g>
   </g>
   <g id="text_53">
    <g clip-path="url(#pc0987d3610)">
     <!-- ${q0}_{1}$ -->
     <g transform="translate(80.930533 121.086301)scale(0.1625 -0.1625)">
      <use transform="translate(0 0.78125)" xlink:href="#DejaVuSans-Oblique-71"/>
      <use transform="translate(63.476562 0.78125)" xlink:href="#DejaVuSans-30"/>
      <use transform="translate(128.056641 -15.625)scale(0.7)" xlink:href="#DejaVuSans-31"/>
     </g>
    </g>
   </g>
   <g id="text_54">
    <g clip-path="url(#pc0987d3610)">
     <!-- ${q0}_{2}$ -->
     <g transform="translate(80.930533 179.883704)scale(0.1625 -0.1625)">
      <use transform="translate(0 0.78125)" xlink:href="#DejaVuSans-Oblique-71"/>
      <use transform="translate(63.476562 0.78125)" xlink:href="#DejaVuSans-30"/>
      <use transform="translate(128.056641 -15.625)scale(0.7)" xlink:href="#DejaVuSans-32"/>
     </g>
    </g>
   </g>
   <g id="text_55">
    <g clip-path="url(#pc0987d3610)">
     <!-- ${q0}_{3}$ -->
     <g transform="translate(80.930533 238.681106)scale(0.1625 -0.1625)">
      <use transform="translate(0 0.78125)" xlink:href="#DejaVuSans-Oblique-71"/>
      <use transform="translate(63.476562 0.78125)" xlink:href="#DejaVuSans-30"/>
      <use transform="translate(128.056641 -15.625)scale(0.7)" xlink:href="#DejaVuSans-33"/>
     </g>
    </g>
   </g>
   <g id="text_56">
    <g clip-path="url(#pc0987d3610)">
     <!-- ${q0}_{4}$ -->
     <g transform="translate(80.930533 297.478509)scale(0.1625 -0.1625)">
      <use transform="translate(0 0.78125)" xlink:href="#DejaVuSans-Oblique-71"/>
      <use transform="translate(63.476562 0.78125)" xlink:href="#DejaVuSans-30"/>
      <use transform="translate(128.056641 -15.625)scale(0.7)" xlink:href="#DejaVuSans-34"/>
     </g>
    </g>
   </g>
   <g id="text_57">
    <g clip-path="url(#pc0987d3610)">
     <!-- 5 -->
     <g transform="translate(127.169753 343.78232)scale(0.104 -0.104)">
      <use xlink:href="#DejaVuSans-35"/>
     </g>
    </g>
   </g>
   <g id="text_58">
    <g clip-path="url(#pc0987d3610)">
     <!-- c0 -->
     <g transform="translate(90.256509 356.308919)scale(0.1625 -0.1625)">
      <defs>
       <path d="M 3122 3366 
L 3122 2828 
Q 2878 2963 2633 3030 
Q 2388 3097 2138 3097 
Q 1578 3097 1268 2742 
Q 959 2388 959 1747 
Q 959 1106 1268 751 
Q 1578 397 2138 397 
Q 2388 397 2633 464 
Q 2878 531 3122 666 
L 3122 134 
Q 2881 22 2623 -34 
Q 2366 -91 2075 -91 
Q 1284 -91 818 406 
Q 353 903 353 1747 
Q 353 2603 823 3093 
Q 1294 3584 2113 3584 
Q 2378 3584 2631 3529 
Q 2884 3475 3122 3366 
z
" id="DejaVuSans-63" transform="scale(0.015625)"/>
      </defs>
      <use xlink:href="#DejaVuSans-63"/>
      <use x="54.980469" xlink:href="#DejaVuSans-30"/>
     </g>
    </g>
   </g>
   <g id="text_59">
    <g clip-path="url(#pc0987d3610)">
     <!-- 5 -->
     <g transform="translate(127.169753 402.579722)scale(0.104 -0.104)">
      <use xlink:href="#DejaVuSans-35"/>
     </g>
    </g>
   </g>
   <g id="text_60">
    <g clip-path="url(#pc0987d3610)">
     <!-- meas -->
     <g transform="translate(65.279751 415.106322)scale(0.1625 -0.1625)">
      <defs>
       <path d="M 3328 2828 
Q 3544 3216 3844 3400 
Q 4144 3584 4550 3584 
Q 5097 3584 5394 3201 
Q 5691 2819 5691 2113 
L 5691 0 
L 5113 0 
L 5113 2094 
Q 5113 2597 4934 2840 
Q 4756 3084 4391 3084 
Q 3944 3084 3684 2787 
Q 3425 2491 3425 1978 
L 3425 0 
L 2847 0 
L 2847 2094 
Q 2847 2600 2669 2842 
Q 2491 3084 2119 3084 
Q 1678 3084 1418 2786 
Q 1159 2488 1159 1978 
L 1159 0 
L 581 0 
L 581 3500 
L 1159 3500 
L 1159 2956 
Q 1356 3278 1631 3431 
Q 1906 3584 2284 3584 
Q 2666 3584 2933 3390 
Q 3200 3197 3328 2828 
z
" id="DejaVuSans-6d" transform="scale(0.015625)"/>
       <path d="M 3597 1894 
L 3597 1613 
L 953 1613 
Q 991 1019 1311 708 
Q 1631 397 2203 397 
Q 2534 397 2845 478 
Q 3156 559 3463 722 
L 3463 178 
Q 3153 47 2828 -22 
Q 2503 -91 2169 -91 
Q 1331 -91 842 396 
Q 353 884 353 1716 
Q 353 2575 817 3079 
Q 1281 3584 2069 3584 
Q 2775 3584 3186 3129 
Q 3597 2675 3597 1894 
z
M 3022 2063 
Q 3016 2534 2758 2815 
Q 2500 3097 2075 3097 
Q 1594 3097 1305 2825 
Q 1016 2553 972 2059 
L 3022 2063 
z
" id="DejaVuSans-65" transform="scale(0.015625)"/>
       <path d="M 2194 1759 
Q 1497 1759 1228 1600 
Q 959 1441 959 1056 
Q 959 750 1161 570 
Q 1363 391 1709 391 
Q 2188 391 2477 730 
Q 2766 1069 2766 1631 
L 2766 1759 
L 2194 1759 
z
M 3341 1997 
L 3341 0 
L 2766 0 
L 2766 531 
Q 2569 213 2275 61 
Q 1981 -91 1556 -91 
Q 1019 -91 701 211 
Q 384 513 384 1019 
Q 384 1609 779 1909 
Q 1175 2209 1959 2209 
L 2766 2209 
L 2766 2266 
Q 2766 2663 2505 2880 
Q 2244 3097 1772 3097 
Q 1472 3097 1187 3025 
Q 903 2953 641 2809 
L 641 3341 
Q 956 3463 1253 3523 
Q 1550 3584 1831 3584 
Q 2591 3584 2966 3190 
Q 3341 2797 3341 1997 
z
" id="DejaVuSans-61" transform="scale(0.015625)"/>
       <path d="M 2834 3397 
L 2834 2853 
Q 2591 2978 2328 3040 
Q 2066 3103 1784 3103 
Q 1356 3103 1142 2972 
Q 928 2841 928 2578 
Q 928 2378 1081 2264 
Q 1234 2150 1697 2047 
L 1894 2003 
Q 2506 1872 2764 1633 
Q 3022 1394 3022 966 
Q 3022 478 2636 193 
Q 2250 -91 1575 -91 
Q 1294 -91 989 -36 
Q 684 19 347 128 
L 347 722 
Q 666 556 975 473 
Q 1284 391 1588 391 
Q 1994 391 2212 530 
Q 2431 669 2431 922 
Q 2431 1156 2273 1281 
Q 2116 1406 1581 1522 
L 1381 1569 
Q 847 1681 609 1914 
Q 372 2147 372 2553 
Q 372 3047 722 3315 
Q 1072 3584 1716 3584 
Q 2034 3584 2315 3537 
Q 2597 3491 2834 3397 
z
" id="DejaVuSans-73" transform="scale(0.015625)"/>
      </defs>
      <use xlink:href="#DejaVuSans-6d"/>
      <use x="97.412109" xlink:href="#DejaVuSans-65"/>
      <use x="158.935547" xlink:href="#DejaVuSans-61"/>
      <use x="220.214844" xlink:href="#DejaVuSans-73"/>
     </g>
    </g>
   </g>
   <g id="text_61">
    <g clip-path="url(#pc0987d3610)">
     <!-- ${q0}_{0}$ -->
     <g transform="translate(80.930533 532.668119)scale(0.1625 -0.1625)">
      <use transform="translate(0 0.78125)" xlink:href="#DejaVuSans-Oblique-71"/>
      <use transform="translate(63.476562 0.78125)" xlink:href="#DejaVuSans-30"/>
      <use transform="translate(128.056641 -15.625)scale(0.7)" xlink:href="#DejaVuSans-30"/>
     </g>
    </g>
   </g>
   <g id="text_62">
    <g clip-path="url(#pc0987d3610)">
     <!-- ${q0}_{1}$ -->
     <g transform="translate(80.930533 591.465522)scale(0.1625 -0.1625)">
      <use transform="translate(0 0.78125)" xlink:href="#DejaVuSans-Oblique-71"/>
      <use transform="translate(63.476562 0.78125)" xlink:href="#DejaVuSans-30"/>
      <use transform="translate(128.056641 -15.625)scale(0.7)" xlink:href="#DejaVuSans-31"/>
     </g>
    </g>
   </g>
   <g id="text_63">
    <g clip-path="url(#pc0987d3610)">
     <!-- ${q0}_{2}$ -->
     <g transform="translate(80.930533 650.262925)scale(0.1625 -0.1625)">
      <use transform="translate(0 0.78125)" xlink:href="#DejaVuSans-Oblique-71"/>
      <use transform="translate(63.476562 0.78125)" xlink:href="#DejaVuSans-30"/>
      <use transform="translate(128.056641 -15.625)scale(0.7)" xlink:href="#DejaVuSans-32"/>
     </g>
    </g>
   </g>
   <g id="text_64">
    <g clip-path="url(#pc0987d3610)">
     <!-- ${q0}_{3}$ -->
     <g transform="translate(80.930533 709.060327)scale(0.1625 -0.1625)">
      <use transform="translate(0 0.78125)" xlink:href="#DejaVuSans-Oblique-71"/>
      <use transform="translate(63.476562 0.78125)" xlink:href="#DejaVuSans-30"/>
      <use transform="translate(128.056641 -15.625)scale(0.7)" xlink:href="#DejaVuSans-33"/>
     </g>
    </g>
   </g>
   <g id="text_65">
    <g clip-path="url(#pc0987d3610)">
     <!-- ${q0}_{4}$ -->
     <g transform="translate(80.930533 767.85773)scale(0.1625 -0.1625)">
      <use transform="translate(0 0.78125)" xlink:href="#DejaVuSans-Oblique-71"/>
      <use transform="translate(63.476562 0.78125)" xlink:href="#DejaVuSans-30"/>
      <use transform="translate(128.056641 -15.625)scale(0.7)" xlink:href="#DejaVuSans-34"/>
     </g>
    </g>
   </g>
   <g id="text_66">
    <g clip-path="url(#pc0987d3610)">
     <!-- 5 -->
     <g transform="translate(127.169753 814.161541)scale(0.104 -0.104)">
      <use xlink:href="#DejaVuSans-35"/>
     </g>
    </g>
   </g>
   <g id="text_67">
    <g clip-path="url(#pc0987d3610)">
     <!-- c0 -->
     <g transform="translate(90.256509 826.68814)scale(0.1625 -0.1625)">
      <use xlink:href="#DejaVuSans-63"/>
      <use x="54.980469" xlink:href="#DejaVuSans-30"/>
     </g>
    </g>
   </g>
   <g id="text_68">
    <g clip-path="url(#pc0987d3610)">
     <!-- 5 -->
     <g transform="translate(127.169753 872.958943)scale(0.104 -0.104)">
      <use xlink:href="#DejaVuSans-35"/>
     </g>
    </g>
   </g>
   <g id="text_69">
    <g clip-path="url(#pc0987d3610)">
     <!-- meas -->
     <g transform="translate(65.279751 885.485543)scale(0.1625 -0.1625)">
      <use xlink:href="#DejaVuSans-6d"/>
      <use x="97.412109" xlink:href="#DejaVuSans-65"/>
      <use x="158.935547" xlink:href="#DejaVuSans-61"/>
      <use x="220.214844" xlink:href="#DejaVuSans-73"/>
     </g>
    </g>
   </g>
  </g>
 </g>
 <defs>
  <clipPath id="pc0987d3610">
   <rect height="905.48" width="1584.090516" x="18.894042" y="10.8"/>
  </clipPath>
 </defs>
</svg>
