<?xml version="1.0" encoding="utf-8" standalone="no"?>
<!DOCTYPE svg PUBLIC "-//W3C//DTD SVG 1.1//EN"
  "http://www.w3.org/Graphics/SVG/1.1/DTD/svg11.dtd">
<svg height="686.28pt" version="1.1" viewBox="0 0 1621.878601 686.28" width="1621.878601pt" xmlns="http://www.w3.org/2000/svg" xmlns:xlink="http://www.w3.org/1999/xlink">
 <metadata>
  <rdf:RDF xmlns:cc="http://creativecommons.org/ns#" xmlns:dc="http://purl.org/dc/elements/1.1/" xmlns:rdf="http://www.w3.org/1999/02/22-rdf-syntax-ns#">
   <cc:Work>
    <dc:type rdf:resource="http://purl.org/dc/dcmitype/StillImage"/>
    <dc:date>2021-06-09T16:04:44.458374</dc:date>
    <dc:format>image/svg+xml</dc:format>
    <dc:creator>
     <cc:Agent>
      <dc:title>Matplotlib v3.4.2, https://matplotlib.org/</dc:title>
     </cc:Agent>
    </dc:creator>
   </cc:Work>
  </rdf:RDF>
 </metadata>
 <defs>
  <style type="text/css">*{stroke-linecap:butt;stroke-linejoin:round;}</style>
 </defs>
 <g id="figure_1">
  <g id="patch_1">
   <path d="M 0 686.28 
L 1621.878601 686.28 
L 1621.878601 0 
L 0 0 
z
" style="fill:#ffffff;"/>
  </g>
  <g id="axes_1">
   <g id="patch_2">
    <path clip-path="url(#p2fa52eaf07)" d="M 384.188649 627.232395 
L 399.348017 627.232395 
L 391.768333 638.164632 
z
" style="fill:#778899;"/>
   </g>
   <g id="patch_3">
    <path clip-path="url(#p2fa52eaf07)" d="M 442.493912 627.232395 
L 457.65328 627.232395 
L 450.073596 638.164632 
z
" style="fill:#778899;"/>
   </g>
   <g id="patch_4">
    <path clip-path="url(#p2fa52eaf07)" d="M 500.799175 627.232395 
L 515.958544 627.232395 
L 508.378859 638.164632 
z
" style="fill:#778899;"/>
   </g>
   <g id="line2d_1">
    <path clip-path="url(#p2fa52eaf07)" d="M 127.062438 57.444211 
L 1590.524544 57.444211 
" style="fill:none;stroke:#000000;stroke-linecap:square;stroke-width:2;"/>
   </g>
   <g id="line2d_2">
    <path clip-path="url(#p2fa52eaf07)" d="M 127.062438 115.749474 
L 1590.524544 115.749474 
" style="fill:none;stroke:#000000;stroke-linecap:square;stroke-width:2;"/>
   </g>
   <g id="line2d_3">
    <path clip-path="url(#p2fa52eaf07)" d="M 127.062438 174.054737 
L 1590.524544 174.054737 
" style="fill:none;stroke:#000000;stroke-linecap:square;stroke-width:2;"/>
   </g>
   <g id="line2d_4">
    <path clip-path="url(#p2fa52eaf07)" d="M 127.062438 230.465079 
L 1590.524544 230.465079 
" style="fill:none;stroke:#778899;stroke-linecap:square;stroke-width:2;"/>
   </g>
   <g id="line2d_5">
    <path clip-path="url(#p2fa52eaf07)" d="M 127.062438 234.254921 
L 1590.524544 234.254921 
" style="fill:none;stroke:#778899;stroke-linecap:square;stroke-width:2;"/>
   </g>
   <g id="line2d_6">
    <path clip-path="url(#p2fa52eaf07)" d="M 127.062438 288.770342 
L 1590.524544 288.770342 
" style="fill:none;stroke:#778899;stroke-linecap:square;stroke-width:2;"/>
   </g>
   <g id="line2d_7">
    <path clip-path="url(#p2fa52eaf07)" d="M 127.062438 292.560184 
L 1590.524544 292.560184 
" style="fill:none;stroke:#778899;stroke-linecap:square;stroke-width:2;"/>
   </g>
   <g id="line2d_8">
    <path clip-path="url(#p2fa52eaf07)" d="M 127.062438 407.275789 
L 1590.524544 407.275789 
" style="fill:none;stroke:#000000;stroke-linecap:square;stroke-width:2;"/>
   </g>
   <g id="line2d_9">
    <path clip-path="url(#p2fa52eaf07)" d="M 127.062438 465.581053 
L 1590.524544 465.581053 
" style="fill:none;stroke:#000000;stroke-linecap:square;stroke-width:2;"/>
   </g>
   <g id="line2d_10">
    <path clip-path="url(#p2fa52eaf07)" d="M 127.062438 523.886316 
L 1590.524544 523.886316 
" style="fill:none;stroke:#000000;stroke-linecap:square;stroke-width:2;"/>
   </g>
   <g id="line2d_11">
    <path clip-path="url(#p2fa52eaf07)" d="M 127.062438 580.296658 
L 1590.524544 580.296658 
" style="fill:none;stroke:#778899;stroke-linecap:square;stroke-width:2;"/>
   </g>
   <g id="line2d_12">
    <path clip-path="url(#p2fa52eaf07)" d="M 127.062438 584.0865 
L 1590.524544 584.0865 
" style="fill:none;stroke:#778899;stroke-linecap:square;stroke-width:2;"/>
   </g>
   <g id="line2d_13">
    <path clip-path="url(#p2fa52eaf07)" d="M 127.062438 638.601921 
L 1590.524544 638.601921 
" style="fill:none;stroke:#778899;stroke-linecap:square;stroke-width:2;"/>
   </g>
   <g id="line2d_14">
    <path clip-path="url(#p2fa52eaf07)" d="M 127.062438 642.391763 
L 1590.524544 642.391763 
" style="fill:none;stroke:#778899;stroke-linecap:square;stroke-width:2;"/>
   </g>
   <g id="patch_5">
    <path clip-path="url(#p2fa52eaf07)" d="M 322.093544 436.428421 
L 344.832596 436.428421 
L 344.832596 378.123158 
L 322.093544 378.123158 
z
" style="fill:#bdbdbd;opacity:0.6;"/>
   </g>
   <g id="patch_6">
    <path clip-path="url(#p2fa52eaf07)" d="M 322.093544 494.733684 
L 344.832596 494.733684 
L 344.832596 436.428421 
L 322.093544 436.428421 
z
" style="fill:#bdbdbd;opacity:0.6;"/>
   </g>
   <g id="patch_7">
    <path clip-path="url(#p2fa52eaf07)" d="M 322.093544 553.038947 
L 344.832596 553.038947 
L 344.832596 494.733684 
L 322.093544 494.733684 
z
" style="fill:#bdbdbd;opacity:0.6;"/>
   </g>
   <g id="line2d_15">
    <path clip-path="url(#p2fa52eaf07)" d="M 275.157807 115.749474 
L 275.157807 57.444211 
" style="fill:none;stroke:#6fa4ff;stroke-linecap:square;stroke-width:2;"/>
   </g>
   <g id="line2d_16">
    <path clip-path="url(#p2fa52eaf07)" d="M 391.768333 115.749474 
L 391.768333 57.444211 
" style="fill:none;stroke:#6fa4ff;stroke-linecap:square;stroke-width:2;"/>
   </g>
   <g id="line2d_17">
    <path clip-path="url(#p2fa52eaf07)" d="M 450.073596 174.054737 
L 450.073596 115.749474 
" style="fill:none;stroke:#6fa4ff;stroke-linecap:square;stroke-width:2;"/>
   </g>
   <g id="line2d_18">
    <path clip-path="url(#p2fa52eaf07)" d="M 566.684123 174.054737 
L 566.684123 115.749474 
" style="fill:none;stroke:#6fa4ff;stroke-linecap:square;stroke-width:2;"/>
   </g>
   <g id="line2d_19">
    <path clip-path="url(#p2fa52eaf07)" d="M 393.663254 407.275789 
L 393.663254 627.232395 
" style="fill:none;stroke:#778899;stroke-linecap:square;stroke-width:2;"/>
   </g>
   <g id="line2d_20">
    <path clip-path="url(#p2fa52eaf07)" d="M 389.873412 407.275789 
L 389.873412 627.232395 
" style="fill:none;stroke:#778899;stroke-linecap:square;stroke-width:2;"/>
   </g>
   <g id="line2d_21">
    <path clip-path="url(#p2fa52eaf07)" d="M 451.968517 465.581053 
L 451.968517 627.232395 
" style="fill:none;stroke:#778899;stroke-linecap:square;stroke-width:2;"/>
   </g>
   <g id="line2d_22">
    <path clip-path="url(#p2fa52eaf07)" d="M 448.178675 465.581053 
L 448.178675 627.232395 
" style="fill:none;stroke:#778899;stroke-linecap:square;stroke-width:2;"/>
   </g>
   <g id="line2d_23">
    <path clip-path="url(#p2fa52eaf07)" d="M 510.27378 523.886316 
L 510.27378 627.232395 
" style="fill:none;stroke:#778899;stroke-linecap:square;stroke-width:2;"/>
   </g>
   <g id="line2d_24">
    <path clip-path="url(#p2fa52eaf07)" d="M 506.483938 523.886316 
L 506.483938 627.232395 
" style="fill:none;stroke:#778899;stroke-linecap:square;stroke-width:2;"/>
   </g>
   <g id="line2d_25">
    <path clip-path="url(#p2fa52eaf07)" d="M 138.723491 238.190526 
L 144.554017 226.529474 
" style="fill:none;stroke:#778899;stroke-linecap:square;stroke-width:1.5;"/>
   </g>
   <g id="line2d_26">
    <path clip-path="url(#p2fa52eaf07)" d="M 138.723491 296.495789 
L 144.554017 284.834737 
" style="fill:none;stroke:#778899;stroke-linecap:square;stroke-width:1.5;"/>
   </g>
   <g id="line2d_27">
    <path clip-path="url(#p2fa52eaf07)" d="M 1590.524544 57.444211 
L 1590.524544 290.665263 
" style="fill:none;stroke:#000000;stroke-linecap:square;stroke-width:1.5;"/>
   </g>
   <g id="line2d_28">
    <path clip-path="url(#p2fa52eaf07)" d="M 138.723491 588.022105 
L 144.554017 576.361053 
" style="fill:none;stroke:#778899;stroke-linecap:square;stroke-width:1.5;"/>
   </g>
   <g id="line2d_29">
    <path clip-path="url(#p2fa52eaf07)" d="M 138.723491 646.327368 
L 144.554017 634.666316 
" style="fill:none;stroke:#778899;stroke-linecap:square;stroke-width:1.5;"/>
   </g>
   <g id="line2d_30">
    <path clip-path="url(#p2fa52eaf07)" d="M 126.479386 407.275789 
L 126.479386 640.496842 
" style="fill:none;stroke:#000000;stroke-linecap:square;stroke-width:1.5;"/>
   </g>
   <g id="line2d_31">
    <path clip-path="url(#p2fa52eaf07)" d="M 741.599912 115.749474 
L 741.599912 57.444211 
" style="fill:none;stroke:#6fa4ff;stroke-linecap:square;stroke-width:2;"/>
   </g>
   <g id="line2d_32">
    <path clip-path="url(#p2fa52eaf07)" d="M 799.905175 174.054737 
L 799.905175 57.444211 
" style="fill:none;stroke:#6fa4ff;stroke-linecap:square;stroke-width:2;"/>
   </g>
   <g id="line2d_33">
    <path clip-path="url(#p2fa52eaf07)" d="M 858.210438 174.054737 
L 858.210438 115.749474 
" style="fill:none;stroke:#6fa4ff;stroke-linecap:square;stroke-width:2;"/>
   </g>
   <g id="line2d_34">
    <path clip-path="url(#p2fa52eaf07)" d="M 1033.126228 115.749474 
L 1033.126228 57.444211 
" style="fill:none;stroke:#6fa4ff;stroke-linecap:square;stroke-width:2;"/>
   </g>
   <g id="line2d_35">
    <path clip-path="url(#p2fa52eaf07)" d="M 1091.431491 174.054737 
L 1091.431491 57.444211 
" style="fill:none;stroke:#6fa4ff;stroke-linecap:square;stroke-width:2;"/>
   </g>
   <g id="line2d_36">
    <path clip-path="url(#p2fa52eaf07)" d="M 1149.736754 174.054737 
L 1149.736754 115.749474 
" style="fill:none;stroke:#6fa4ff;stroke-linecap:square;stroke-width:2;"/>
   </g>
   <g id="line2d_37">
    <path clip-path="url(#p2fa52eaf07)" d="M 1324.652544 115.749474 
L 1324.652544 57.444211 
" style="fill:none;stroke:#6fa4ff;stroke-linecap:square;stroke-width:2;"/>
   </g>
   <g id="line2d_38">
    <path clip-path="url(#p2fa52eaf07)" d="M 1382.957807 174.054737 
L 1382.957807 57.444211 
" style="fill:none;stroke:#6fa4ff;stroke-linecap:square;stroke-width:2;"/>
   </g>
   <g id="line2d_39">
    <path clip-path="url(#p2fa52eaf07)" d="M 1441.26307 174.054737 
L 1441.26307 115.749474 
" style="fill:none;stroke:#6fa4ff;stroke-linecap:square;stroke-width:2;"/>
   </g>
   <g id="line2d_40">
    <path clip-path="url(#p2fa52eaf07)" d="M 158.54728 465.581053 
L 158.54728 407.275789 
" style="fill:none;stroke:#6fa4ff;stroke-linecap:square;stroke-width:2;"/>
   </g>
   <g id="line2d_41">
    <path clip-path="url(#p2fa52eaf07)" d="M 216.852544 523.886316 
L 216.852544 407.275789 
" style="fill:none;stroke:#6fa4ff;stroke-linecap:square;stroke-width:2;"/>
   </g>
   <g id="line2d_42">
    <path clip-path="url(#p2fa52eaf07)" d="M 275.157807 523.886316 
L 275.157807 465.581053 
" style="fill:none;stroke:#6fa4ff;stroke-linecap:square;stroke-width:2;"/>
   </g>
   <g id="patch_8">
    <path clip-path="url(#p2fa52eaf07)" d="M 139.59807 76.393421 
L 177.496491 76.393421 
L 177.496491 38.495 
L 139.59807 38.495 
z
" style="fill:#6fa4ff;stroke:#6fa4ff;stroke-linejoin:miter;stroke-width:1.5;"/>
   </g>
   <g id="patch_9">
    <path clip-path="url(#p2fa52eaf07)" d="M 139.59807 134.698684 
L 177.496491 134.698684 
L 177.496491 96.800263 
L 139.59807 96.800263 
z
" style="fill:#6fa4ff;stroke:#6fa4ff;stroke-linejoin:miter;stroke-width:1.5;"/>
   </g>
   <g id="patch_10">
    <path clip-path="url(#p2fa52eaf07)" d="M 139.59807 193.003947 
L 177.496491 193.003947 
L 177.496491 155.105526 
L 139.59807 155.105526 
z
" style="fill:#6fa4ff;stroke:#6fa4ff;stroke-linejoin:miter;stroke-width:1.5;"/>
   </g>
   <g id="patch_11">
    <path clip-path="url(#p2fa52eaf07)" d="M 197.903333 76.393421 
L 235.801754 76.393421 
L 235.801754 38.495 
L 197.903333 38.495 
z
" style="fill:#bb8bff;stroke:#bb8bff;stroke-linejoin:miter;stroke-width:1.5;"/>
   </g>
   <g id="patch_12">
    <path clip-path="url(#p2fa52eaf07)" d="M 197.903333 134.698684 
L 235.801754 134.698684 
L 235.801754 96.800263 
L 197.903333 96.800263 
z
" style="fill:#bb8bff;stroke:#bb8bff;stroke-linejoin:miter;stroke-width:1.5;"/>
   </g>
   <g id="patch_13">
    <path clip-path="url(#p2fa52eaf07)" d="M 197.903333 193.003947 
L 235.801754 193.003947 
L 235.801754 155.105526 
L 197.903333 155.105526 
z
" style="fill:#bb8bff;stroke:#bb8bff;stroke-linejoin:miter;stroke-width:1.5;"/>
   </g>
   <g id="patch_14">
    <path clip-path="url(#p2fa52eaf07)" d="M 275.157807 63.128974 
C 276.665424 63.128974 278.111495 62.529991 279.177541 61.463945 
C 280.243587 60.397899 280.84257 58.951827 280.84257 57.444211 
C 280.84257 55.936594 280.243587 54.490522 279.177541 53.424476 
C 278.111495 52.35843 276.665424 51.759447 275.157807 51.759447 
C 273.65019 51.759447 272.204118 52.35843 271.138072 53.424476 
C 270.072026 54.490522 269.473044 55.936594 269.473044 57.444211 
C 269.473044 58.951827 270.072026 60.397899 271.138072 61.463945 
C 272.204118 62.529991 273.65019 63.128974 275.157807 63.128974 
z
" style="fill:#6fa4ff;stroke:#6fa4ff;stroke-linejoin:miter;stroke-width:1.5;"/>
   </g>
   <g id="patch_15">
    <path clip-path="url(#p2fa52eaf07)" d="M 275.157807 129.013921 
C 278.675579 129.013921 282.049747 127.616295 284.537187 125.128854 
C 287.024628 122.641414 288.422254 119.267246 288.422254 115.749474 
C 288.422254 112.231701 287.024628 108.857534 284.537187 106.370093 
C 282.049747 103.882652 278.675579 102.485026 275.157807 102.485026 
C 271.640034 102.485026 268.265867 103.882652 265.778426 106.370093 
C 263.290985 108.857534 261.893359 112.231701 261.893359 115.749474 
C 261.893359 119.267246 263.290985 122.641414 265.778426 125.128854 
C 268.265867 127.616295 271.640034 129.013921 275.157807 129.013921 
z
" style="fill:#6fa4ff;stroke:#6fa4ff;stroke-linejoin:miter;stroke-width:2;"/>
   </g>
   <g id="patch_16">
    <path clip-path="url(#p2fa52eaf07)" d="M 314.513859 134.698684 
L 352.41228 134.698684 
L 352.41228 96.800263 
L 314.513859 96.800263 
z
" style="fill:#bb8bff;stroke:#bb8bff;stroke-linejoin:miter;stroke-width:1.5;"/>
   </g>
   <g id="patch_17">
    <path clip-path="url(#p2fa52eaf07)" d="M 391.768333 63.128974 
C 393.27595 63.128974 394.722022 62.529991 395.788068 61.463945 
C 396.854114 60.397899 397.453096 58.951827 397.453096 57.444211 
C 397.453096 55.936594 396.854114 54.490522 395.788068 53.424476 
C 394.722022 52.35843 393.27595 51.759447 391.768333 51.759447 
C 390.260716 51.759447 388.814645 52.35843 387.748599 53.424476 
C 386.682552 54.490522 386.08357 55.936594 386.08357 57.444211 
C 386.08357 58.951827 386.682552 60.397899 387.748599 61.463945 
C 388.814645 62.529991 390.260716 63.128974 391.768333 63.128974 
z
" style="fill:#6fa4ff;stroke:#6fa4ff;stroke-linejoin:miter;stroke-width:1.5;"/>
   </g>
   <g id="patch_18">
    <path clip-path="url(#p2fa52eaf07)" d="M 391.768333 129.013921 
C 395.286106 129.013921 398.660273 127.616295 401.147714 125.128854 
C 403.635155 122.641414 405.03278 119.267246 405.03278 115.749474 
C 405.03278 112.231701 403.635155 108.857534 401.147714 106.370093 
C 398.660273 103.882652 395.286106 102.485026 391.768333 102.485026 
C 388.250561 102.485026 384.876393 103.882652 382.388952 106.370093 
C 379.901512 108.857534 378.503886 112.231701 378.503886 115.749474 
C 378.503886 119.267246 379.901512 122.641414 382.388952 125.128854 
C 384.876393 127.616295 388.250561 129.013921 391.768333 129.013921 
z
" style="fill:#6fa4ff;stroke:#6fa4ff;stroke-linejoin:miter;stroke-width:2;"/>
   </g>
   <g id="patch_19">
    <path clip-path="url(#p2fa52eaf07)" d="M 450.073596 121.434237 
C 451.581213 121.434237 453.027285 120.835254 454.093331 119.769208 
C 455.159377 118.703162 455.758359 117.25709 455.758359 115.749474 
C 455.758359 114.241857 455.159377 112.795785 454.093331 111.729739 
C 453.027285 110.663693 451.581213 110.064711 450.073596 110.064711 
C 448.565979 110.064711 447.119908 110.663693 446.053862 111.729739 
C 444.987816 112.795785 444.388833 114.241857 444.388833 115.749474 
C 444.388833 117.25709 444.987816 118.703162 446.053862 119.769208 
C 447.119908 120.835254 448.565979 121.434237 450.073596 121.434237 
z
" style="fill:#6fa4ff;stroke:#6fa4ff;stroke-linejoin:miter;stroke-width:1.5;"/>
   </g>
   <g id="patch_20">
    <path clip-path="url(#p2fa52eaf07)" d="M 450.073596 187.319184 
C 453.591369 187.319184 456.965536 185.921558 459.452977 183.434118 
C 461.940418 180.946677 463.338044 177.572509 463.338044 174.054737 
C 463.338044 170.536964 461.940418 167.162797 459.452977 164.675356 
C 456.965536 162.187915 453.591369 160.790289 450.073596 160.790289 
C 446.555824 160.790289 443.181656 162.187915 440.694216 164.675356 
C 438.206775 167.162797 436.809149 170.536964 436.809149 174.054737 
C 436.809149 177.572509 438.206775 180.946677 440.694216 183.434118 
C 443.181656 185.921558 446.555824 187.319184 450.073596 187.319184 
z
" style="fill:#6fa4ff;stroke:#6fa4ff;stroke-linejoin:miter;stroke-width:2;"/>
   </g>
   <g id="patch_21">
    <path clip-path="url(#p2fa52eaf07)" d="M 431.124386 76.393421 
L 469.022807 76.393421 
L 469.022807 38.495 
L 431.124386 38.495 
z
" style="fill:#bb8bff;stroke:#bb8bff;stroke-linejoin:miter;stroke-width:1.5;"/>
   </g>
   <g id="patch_22">
    <path clip-path="url(#p2fa52eaf07)" d="M 489.429649 193.003947 
L 527.32807 193.003947 
L 527.32807 155.105526 
L 489.429649 155.105526 
z
" style="fill:#bb8bff;stroke:#bb8bff;stroke-linejoin:miter;stroke-width:1.5;"/>
   </g>
   <g id="patch_23">
    <path clip-path="url(#p2fa52eaf07)" d="M 489.429649 76.393421 
L 527.32807 76.393421 
L 527.32807 38.495 
L 489.429649 38.495 
z
" style="fill:#bb8bff;stroke:#bb8bff;stroke-linejoin:miter;stroke-width:1.5;"/>
   </g>
   <g id="patch_24">
    <path clip-path="url(#p2fa52eaf07)" d="M 566.684123 121.434237 
C 568.191739 121.434237 569.637811 120.835254 570.703857 119.769208 
C 571.769903 118.703162 572.368886 117.25709 572.368886 115.749474 
C 572.368886 114.241857 571.769903 112.795785 570.703857 111.729739 
C 569.637811 110.663693 568.191739 110.064711 566.684123 110.064711 
C 565.176506 110.064711 563.730434 110.663693 562.664388 111.729739 
C 561.598342 112.795785 560.999359 114.241857 560.999359 115.749474 
C 560.999359 117.25709 561.598342 118.703162 562.664388 119.769208 
C 563.730434 120.835254 565.176506 121.434237 566.684123 121.434237 
z
" style="fill:#6fa4ff;stroke:#6fa4ff;stroke-linejoin:miter;stroke-width:1.5;"/>
   </g>
   <g id="patch_25">
    <path clip-path="url(#p2fa52eaf07)" d="M 566.684123 187.319184 
C 570.201895 187.319184 573.576062 185.921558 576.063503 183.434118 
C 578.550944 180.946677 579.94857 177.572509 579.94857 174.054737 
C 579.94857 170.536964 578.550944 167.162797 576.063503 164.675356 
C 573.576062 162.187915 570.201895 160.790289 566.684123 160.790289 
C 563.16635 160.790289 559.792183 162.187915 557.304742 164.675356 
C 554.817301 167.162797 553.419675 170.536964 553.419675 174.054737 
C 553.419675 177.572509 554.817301 180.946677 557.304742 183.434118 
C 559.792183 185.921558 563.16635 187.319184 566.684123 187.319184 
z
" style="fill:#6fa4ff;stroke:#6fa4ff;stroke-linejoin:miter;stroke-width:2;"/>
   </g>
   <g id="patch_26">
    <path clip-path="url(#p2fa52eaf07)" d="M 606.040175 134.698684 
L 643.938596 134.698684 
L 643.938596 96.800263 
L 606.040175 96.800263 
z
" style="fill:#bb8bff;stroke:#bb8bff;stroke-linejoin:miter;stroke-width:1.5;"/>
   </g>
   <g id="patch_27">
    <path clip-path="url(#p2fa52eaf07)" d="M 606.040175 193.003947 
L 643.938596 193.003947 
L 643.938596 155.105526 
L 606.040175 155.105526 
z
" style="fill:#bb8bff;stroke:#bb8bff;stroke-linejoin:miter;stroke-width:1.5;"/>
   </g>
   <g id="patch_28">
    <path clip-path="url(#p2fa52eaf07)" d="M 664.345438 134.698684 
L 702.243859 134.698684 
L 702.243859 96.800263 
L 664.345438 96.800263 
z
" style="fill:#bb8bff;stroke:#bb8bff;stroke-linejoin:miter;stroke-width:1.5;"/>
   </g>
   <g id="patch_29">
    <path clip-path="url(#p2fa52eaf07)" d="M 664.345438 193.003947 
L 702.243859 193.003947 
L 702.243859 155.105526 
L 664.345438 155.105526 
z
" style="fill:#bb8bff;stroke:#bb8bff;stroke-linejoin:miter;stroke-width:1.5;"/>
   </g>
   <g id="patch_30">
    <path clip-path="url(#p2fa52eaf07)" d="M 741.599912 63.128974 
C 743.107529 63.128974 744.553601 62.529991 745.619647 61.463945 
C 746.685693 60.397899 747.284675 58.951827 747.284675 57.444211 
C 747.284675 55.936594 746.685693 54.490522 745.619647 53.424476 
C 744.553601 52.35843 743.107529 51.759447 741.599912 51.759447 
C 740.092295 51.759447 738.646224 52.35843 737.580177 53.424476 
C 736.514131 54.490522 735.915149 55.936594 735.915149 57.444211 
C 735.915149 58.951827 736.514131 60.397899 737.580177 61.463945 
C 738.646224 62.529991 740.092295 63.128974 741.599912 63.128974 
z
" style="fill:#6fa4ff;stroke:#6fa4ff;stroke-linejoin:miter;stroke-width:1.5;"/>
   </g>
   <g id="patch_31">
    <path clip-path="url(#p2fa52eaf07)" d="M 741.599912 121.434237 
C 743.107529 121.434237 744.553601 120.835254 745.619647 119.769208 
C 746.685693 118.703162 747.284675 117.25709 747.284675 115.749474 
C 747.284675 114.241857 746.685693 112.795785 745.619647 111.729739 
C 744.553601 110.663693 743.107529 110.064711 741.599912 110.064711 
C 740.092295 110.064711 738.646224 110.663693 737.580177 111.729739 
C 736.514131 112.795785 735.915149 114.241857 735.915149 115.749474 
C 735.915149 117.25709 736.514131 118.703162 737.580177 119.769208 
C 738.646224 120.835254 740.092295 121.434237 741.599912 121.434237 
z
" style="fill:#6fa4ff;stroke:#6fa4ff;stroke-linejoin:miter;stroke-width:1.5;"/>
   </g>
   <g id="patch_32">
    <path clip-path="url(#p2fa52eaf07)" d="M 799.905175 63.128974 
C 801.412792 63.128974 802.858864 62.529991 803.92491 61.463945 
C 804.990956 60.397899 805.589938 58.951827 805.589938 57.444211 
C 805.589938 55.936594 804.990956 54.490522 803.92491 53.424476 
C 802.858864 52.35843 801.412792 51.759447 799.905175 51.759447 
C 798.397558 51.759447 796.951487 52.35843 795.885441 53.424476 
C 794.819395 54.490522 794.220412 55.936594 794.220412 57.444211 
C 794.220412 58.951827 794.819395 60.397899 795.885441 61.463945 
C 796.951487 62.529991 798.397558 63.128974 799.905175 63.128974 
z
" style="fill:#6fa4ff;stroke:#6fa4ff;stroke-linejoin:miter;stroke-width:1.5;"/>
   </g>
   <g id="patch_33">
    <path clip-path="url(#p2fa52eaf07)" d="M 799.905175 179.7395 
C 801.412792 179.7395 802.858864 179.140517 803.92491 178.074471 
C 804.990956 177.008425 805.589938 175.562354 805.589938 174.054737 
C 805.589938 172.54712 804.990956 171.101048 803.92491 170.035002 
C 802.858864 168.968956 801.412792 168.369974 799.905175 168.369974 
C 798.397558 168.369974 796.951487 168.968956 795.885441 170.035002 
C 794.819395 171.101048 794.220412 172.54712 794.220412 174.054737 
C 794.220412 175.562354 794.819395 177.008425 795.885441 178.074471 
C 796.951487 179.140517 798.397558 179.7395 799.905175 179.7395 
z
" style="fill:#6fa4ff;stroke:#6fa4ff;stroke-linejoin:miter;stroke-width:1.5;"/>
   </g>
   <g id="patch_34">
    <path clip-path="url(#p2fa52eaf07)" d="M 858.210438 121.434237 
C 859.718055 121.434237 861.164127 120.835254 862.230173 119.769208 
C 863.296219 118.703162 863.895202 117.25709 863.895202 115.749474 
C 863.895202 114.241857 863.296219 112.795785 862.230173 111.729739 
C 861.164127 110.663693 859.718055 110.064711 858.210438 110.064711 
C 856.702822 110.064711 855.25675 110.663693 854.190704 111.729739 
C 853.124658 112.795785 852.525675 114.241857 852.525675 115.749474 
C 852.525675 117.25709 853.124658 118.703162 854.190704 119.769208 
C 855.25675 120.835254 856.702822 121.434237 858.210438 121.434237 
z
" style="fill:#6fa4ff;stroke:#6fa4ff;stroke-linejoin:miter;stroke-width:1.5;"/>
   </g>
   <g id="patch_35">
    <path clip-path="url(#p2fa52eaf07)" d="M 858.210438 179.7395 
C 859.718055 179.7395 861.164127 179.140517 862.230173 178.074471 
C 863.296219 177.008425 863.895202 175.562354 863.895202 174.054737 
C 863.895202 172.54712 863.296219 171.101048 862.230173 170.035002 
C 861.164127 168.968956 859.718055 168.369974 858.210438 168.369974 
C 856.702822 168.369974 855.25675 168.968956 854.190704 170.035002 
C 853.124658 171.101048 852.525675 172.54712 852.525675 174.054737 
C 852.525675 175.562354 853.124658 177.008425 854.190704 178.074471 
C 855.25675 179.140517 856.702822 179.7395 858.210438 179.7395 
z
" style="fill:#6fa4ff;stroke:#6fa4ff;stroke-linejoin:miter;stroke-width:1.5;"/>
   </g>
   <g id="patch_36">
    <path clip-path="url(#p2fa52eaf07)" d="M 839.261228 76.393421 
L 877.159649 76.393421 
L 877.159649 38.495 
L 839.261228 38.495 
z
" style="fill:#bb8bff;stroke:#bb8bff;stroke-linejoin:miter;stroke-width:1.5;"/>
   </g>
   <g id="patch_37">
    <path clip-path="url(#p2fa52eaf07)" d="M 897.566491 76.393421 
L 935.464912 76.393421 
L 935.464912 38.495 
L 897.566491 38.495 
z
" style="fill:#bb8bff;stroke:#bb8bff;stroke-linejoin:miter;stroke-width:1.5;"/>
   </g>
   <g id="patch_38">
    <path clip-path="url(#p2fa52eaf07)" d="M 897.566491 134.698684 
L 935.464912 134.698684 
L 935.464912 96.800263 
L 897.566491 96.800263 
z
" style="fill:#bb8bff;stroke:#bb8bff;stroke-linejoin:miter;stroke-width:1.5;"/>
   </g>
   <g id="patch_39">
    <path clip-path="url(#p2fa52eaf07)" d="M 897.566491 193.003947 
L 935.464912 193.003947 
L 935.464912 155.105526 
L 897.566491 155.105526 
z
" style="fill:#bb8bff;stroke:#bb8bff;stroke-linejoin:miter;stroke-width:1.5;"/>
   </g>
   <g id="patch_40">
    <path clip-path="url(#p2fa52eaf07)" d="M 955.871754 134.698684 
L 993.770175 134.698684 
L 993.770175 96.800263 
L 955.871754 96.800263 
z
" style="fill:#bb8bff;stroke:#bb8bff;stroke-linejoin:miter;stroke-width:1.5;"/>
   </g>
   <g id="patch_41">
    <path clip-path="url(#p2fa52eaf07)" d="M 955.871754 193.003947 
L 993.770175 193.003947 
L 993.770175 155.105526 
L 955.871754 155.105526 
z
" style="fill:#bb8bff;stroke:#bb8bff;stroke-linejoin:miter;stroke-width:1.5;"/>
   </g>
   <g id="patch_42">
    <path clip-path="url(#p2fa52eaf07)" d="M 1033.126228 63.128974 
C 1034.633845 63.128974 1036.079916 62.529991 1037.145962 61.463945 
C 1038.212008 60.397899 1038.810991 58.951827 1038.810991 57.444211 
C 1038.810991 55.936594 1038.212008 54.490522 1037.145962 53.424476 
C 1036.079916 52.35843 1034.633845 51.759447 1033.126228 51.759447 
C 1031.618611 51.759447 1030.172539 52.35843 1029.106493 53.424476 
C 1028.040447 54.490522 1027.441465 55.936594 1027.441465 57.444211 
C 1027.441465 58.951827 1028.040447 60.397899 1029.106493 61.463945 
C 1030.172539 62.529991 1031.618611 63.128974 1033.126228 63.128974 
z
" style="fill:#6fa4ff;stroke:#6fa4ff;stroke-linejoin:miter;stroke-width:1.5;"/>
   </g>
   <g id="patch_43">
    <path clip-path="url(#p2fa52eaf07)" d="M 1033.126228 121.434237 
C 1034.633845 121.434237 1036.079916 120.835254 1037.145962 119.769208 
C 1038.212008 118.703162 1038.810991 117.25709 1038.810991 115.749474 
C 1038.810991 114.241857 1038.212008 112.795785 1037.145962 111.729739 
C 1036.079916 110.663693 1034.633845 110.064711 1033.126228 110.064711 
C 1031.618611 110.064711 1030.172539 110.663693 1029.106493 111.729739 
C 1028.040447 112.795785 1027.441465 114.241857 1027.441465 115.749474 
C 1027.441465 117.25709 1028.040447 118.703162 1029.106493 119.769208 
C 1030.172539 120.835254 1031.618611 121.434237 1033.126228 121.434237 
z
" style="fill:#6fa4ff;stroke:#6fa4ff;stroke-linejoin:miter;stroke-width:1.5;"/>
   </g>
   <g id="patch_44">
    <path clip-path="url(#p2fa52eaf07)" d="M 1091.431491 63.128974 
C 1092.939108 63.128974 1094.38518 62.529991 1095.451226 61.463945 
C 1096.517272 60.397899 1097.116254 58.951827 1097.116254 57.444211 
C 1097.116254 55.936594 1096.517272 54.490522 1095.451226 53.424476 
C 1094.38518 52.35843 1092.939108 51.759447 1091.431491 51.759447 
C 1089.923874 51.759447 1088.477802 52.35843 1087.411756 53.424476 
C 1086.34571 54.490522 1085.746728 55.936594 1085.746728 57.444211 
C 1085.746728 58.951827 1086.34571 60.397899 1087.411756 61.463945 
C 1088.477802 62.529991 1089.923874 63.128974 1091.431491 63.128974 
z
" style="fill:#6fa4ff;stroke:#6fa4ff;stroke-linejoin:miter;stroke-width:1.5;"/>
   </g>
   <g id="patch_45">
    <path clip-path="url(#p2fa52eaf07)" d="M 1091.431491 179.7395 
C 1092.939108 179.7395 1094.38518 179.140517 1095.451226 178.074471 
C 1096.517272 177.008425 1097.116254 175.562354 1097.116254 174.054737 
C 1097.116254 172.54712 1096.517272 171.101048 1095.451226 170.035002 
C 1094.38518 168.968956 1092.939108 168.369974 1091.431491 168.369974 
C 1089.923874 168.369974 1088.477802 168.968956 1087.411756 170.035002 
C 1086.34571 171.101048 1085.746728 172.54712 1085.746728 174.054737 
C 1085.746728 175.562354 1086.34571 177.008425 1087.411756 178.074471 
C 1088.477802 179.140517 1089.923874 179.7395 1091.431491 179.7395 
z
" style="fill:#6fa4ff;stroke:#6fa4ff;stroke-linejoin:miter;stroke-width:1.5;"/>
   </g>
   <g id="patch_46">
    <path clip-path="url(#p2fa52eaf07)" d="M 1149.736754 121.434237 
C 1151.244371 121.434237 1152.690443 120.835254 1153.756489 119.769208 
C 1154.822535 118.703162 1155.421517 117.25709 1155.421517 115.749474 
C 1155.421517 114.241857 1154.822535 112.795785 1153.756489 111.729739 
C 1152.690443 110.663693 1151.244371 110.064711 1149.736754 110.064711 
C 1148.229137 110.064711 1146.783066 110.663693 1145.71702 111.729739 
C 1144.650974 112.795785 1144.051991 114.241857 1144.051991 115.749474 
C 1144.051991 117.25709 1144.650974 118.703162 1145.71702 119.769208 
C 1146.783066 120.835254 1148.229137 121.434237 1149.736754 121.434237 
z
" style="fill:#6fa4ff;stroke:#6fa4ff;stroke-linejoin:miter;stroke-width:1.5;"/>
   </g>
   <g id="patch_47">
    <path clip-path="url(#p2fa52eaf07)" d="M 1149.736754 179.7395 
C 1151.244371 179.7395 1152.690443 179.140517 1153.756489 178.074471 
C 1154.822535 177.008425 1155.421517 175.562354 1155.421517 174.054737 
C 1155.421517 172.54712 1154.822535 171.101048 1153.756489 170.035002 
C 1152.690443 168.968956 1151.244371 168.369974 1149.736754 168.369974 
C 1148.229137 168.369974 1146.783066 168.968956 1145.71702 170.035002 
C 1144.650974 171.101048 1144.051991 172.54712 1144.051991 174.054737 
C 1144.051991 175.562354 1144.650974 177.008425 1145.71702 178.074471 
C 1146.783066 179.140517 1148.229137 179.7395 1149.736754 179.7395 
z
" style="fill:#6fa4ff;stroke:#6fa4ff;stroke-linejoin:miter;stroke-width:1.5;"/>
   </g>
   <g id="patch_48">
    <path clip-path="url(#p2fa52eaf07)" d="M 1130.787544 76.393421 
L 1168.685965 76.393421 
L 1168.685965 38.495 
L 1130.787544 38.495 
z
" style="fill:#bb8bff;stroke:#bb8bff;stroke-linejoin:miter;stroke-width:1.5;"/>
   </g>
   <g id="patch_49">
    <path clip-path="url(#p2fa52eaf07)" d="M 1189.092807 76.393421 
L 1226.991228 76.393421 
L 1226.991228 38.495 
L 1189.092807 38.495 
z
" style="fill:#bb8bff;stroke:#bb8bff;stroke-linejoin:miter;stroke-width:1.5;"/>
   </g>
   <g id="patch_50">
    <path clip-path="url(#p2fa52eaf07)" d="M 1189.092807 134.698684 
L 1226.991228 134.698684 
L 1226.991228 96.800263 
L 1189.092807 96.800263 
z
" style="fill:#bb8bff;stroke:#bb8bff;stroke-linejoin:miter;stroke-width:1.5;"/>
   </g>
   <g id="patch_51">
    <path clip-path="url(#p2fa52eaf07)" d="M 1189.092807 193.003947 
L 1226.991228 193.003947 
L 1226.991228 155.105526 
L 1189.092807 155.105526 
z
" style="fill:#bb8bff;stroke:#bb8bff;stroke-linejoin:miter;stroke-width:1.5;"/>
   </g>
   <g id="patch_52">
    <path clip-path="url(#p2fa52eaf07)" d="M 1247.39807 134.698684 
L 1285.296491 134.698684 
L 1285.296491 96.800263 
L 1247.39807 96.800263 
z
" style="fill:#bb8bff;stroke:#bb8bff;stroke-linejoin:miter;stroke-width:1.5;"/>
   </g>
   <g id="patch_53">
    <path clip-path="url(#p2fa52eaf07)" d="M 1247.39807 193.003947 
L 1285.296491 193.003947 
L 1285.296491 155.105526 
L 1247.39807 155.105526 
z
" style="fill:#bb8bff;stroke:#bb8bff;stroke-linejoin:miter;stroke-width:1.5;"/>
   </g>
   <g id="patch_54">
    <path clip-path="url(#p2fa52eaf07)" d="M 1324.652544 63.128974 
C 1326.16016 63.128974 1327.606232 62.529991 1328.672278 61.463945 
C 1329.738324 60.397899 1330.337307 58.951827 1330.337307 57.444211 
C 1330.337307 55.936594 1329.738324 54.490522 1328.672278 53.424476 
C 1327.606232 52.35843 1326.16016 51.759447 1324.652544 51.759447 
C 1323.144927 51.759447 1321.698855 52.35843 1320.632809 53.424476 
C 1319.566763 54.490522 1318.96778 55.936594 1318.96778 57.444211 
C 1318.96778 58.951827 1319.566763 60.397899 1320.632809 61.463945 
C 1321.698855 62.529991 1323.144927 63.128974 1324.652544 63.128974 
z
" style="fill:#6fa4ff;stroke:#6fa4ff;stroke-linejoin:miter;stroke-width:1.5;"/>
   </g>
   <g id="patch_55">
    <path clip-path="url(#p2fa52eaf07)" d="M 1324.652544 121.434237 
C 1326.16016 121.434237 1327.606232 120.835254 1328.672278 119.769208 
C 1329.738324 118.703162 1330.337307 117.25709 1330.337307 115.749474 
C 1330.337307 114.241857 1329.738324 112.795785 1328.672278 111.729739 
C 1327.606232 110.663693 1326.16016 110.064711 1324.652544 110.064711 
C 1323.144927 110.064711 1321.698855 110.663693 1320.632809 111.729739 
C 1319.566763 112.795785 1318.96778 114.241857 1318.96778 115.749474 
C 1318.96778 117.25709 1319.566763 118.703162 1320.632809 119.769208 
C 1321.698855 120.835254 1323.144927 121.434237 1324.652544 121.434237 
z
" style="fill:#6fa4ff;stroke:#6fa4ff;stroke-linejoin:miter;stroke-width:1.5;"/>
   </g>
   <g id="patch_56">
    <path clip-path="url(#p2fa52eaf07)" d="M 1382.957807 63.128974 
C 1384.465424 63.128974 1385.911495 62.529991 1386.977541 61.463945 
C 1388.043587 60.397899 1388.64257 58.951827 1388.64257 57.444211 
C 1388.64257 55.936594 1388.043587 54.490522 1386.977541 53.424476 
C 1385.911495 52.35843 1384.465424 51.759447 1382.957807 51.759447 
C 1381.45019 51.759447 1380.004118 52.35843 1378.938072 53.424476 
C 1377.872026 54.490522 1377.273044 55.936594 1377.273044 57.444211 
C 1377.273044 58.951827 1377.872026 60.397899 1378.938072 61.463945 
C 1380.004118 62.529991 1381.45019 63.128974 1382.957807 63.128974 
z
" style="fill:#6fa4ff;stroke:#6fa4ff;stroke-linejoin:miter;stroke-width:1.5;"/>
   </g>
   <g id="patch_57">
    <path clip-path="url(#p2fa52eaf07)" d="M 1382.957807 179.7395 
C 1384.465424 179.7395 1385.911495 179.140517 1386.977541 178.074471 
C 1388.043587 177.008425 1388.64257 175.562354 1388.64257 174.054737 
C 1388.64257 172.54712 1388.043587 171.101048 1386.977541 170.035002 
C 1385.911495 168.968956 1384.465424 168.369974 1382.957807 168.369974 
C 1381.45019 168.369974 1380.004118 168.968956 1378.938072 170.035002 
C 1377.872026 171.101048 1377.273044 172.54712 1377.273044 174.054737 
C 1377.273044 175.562354 1377.872026 177.008425 1378.938072 178.074471 
C 1380.004118 179.140517 1381.45019 179.7395 1382.957807 179.7395 
z
" style="fill:#6fa4ff;stroke:#6fa4ff;stroke-linejoin:miter;stroke-width:1.5;"/>
   </g>
   <g id="patch_58">
    <path clip-path="url(#p2fa52eaf07)" d="M 1441.26307 121.434237 
C 1442.770687 121.434237 1444.216758 120.835254 1445.282805 119.769208 
C 1446.348851 118.703162 1446.947833 117.25709 1446.947833 115.749474 
C 1446.947833 114.241857 1446.348851 112.795785 1445.282805 111.729739 
C 1444.216758 110.663693 1442.770687 110.064711 1441.26307 110.064711 
C 1439.755453 110.064711 1438.309381 110.663693 1437.243335 111.729739 
C 1436.177289 112.795785 1435.578307 114.241857 1435.578307 115.749474 
C 1435.578307 117.25709 1436.177289 118.703162 1437.243335 119.769208 
C 1438.309381 120.835254 1439.755453 121.434237 1441.26307 121.434237 
z
" style="fill:#6fa4ff;stroke:#6fa4ff;stroke-linejoin:miter;stroke-width:1.5;"/>
   </g>
   <g id="patch_59">
    <path clip-path="url(#p2fa52eaf07)" d="M 1441.26307 179.7395 
C 1442.770687 179.7395 1444.216758 179.140517 1445.282805 178.074471 
C 1446.348851 177.008425 1446.947833 175.562354 1446.947833 174.054737 
C 1446.947833 172.54712 1446.348851 171.101048 1445.282805 170.035002 
C 1444.216758 168.968956 1442.770687 168.369974 1441.26307 168.369974 
C 1439.755453 168.369974 1438.309381 168.968956 1437.243335 170.035002 
C 1436.177289 171.101048 1435.578307 172.54712 1435.578307 174.054737 
C 1435.578307 175.562354 1436.177289 177.008425 1437.243335 178.074471 
C 1438.309381 179.140517 1439.755453 179.7395 1441.26307 179.7395 
z
" style="fill:#6fa4ff;stroke:#6fa4ff;stroke-linejoin:miter;stroke-width:1.5;"/>
   </g>
   <g id="patch_60">
    <path clip-path="url(#p2fa52eaf07)" d="M 1422.313859 76.393421 
L 1460.21228 76.393421 
L 1460.21228 38.495 
L 1422.313859 38.495 
z
" style="fill:#bb8bff;stroke:#bb8bff;stroke-linejoin:miter;stroke-width:1.5;"/>
   </g>
   <g id="patch_61">
    <path clip-path="url(#p2fa52eaf07)" d="M 1480.619123 76.393421 
L 1518.517544 76.393421 
L 1518.517544 38.495 
L 1480.619123 38.495 
z
" style="fill:#bb8bff;stroke:#bb8bff;stroke-linejoin:miter;stroke-width:1.5;"/>
   </g>
   <g id="patch_62">
    <path clip-path="url(#p2fa52eaf07)" d="M 1480.619123 134.698684 
L 1518.517544 134.698684 
L 1518.517544 96.800263 
L 1480.619123 96.800263 
z
" style="fill:#bb8bff;stroke:#bb8bff;stroke-linejoin:miter;stroke-width:1.5;"/>
   </g>
   <g id="patch_63">
    <path clip-path="url(#p2fa52eaf07)" d="M 1480.619123 193.003947 
L 1518.517544 193.003947 
L 1518.517544 155.105526 
L 1480.619123 155.105526 
z
" style="fill:#bb8bff;stroke:#bb8bff;stroke-linejoin:miter;stroke-width:1.5;"/>
   </g>
   <g id="patch_64">
    <path clip-path="url(#p2fa52eaf07)" d="M 1538.924386 134.698684 
L 1576.822807 134.698684 
L 1576.822807 96.800263 
L 1538.924386 96.800263 
z
" style="fill:#bb8bff;stroke:#bb8bff;stroke-linejoin:miter;stroke-width:1.5;"/>
   </g>
   <g id="patch_65">
    <path clip-path="url(#p2fa52eaf07)" d="M 1538.924386 193.003947 
L 1576.822807 193.003947 
L 1576.822807 155.105526 
L 1538.924386 155.105526 
z
" style="fill:#bb8bff;stroke:#bb8bff;stroke-linejoin:miter;stroke-width:1.5;"/>
   </g>
   <g id="patch_66">
    <path clip-path="url(#p2fa52eaf07)" d="M 158.54728 412.960553 
C 160.054897 412.960553 161.500969 412.36157 162.567015 411.295524 
C 163.633061 410.229478 164.232044 408.783406 164.232044 407.275789 
C 164.232044 405.768173 163.633061 404.322101 162.567015 403.256055 
C 161.500969 402.190009 160.054897 401.591026 158.54728 401.591026 
C 157.039664 401.591026 155.593592 402.190009 154.527546 403.256055 
C 153.4615 404.322101 152.862517 405.768173 152.862517 407.275789 
C 152.862517 408.783406 153.4615 410.229478 154.527546 411.295524 
C 155.593592 412.36157 157.039664 412.960553 158.54728 412.960553 
z
" style="fill:#6fa4ff;stroke:#6fa4ff;stroke-linejoin:miter;stroke-width:1.5;"/>
   </g>
   <g id="patch_67">
    <path clip-path="url(#p2fa52eaf07)" d="M 158.54728 471.265816 
C 160.054897 471.265816 161.500969 470.666833 162.567015 469.600787 
C 163.633061 468.534741 164.232044 467.088669 164.232044 465.581053 
C 164.232044 464.073436 163.633061 462.627364 162.567015 461.561318 
C 161.500969 460.495272 160.054897 459.896289 158.54728 459.896289 
C 157.039664 459.896289 155.593592 460.495272 154.527546 461.561318 
C 153.4615 462.627364 152.862517 464.073436 152.862517 465.581053 
C 152.862517 467.088669 153.4615 468.534741 154.527546 469.600787 
C 155.593592 470.666833 157.039664 471.265816 158.54728 471.265816 
z
" style="fill:#6fa4ff;stroke:#6fa4ff;stroke-linejoin:miter;stroke-width:1.5;"/>
   </g>
   <g id="patch_68">
    <path clip-path="url(#p2fa52eaf07)" d="M 216.852544 412.960553 
C 218.36016 412.960553 219.806232 412.36157 220.872278 411.295524 
C 221.938324 410.229478 222.537307 408.783406 222.537307 407.275789 
C 222.537307 405.768173 221.938324 404.322101 220.872278 403.256055 
C 219.806232 402.190009 218.36016 401.591026 216.852544 401.591026 
C 215.344927 401.591026 213.898855 402.190009 212.832809 403.256055 
C 211.766763 404.322101 211.16778 405.768173 211.16778 407.275789 
C 211.16778 408.783406 211.766763 410.229478 212.832809 411.295524 
C 213.898855 412.36157 215.344927 412.960553 216.852544 412.960553 
z
" style="fill:#6fa4ff;stroke:#6fa4ff;stroke-linejoin:miter;stroke-width:1.5;"/>
   </g>
   <g id="patch_69">
    <path clip-path="url(#p2fa52eaf07)" d="M 216.852544 529.571079 
C 218.36016 529.571079 219.806232 528.972096 220.872278 527.90605 
C 221.938324 526.840004 222.537307 525.393933 222.537307 523.886316 
C 222.537307 522.378699 221.938324 520.932627 220.872278 519.866581 
C 219.806232 518.800535 218.36016 518.201553 216.852544 518.201553 
C 215.344927 518.201553 213.898855 518.800535 212.832809 519.866581 
C 211.766763 520.932627 211.16778 522.378699 211.16778 523.886316 
C 211.16778 525.393933 211.766763 526.840004 212.832809 527.90605 
C 213.898855 528.972096 215.344927 529.571079 216.852544 529.571079 
z
" style="fill:#6fa4ff;stroke:#6fa4ff;stroke-linejoin:miter;stroke-width:1.5;"/>
   </g>
   <g id="patch_70">
    <path clip-path="url(#p2fa52eaf07)" d="M 275.157807 471.265816 
C 276.665424 471.265816 278.111495 470.666833 279.177541 469.600787 
C 280.243587 468.534741 280.84257 467.088669 280.84257 465.581053 
C 280.84257 464.073436 280.243587 462.627364 279.177541 461.561318 
C 278.111495 460.495272 276.665424 459.896289 275.157807 459.896289 
C 273.65019 459.896289 272.204118 460.495272 271.138072 461.561318 
C 270.072026 462.627364 269.473044 464.073436 269.473044 465.581053 
C 269.473044 467.088669 270.072026 468.534741 271.138072 469.600787 
C 272.204118 470.666833 273.65019 471.265816 275.157807 471.265816 
z
" style="fill:#6fa4ff;stroke:#6fa4ff;stroke-linejoin:miter;stroke-width:1.5;"/>
   </g>
   <g id="patch_71">
    <path clip-path="url(#p2fa52eaf07)" d="M 275.157807 529.571079 
C 276.665424 529.571079 278.111495 528.972096 279.177541 527.90605 
C 280.243587 526.840004 280.84257 525.393933 280.84257 523.886316 
C 280.84257 522.378699 280.243587 520.932627 279.177541 519.866581 
C 278.111495 518.800535 276.665424 518.201553 275.157807 518.201553 
C 273.65019 518.201553 272.204118 518.800535 271.138072 519.866581 
C 270.072026 520.932627 269.473044 522.378699 269.473044 523.886316 
C 269.473044 525.393933 270.072026 526.840004 271.138072 527.90605 
C 272.204118 528.972096 273.65019 529.571079 275.157807 529.571079 
z
" style="fill:#6fa4ff;stroke:#6fa4ff;stroke-linejoin:miter;stroke-width:1.5;"/>
   </g>
   <g id="patch_72">
    <path clip-path="url(#p2fa52eaf07)" d="M 372.819123 426.225 
L 410.717544 426.225 
L 410.717544 388.326579 
L 372.819123 388.326579 
z
" style="stroke:#000000;stroke-linejoin:miter;stroke-width:1.5;"/>
   </g>
   <g id="patch_73">
    <path clip-path="url(#p2fa52eaf07)" d="M 405.03278 412.960553 
C 405.03278 409.443952 403.634326 406.067784 401.147714 403.581172 
C 398.661101 401.09456 395.284934 399.696105 391.768333 399.696105 
C 388.251732 399.696105 384.875565 401.09456 382.388952 403.581172 
C 379.90234 406.067784 378.503886 409.443952 378.503886 412.960553 
" style="fill:none;stroke:#ffffff;stroke-linejoin:miter;stroke-width:2;"/>
   </g>
   <g id="patch_74">
    <path clip-path="url(#p2fa52eaf07)" d="M 431.124386 484.530263 
L 469.022807 484.530263 
L 469.022807 446.631842 
L 431.124386 446.631842 
z
" style="stroke:#000000;stroke-linejoin:miter;stroke-width:1.5;"/>
   </g>
   <g id="patch_75">
    <path clip-path="url(#p2fa52eaf07)" d="M 463.338044 471.265816 
C 463.338044 467.749215 461.939589 464.373047 459.452977 461.886435 
C 456.966365 459.399823 453.590197 458.001368 450.073596 458.001368 
C 446.556995 458.001368 443.180828 459.399823 440.694216 461.886435 
C 438.207603 464.373047 436.809149 467.749215 436.809149 471.265816 
" style="fill:none;stroke:#ffffff;stroke-linejoin:miter;stroke-width:2;"/>
   </g>
   <g id="patch_76">
    <path clip-path="url(#p2fa52eaf07)" d="M 489.429649 542.835526 
L 527.32807 542.835526 
L 527.32807 504.937105 
L 489.429649 504.937105 
z
" style="stroke:#000000;stroke-linejoin:miter;stroke-width:1.5;"/>
   </g>
   <g id="patch_77">
    <path clip-path="url(#p2fa52eaf07)" d="M 521.643307 529.571079 
C 521.643307 526.054478 520.244852 522.678311 517.75824 520.191698 
C 515.271628 517.705086 511.89546 516.306632 508.378859 516.306632 
C 504.862258 516.306632 501.486091 517.705086 498.999479 520.191698 
C 496.512866 522.678311 495.114412 526.054478 495.114412 529.571079 
" style="fill:none;stroke:#ffffff;stroke-linejoin:miter;stroke-width:2;"/>
   </g>
   <g id="line2d_43">
    <path clip-path="url(#p2fa52eaf07)" d="M 391.768333 412.960553 
L 405.03278 399.696105 
" style="fill:none;stroke:#ffffff;stroke-linecap:square;stroke-width:2;"/>
   </g>
   <g id="line2d_44">
    <path clip-path="url(#p2fa52eaf07)" d="M 450.073596 471.265816 
L 463.338044 458.001368 
" style="fill:none;stroke:#ffffff;stroke-linecap:square;stroke-width:2;"/>
   </g>
   <g id="line2d_45">
    <path clip-path="url(#p2fa52eaf07)" d="M 508.378859 529.571079 
L 521.643307 516.306632 
" style="fill:none;stroke:#ffffff;stroke-linecap:square;stroke-width:2;"/>
   </g>
   <g id="line2d_46">
    <path clip-path="url(#p2fa52eaf07)" d="M 275.157807 123.329158 
L 275.157807 108.169789 
" style="fill:none;stroke:#ffffff;stroke-linecap:square;stroke-width:2;"/>
   </g>
   <g id="line2d_47">
    <path clip-path="url(#p2fa52eaf07)" d="M 267.578123 115.749474 
L 282.737491 115.749474 
" style="fill:none;stroke:#ffffff;stroke-linecap:square;stroke-width:2;"/>
   </g>
   <g id="line2d_48">
    <path clip-path="url(#p2fa52eaf07)" d="M 391.768333 123.329158 
L 391.768333 108.169789 
" style="fill:none;stroke:#ffffff;stroke-linecap:square;stroke-width:2;"/>
   </g>
   <g id="line2d_49">
    <path clip-path="url(#p2fa52eaf07)" d="M 384.188649 115.749474 
L 399.348017 115.749474 
" style="fill:none;stroke:#ffffff;stroke-linecap:square;stroke-width:2;"/>
   </g>
   <g id="line2d_50">
    <path clip-path="url(#p2fa52eaf07)" d="M 450.073596 181.634421 
L 450.073596 166.475053 
" style="fill:none;stroke:#ffffff;stroke-linecap:square;stroke-width:2;"/>
   </g>
   <g id="line2d_51">
    <path clip-path="url(#p2fa52eaf07)" d="M 442.493912 174.054737 
L 457.65328 174.054737 
" style="fill:none;stroke:#ffffff;stroke-linecap:square;stroke-width:2;"/>
   </g>
   <g id="line2d_52">
    <path clip-path="url(#p2fa52eaf07)" d="M 566.684123 181.634421 
L 566.684123 166.475053 
" style="fill:none;stroke:#ffffff;stroke-linecap:square;stroke-width:2;"/>
   </g>
   <g id="line2d_53">
    <path clip-path="url(#p2fa52eaf07)" d="M 559.104438 174.054737 
L 574.263807 174.054737 
" style="fill:none;stroke:#ffffff;stroke-linecap:square;stroke-width:2;"/>
   </g>
   <g id="line2d_54">
    <path clip-path="url(#p2fa52eaf07)" d="M 333.46307 378.123158 
L 333.46307 436.428421 
" style="fill:none;stroke:#000000;stroke-dasharray:3.7,1.6;stroke-dashoffset:0;"/>
   </g>
   <g id="line2d_55">
    <path clip-path="url(#p2fa52eaf07)" d="M 333.46307 436.428421 
L 333.46307 494.733684 
" style="fill:none;stroke:#000000;stroke-dasharray:3.7,1.6;stroke-dashoffset:0;"/>
   </g>
   <g id="line2d_56">
    <path clip-path="url(#p2fa52eaf07)" d="M 333.46307 494.733684 
L 333.46307 553.038947 
" style="fill:none;stroke:#000000;stroke-dasharray:3.7,1.6;stroke-dashoffset:0;"/>
   </g>
   <g id="text_1">
    <g clip-path="url(#p2fa52eaf07)">
     <!-- H -->
     <g transform="translate(153.659077 61.031398)scale(0.13 -0.13)">
      <defs>
       <path d="M 628 4666 
L 1259 4666 
L 1259 2753 
L 3553 2753 
L 3553 4666 
L 4184 4666 
L 4184 0 
L 3553 0 
L 3553 2222 
L 1259 2222 
L 1259 0 
L 628 0 
L 628 4666 
z
" id="DejaVuSans-48" transform="scale(0.015625)"/>
      </defs>
      <use xlink:href="#DejaVuSans-48"/>
     </g>
    </g>
   </g>
   <g id="text_2">
    <g clip-path="url(#p2fa52eaf07)">
     <!-- H -->
     <g transform="translate(153.659077 119.336661)scale(0.13 -0.13)">
      <use xlink:href="#DejaVuSans-48"/>
     </g>
    </g>
   </g>
   <g id="text_3">
    <g clip-path="url(#p2fa52eaf07)">
     <!-- H -->
     <g transform="translate(153.659077 177.641924)scale(0.13 -0.13)">
      <use xlink:href="#DejaVuSans-48"/>
     </g>
    </g>
   </g>
   <g id="text_4">
    <g clip-path="url(#p2fa52eaf07)">
     <!-- $\mathrm{R}_\mathrm{Z}$ -->
     <g transform="translate(208.922544 55.346635)scale(0.13 -0.13)">
      <defs>
       <path d="M 2841 2188 
Q 3044 2119 3236 1894 
Q 3428 1669 3622 1275 
L 4263 0 
L 3584 0 
L 2988 1197 
Q 2756 1666 2539 1819 
Q 2322 1972 1947 1972 
L 1259 1972 
L 1259 0 
L 628 0 
L 628 4666 
L 2053 4666 
Q 2853 4666 3247 4331 
Q 3641 3997 3641 3322 
Q 3641 2881 3436 2590 
Q 3231 2300 2841 2188 
z
M 1259 4147 
L 1259 2491 
L 2053 2491 
Q 2509 2491 2742 2702 
Q 2975 2913 2975 3322 
Q 2975 3731 2742 3939 
Q 2509 4147 2053 4147 
L 1259 4147 
z
" id="DejaVuSans-52" transform="scale(0.015625)"/>
       <path d="M 359 4666 
L 4025 4666 
L 4025 4184 
L 1075 531 
L 4097 531 
L 4097 0 
L 288 0 
L 288 481 
L 3238 4134 
L 359 4134 
L 359 4666 
z
" id="DejaVuSans-5a" transform="scale(0.015625)"/>
      </defs>
      <use transform="translate(0 0.09375)" xlink:href="#DejaVuSans-52"/>
      <use transform="translate(70.439453 -16.3125)scale(0.7)" xlink:href="#DejaVuSans-5a"/>
     </g>
    </g>
   </g>
   <g id="text_5">
    <g clip-path="url(#p2fa52eaf07)">
     <!-- 0.848 -->
     <g transform="translate(205.401294 71.021237)scale(0.08 -0.08)">
      <defs>
       <path d="M 2034 4250 
Q 1547 4250 1301 3770 
Q 1056 3291 1056 2328 
Q 1056 1369 1301 889 
Q 1547 409 2034 409 
Q 2525 409 2770 889 
Q 3016 1369 3016 2328 
Q 3016 3291 2770 3770 
Q 2525 4250 2034 4250 
z
M 2034 4750 
Q 2819 4750 3233 4129 
Q 3647 3509 3647 2328 
Q 3647 1150 3233 529 
Q 2819 -91 2034 -91 
Q 1250 -91 836 529 
Q 422 1150 422 2328 
Q 422 3509 836 4129 
Q 1250 4750 2034 4750 
z
" id="DejaVuSans-30" transform="scale(0.015625)"/>
       <path d="M 684 794 
L 1344 794 
L 1344 0 
L 684 0 
L 684 794 
z
" id="DejaVuSans-2e" transform="scale(0.015625)"/>
       <path d="M 2034 2216 
Q 1584 2216 1326 1975 
Q 1069 1734 1069 1313 
Q 1069 891 1326 650 
Q 1584 409 2034 409 
Q 2484 409 2743 651 
Q 3003 894 3003 1313 
Q 3003 1734 2745 1975 
Q 2488 2216 2034 2216 
z
M 1403 2484 
Q 997 2584 770 2862 
Q 544 3141 544 3541 
Q 544 4100 942 4425 
Q 1341 4750 2034 4750 
Q 2731 4750 3128 4425 
Q 3525 4100 3525 3541 
Q 3525 3141 3298 2862 
Q 3072 2584 2669 2484 
Q 3125 2378 3379 2068 
Q 3634 1759 3634 1313 
Q 3634 634 3220 271 
Q 2806 -91 2034 -91 
Q 1263 -91 848 271 
Q 434 634 434 1313 
Q 434 1759 690 2068 
Q 947 2378 1403 2484 
z
M 1172 3481 
Q 1172 3119 1398 2916 
Q 1625 2713 2034 2713 
Q 2441 2713 2670 2916 
Q 2900 3119 2900 3481 
Q 2900 3844 2670 4047 
Q 2441 4250 2034 4250 
Q 1625 4250 1398 4047 
Q 1172 3844 1172 3481 
z
" id="DejaVuSans-38" transform="scale(0.015625)"/>
       <path d="M 2419 4116 
L 825 1625 
L 2419 1625 
L 2419 4116 
z
M 2253 4666 
L 3047 4666 
L 3047 1625 
L 3713 1625 
L 3713 1100 
L 3047 1100 
L 3047 0 
L 2419 0 
L 2419 1100 
L 313 1100 
L 313 1709 
L 2253 4666 
z
" id="DejaVuSans-34" transform="scale(0.015625)"/>
      </defs>
      <use xlink:href="#DejaVuSans-30"/>
      <use x="63.623047" xlink:href="#DejaVuSans-2e"/>
      <use x="95.410156" xlink:href="#DejaVuSans-38"/>
      <use x="159.033203" xlink:href="#DejaVuSans-34"/>
      <use x="222.65625" xlink:href="#DejaVuSans-38"/>
     </g>
    </g>
   </g>
   <g id="text_6">
    <g clip-path="url(#p2fa52eaf07)">
     <!-- $\mathrm{R}_\mathrm{Z}$ -->
     <g transform="translate(208.922544 113.651898)scale(0.13 -0.13)">
      <use transform="translate(0 0.09375)" xlink:href="#DejaVuSans-52"/>
      <use transform="translate(70.439453 -16.3125)scale(0.7)" xlink:href="#DejaVuSans-5a"/>
     </g>
    </g>
   </g>
   <g id="text_7">
    <g clip-path="url(#p2fa52eaf07)">
     <!-- 1.31 -->
     <g transform="translate(207.946294 129.3265)scale(0.08 -0.08)">
      <defs>
       <path d="M 794 531 
L 1825 531 
L 1825 4091 
L 703 3866 
L 703 4441 
L 1819 4666 
L 2450 4666 
L 2450 531 
L 3481 531 
L 3481 0 
L 794 0 
L 794 531 
z
" id="DejaVuSans-31" transform="scale(0.015625)"/>
       <path d="M 2597 2516 
Q 3050 2419 3304 2112 
Q 3559 1806 3559 1356 
Q 3559 666 3084 287 
Q 2609 -91 1734 -91 
Q 1441 -91 1130 -33 
Q 819 25 488 141 
L 488 750 
Q 750 597 1062 519 
Q 1375 441 1716 441 
Q 2309 441 2620 675 
Q 2931 909 2931 1356 
Q 2931 1769 2642 2001 
Q 2353 2234 1838 2234 
L 1294 2234 
L 1294 2753 
L 1863 2753 
Q 2328 2753 2575 2939 
Q 2822 3125 2822 3475 
Q 2822 3834 2567 4026 
Q 2313 4219 1838 4219 
Q 1578 4219 1281 4162 
Q 984 4106 628 3988 
L 628 4550 
Q 988 4650 1302 4700 
Q 1616 4750 1894 4750 
Q 2613 4750 3031 4423 
Q 3450 4097 3450 3541 
Q 3450 3153 3228 2886 
Q 3006 2619 2597 2516 
z
" id="DejaVuSans-33" transform="scale(0.015625)"/>
      </defs>
      <use xlink:href="#DejaVuSans-31"/>
      <use x="63.623047" xlink:href="#DejaVuSans-2e"/>
      <use x="95.410156" xlink:href="#DejaVuSans-33"/>
      <use x="159.033203" xlink:href="#DejaVuSans-31"/>
     </g>
    </g>
   </g>
   <g id="text_8">
    <g clip-path="url(#p2fa52eaf07)">
     <!-- $\mathrm{R}_\mathrm{Z}$ -->
     <g transform="translate(208.922544 171.957161)scale(0.13 -0.13)">
      <use transform="translate(0 0.09375)" xlink:href="#DejaVuSans-52"/>
      <use transform="translate(70.439453 -16.3125)scale(0.7)" xlink:href="#DejaVuSans-5a"/>
     </g>
    </g>
   </g>
   <g id="text_9">
    <g clip-path="url(#p2fa52eaf07)">
     <!-- 2.53 -->
     <g transform="translate(207.946294 187.631763)scale(0.08 -0.08)">
      <defs>
       <path d="M 1228 531 
L 3431 531 
L 3431 0 
L 469 0 
L 469 531 
Q 828 903 1448 1529 
Q 2069 2156 2228 2338 
Q 2531 2678 2651 2914 
Q 2772 3150 2772 3378 
Q 2772 3750 2511 3984 
Q 2250 4219 1831 4219 
Q 1534 4219 1204 4116 
Q 875 4013 500 3803 
L 500 4441 
Q 881 4594 1212 4672 
Q 1544 4750 1819 4750 
Q 2544 4750 2975 4387 
Q 3406 4025 3406 3419 
Q 3406 3131 3298 2873 
Q 3191 2616 2906 2266 
Q 2828 2175 2409 1742 
Q 1991 1309 1228 531 
z
" id="DejaVuSans-32" transform="scale(0.015625)"/>
       <path d="M 691 4666 
L 3169 4666 
L 3169 4134 
L 1269 4134 
L 1269 2991 
Q 1406 3038 1543 3061 
Q 1681 3084 1819 3084 
Q 2600 3084 3056 2656 
Q 3513 2228 3513 1497 
Q 3513 744 3044 326 
Q 2575 -91 1722 -91 
Q 1428 -91 1123 -41 
Q 819 9 494 109 
L 494 744 
Q 775 591 1075 516 
Q 1375 441 1709 441 
Q 2250 441 2565 725 
Q 2881 1009 2881 1497 
Q 2881 1984 2565 2268 
Q 2250 2553 1709 2553 
Q 1456 2553 1204 2497 
Q 953 2441 691 2322 
L 691 4666 
z
" id="DejaVuSans-35" transform="scale(0.015625)"/>
      </defs>
      <use xlink:href="#DejaVuSans-32"/>
      <use x="63.623047" xlink:href="#DejaVuSans-2e"/>
      <use x="95.410156" xlink:href="#DejaVuSans-35"/>
      <use x="159.033203" xlink:href="#DejaVuSans-33"/>
     </g>
    </g>
   </g>
   <g id="text_10">
    <g clip-path="url(#p2fa52eaf07)">
     <!-- $\mathrm{R}_\mathrm{Z}$ -->
     <g transform="translate(325.53307 113.651898)scale(0.13 -0.13)">
      <use transform="translate(0 0.09375)" xlink:href="#DejaVuSans-52"/>
      <use transform="translate(70.439453 -16.3125)scale(0.7)" xlink:href="#DejaVuSans-5a"/>
     </g>
    </g>
   </g>
   <g id="text_11">
    <g clip-path="url(#p2fa52eaf07)">
     <!-- 2.01 -->
     <g transform="translate(324.55682 129.3265)scale(0.08 -0.08)">
      <use xlink:href="#DejaVuSans-32"/>
      <use x="63.623047" xlink:href="#DejaVuSans-2e"/>
      <use x="95.410156" xlink:href="#DejaVuSans-30"/>
      <use x="159.033203" xlink:href="#DejaVuSans-31"/>
     </g>
    </g>
   </g>
   <g id="text_12">
    <g clip-path="url(#p2fa52eaf07)">
     <!-- $\mathrm{R}_\mathrm{Y}$ -->
     <g transform="translate(442.533596 55.346635)scale(0.13 -0.13)">
      <defs>
       <path d="M -13 4666 
L 666 4666 
L 1959 2747 
L 3244 4666 
L 3922 4666 
L 2272 2222 
L 2272 0 
L 1638 0 
L 1638 2222 
L -13 4666 
z
" id="DejaVuSans-59" transform="scale(0.015625)"/>
      </defs>
      <use transform="translate(0 0.09375)" xlink:href="#DejaVuSans-52"/>
      <use transform="translate(70.439453 -16.3125)scale(0.7)" xlink:href="#DejaVuSans-59"/>
     </g>
    </g>
   </g>
   <g id="text_13">
    <g clip-path="url(#p2fa52eaf07)">
     <!-- 1.32 -->
     <g transform="translate(441.167346 71.021237)scale(0.08 -0.08)">
      <use xlink:href="#DejaVuSans-31"/>
      <use x="63.623047" xlink:href="#DejaVuSans-2e"/>
      <use x="95.410156" xlink:href="#DejaVuSans-33"/>
      <use x="159.033203" xlink:href="#DejaVuSans-32"/>
     </g>
    </g>
   </g>
   <g id="text_14">
    <g clip-path="url(#p2fa52eaf07)">
     <!-- $\mathrm{R}_\mathrm{Z}$ -->
     <g transform="translate(500.448859 171.957161)scale(0.13 -0.13)">
      <use transform="translate(0 0.09375)" xlink:href="#DejaVuSans-52"/>
      <use transform="translate(70.439453 -16.3125)scale(0.7)" xlink:href="#DejaVuSans-5a"/>
     </g>
    </g>
   </g>
   <g id="text_15">
    <g clip-path="url(#p2fa52eaf07)">
     <!-- 3.13 -->
     <g transform="translate(499.472609 187.631763)scale(0.08 -0.08)">
      <use xlink:href="#DejaVuSans-33"/>
      <use x="63.623047" xlink:href="#DejaVuSans-2e"/>
      <use x="95.410156" xlink:href="#DejaVuSans-31"/>
      <use x="159.033203" xlink:href="#DejaVuSans-33"/>
     </g>
    </g>
   </g>
   <g id="text_16">
    <g clip-path="url(#p2fa52eaf07)">
     <!-- $\mathrm{R}_\mathrm{Z}$ -->
     <g transform="translate(500.448859 55.346635)scale(0.13 -0.13)">
      <use transform="translate(0 0.09375)" xlink:href="#DejaVuSans-52"/>
      <use transform="translate(70.439453 -16.3125)scale(0.7)" xlink:href="#DejaVuSans-5a"/>
     </g>
    </g>
   </g>
   <g id="text_17">
    <g clip-path="url(#p2fa52eaf07)">
     <!-- 1.01 -->
     <g transform="translate(499.472609 71.021237)scale(0.08 -0.08)">
      <use xlink:href="#DejaVuSans-31"/>
      <use x="63.623047" xlink:href="#DejaVuSans-2e"/>
      <use x="95.410156" xlink:href="#DejaVuSans-30"/>
      <use x="159.033203" xlink:href="#DejaVuSans-31"/>
     </g>
    </g>
   </g>
   <g id="text_18">
    <g clip-path="url(#p2fa52eaf07)">
     <!-- $\mathrm{R}_\mathrm{Y}$ -->
     <g transform="translate(617.449386 113.651898)scale(0.13 -0.13)">
      <use transform="translate(0 0.09375)" xlink:href="#DejaVuSans-52"/>
      <use transform="translate(70.439453 -16.3125)scale(0.7)" xlink:href="#DejaVuSans-59"/>
     </g>
    </g>
   </g>
   <g id="text_19">
    <g clip-path="url(#p2fa52eaf07)">
     <!-- 2.23 -->
     <g transform="translate(616.083136 129.3265)scale(0.08 -0.08)">
      <use xlink:href="#DejaVuSans-32"/>
      <use x="63.623047" xlink:href="#DejaVuSans-2e"/>
      <use x="95.410156" xlink:href="#DejaVuSans-32"/>
      <use x="159.033203" xlink:href="#DejaVuSans-33"/>
     </g>
    </g>
   </g>
   <g id="text_20">
    <g clip-path="url(#p2fa52eaf07)">
     <!-- $\mathrm{R}_\mathrm{Y}$ -->
     <g transform="translate(617.449386 171.957161)scale(0.13 -0.13)">
      <use transform="translate(0 0.09375)" xlink:href="#DejaVuSans-52"/>
      <use transform="translate(70.439453 -16.3125)scale(0.7)" xlink:href="#DejaVuSans-59"/>
     </g>
    </g>
   </g>
   <g id="text_21">
    <g clip-path="url(#p2fa52eaf07)">
     <!-- 0.337 -->
     <g transform="translate(613.538136 187.631763)scale(0.08 -0.08)">
      <defs>
       <path d="M 525 4666 
L 3525 4666 
L 3525 4397 
L 1831 0 
L 1172 0 
L 2766 4134 
L 525 4134 
L 525 4666 
z
" id="DejaVuSans-37" transform="scale(0.015625)"/>
      </defs>
      <use xlink:href="#DejaVuSans-30"/>
      <use x="63.623047" xlink:href="#DejaVuSans-2e"/>
      <use x="95.410156" xlink:href="#DejaVuSans-33"/>
      <use x="159.033203" xlink:href="#DejaVuSans-33"/>
      <use x="222.65625" xlink:href="#DejaVuSans-37"/>
     </g>
    </g>
   </g>
   <g id="text_22">
    <g clip-path="url(#p2fa52eaf07)">
     <!-- $\mathrm{R}_\mathrm{Z}$ -->
     <g transform="translate(675.364649 113.651898)scale(0.13 -0.13)">
      <use transform="translate(0 0.09375)" xlink:href="#DejaVuSans-52"/>
      <use transform="translate(70.439453 -16.3125)scale(0.7)" xlink:href="#DejaVuSans-5a"/>
     </g>
    </g>
   </g>
   <g id="text_23">
    <g clip-path="url(#p2fa52eaf07)">
     <!-- 1.27 -->
     <g transform="translate(674.388399 129.3265)scale(0.08 -0.08)">
      <use xlink:href="#DejaVuSans-31"/>
      <use x="63.623047" xlink:href="#DejaVuSans-2e"/>
      <use x="95.410156" xlink:href="#DejaVuSans-32"/>
      <use x="159.033203" xlink:href="#DejaVuSans-37"/>
     </g>
    </g>
   </g>
   <g id="text_24">
    <g clip-path="url(#p2fa52eaf07)">
     <!-- $\mathrm{R}_\mathrm{Z}$ -->
     <g transform="translate(675.364649 171.957161)scale(0.13 -0.13)">
      <use transform="translate(0 0.09375)" xlink:href="#DejaVuSans-52"/>
      <use transform="translate(70.439453 -16.3125)scale(0.7)" xlink:href="#DejaVuSans-5a"/>
     </g>
    </g>
   </g>
   <g id="text_25">
    <g clip-path="url(#p2fa52eaf07)">
     <!-- 1.07 -->
     <g transform="translate(674.388399 187.631763)scale(0.08 -0.08)">
      <use xlink:href="#DejaVuSans-31"/>
      <use x="63.623047" xlink:href="#DejaVuSans-2e"/>
      <use x="95.410156" xlink:href="#DejaVuSans-30"/>
      <use x="159.033203" xlink:href="#DejaVuSans-37"/>
     </g>
    </g>
   </g>
   <g id="text_26">
    <g clip-path="url(#p2fa52eaf07)">
     <!-- $\mathrm{R}_\mathrm{Y}$ -->
     <g transform="translate(850.670438 55.346635)scale(0.13 -0.13)">
      <use transform="translate(0 0.09375)" xlink:href="#DejaVuSans-52"/>
      <use transform="translate(70.439453 -16.3125)scale(0.7)" xlink:href="#DejaVuSans-59"/>
     </g>
    </g>
   </g>
   <g id="text_27">
    <g clip-path="url(#p2fa52eaf07)">
     <!-- 2.29 -->
     <g transform="translate(849.304188 71.021237)scale(0.08 -0.08)">
      <defs>
       <path d="M 703 97 
L 703 672 
Q 941 559 1184 500 
Q 1428 441 1663 441 
Q 2288 441 2617 861 
Q 2947 1281 2994 2138 
Q 2813 1869 2534 1725 
Q 2256 1581 1919 1581 
Q 1219 1581 811 2004 
Q 403 2428 403 3163 
Q 403 3881 828 4315 
Q 1253 4750 1959 4750 
Q 2769 4750 3195 4129 
Q 3622 3509 3622 2328 
Q 3622 1225 3098 567 
Q 2575 -91 1691 -91 
Q 1453 -91 1209 -44 
Q 966 3 703 97 
z
M 1959 2075 
Q 2384 2075 2632 2365 
Q 2881 2656 2881 3163 
Q 2881 3666 2632 3958 
Q 2384 4250 1959 4250 
Q 1534 4250 1286 3958 
Q 1038 3666 1038 3163 
Q 1038 2656 1286 2365 
Q 1534 2075 1959 2075 
z
" id="DejaVuSans-39" transform="scale(0.015625)"/>
      </defs>
      <use xlink:href="#DejaVuSans-32"/>
      <use x="63.623047" xlink:href="#DejaVuSans-2e"/>
      <use x="95.410156" xlink:href="#DejaVuSans-32"/>
      <use x="159.033203" xlink:href="#DejaVuSans-39"/>
     </g>
    </g>
   </g>
   <g id="text_28">
    <g clip-path="url(#p2fa52eaf07)">
     <!-- $\mathrm{R}_\mathrm{Z}$ -->
     <g transform="translate(908.585702 55.346635)scale(0.13 -0.13)">
      <use transform="translate(0 0.09375)" xlink:href="#DejaVuSans-52"/>
      <use transform="translate(70.439453 -16.3125)scale(0.7)" xlink:href="#DejaVuSans-5a"/>
     </g>
    </g>
   </g>
   <g id="text_29">
    <g clip-path="url(#p2fa52eaf07)">
     <!-- 1.48 -->
     <g transform="translate(907.609452 71.021237)scale(0.08 -0.08)">
      <use xlink:href="#DejaVuSans-31"/>
      <use x="63.623047" xlink:href="#DejaVuSans-2e"/>
      <use x="95.410156" xlink:href="#DejaVuSans-34"/>
      <use x="159.033203" xlink:href="#DejaVuSans-38"/>
     </g>
    </g>
   </g>
   <g id="text_30">
    <g clip-path="url(#p2fa52eaf07)">
     <!-- $\mathrm{R}_\mathrm{Y}$ -->
     <g transform="translate(908.975702 113.651898)scale(0.13 -0.13)">
      <use transform="translate(0 0.09375)" xlink:href="#DejaVuSans-52"/>
      <use transform="translate(70.439453 -16.3125)scale(0.7)" xlink:href="#DejaVuSans-59"/>
     </g>
    </g>
   </g>
   <g id="text_31">
    <g clip-path="url(#p2fa52eaf07)">
     <!-- 1.92 -->
     <g transform="translate(907.609452 129.3265)scale(0.08 -0.08)">
      <use xlink:href="#DejaVuSans-31"/>
      <use x="63.623047" xlink:href="#DejaVuSans-2e"/>
      <use x="95.410156" xlink:href="#DejaVuSans-39"/>
      <use x="159.033203" xlink:href="#DejaVuSans-32"/>
     </g>
    </g>
   </g>
   <g id="text_32">
    <g clip-path="url(#p2fa52eaf07)">
     <!-- $\mathrm{R}_\mathrm{Y}$ -->
     <g transform="translate(908.975702 171.957161)scale(0.13 -0.13)">
      <use transform="translate(0 0.09375)" xlink:href="#DejaVuSans-52"/>
      <use transform="translate(70.439453 -16.3125)scale(0.7)" xlink:href="#DejaVuSans-59"/>
     </g>
    </g>
   </g>
   <g id="text_33">
    <g clip-path="url(#p2fa52eaf07)">
     <!-- 1.79 -->
     <g transform="translate(907.609452 187.631763)scale(0.08 -0.08)">
      <use xlink:href="#DejaVuSans-31"/>
      <use x="63.623047" xlink:href="#DejaVuSans-2e"/>
      <use x="95.410156" xlink:href="#DejaVuSans-37"/>
      <use x="159.033203" xlink:href="#DejaVuSans-39"/>
     </g>
    </g>
   </g>
   <g id="text_34">
    <g clip-path="url(#p2fa52eaf07)">
     <!-- $\mathrm{R}_\mathrm{Z}$ -->
     <g transform="translate(966.890965 113.651898)scale(0.13 -0.13)">
      <use transform="translate(0 0.09375)" xlink:href="#DejaVuSans-52"/>
      <use transform="translate(70.439453 -16.3125)scale(0.7)" xlink:href="#DejaVuSans-5a"/>
     </g>
    </g>
   </g>
   <g id="text_35">
    <g clip-path="url(#p2fa52eaf07)">
     <!-- 2.42 -->
     <g transform="translate(965.914715 129.3265)scale(0.08 -0.08)">
      <use xlink:href="#DejaVuSans-32"/>
      <use x="63.623047" xlink:href="#DejaVuSans-2e"/>
      <use x="95.410156" xlink:href="#DejaVuSans-34"/>
      <use x="159.033203" xlink:href="#DejaVuSans-32"/>
     </g>
    </g>
   </g>
   <g id="text_36">
    <g clip-path="url(#p2fa52eaf07)">
     <!-- $\mathrm{R}_\mathrm{Z}$ -->
     <g transform="translate(966.890965 171.957161)scale(0.13 -0.13)">
      <use transform="translate(0 0.09375)" xlink:href="#DejaVuSans-52"/>
      <use transform="translate(70.439453 -16.3125)scale(0.7)" xlink:href="#DejaVuSans-5a"/>
     </g>
    </g>
   </g>
   <g id="text_37">
    <g clip-path="url(#p2fa52eaf07)">
     <!-- 1.37 -->
     <g transform="translate(965.914715 187.631763)scale(0.08 -0.08)">
      <use xlink:href="#DejaVuSans-31"/>
      <use x="63.623047" xlink:href="#DejaVuSans-2e"/>
      <use x="95.410156" xlink:href="#DejaVuSans-33"/>
      <use x="159.033203" xlink:href="#DejaVuSans-37"/>
     </g>
    </g>
   </g>
   <g id="text_38">
    <g clip-path="url(#p2fa52eaf07)">
     <!-- $\mathrm{R}_\mathrm{Y}$ -->
     <g transform="translate(1142.196754 55.346635)scale(0.13 -0.13)">
      <use transform="translate(0 0.09375)" xlink:href="#DejaVuSans-52"/>
      <use transform="translate(70.439453 -16.3125)scale(0.7)" xlink:href="#DejaVuSans-59"/>
     </g>
    </g>
   </g>
   <g id="text_39">
    <g clip-path="url(#p2fa52eaf07)">
     <!-- 0.596 -->
     <g transform="translate(1138.285504 71.021237)scale(0.08 -0.08)">
      <defs>
       <path d="M 2113 2584 
Q 1688 2584 1439 2293 
Q 1191 2003 1191 1497 
Q 1191 994 1439 701 
Q 1688 409 2113 409 
Q 2538 409 2786 701 
Q 3034 994 3034 1497 
Q 3034 2003 2786 2293 
Q 2538 2584 2113 2584 
z
M 3366 4563 
L 3366 3988 
Q 3128 4100 2886 4159 
Q 2644 4219 2406 4219 
Q 1781 4219 1451 3797 
Q 1122 3375 1075 2522 
Q 1259 2794 1537 2939 
Q 1816 3084 2150 3084 
Q 2853 3084 3261 2657 
Q 3669 2231 3669 1497 
Q 3669 778 3244 343 
Q 2819 -91 2113 -91 
Q 1303 -91 875 529 
Q 447 1150 447 2328 
Q 447 3434 972 4092 
Q 1497 4750 2381 4750 
Q 2619 4750 2861 4703 
Q 3103 4656 3366 4563 
z
" id="DejaVuSans-36" transform="scale(0.015625)"/>
      </defs>
      <use xlink:href="#DejaVuSans-30"/>
      <use x="63.623047" xlink:href="#DejaVuSans-2e"/>
      <use x="95.410156" xlink:href="#DejaVuSans-35"/>
      <use x="159.033203" xlink:href="#DejaVuSans-39"/>
      <use x="222.65625" xlink:href="#DejaVuSans-36"/>
     </g>
    </g>
   </g>
   <g id="text_40">
    <g clip-path="url(#p2fa52eaf07)">
     <!-- $\mathrm{R}_\mathrm{Z}$ -->
     <g transform="translate(1200.112017 55.346635)scale(0.13 -0.13)">
      <use transform="translate(0 0.09375)" xlink:href="#DejaVuSans-52"/>
      <use transform="translate(70.439453 -16.3125)scale(0.7)" xlink:href="#DejaVuSans-5a"/>
     </g>
    </g>
   </g>
   <g id="text_41">
    <g clip-path="url(#p2fa52eaf07)">
     <!-- 1.25 -->
     <g transform="translate(1199.135767 71.021237)scale(0.08 -0.08)">
      <use xlink:href="#DejaVuSans-31"/>
      <use x="63.623047" xlink:href="#DejaVuSans-2e"/>
      <use x="95.410156" xlink:href="#DejaVuSans-32"/>
      <use x="159.033203" xlink:href="#DejaVuSans-35"/>
     </g>
    </g>
   </g>
   <g id="text_42">
    <g clip-path="url(#p2fa52eaf07)">
     <!-- $\mathrm{R}_\mathrm{Y}$ -->
     <g transform="translate(1200.502017 113.651898)scale(0.13 -0.13)">
      <use transform="translate(0 0.09375)" xlink:href="#DejaVuSans-52"/>
      <use transform="translate(70.439453 -16.3125)scale(0.7)" xlink:href="#DejaVuSans-59"/>
     </g>
    </g>
   </g>
   <g id="text_43">
    <g clip-path="url(#p2fa52eaf07)">
     <!-- 2.27 -->
     <g transform="translate(1199.135767 129.3265)scale(0.08 -0.08)">
      <use xlink:href="#DejaVuSans-32"/>
      <use x="63.623047" xlink:href="#DejaVuSans-2e"/>
      <use x="95.410156" xlink:href="#DejaVuSans-32"/>
      <use x="159.033203" xlink:href="#DejaVuSans-37"/>
     </g>
    </g>
   </g>
   <g id="text_44">
    <g clip-path="url(#p2fa52eaf07)">
     <!-- $\mathrm{R}_\mathrm{Y}$ -->
     <g transform="translate(1200.502017 171.957161)scale(0.13 -0.13)">
      <use transform="translate(0 0.09375)" xlink:href="#DejaVuSans-52"/>
      <use transform="translate(70.439453 -16.3125)scale(0.7)" xlink:href="#DejaVuSans-59"/>
     </g>
    </g>
   </g>
   <g id="text_45">
    <g clip-path="url(#p2fa52eaf07)">
     <!-- 0.0261 -->
     <g transform="translate(1194.045767 187.631763)scale(0.08 -0.08)">
      <use xlink:href="#DejaVuSans-30"/>
      <use x="63.623047" xlink:href="#DejaVuSans-2e"/>
      <use x="95.410156" xlink:href="#DejaVuSans-30"/>
      <use x="159.033203" xlink:href="#DejaVuSans-32"/>
      <use x="222.65625" xlink:href="#DejaVuSans-36"/>
      <use x="286.279297" xlink:href="#DejaVuSans-31"/>
     </g>
    </g>
   </g>
   <g id="text_46">
    <g clip-path="url(#p2fa52eaf07)">
     <!-- $\mathrm{R}_\mathrm{Z}$ -->
     <g transform="translate(1258.41728 113.651898)scale(0.13 -0.13)">
      <use transform="translate(0 0.09375)" xlink:href="#DejaVuSans-52"/>
      <use transform="translate(70.439453 -16.3125)scale(0.7)" xlink:href="#DejaVuSans-5a"/>
     </g>
    </g>
   </g>
   <g id="text_47">
    <g clip-path="url(#p2fa52eaf07)">
     <!-- 2.4 -->
     <g transform="translate(1259.98603 129.3265)scale(0.08 -0.08)">
      <use xlink:href="#DejaVuSans-32"/>
      <use x="63.623047" xlink:href="#DejaVuSans-2e"/>
      <use x="95.410156" xlink:href="#DejaVuSans-34"/>
     </g>
    </g>
   </g>
   <g id="text_48">
    <g clip-path="url(#p2fa52eaf07)">
     <!-- $\mathrm{R}_\mathrm{Z}$ -->
     <g transform="translate(1258.41728 171.957161)scale(0.13 -0.13)">
      <use transform="translate(0 0.09375)" xlink:href="#DejaVuSans-52"/>
      <use transform="translate(70.439453 -16.3125)scale(0.7)" xlink:href="#DejaVuSans-5a"/>
     </g>
    </g>
   </g>
   <g id="text_49">
    <g clip-path="url(#p2fa52eaf07)">
     <!-- 1.81 -->
     <g transform="translate(1257.44103 187.631763)scale(0.08 -0.08)">
      <use xlink:href="#DejaVuSans-31"/>
      <use x="63.623047" xlink:href="#DejaVuSans-2e"/>
      <use x="95.410156" xlink:href="#DejaVuSans-38"/>
      <use x="159.033203" xlink:href="#DejaVuSans-31"/>
     </g>
    </g>
   </g>
   <g id="text_50">
    <g clip-path="url(#p2fa52eaf07)">
     <!-- $\mathrm{R}_\mathrm{Y}$ -->
     <g transform="translate(1433.72307 55.346635)scale(0.13 -0.13)">
      <use transform="translate(0 0.09375)" xlink:href="#DejaVuSans-52"/>
      <use transform="translate(70.439453 -16.3125)scale(0.7)" xlink:href="#DejaVuSans-59"/>
     </g>
    </g>
   </g>
   <g id="text_51">
    <g clip-path="url(#p2fa52eaf07)">
     <!-- 0.24 -->
     <g transform="translate(1432.35682 71.021237)scale(0.08 -0.08)">
      <use xlink:href="#DejaVuSans-30"/>
      <use x="63.623047" xlink:href="#DejaVuSans-2e"/>
      <use x="95.410156" xlink:href="#DejaVuSans-32"/>
      <use x="159.033203" xlink:href="#DejaVuSans-34"/>
     </g>
    </g>
   </g>
   <g id="text_52">
    <g clip-path="url(#p2fa52eaf07)">
     <!-- $\mathrm{R}_\mathrm{Z}$ -->
     <g transform="translate(1491.638333 55.346635)scale(0.13 -0.13)">
      <use transform="translate(0 0.09375)" xlink:href="#DejaVuSans-52"/>
      <use transform="translate(70.439453 -16.3125)scale(0.7)" xlink:href="#DejaVuSans-5a"/>
     </g>
    </g>
   </g>
   <g id="text_53">
    <g clip-path="url(#p2fa52eaf07)">
     <!-- 2.48 -->
     <g transform="translate(1490.662083 71.021237)scale(0.08 -0.08)">
      <use xlink:href="#DejaVuSans-32"/>
      <use x="63.623047" xlink:href="#DejaVuSans-2e"/>
      <use x="95.410156" xlink:href="#DejaVuSans-34"/>
      <use x="159.033203" xlink:href="#DejaVuSans-38"/>
     </g>
    </g>
   </g>
   <g id="text_54">
    <g clip-path="url(#p2fa52eaf07)">
     <!-- $\mathrm{R}_\mathrm{Y}$ -->
     <g transform="translate(1492.028333 113.651898)scale(0.13 -0.13)">
      <use transform="translate(0 0.09375)" xlink:href="#DejaVuSans-52"/>
      <use transform="translate(70.439453 -16.3125)scale(0.7)" xlink:href="#DejaVuSans-59"/>
     </g>
    </g>
   </g>
   <g id="text_55">
    <g clip-path="url(#p2fa52eaf07)">
     <!-- 2.46 -->
     <g transform="translate(1490.662083 129.3265)scale(0.08 -0.08)">
      <use xlink:href="#DejaVuSans-32"/>
      <use x="63.623047" xlink:href="#DejaVuSans-2e"/>
      <use x="95.410156" xlink:href="#DejaVuSans-34"/>
      <use x="159.033203" xlink:href="#DejaVuSans-36"/>
     </g>
    </g>
   </g>
   <g id="text_56">
    <g clip-path="url(#p2fa52eaf07)">
     <!-- $\mathrm{R}_\mathrm{Y}$ -->
     <g transform="translate(1492.028333 171.957161)scale(0.13 -0.13)">
      <use transform="translate(0 0.09375)" xlink:href="#DejaVuSans-52"/>
      <use transform="translate(70.439453 -16.3125)scale(0.7)" xlink:href="#DejaVuSans-59"/>
     </g>
    </g>
   </g>
   <g id="text_57">
    <g clip-path="url(#p2fa52eaf07)">
     <!-- 1.91 -->
     <g transform="translate(1490.662083 187.631763)scale(0.08 -0.08)">
      <use xlink:href="#DejaVuSans-31"/>
      <use x="63.623047" xlink:href="#DejaVuSans-2e"/>
      <use x="95.410156" xlink:href="#DejaVuSans-39"/>
      <use x="159.033203" xlink:href="#DejaVuSans-31"/>
     </g>
    </g>
   </g>
   <g id="text_58">
    <g clip-path="url(#p2fa52eaf07)">
     <!-- $\mathrm{R}_\mathrm{Z}$ -->
     <g transform="translate(1549.943596 113.651898)scale(0.13 -0.13)">
      <use transform="translate(0 0.09375)" xlink:href="#DejaVuSans-52"/>
      <use transform="translate(70.439453 -16.3125)scale(0.7)" xlink:href="#DejaVuSans-5a"/>
     </g>
    </g>
   </g>
   <g id="text_59">
    <g clip-path="url(#p2fa52eaf07)">
     <!-- 0.445 -->
     <g transform="translate(1546.422346 129.3265)scale(0.08 -0.08)">
      <use xlink:href="#DejaVuSans-30"/>
      <use x="63.623047" xlink:href="#DejaVuSans-2e"/>
      <use x="95.410156" xlink:href="#DejaVuSans-34"/>
      <use x="159.033203" xlink:href="#DejaVuSans-34"/>
      <use x="222.65625" xlink:href="#DejaVuSans-35"/>
     </g>
    </g>
   </g>
   <g id="text_60">
    <g clip-path="url(#p2fa52eaf07)">
     <!-- $\mathrm{R}_\mathrm{Z}$ -->
     <g transform="translate(1549.943596 171.957161)scale(0.13 -0.13)">
      <use transform="translate(0 0.09375)" xlink:href="#DejaVuSans-52"/>
      <use transform="translate(70.439453 -16.3125)scale(0.7)" xlink:href="#DejaVuSans-5a"/>
     </g>
    </g>
   </g>
   <g id="text_61">
    <g clip-path="url(#p2fa52eaf07)">
     <!-- 1.1 -->
     <g transform="translate(1551.512346 187.631763)scale(0.08 -0.08)">
      <use xlink:href="#DejaVuSans-31"/>
      <use x="63.623047" xlink:href="#DejaVuSans-2e"/>
      <use x="95.410156" xlink:href="#DejaVuSans-31"/>
     </g>
    </g>
   </g>
   <g id="text_62">
    <g clip-path="url(#p2fa52eaf07)">
     <!-- 0 -->
     <g transform="translate(406.344649 632.503441)scale(0.104 -0.104)">
      <use xlink:href="#DejaVuSans-30"/>
     </g>
    </g>
   </g>
   <g id="text_63">
    <g clip-path="url(#p2fa52eaf07)">
     <!-- 1 -->
     <g transform="translate(464.649912 632.503441)scale(0.104 -0.104)">
      <use xlink:href="#DejaVuSans-31"/>
     </g>
    </g>
   </g>
   <g id="text_64">
    <g clip-path="url(#p2fa52eaf07)">
     <!-- 2 -->
     <g transform="translate(522.955175 632.503441)scale(0.104 -0.104)">
      <use xlink:href="#DejaVuSans-32"/>
     </g>
    </g>
   </g>
   <g id="text_65">
    <g clip-path="url(#p2fa52eaf07)">
     <!-- ${q0}_{0}$ -->
     <g transform="translate(86.801386 61.895187)scale(0.1625 -0.1625)">
      <defs>
       <path d="M 2669 525 
Q 2438 222 2123 65 
Q 1809 -91 1428 -91 
Q 897 -91 595 267 
Q 294 625 294 1253 
Q 294 1759 480 2231 
Q 666 2703 1013 3078 
Q 1238 3322 1530 3453 
Q 1822 3584 2144 3584 
Q 2531 3584 2781 3431 
Q 3031 3278 3144 2969 
L 3244 3494 
L 3822 3494 
L 2888 -1319 
L 2309 -1319 
L 2669 525 
z
M 891 1338 
Q 891 875 1084 633 
Q 1278 391 1644 391 
Q 2188 391 2572 911 
Q 2956 1431 2956 2175 
Q 2956 2625 2757 2864 
Q 2559 3103 2188 3103 
Q 1916 3103 1684 2976 
Q 1453 2850 1281 2606 
Q 1100 2350 995 2006 
Q 891 1663 891 1338 
z
" id="DejaVuSans-Oblique-71" transform="scale(0.015625)"/>
      </defs>
      <use transform="translate(0 0.78125)" xlink:href="#DejaVuSans-Oblique-71"/>
      <use transform="translate(63.476562 0.78125)" xlink:href="#DejaVuSans-30"/>
      <use transform="translate(128.056641 -15.625)scale(0.7)" xlink:href="#DejaVuSans-30"/>
     </g>
    </g>
   </g>
   <g id="text_66">
    <g clip-path="url(#p2fa52eaf07)">
     <!-- ${q0}_{1}$ -->
     <g transform="translate(86.801386 120.20045)scale(0.1625 -0.1625)">
      <use transform="translate(0 0.78125)" xlink:href="#DejaVuSans-Oblique-71"/>
      <use transform="translate(63.476562 0.78125)" xlink:href="#DejaVuSans-30"/>
      <use transform="translate(128.056641 -15.625)scale(0.7)" xlink:href="#DejaVuSans-31"/>
     </g>
    </g>
   </g>
   <g id="text_67">
    <g clip-path="url(#p2fa52eaf07)">
     <!-- ${q0}_{2}$ -->
     <g transform="translate(86.801386 178.505713)scale(0.1625 -0.1625)">
      <use transform="translate(0 0.78125)" xlink:href="#DejaVuSans-Oblique-71"/>
      <use transform="translate(63.476562 0.78125)" xlink:href="#DejaVuSans-30"/>
      <use transform="translate(128.056641 -15.625)scale(0.7)" xlink:href="#DejaVuSans-32"/>
     </g>
    </g>
   </g>
   <g id="text_68">
    <g clip-path="url(#p2fa52eaf07)">
     <!-- 3 -->
     <g transform="translate(132.892965 224.366599)scale(0.104 -0.104)">
      <use xlink:href="#DejaVuSans-33"/>
     </g>
    </g>
   </g>
   <g id="text_69">
    <g clip-path="url(#p2fa52eaf07)">
     <!-- c0 -->
     <g transform="translate(96.127362 236.843984)scale(0.1625 -0.1625)">
      <defs>
       <path d="M 3122 3366 
L 3122 2828 
Q 2878 2963 2633 3030 
Q 2388 3097 2138 3097 
Q 1578 3097 1268 2742 
Q 959 2388 959 1747 
Q 959 1106 1268 751 
Q 1578 397 2138 397 
Q 2388 397 2633 464 
Q 2878 531 3122 666 
L 3122 134 
Q 2881 22 2623 -34 
Q 2366 -91 2075 -91 
Q 1284 -91 818 406 
Q 353 903 353 1747 
Q 353 2603 823 3093 
Q 1294 3584 2113 3584 
Q 2378 3584 2631 3529 
Q 2884 3475 3122 3366 
z
" id="DejaVuSans-63" transform="scale(0.015625)"/>
      </defs>
      <use xlink:href="#DejaVuSans-63"/>
      <use x="54.980469" xlink:href="#DejaVuSans-30"/>
     </g>
    </g>
   </g>
   <g id="text_70">
    <g clip-path="url(#p2fa52eaf07)">
     <!-- 3 -->
     <g transform="translate(132.892965 282.671862)scale(0.104 -0.104)">
      <use xlink:href="#DejaVuSans-33"/>
     </g>
    </g>
   </g>
   <g id="text_71">
    <g clip-path="url(#p2fa52eaf07)">
     <!-- meas -->
     <g transform="translate(71.150604 295.149248)scale(0.1625 -0.1625)">
      <defs>
       <path d="M 3328 2828 
Q 3544 3216 3844 3400 
Q 4144 3584 4550 3584 
Q 5097 3584 5394 3201 
Q 5691 2819 5691 2113 
L 5691 0 
L 5113 0 
L 5113 2094 
Q 5113 2597 4934 2840 
Q 4756 3084 4391 3084 
Q 3944 3084 3684 2787 
Q 3425 2491 3425 1978 
L 3425 0 
L 2847 0 
L 2847 2094 
Q 2847 2600 2669 2842 
Q 2491 3084 2119 3084 
Q 1678 3084 1418 2786 
Q 1159 2488 1159 1978 
L 1159 0 
L 581 0 
L 581 3500 
L 1159 3500 
L 1159 2956 
Q 1356 3278 1631 3431 
Q 1906 3584 2284 3584 
Q 2666 3584 2933 3390 
Q 3200 3197 3328 2828 
z
" id="DejaVuSans-6d" transform="scale(0.015625)"/>
       <path d="M 3597 1894 
L 3597 1613 
L 953 1613 
Q 991 1019 1311 708 
Q 1631 397 2203 397 
Q 2534 397 2845 478 
Q 3156 559 3463 722 
L 3463 178 
Q 3153 47 2828 -22 
Q 2503 -91 2169 -91 
Q 1331 -91 842 396 
Q 353 884 353 1716 
Q 353 2575 817 3079 
Q 1281 3584 2069 3584 
Q 2775 3584 3186 3129 
Q 3597 2675 3597 1894 
z
M 3022 2063 
Q 3016 2534 2758 2815 
Q 2500 3097 2075 3097 
Q 1594 3097 1305 2825 
Q 1016 2553 972 2059 
L 3022 2063 
z
" id="DejaVuSans-65" transform="scale(0.015625)"/>
       <path d="M 2194 1759 
Q 1497 1759 1228 1600 
Q 959 1441 959 1056 
Q 959 750 1161 570 
Q 1363 391 1709 391 
Q 2188 391 2477 730 
Q 2766 1069 2766 1631 
L 2766 1759 
L 2194 1759 
z
M 3341 1997 
L 3341 0 
L 2766 0 
L 2766 531 
Q 2569 213 2275 61 
Q 1981 -91 1556 -91 
Q 1019 -91 701 211 
Q 384 513 384 1019 
Q 384 1609 779 1909 
Q 1175 2209 1959 2209 
L 2766 2209 
L 2766 2266 
Q 2766 2663 2505 2880 
Q 2244 3097 1772 3097 
Q 1472 3097 1187 3025 
Q 903 2953 641 2809 
L 641 3341 
Q 956 3463 1253 3523 
Q 1550 3584 1831 3584 
Q 2591 3584 2966 3190 
Q 3341 2797 3341 1997 
z
" id="DejaVuSans-61" transform="scale(0.015625)"/>
       <path d="M 2834 3397 
L 2834 2853 
Q 2591 2978 2328 3040 
Q 2066 3103 1784 3103 
Q 1356 3103 1142 2972 
Q 928 2841 928 2578 
Q 928 2378 1081 2264 
Q 1234 2150 1697 2047 
L 1894 2003 
Q 2506 1872 2764 1633 
Q 3022 1394 3022 966 
Q 3022 478 2636 193 
Q 2250 -91 1575 -91 
Q 1294 -91 989 -36 
Q 684 19 347 128 
L 347 722 
Q 666 556 975 473 
Q 1284 391 1588 391 
Q 1994 391 2212 530 
Q 2431 669 2431 922 
Q 2431 1156 2273 1281 
Q 2116 1406 1581 1522 
L 1381 1569 
Q 847 1681 609 1914 
Q 372 2147 372 2553 
Q 372 3047 722 3315 
Q 1072 3584 1716 3584 
Q 2034 3584 2315 3537 
Q 2597 3491 2834 3397 
z
" id="DejaVuSans-73" transform="scale(0.015625)"/>
      </defs>
      <use xlink:href="#DejaVuSans-6d"/>
      <use x="97.412109" xlink:href="#DejaVuSans-65"/>
      <use x="158.935547" xlink:href="#DejaVuSans-61"/>
      <use x="220.214844" xlink:href="#DejaVuSans-73"/>
     </g>
    </g>
   </g>
   <g id="text_72">
    <g clip-path="url(#p2fa52eaf07)">
     <!-- ${q0}_{0}$ -->
     <g transform="translate(86.801386 411.726766)scale(0.1625 -0.1625)">
      <use transform="translate(0 0.78125)" xlink:href="#DejaVuSans-Oblique-71"/>
      <use transform="translate(63.476562 0.78125)" xlink:href="#DejaVuSans-30"/>
      <use transform="translate(128.056641 -15.625)scale(0.7)" xlink:href="#DejaVuSans-30"/>
     </g>
    </g>
   </g>
   <g id="text_73">
    <g clip-path="url(#p2fa52eaf07)">
     <!-- ${q0}_{1}$ -->
     <g transform="translate(86.801386 470.032029)scale(0.1625 -0.1625)">
      <use transform="translate(0 0.78125)" xlink:href="#DejaVuSans-Oblique-71"/>
      <use transform="translate(63.476562 0.78125)" xlink:href="#DejaVuSans-30"/>
      <use transform="translate(128.056641 -15.625)scale(0.7)" xlink:href="#DejaVuSans-31"/>
     </g>
    </g>
   </g>
   <g id="text_74">
    <g clip-path="url(#p2fa52eaf07)">
     <!-- ${q0}_{2}$ -->
     <g transform="translate(86.801386 528.337292)scale(0.1625 -0.1625)">
      <use transform="translate(0 0.78125)" xlink:href="#DejaVuSans-Oblique-71"/>
      <use transform="translate(63.476562 0.78125)" xlink:href="#DejaVuSans-30"/>
      <use transform="translate(128.056641 -15.625)scale(0.7)" xlink:href="#DejaVuSans-32"/>
     </g>
    </g>
   </g>
   <g id="text_75">
    <g clip-path="url(#p2fa52eaf07)">
     <!-- 3 -->
     <g transform="translate(132.892965 574.198178)scale(0.104 -0.104)">
      <use xlink:href="#DejaVuSans-33"/>
     </g>
    </g>
   </g>
   <g id="text_76">
    <g clip-path="url(#p2fa52eaf07)">
     <!-- c0 -->
     <g transform="translate(96.127362 586.675563)scale(0.1625 -0.1625)">
      <use xlink:href="#DejaVuSans-63"/>
      <use x="54.980469" xlink:href="#DejaVuSans-30"/>
     </g>
    </g>
   </g>
   <g id="text_77">
    <g clip-path="url(#p2fa52eaf07)">
     <!-- 3 -->
     <g transform="translate(132.892965 632.503441)scale(0.104 -0.104)">
      <use xlink:href="#DejaVuSans-33"/>
     </g>
    </g>
   </g>
   <g id="text_78">
    <g clip-path="url(#p2fa52eaf07)">
     <!-- meas -->
     <g transform="translate(71.150604 644.980826)scale(0.1625 -0.1625)">
      <use xlink:href="#DejaVuSans-6d"/>
      <use x="97.412109" xlink:href="#DejaVuSans-65"/>
      <use x="158.935547" xlink:href="#DejaVuSans-61"/>
      <use x="220.214844" xlink:href="#DejaVuSans-73"/>
     </g>
    </g>
   </g>
  </g>
 </g>
 <defs>
  <clipPath id="p2fa52eaf07">
   <rect height="664.68" width="1570.831539" x="25.523531" y="10.8"/>
  </clipPath>
 </defs>
</svg>
